<svg preserveAspectRatio="none" width="100%" height="100%" overflow="visible" style="display: block;" viewBox="0 0 13.3333 13.3333" fill="none" xmlns="http://www.w3.org/2000/svg">
<path id="Vector" fill-rule="evenodd" clip-rule="evenodd" d="M13.3333 9.33333C13.3333 10.0697 12.7364 10.6667 12 10.6667V1.33333H2.66667C2.66667 0.596954 3.26362 0 4 0H12C12.7364 0 13.3333 0.596954 13.3333 1.33333V9.33333ZM0 4C0 3.26362 0.596954 2.66667 1.33333 2.66667H9.33333C10.0697 2.66667 10.6667 3.26362 10.6667 4V12C10.6667 12.7364 10.0697 13.3333 9.33333 13.3333H1.33333C0.596954 13.3333 0 12.7364 0 12V4ZM1.33333 4H9.33333V12H1.33333V4Z" fill="var(--fill-0, #222727)" fill-opacity="0.8"/>
</svg>

