<svg preserveAspectRatio="none" width="100%" height="100%" overflow="visible" style="display: block;" viewBox="0 0 14.6667 14.6667" fill="none" xmlns="http://www.w3.org/2000/svg">
<path id="Vector" fill-rule="evenodd" clip-rule="evenodd" d="M7.33334 1.33335C4.01964 1.33335 1.33335 4.01964 1.33335 7.33334C1.33335 10.647 4.01964 13.3333 7.33334 13.3333C10.647 13.3333 13.3333 10.647 13.3333 7.33334C13.3333 4.01964 10.647 1.33335 7.33334 1.33335ZM0 7.33334C0 3.28325 3.28325 0 7.33334 0C11.3834 0 14.6667 3.28325 14.6667 7.33334C14.6667 11.3834 11.3834 14.6667 7.33334 14.6667C3.28325 14.6667 0 11.3834 0 7.33334ZM4.33333 5.33334C4.33333 4.78105 4.78105 4.33333 5.33334 4.33333C5.88563 4.33333 6.33335 4.78105 6.33335 5.33334C6.33335 5.88563 5.88563 6.33335 5.33334 6.33335C4.78105 6.33335 4.33333 5.88563 4.33333 5.33334ZM8.33333 5.33334C8.33333 4.78105 8.78105 4.33333 9.33334 4.33333C9.88563 4.33333 10.3333 4.78105 10.3333 5.33334C10.3333 5.88563 9.88563 6.33335 9.33334 6.33335C8.78105 6.33335 8.33333 5.88563 8.33333 5.33334ZM5.19971 8.26627L5.19792 8.26389C4.97646 7.97174 4.5603 7.91312 4.26667 8.13334C3.97211 8.35425 3.91242 8.77212 4.13333 9.06668L4.66667 8.66667C4.13333 9.06668 4.13333 9.06668 4.13333 9.06668L4.13478 9.06859L4.1366 9.07101L4.14141 9.07729L4.15561 9.09545C4.1671 9.10997 4.18267 9.12923 4.20224 9.15255C4.24134 9.19913 4.29667 9.26223 4.36763 9.33628C4.50902 9.48381 4.71562 9.67813 4.98289 9.8725C5.51485 10.2594 6.31632 10.6667 7.33334 10.6667C8.35036 10.6667 9.15183 10.2594 9.68379 9.8725C9.95106 9.67813 10.1577 9.48381 10.299 9.33628C10.37 9.26223 10.4253 9.19913 10.4644 9.15255C10.484 9.12923 10.4996 9.10997 10.5111 9.09545L10.5253 9.07729L10.5301 9.07101L10.5319 9.06859L10.5327 9.06757C10.5327 9.06757 10.5333 9.06668 10.5301 9.07101L10.5333 9.06668C10.7543 8.77212 10.6946 8.35425 10.4 8.13334C10.1064 7.91312 9.69022 7.97174 9.46876 8.26389L9.46712 8.26607L9.46775 8.26524L9.46876 8.26389L9.46567 8.26784C9.4617 8.27285 9.45416 8.28224 9.44313 8.29538C9.42103 8.32171 9.38521 8.36278 9.33639 8.41373C9.23819 8.5162 9.09062 8.65522 8.89956 8.79418C8.51485 9.07396 7.98298 9.33333 7.33334 9.33333C6.6837 9.33333 6.15183 9.07396 5.76713 8.79418C5.57606 8.65522 5.42849 8.5162 5.3303 8.41373C5.28147 8.36278 5.24565 8.32171 5.22355 8.29538C5.21252 8.28224 5.20498 8.27285 5.20101 8.26784L5.19792 8.26389L5.19894 8.26524L5.19971 8.26627Z" fill="var(--fill-0, #222727)" fill-opacity="0.8"/>
</svg>

