<svg preserveAspectRatio="none" width="100%" height="100%" overflow="visible" style="display: block;" viewBox="0 0 12.7026 12.6851" fill="none" xmlns="http://www.w3.org/2000/svg">
<path id="Vector" fill-rule="evenodd" clip-rule="evenodd" d="M4.85909 6.9247L2.11948 5.09829L10.8545 1.82266L7.37441 10.5229L5.78459 7.87315C5.80598 7.85644 5.8266 7.83824 5.84628 7.81856L8.17962 5.48522C8.43996 5.22488 8.43996 4.80276 8.17962 4.54242C7.91927 4.28207 7.49716 4.28207 7.23681 4.54242L4.90347 6.87575C4.88773 6.8915 4.87293 6.90784 4.85909 6.9247ZM0.432694 4.30684L11.8002 0.0440227C12.3425 -0.159356 12.8684 0.378041 12.6533 0.915837L8.11323 12.2659C7.90847 12.7778 7.20623 12.8341 6.92258 12.3613L4.5412 8.39237C4.49041 8.30772 4.42147 8.23542 4.33934 8.18066L0.296974 5.48576C-0.155162 5.18433 -0.0761069 4.49764 0.432694 4.30684Z" fill="var(--fill-0, #222727)" fill-opacity="0.8"/>
</svg>

