<svg preserveAspectRatio="none" width="100%" height="100%" overflow="visible" style="display: block;" viewBox="0 0 14 12.6667" fill="none" xmlns="http://www.w3.org/2000/svg">
<g id="Vector">
<path d="M1 2C1.55228 2 2 1.55228 2 1C2 0.447715 1.55228 0 1 0C0.447715 0 0 0.447715 0 1C0 1.55228 0.447715 2 1 2Z" fill="var(--fill-0, #222727)" fill-opacity="0.8"/>
<path d="M4.66667 0.333333C4.29848 0.333333 4 0.63181 4 1C4 1.36819 4.29848 1.66667 4.66667 1.66667H13.3333C13.7015 1.66667 14 1.36819 14 1C14 0.63181 13.7015 0.333333 13.3333 0.333333H4.66667Z" fill="var(--fill-0, #222727)" fill-opacity="0.8"/>
<path d="M4.66667 5.66667C4.29848 5.66667 4 5.96514 4 6.33333C4 6.70152 4.29848 7 4.66667 7H13.3333C13.7015 7 14 6.70152 14 6.33333C14 5.96514 13.7015 5.66667 13.3333 5.66667H4.66667Z" fill="var(--fill-0, #222727)" fill-opacity="0.8"/>
<path d="M4 11.6667C4 11.2985 4.29848 11 4.66667 11H13.3333C13.7015 11 14 11.2985 14 11.6667C14 12.0349 13.7015 12.3333 13.3333 12.3333H4.66667C4.29848 12.3333 4 12.0349 4 11.6667Z" fill="var(--fill-0, #222727)" fill-opacity="0.8"/>
<path d="M2 6.33333C2 6.88562 1.55228 7.33333 1 7.33333C0.447715 7.33333 0 6.88562 0 6.33333C0 5.78105 0.447715 5.33333 1 5.33333C1.55228 5.33333 2 5.78105 2 6.33333Z" fill="var(--fill-0, #222727)" fill-opacity="0.8"/>
<path d="M1 12.6667C1.55228 12.6667 2 12.219 2 11.6667C2 11.1144 1.55228 10.6667 1 10.6667C0.447715 10.6667 0 11.1144 0 11.6667C0 12.219 0.447715 12.6667 1 12.6667Z" fill="var(--fill-0, #222727)" fill-opacity="0.8"/>
</g>
</svg>

