<svg preserveAspectRatio="none" width="100%" height="100%" overflow="visible" style="display: block;" viewBox="0 0 10 12" fill="none" xmlns="http://www.w3.org/2000/svg">
<path id="Vector" fill-rule="evenodd" clip-rule="evenodd" d="M0 0.666667C0 0.298477 0.298477 0 0.666667 0H6C7.84095 0 9.33333 1.49238 9.33333 3.33333C9.33333 4.28714 8.93273 5.14738 8.2906 5.75497C9.31045 6.32499 10 7.4153 10 8.66667C10 10.5076 8.50762 12 6.66667 12H0.666667C0.298477 12 0 11.7015 0 11.3333V0.666667ZM1.33333 6.66667V10.6667H6.66667C7.77124 10.6667 8.66667 9.77124 8.66667 8.66667C8.66667 7.5621 7.77124 6.66667 6.66667 6.66667H1.33333ZM1.33333 5.33333H6C7.10457 5.33333 8 4.4379 8 3.33333C8 2.22876 7.10457 1.33333 6 1.33333H1.33333V5.33333Z" fill="var(--fill-0, #222727)" fill-opacity="0.8"/>
</svg>

