<svg width="24" height="24" viewBox="0 0 24 24" fill="none" xmlns="http://www.w3.org/2000/svg"><path d="M18.4072 4.99748C17.8092 4.99748 17.3195 5.46683 17.3195 6.03713V11.5584C17.3195 11.8006 17.1133 11.9975 16.8608 11.9975C16.6082 11.9975 16.402 11.8006 16.402 11.5584V3.41276C16.402 2.84247 15.9123 2.37311 15.3143 2.37311C14.7164 2.37311 14.2267 2.84247 14.2267 3.41276V9.81218C14.2267 10.0544 14.0205 10.2513 13.7679 10.2513C13.5153 10.2513 13.3091 10.0544 13.3091 9.81218V2.53965C13.3091 1.96936 12.8194 1.5 12.2215 1.5C11.6235 1.5 11.1338 1.96936 11.1338 2.53965V10.6853C11.1338 10.9275 10.9276 11.1244 10.675 11.1244C10.4225 11.1244 10.2163 10.9275 10.2163 10.6853V4.28587C10.2163 3.71557 9.72657 3.24621 9.12862 3.24621C8.53066 3.24621 8.04096 3.71557 8.04096 4.28587V15.3032L6.60794 14.1121C5.26254 12.9665 4.12334 12.4769 3.19548 13.3198C2.57176 13.9153 3.55116 14.8792 4.57696 16.0047C5.56668 17.0898 8.18529 20.6428 10.4173 21.9247C10.4173 21.9247 11.2782 22.5 12.5101 22.5H15.4587C17.835 22.5 19.5 20.5872 19.5 17.7963V6.03713C19.4948 5.46683 19.0051 4.99748 18.4072 4.99748Z" fill="#222727"/></svg>