<svg width="24" height="24" viewBox="0 0 24 24" fill="none" xmlns="http://www.w3.org/2000/svg"><path fill-rule="evenodd" clip-rule="evenodd" d="M3.99989 19V9.05169C3.99989 7.18147 4.84275 5.38784 6.34304 4.06539C7.84333 2.74294 9.87816 2 11.9999 2C14.1216 2 16.1565 2.74294 17.6567 4.06539C19.157 5.38784 19.9999 7.18147 19.9999 9.05169V19H20.1667C20.9951 19 21.6667 19.6716 21.6667 20.5C21.6667 21.3284 20.9951 22 20.1667 22H3.5C2.67157 22 2 21.3284 2 20.5C2 19.6716 2.67157 19 3.5 19H3.99989ZM13.5445 6.75556C13.9863 7.08693 14.0759 7.71373 13.7445 8.15556L11.6112 11H14.0556C14.4344 11 14.7806 11.214 14.95 11.5528C15.1194 11.8916 15.0829 12.297 14.8556 12.6L11.5223 17.0444C11.1909 17.4863 10.5641 17.5758 10.1223 17.2444C9.68045 16.9131 9.59091 16.2863 9.92228 15.8444L12.0556 13H9.61117C9.23239 13 8.88613 12.786 8.71674 12.4472C8.54735 12.1084 8.5839 11.703 8.81117 11.4L12.1445 6.95556C12.4759 6.51373 13.1027 6.42418 13.5445 6.75556Z" fill="#333333"/></svg>