<svg width="24" height="24" viewBox="0 0 24 24" fill="none" xmlns="http://www.w3.org/2000/svg">
<path d="M12.9997 9C12.9997 8.44772 12.552 8 11.9997 8C11.4474 8 10.9997 8.44772 10.9997 9V13C10.9997 13.5523 11.4474 14 11.9997 14C12.552 14 12.9997 13.5523 12.9997 13V9Z" fill="black"/>
<path d="M11.9997 16C11.4474 16 10.9997 16.4477 10.9997 17C10.9997 17.5523 11.4474 18 11.9997 18H12.0097C12.562 18 13.0097 17.5523 13.0097 17C13.0097 16.4477 12.562 16 12.0097 16H11.9997Z" fill="black"/>
<path fill-rule="evenodd" clip-rule="evenodd" d="M13.7419 2.0527C12.9767 0.696219 11.0231 0.696221 10.258 2.0527L0.970191 18.5174C0.21811 19.8506 1.18142 21.5 2.71215 21.5H21.2877C22.8184 21.5 23.7817 19.8506 23.0296 18.5174L13.7419 2.0527ZM11.9999 3.03534L21.2877 19.5H2.71215L11.9999 3.03534Z" fill="black"/>
</svg>
