<svg width="24" height="24" viewBox="0 0 24 24" fill="none" xmlns="http://www.w3.org/2000/svg">
<path fill-rule="evenodd" clip-rule="evenodd" d="M11.597 1.18498C11.8628 1.13031 12.137 1.13031 12.4028 1.18498C12.7101 1.24818 12.9847 1.40201 13.203 1.5243C13.2234 1.53569 13.2432 1.54681 13.2626 1.55755L20.6626 5.66866C20.683 5.68002 20.7041 5.69164 20.7257 5.70353C20.9568 5.83084 21.2474 5.99091 21.4706 6.23309C21.6636 6.44246 21.8096 6.69063 21.8989 6.96098C22.0022 7.27368 22.001 7.60547 22.0001 7.86933C22 7.89399 21.9999 7.91806 21.9999 7.94147V16.0586C21.9999 16.082 22 16.1061 22.0001 16.1307C22.001 16.3946 22.0022 16.7264 21.8989 17.0391C21.8096 17.3094 21.6636 17.5576 21.4706 17.767C21.2474 18.0091 20.9568 18.1692 20.7257 18.2965C20.7041 18.3084 20.683 18.32 20.6626 18.3314L13.2626 22.4425C13.2432 22.4532 13.2234 22.4644 13.203 22.4757C12.9847 22.598 12.7101 22.7519 12.4028 22.8151C12.137 22.8697 11.8628 22.8697 11.597 22.8151C11.2897 22.7519 11.0151 22.598 10.7967 22.4757C10.7764 22.4644 10.7565 22.4532 10.7372 22.4425L3.33721 18.3314C3.31675 18.32 3.29568 18.3084 3.27408 18.2965C3.04295 18.1692 2.75233 18.0091 2.52915 17.767C2.3362 17.5576 2.19018 17.3094 2.10085 17.0391C1.99753 16.7264 1.99874 16.3946 1.9997 16.1307C1.99979 16.106 1.99988 16.082 1.99988 16.0586V7.94147C1.99988 7.91807 1.99979 7.894 1.9997 7.86934C1.99874 7.60547 1.99753 7.27369 2.10085 6.96098C2.19017 6.69063 2.3362 6.44247 2.52915 6.23309C2.75232 5.99091 3.04294 5.83084 3.27407 5.70353C3.29567 5.69164 3.31675 5.68002 3.33721 5.66866L10.7372 1.55755C10.7565 1.5468 10.7764 1.53569 10.7967 1.5243C11.0151 1.40201 11.2897 1.24818 11.597 1.18498ZM11.9999 3.14901C11.9984 3.14974 11.9968 3.1505 11.9951 3.1513C11.9374 3.17913 11.86 3.22167 11.7085 3.30586L4.30849 7.41697C4.14854 7.50584 4.06688 7.55168 4.00958 7.58819C4.00789 7.58926 4.00628 7.59029 4.00475 7.59129C4.00462 7.59311 4.0045 7.59503 4.00438 7.59702C4.0003 7.66484 3.99988 7.75849 3.99988 7.94147V16.0586C3.99988 16.2416 4.0003 16.3352 4.00438 16.403C4.0045 16.405 4.00462 16.4069 4.00474 16.4088C4.00628 16.4097 4.00789 16.4108 4.00958 16.4119C4.06688 16.4484 4.14854 16.4942 4.3085 16.5831L11.7085 20.6942C11.86 20.7784 11.9374 20.8209 11.9951 20.8487C11.9968 20.8495 11.9984 20.8503 11.9999 20.851C12.0014 20.8503 12.003 20.8495 12.0047 20.8487C12.0624 20.8209 12.1397 20.7784 12.2913 20.6942L19.6913 16.5831C19.8512 16.4942 19.9329 16.4484 19.9902 16.4119C19.9919 16.4108 19.9935 16.4097 19.995 16.4088C19.9951 16.4069 19.9953 16.405 19.9954 16.403C19.9995 16.3352 19.9999 16.2416 19.9999 16.0586V7.94147C19.9999 7.75849 19.9995 7.66484 19.9954 7.59702C19.9953 7.59503 19.9951 7.59311 19.995 7.59129C19.9935 7.59029 19.9919 7.58926 19.9902 7.58818C19.9329 7.55168 19.8512 7.50584 19.6913 7.41697L12.2913 3.30586C12.1397 3.22167 12.0624 3.17913 12.0047 3.1513C12.003 3.1505 12.0014 3.14974 11.9999 3.14901ZM11.9999 7.00002C12.5522 7.00002 12.9999 7.44774 12.9999 8.00002V12C12.9999 12.5523 12.5522 13 11.9999 13C11.4476 13 10.9999 12.5523 10.9999 12V8.00002C10.9999 7.44774 11.4476 7.00002 11.9999 7.00002ZM10.9999 16C10.9999 15.4477 11.4476 15 11.9999 15H12.0099C12.5622 15 13.0099 15.4477 13.0099 16C13.0099 16.5523 12.5622 17 12.0099 17H11.9999C11.4476 17 10.9999 16.5523 10.9999 16Z" fill="black"/>
</svg>
