<svg width="24" height="24" viewBox="0 0 24 24" fill="none" xmlns="http://www.w3.org/2000/svg">
<path fill-rule="evenodd" clip-rule="evenodd" d="M8.47165 0.999916C8.48909 0.999963 8.50612 1.00001 8.52269 1.00001H15.4772C15.4938 1.00001 15.5108 0.999963 15.5282 0.999916C15.7182 0.999409 15.9573 0.99877 16.1926 1.05527C16.3967 1.10426 16.5918 1.18507 16.7707 1.29473C16.9771 1.42118 17.1457 1.59073 17.2797 1.72538C17.292 1.73774 17.304 1.74981 17.3157 1.76153L22.2384 6.68427C22.2501 6.69599 22.2622 6.708 22.2746 6.72031C22.4092 6.85424 22.5788 7.02288 22.7052 7.22922C22.8149 7.40817 22.8957 7.60326 22.9447 7.80733C23.0012 8.04266 23.0005 8.2818 23 8.47171C23 8.48915 22.9999 8.50618 22.9999 8.52275V15.4773C22.9999 15.4938 23 15.5109 23 15.5283C23.0005 15.7182 23.0012 15.9574 22.9447 16.1927C22.8957 16.3968 22.8149 16.5918 22.7052 16.7708C22.5788 16.9771 22.4092 17.1458 22.2746 17.2797C22.2622 17.292 22.2501 17.304 22.2384 17.3157L17.3157 22.2385C17.304 22.2502 17.292 22.2623 17.2797 22.2746C17.1457 22.4093 16.9771 22.5788 16.7707 22.7053C16.5918 22.8149 16.3967 22.8958 16.1926 22.9447C15.9573 23.0012 15.7182 23.0006 15.5282 23.0001C15.5108 23.0001 15.4938 23 15.4772 23H8.52269C8.50612 23 8.48909 23.0001 8.47164 23.0001C8.28173 23.0006 8.0426 23.0012 7.80727 22.9447C7.6032 22.8958 7.40811 22.8149 7.22916 22.7053C7.02282 22.5788 6.85417 22.4093 6.72025 22.2747C6.70794 22.2623 6.69593 22.2502 6.68421 22.2385L1.76147 17.3157C1.74975 17.304 1.73768 17.292 1.72532 17.2797C1.59067 17.1458 1.42112 16.9771 1.29467 16.7708C1.18501 16.5918 1.1042 16.3968 1.05521 16.1927C0.998709 15.9574 0.999348 15.7182 0.999855 15.5283C0.999902 15.5109 0.999947 15.4938 0.999947 15.4773V8.52275C0.999947 8.50618 0.999902 8.48915 0.999855 8.47171C0.999348 8.2818 0.998709 8.04266 1.05521 7.80733C1.1042 7.60326 1.18501 7.40817 1.29467 7.22922C1.42112 7.02287 1.59067 6.85423 1.72531 6.7203C1.73768 6.708 1.74975 6.69599 1.76147 6.68427L6.68421 1.76153C6.69593 1.74981 6.70794 1.73774 6.72024 1.72538C6.85417 1.59073 7.02281 1.42118 7.22916 1.29473C7.40811 1.18507 7.6032 1.10426 7.80727 1.05527C8.0426 0.99877 8.28174 0.999409 8.47165 0.999916ZM8.27523 3.00259C8.27438 3.00336 8.27349 3.00416 8.27257 3.005C8.23746 3.03705 8.19106 3.08311 8.09842 3.17574L3.17568 8.09849C3.08305 8.19112 3.03699 8.23752 3.00494 8.27263C3.0041 8.27355 3.0033 8.27444 3.00253 8.27529C3.00247 8.27644 3.00241 8.27763 3.00236 8.27888C3.00019 8.32637 2.99995 8.39175 2.99995 8.52275V15.4773C2.99995 15.6083 3.00019 15.6736 3.00236 15.7211C3.00241 15.7224 3.00247 15.7236 3.00253 15.7247C3.0033 15.7256 3.0041 15.7265 3.00494 15.7274C3.03699 15.7625 3.08305 15.8089 3.17568 15.9015L8.09842 20.8243C8.19106 20.9169 8.23746 20.963 8.27257 20.995C8.27349 20.9959 8.27438 20.9967 8.27523 20.9974C8.27638 20.9975 8.27757 20.9975 8.27881 20.9976C8.32631 20.9998 8.39169 21 8.52269 21H15.4772C15.6082 21 15.6736 20.9998 15.7211 20.9976C15.7223 20.9975 15.7235 20.9975 15.7247 20.9974C15.7255 20.9967 15.7264 20.9959 15.7273 20.995C15.7624 20.963 15.8088 20.9169 15.9015 20.8243L20.8242 15.9015C20.9168 15.8089 20.9629 15.7625 20.995 15.7274C20.9958 15.7265 20.9966 15.7256 20.9974 15.7247C20.9974 15.7236 20.9975 15.7224 20.9975 15.7211C20.9997 15.6736 20.9999 15.6083 20.9999 15.4773V8.52275C20.9999 8.39175 20.9997 8.32637 20.9975 8.27888C20.9975 8.27763 20.9974 8.27644 20.9974 8.27529C20.9966 8.27444 20.9958 8.27356 20.995 8.27264C20.9629 8.23752 20.9168 8.19112 20.8242 8.09849L15.9015 3.17574C15.8088 3.08311 15.7624 3.03705 15.7273 3.005C15.7264 3.00416 15.7255 3.00336 15.7247 3.00259C15.7235 3.00253 15.7223 3.00247 15.7211 3.00242C15.6736 3.00025 15.6082 3.00001 15.4772 3.00001H8.52269C8.39169 3.00001 8.32631 3.00025 8.27882 3.00242C8.27757 3.00247 8.27638 3.00253 8.27523 3.00259ZM11.9999 7.00001C12.5522 7.00001 12.9999 7.44772 12.9999 8.00001V12C12.9999 12.5523 12.5522 13 11.9999 13C11.4477 13 10.9999 12.5523 10.9999 12V8.00001C10.9999 7.44772 11.4477 7.00001 11.9999 7.00001ZM10.9999 16C10.9999 15.4477 11.4477 15 11.9999 15H12.0099C12.5622 15 13.0099 15.4477 13.0099 16C13.0099 16.5523 12.5622 17 12.0099 17H11.9999C11.4477 17 10.9999 16.5523 10.9999 16Z" fill="black"/>
</svg>
