<svg width="24" height="24" viewBox="0 0 24 24" fill="none" xmlns="http://www.w3.org/2000/svg">
<path fill-rule="evenodd" clip-rule="evenodd" d="M8.56579 3.08496C5.80273 3.08496 3.08008 5.09969 3.08008 8.1421C3.08008 11.1845 5.80273 13.1992 8.56579 13.1992C11.3289 13.1992 14.0515 11.1845 14.0515 8.1421C14.0515 5.09969 11.3289 3.08496 8.56579 3.08496ZM19.3155 3.14545C20.6028 2.92168 21.8277 3.78378 22.0515 5.07103L22.052 5.07423L22.0526 5.07747L22.0537 5.08411L22.056 5.09796L22.0607 5.12794C22.0639 5.14893 22.0671 5.17194 22.0703 5.19697C22.0768 5.24703 22.0832 5.3051 22.0887 5.37118C22.0999 5.50341 22.1078 5.66722 22.1068 5.86259C22.105 6.25389 22.0677 6.76781 21.9523 7.40438C21.7213 8.67869 21.1807 10.426 20.0045 12.6545C18.9158 14.7171 18.2591 15.8406 17.8538 16.4691C17.6536 16.7795 17.4845 17.0166 17.329 17.2013C17.251 17.294 17.1479 17.4077 17.0198 17.521C16.9967 17.5414 16.9711 17.5633 16.9429 17.5863C16.9286 17.8476 16.9294 18.1416 16.9379 18.4599C16.9414 18.5923 16.947 18.7433 16.9527 18.8988C16.9633 19.1842 16.9744 19.4849 16.9744 19.7149C16.9744 20.1241 16.8118 20.5165 16.5225 20.8059C16.2332 21.0952 15.8407 21.2577 15.4315 21.2577L3.43153 21.2577C2.57943 21.2577 1.88867 20.567 1.88867 19.7149C1.88867 17.5523 2.81392 15.9634 4.38997 15.0095C5.83607 14.1342 7.67629 13.8863 9.43153 13.8863C10.0927 13.8863 11.3157 13.8855 12.4688 13.785C13.0481 13.7345 13.5623 13.6625 13.9556 13.5677C14.0148 13.5534 14.067 13.5396 14.1127 13.5266C14.4484 12.9712 14.9861 12.026 15.8202 10.4459C16.7986 8.59227 17.1622 7.30261 17.2967 6.56046C17.3641 6.18879 17.3749 5.94961 17.3755 5.83986C17.3756 5.81209 17.3751 5.7923 17.3746 5.78043C17.2116 4.53069 18.062 3.36337 19.3155 3.14545Z" fill="black"/>
</svg>
