<svg width="24" height="24" viewBox="0 0 24 24" fill="none" xmlns="http://www.w3.org/2000/svg">
<path fill-rule="evenodd" clip-rule="evenodd" d="M14.3315 3.30563C11.3261 2.50302 7.99071 3.28148 5.63604 5.63615C2.12132 9.15087 2.12132 14.8494 5.63604 18.3641C9.15076 21.8788 14.8492 21.8788 18.364 18.3641C20.7186 16.0094 21.4971 12.674 20.6945 9.66857C20.552 9.13498 20.869 8.58691 21.4026 8.44442C21.9362 8.30192 22.4843 8.61896 22.6268 9.15255C23.606 12.8194 22.6581 16.8984 19.7782 19.7783C15.4824 24.0741 8.51759 24.0741 4.22183 19.7783C-0.0739412 15.4825 -0.0739419 8.5177 4.22182 4.22194C7.10174 1.34202 11.1807 0.394108 14.8476 1.37335C15.3811 1.51584 15.6982 2.06391 15.5557 2.5975C15.4132 3.13109 14.8651 3.44813 14.3315 3.30563ZM19.7071 4.29295C20.0977 4.68347 20.0977 5.31663 19.7072 5.70716L11.4144 14.0001H15.0002C15.5525 14.0001 16.0002 14.4478 16.0002 15.0001C16.0002 15.5524 15.5525 16.0001 15.0002 16.0001H9.00023C8.44795 16.0001 8.00023 15.5524 8.00023 15.0001V9.00012C8.00023 8.44783 8.44795 8.00012 9.00023 8.00012C9.55252 8.00012 10.0002 8.44783 10.0002 9.00012V12.5859L18.2929 4.29296C18.6835 3.90243 19.3166 3.90243 19.7071 4.29295Z" fill="black"/>
</svg>
