<svg width="24" height="24" viewBox="0 0 24 24" fill="none" xmlns="http://www.w3.org/2000/svg">
<path fill-rule="evenodd" clip-rule="evenodd" d="M18.3641 5.63615C16.0094 3.28148 12.674 2.50302 9.66857 3.30563C9.13498 3.44813 8.58691 3.13109 8.44442 2.5975C8.30192 2.06391 8.61897 1.51584 9.15255 1.37335C12.8194 0.394109 16.8984 1.34202 19.7783 4.22194C24.0741 8.5177 24.0741 15.4825 19.7783 19.7783C15.4825 24.0741 8.5177 24.0741 4.22194 19.7783C1.34202 16.8984 0.394108 12.8194 1.37335 9.15255C1.51584 8.61896 2.06392 8.30192 2.5975 8.44442C3.13109 8.58691 3.44813 9.13498 3.30563 9.66857C2.50302 12.674 3.28148 16.0094 5.63615 18.3641C9.15087 21.8788 14.8494 21.8788 18.3641 18.3641C21.8788 14.8494 21.8788 9.15087 18.3641 5.63615ZM4.29295 4.29296C4.68347 3.90243 5.31664 3.90243 5.70716 4.29295L14.0002 12.5859V9.00012C14.0002 8.44783 14.448 8.00012 15.0002 8.00012C15.5525 8.00012 16.0002 8.44783 16.0002 9.00012V15.0001C16.0002 15.5524 15.5525 16.0001 15.0002 16.0001H9.00025C8.44796 16.0001 8.00025 15.5524 8.00025 15.0001C8.00025 14.4478 8.44796 14.0001 9.00025 14.0001H12.586L4.29296 5.70717C3.90243 5.31665 3.90243 4.68349 4.29295 4.29296Z" fill="black"/>
</svg>
