<svg width="24" height="24" viewBox="0 0 24 24" fill="none" xmlns="http://www.w3.org/2000/svg">
<path fill-rule="evenodd" clip-rule="evenodd" d="M18.3641 5.63604C14.8494 2.12132 9.15087 2.12132 5.63615 5.63604C3.28148 7.99071 2.50302 11.3261 3.30563 14.3315C3.44813 14.8651 3.13109 15.4132 2.5975 15.5557C2.06391 15.6982 1.51584 15.3811 1.37335 14.8476C0.394109 11.1807 1.34202 7.10174 4.22194 4.22183C8.5177 -0.0739417 15.4825 -0.0739419 19.7783 4.22183C24.0741 8.51759 24.0741 15.4824 19.7783 19.7782C16.8984 22.6581 12.8194 23.606 9.15255 22.6268C8.61896 22.4843 8.30192 21.9362 8.44442 21.4026C8.58691 20.869 9.13498 20.552 9.66857 20.6945C12.674 21.4971 16.0094 20.7186 18.3641 18.364C21.8788 14.8492 21.8788 9.15076 18.3641 5.63604ZM8.00025 9.0001C8.00025 8.44782 8.44796 8.0001 9.00025 8.0001H15.0002C15.5525 8.0001 16.0002 8.44782 16.0002 9.0001V15.0001C16.0002 15.5524 15.5525 16.0001 15.0002 16.0001C14.448 16.0001 14.0002 15.5524 14.0002 15.0001V11.4143L5.70716 19.7072C5.31663 20.0977 4.68347 20.0977 4.29295 19.7071C3.90243 19.3166 3.90243 18.6835 4.29296 18.2929L12.586 10.0001H9.00025C8.44796 10.0001 8.00025 9.55239 8.00025 9.0001Z" fill="black"/>
</svg>
