<svg width="24" height="24" viewBox="0 0 24 24" fill="none" xmlns="http://www.w3.org/2000/svg"><g opacity="0.99"><path fill-rule="evenodd" clip-rule="evenodd" d="M5 19.5C5 20.3284 5.67157 21 6.5 21C7.32843 21 8 20.3284 8 19.5V8.12132L9.43934 9.56066C10.0251 10.1464 10.9749 10.1464 11.5607 9.56066C12.1464 8.97487 12.1464 8.02512 11.5607 7.43934L7.56066 3.43934C6.97487 2.85355 6.02513 2.85355 5.43934 3.43934L1.43934 7.43934C0.853554 8.02512 0.853553 8.97487 1.43934 9.56066C2.02513 10.1464 2.97487 10.1464 3.56066 9.56066L5 8.12132V19.5ZM13.5 3C12.6716 3 12 3.67157 12 4.5C12 5.32843 12.6716 6 13.5 6H21.5C22.3284 6 23 5.32843 23 4.5C23 3.67157 22.3284 3 21.5 3H13.5ZM12 12C12 11.1716 12.6716 10.5 13.5 10.5H21.5C22.3284 10.5 23 11.1716 23 12C23 12.8284 22.3284 13.5 21.5 13.5H13.5C12.6716 13.5 12 12.8284 12 12ZM12 19.5C12 18.6716 12.6716 18 13.5 18H21.5C22.3284 18 23 18.6716 23 19.5C23 20.3284 22.3284 21 21.5 21H13.5C12.6716 21 12 20.3284 12 19.5Z" fill="#222727"/></g></svg>