<svg width="24" height="24" viewBox="0 0 24 24" fill="none" xmlns="http://www.w3.org/2000/svg">
<path d="M23.9544 14.2227L21.415 11.5714C21.3239 11.4762 21.1761 11.4762 21.085 11.5714L18.5456 14.2227C18.5164 14.2532 18.5 14.2945 18.5 14.3376C18.5 14.4273 18.5696 14.5 18.6556 14.5L20.1263 14.5003C19.0587 17.9745 15.8243 20.5 12 20.5C8.44398 20.5 5.39798 18.3163 4.12978 15.2168C3.95839 14.7979 3.5646 14.4998 3.11199 14.4998C2.44382 14.4998 1.95141 15.128 2.19024 15.7521C3.70042 19.698 7.52299 22.5 12 22.5C16.9374 22.5 21.0788 19.0922 22.2005 14.5003L23.8444 14.5C23.8857 14.5 23.9253 14.4829 23.9544 14.4524C24.0152 14.389 24.0152 14.2862 23.9544 14.2227Z" fill="black"/>
<path d="M5.34444 9.5H0.155564L0.119894 9.50429C0.0511701 9.52112 0 9.58553 0 9.66242C0 9.7055 0.0163897 9.74681 0.0455635 9.77727L2.585 12.4286L2.62161 12.4599C2.71218 12.5223 2.83526 12.5119 2.915 12.4286L5.45444 9.77727L5.47675 9.7479C5.51395 9.68526 5.50651 9.60194 5.45444 9.54757C5.42526 9.51711 5.38569 9.5 5.34444 9.5Z" fill="black"/>
<path d="M21.8098 8.24792C20.2996 4.30196 16.477 1.5 12 1.5C7.06263 1.5 2.9212 4.90783 1.79952 9.49968L3.87368 9.49973C4.94134 6.02553 8.17573 3.5 12 3.5C15.556 3.5 18.602 5.68366 19.8702 8.78321C20.0416 9.20211 20.4354 9.50022 20.888 9.50021C21.5562 9.5002 22.0486 8.87196 21.8098 8.24792Z" fill="black"/>
<path fill-rule="evenodd" clip-rule="evenodd" d="M10.8453 6.44303H13.1842L17.25 16.943H14.9339L13.6322 14.0452H10.298L9.10211 16.943H6.75L10.8453 6.44303ZM10.9003 11.693H13.0853L12.0173 8.75269L10.9003 11.693Z" fill="black"/>
</svg>
