<svg width="24" height="24" viewBox="0 0 24 24" fill="none" xmlns="http://www.w3.org/2000/svg">
<path fill-rule="evenodd" clip-rule="evenodd" d="M14.7274 1.07992C15.2479 0.885469 15.8301 1.12803 16.0585 1.63457L17.0855 3.91185C17.1906 4.14497 17.3769 4.33198 17.6095 4.43809L19.8825 5.47468C20.388 5.70525 20.6281 6.2884 20.4315 6.8081L19.5474 9.14458C19.4569 9.38376 19.4564 9.64767 19.5459 9.88723L20.4201 12.2274C20.6145 12.7479 20.372 13.3301 19.8654 13.5585L17.5881 14.5855C17.355 14.6906 17.168 14.8769 17.0619 15.1095L16.9505 15.3537L16.9884 15.3479L17.9884 21.8479C18.0474 22.2311 17.8795 22.6139 17.5576 22.8301C17.2358 23.0463 16.818 23.0569 16.4855 22.8575L12 20.1661L7.51452 22.8575C7.18206 23.0569 6.76425 23.0463 6.44241 22.8301C6.12057 22.6139 5.9527 22.2311 6.01166 21.8479L7.01166 15.3479L7.03312 15.3512L6.91449 15.0881C6.80936 14.855 6.62314 14.668 6.39046 14.5619L4.11753 13.5253C3.61196 13.2948 3.37185 12.7116 3.5685 12.1919L4.45258 9.85542C4.54309 9.61624 4.54364 9.35233 4.45415 9.11277L3.57992 6.77258C3.38547 6.25206 3.62803 5.66993 4.13457 5.44149L6.41185 4.41449C6.64497 4.30936 6.83198 4.12314 6.93809 3.89046L7.97468 1.61753C8.20525 1.11196 8.7884 0.871854 9.3081 1.0685L11.6446 1.95258C11.8838 2.04309 12.1477 2.04364 12.3872 1.95415L14.7274 1.07992ZM13.0871 3.82769L14.5989 3.26294L15.2623 4.73406C15.5667 5.40906 16.1059 5.95053 16.7796 6.25779L18.248 6.92742L17.6768 8.43679C17.4148 9.12934 17.4132 9.89349 17.6723 10.5871L18.2371 12.0989L16.7659 12.7623C16.0909 13.0667 15.5495 13.6059 15.2422 14.2796L14.5726 15.748L13.0632 15.1768C12.3707 14.9148 11.6065 14.9132 10.9129 15.1723L9.40111 15.7371L8.73767 14.2659C8.43326 13.5909 7.89406 13.0495 7.22035 12.7422L5.75204 12.0726L6.32315 10.5632C6.5852 9.87066 6.58681 9.10651 6.32769 8.41287L5.76294 6.90111L7.23406 6.23767C7.90906 5.93326 8.45053 5.39406 8.75779 4.72035L9.42742 3.25204L10.9368 3.82315C11.6293 4.0852 12.3935 4.08681 13.0871 3.82769ZM8.63455 17.952L8.31235 20.0464L10.971 18.4512C11.6044 18.0711 12.3957 18.0711 13.029 18.4512L15.6877 20.0464L15.3661 17.956C15.1518 18.0199 14.916 18.0163 14.6919 17.9315L12.3554 17.0474C12.1162 16.9569 11.8523 16.9564 11.6128 17.0459L9.27258 17.9201C9.06078 17.9992 8.83878 18.006 8.63455 17.952Z" fill="black"/>
</svg>
