<svg width="24" height="24" viewBox="0 0 24 24" fill="none" xmlns="http://www.w3.org/2000/svg">
<path d="M12.472 12.1183C12.7971 12.2923 13.0001 12.6312 13.0001 13V17H13.2501C13.8024 17 14.2501 17.4477 14.2501 18C14.2501 18.5523 13.8024 19 13.2501 19H10.7501C10.1978 19 9.75011 18.5523 9.75011 18C9.75011 17.4477 10.1978 17 10.7501 17H11.0001V14.8661C10.5471 15.1282 9.96241 14.9962 9.66806 14.5547C9.3617 14.0952 9.48588 13.4743 9.94541 13.168L11.4454 12.168C11.7523 11.9634 12.1468 11.9443 12.472 12.1183Z" fill="black"/>
<path fill-rule="evenodd" clip-rule="evenodd" d="M3.69965 1C2.17469 1 1.21075 2.63822 1.95134 3.97129L5.91782 11.1109C5.02583 12.3449 4.50012 13.8611 4.50012 15.5C4.50012 19.6421 7.85799 23 12.0001 23C16.1423 23 19.5001 19.6421 19.5001 15.5C19.5001 13.8611 18.9744 12.3449 18.0824 11.111L22.0489 3.97129C22.7895 2.63823 21.8256 1 20.3006 1H16.5805C15.8627 1 15.2001 1.38457 14.844 2.00772L11.9498 7.07248L8.63655 1.91849C8.26855 1.34604 7.63472 1 6.95419 1H3.69965ZM16.6331 9.60163L20.3006 3H16.5805L13.6863 8.06476C13.6647 8.1026 13.6421 8.13938 13.6187 8.1751C14.7376 8.42124 15.7629 8.91724 16.6331 9.60163ZM10.2944 8.19482C10.2853 8.18137 10.2763 8.16776 10.2675 8.154L6.95419 3L3.69965 3L7.36722 9.60161C8.21469 8.93504 9.20934 8.44718 10.2944 8.19482ZM12.0001 10C8.96256 10 6.50012 12.4624 6.50012 15.5C6.50012 18.5376 8.96256 21 12.0001 21C15.0377 21 17.5001 18.5376 17.5001 15.5C17.5001 12.4624 15.0377 10 12.0001 10Z" fill="black"/>
</svg>
