<svg width="24" height="24" viewBox="0 0 24 24" fill="none" xmlns="http://www.w3.org/2000/svg">
<path fill-rule="evenodd" clip-rule="evenodd" d="M4.39102 2.71341C4.39102 2.24639 4.76961 1.8678 5.23663 1.8678H18.7664C19.2334 1.8678 19.612 2.24639 19.612 2.71341C19.612 3.18043 19.2334 3.55902 18.7664 3.55902H5.23663C4.76961 3.55902 4.39102 3.18043 4.39102 2.71341ZM12.9321 7.79644L12.9306 21.2025C12.9306 21.7163 12.5141 22.1327 12.0004 22.1326C11.4867 22.1326 11.0702 21.7161 11.0703 21.2023L11.0717 7.90818L5.5879 13.392C5.22465 13.7552 4.6357 13.7552 4.27244 13.392C3.90919 13.0287 3.90919 12.4398 4.27244 12.0765L10.7343 5.61463C11.4653 4.88372 12.6503 4.88373 13.3812 5.61463L19.7276 11.961C20.0908 12.3243 20.0908 12.9132 19.7276 13.2765C19.3643 13.6397 18.7754 13.6397 18.4121 13.2765L12.9321 7.79644Z" fill="black"/>
</svg>
