<svg width="24" height="24" viewBox="0 0 24 24" fill="none" xmlns="http://www.w3.org/2000/svg">
<path fill-rule="evenodd" clip-rule="evenodd" d="M12.0548 5.16793C12.5143 5.47429 12.6385 6.09516 12.3321 6.55468L9.36861 11H13.5001C13.8689 11 14.2078 11.203 14.3818 11.5281C14.5558 11.8533 14.5367 12.2478 14.3321 12.5547L10.3321 18.5547C10.0258 19.0142 9.40492 19.1384 8.9454 18.832C8.48587 18.5257 8.36169 17.9048 8.66805 17.4453L11.6316 13H7.5001C7.1313 13 6.79244 12.797 6.61842 12.4718C6.4444 12.1467 6.46348 11.7521 6.66805 11.4453L10.668 5.44528C10.9744 4.98576 11.5953 4.86158 12.0548 5.16793ZM16.5177 7.06813C16.2955 7.00857 15.9944 6.99998 15.0001 6.99998C14.4478 6.99998 14.0001 6.55227 14.0001 5.99998C14.0001 5.4477 14.4478 4.99998 15.0001 4.99998C15.0466 4.99998 15.0925 4.99996 15.1377 4.99993C15.9331 4.9995 16.5237 4.99918 17.0354 5.13628C18.4157 5.50615 19.4939 6.58434 19.8638 7.96471C20.0009 8.47636 20.0006 9.06702 20.0001 9.86241C20.0001 9.9076 20.0001 9.95345 20.0001 9.99998V13.2413C20.0001 14.0463 20.0001 14.7106 19.9559 15.2518C19.91 15.8139 19.8114 16.3306 19.5641 16.8159C19.1806 17.5686 18.5687 18.1805 17.8161 18.564C17.3307 18.8113 16.814 18.9099 16.2519 18.9558C15.7107 19 15.0464 19 14.2414 19H14.0001C13.4478 19 13.0001 18.5523 13.0001 18C13.0001 17.4477 13.4478 17 14.0001 17H14.2001C15.0567 17 15.639 16.9992 16.0891 16.9624C16.5275 16.9266 16.7517 16.8617 16.9081 16.782C17.2844 16.5903 17.5904 16.2843 17.7821 15.908C17.8618 15.7516 17.9267 15.5274 17.9625 15.0889C17.9993 14.6389 18.0001 14.0566 18.0001 13.2V9.99998C18.0001 9.00563 17.9915 8.70462 17.9319 8.48235C17.747 7.79216 17.2079 7.25307 16.5177 7.06813ZM6.7588 4.99998L7.0001 4.99998C7.55238 4.99998 8.0001 5.4477 8.0001 5.99998C8.0001 6.55227 7.55238 6.99998 7.0001 6.99998H6.8001C5.94352 6.99998 5.36122 7.00076 4.91113 7.03754C4.47272 7.07336 4.24852 7.13828 4.09212 7.21797C3.71579 7.40972 3.40983 7.71568 3.21808 8.092C3.13839 8.2484 3.07347 8.47261 3.03765 8.91102C3.00087 9.36111 3.0001 9.9434 3.0001 10.8V14C3.0001 14.9943 3.00869 15.2953 3.06824 15.5176C3.25318 16.2078 3.79227 16.7469 4.48246 16.9318C4.70474 16.9914 5.00574 17 6.0001 17C6.55238 17 7.0001 17.4477 7.0001 18C7.0001 18.5523 6.55238 19 6.0001 19C5.95356 19 5.90771 19 5.86252 19C5.06713 19.0005 4.47647 19.0008 3.96482 18.8637C2.58445 18.4938 1.50626 17.4156 1.13639 16.0353C0.999297 15.5236 0.999617 14.9329 1.00005 14.1376C1.00007 14.0924 1.0001 14.0465 1.0001 14L1.0001 10.7587C1.00008 9.95371 1.00007 9.28935 1.04429 8.74816C1.09022 8.18606 1.18878 7.66936 1.43607 7.18402C1.81956 6.43137 2.43149 5.81945 3.18413 5.43596C3.66947 5.18867 4.18617 5.0901 4.74827 5.04418C5.28947 4.99996 5.95383 4.99997 6.7588 4.99998ZM22.0001 9.99998C22.5524 9.99998 23.0001 10.4477 23.0001 11V13C23.0001 13.5523 22.5524 14 22.0001 14C21.4478 14 21.0001 13.5523 21.0001 13V11C21.0001 10.4477 21.4478 9.99998 22.0001 9.99998Z" fill="black"/>
</svg>
