<svg width="24" height="24" viewBox="0 0 24 24" fill="none" xmlns="http://www.w3.org/2000/svg">
<path fill-rule="evenodd" clip-rule="evenodd" d="M8.27699 1.00001C8.28481 1.00001 8.29252 1.00001 8.30013 1.00001H15.7001C15.7077 1.00001 15.7155 1.00001 15.7233 1.00001C15.8424 0.999961 15.9846 0.999906 16.11 1.01015C16.2552 1.02201 16.4632 1.05245 16.6811 1.1635C16.9634 1.30731 17.1928 1.53678 17.3366 1.81903C17.4477 2.03697 17.4781 2.24496 17.49 2.39018C17.5002 2.5155 17.5002 2.65777 17.5001 2.77688C17.5001 2.7847 17.5001 2.79241 17.5001 2.80001V5.20001C17.5001 5.20761 17.5001 5.21533 17.5001 5.22314C17.5002 5.34226 17.5002 5.48452 17.49 5.60984C17.4781 5.75506 17.4477 5.96305 17.3366 6.181C17.1928 6.46324 16.9634 6.69271 16.6811 6.83652C16.4632 6.94757 16.2552 6.97801 16.11 6.98988C16.0744 6.99278 16.0375 6.99486 16.0001 6.99634V10.5012C16.0001 11.1063 16.0082 11.2253 16.0345 11.3231C16.0649 11.4362 16.1149 11.543 16.1823 11.6388C16.2406 11.7216 16.3269 11.804 16.7917 12.1913L20.4889 15.2723C20.5132 15.2926 20.5374 15.3126 20.5613 15.3325C20.9131 15.6251 21.2232 15.8829 21.4535 16.2102C21.6557 16.4975 21.8058 16.8181 21.8971 17.1574C22.0011 17.5438 22.0007 17.947 22.0002 18.4046C22.0002 18.4357 22.0001 18.4671 22.0001 18.4988V18.8386C22.0001 18.9562 22.0001 19.0702 21.9998 19.1805C22.0003 19.2568 22.0002 19.3353 22.0002 19.4161C22.0002 19.4438 22.0001 19.4718 22.0001 19.5C22.0001 19.5283 22.0002 19.5562 22.0002 19.5839C22.0005 19.9646 22.0007 20.2924 21.9425 20.5853C21.8389 21.1059 21.6026 21.5769 21.2699 21.9618C21.1714 22.0756 21.0646 22.1819 20.9502 22.2797C20.5675 22.6072 20.1008 22.8398 19.5854 22.9424C19.2925 23.0006 18.9647 23.0004 18.584 23.0001C18.5563 23 18.5284 23 18.5001 23H17.9064C17.8839 23 17.8614 23 17.8387 23H6.16156C6.13887 23 6.11631 23 6.09389 23H5.50013C5.47189 23 5.44393 23 5.41626 23.0001C5.03555 23.0004 4.70771 23.0006 4.41486 22.9424C3.83842 22.8277 3.32292 22.5503 2.91768 22.1595C2.87846 22.1217 2.84028 22.0828 2.80317 22.0429C2.43209 21.6439 2.16874 21.1431 2.05777 20.5853C1.99952 20.2924 1.99978 19.9646 2.00008 19.5839C2.00011 19.5562 2.00013 19.5283 2.00013 19.5C2.00013 19.4718 2.00011 19.4438 2.00008 19.4161C2.00002 19.3353 1.99996 19.2569 2.00046 19.1806C2.00012 19.0703 2.00012 18.9562 2.00013 18.8386L2.00013 18.4988C2.00013 18.4671 2.0001 18.4357 2.00006 18.4046C1.99959 17.947 1.99917 17.5438 2.10314 17.1574C2.19442 16.8181 2.34457 16.4975 2.54677 16.2102C2.77709 15.8829 3.08712 15.6251 3.43893 15.3325C3.46288 15.3126 3.48703 15.2926 3.51135 15.2723L7.20854 12.1913C7.67335 11.804 7.75966 11.7216 7.81792 11.6388C7.88531 11.543 7.93537 11.4362 7.96579 11.3231C7.99209 11.2253 8.00013 11.1063 8.00013 10.5012V6.99634C7.96277 6.99486 7.92585 6.99278 7.8903 6.98988C7.74508 6.97801 7.53709 6.94757 7.31914 6.83652C7.0369 6.69271 6.80743 6.46324 6.66362 6.181C6.55257 5.96305 6.52213 5.75506 6.51026 5.60984C6.50002 5.48452 6.50008 5.34227 6.50012 5.22315C6.50013 5.21533 6.50013 5.20762 6.50013 5.20001V2.80001C6.50013 2.79241 6.50013 2.78469 6.50012 2.77687C6.50008 2.65776 6.50002 2.5155 6.51026 2.39018C6.52213 2.24496 6.55257 2.03697 6.66362 1.81903C6.80743 1.53678 7.0369 1.30731 7.31914 1.1635C7.53709 1.05245 7.74508 1.02201 7.8903 1.01015C8.01562 0.999906 8.15787 0.999961 8.27699 1.00001ZM10.0001 7.00001V10.5012C10.0001 10.5329 10.0002 10.5643 10.0002 10.5954C10.0007 11.053 10.0011 11.4562 9.89711 11.8427C9.80584 12.1819 9.65568 12.5025 9.45349 12.7898C9.22316 13.1171 8.91314 13.3749 8.56132 13.6675C8.53737 13.6874 8.51323 13.7075 8.4889 13.7277L5.76218 16H18.2381L15.5114 13.7277C15.487 13.7075 15.4629 13.6874 15.4389 13.6675C15.0871 13.3749 14.7771 13.1171 14.5468 12.7898C14.3446 12.5025 14.1944 12.1819 14.1031 11.8427C13.9992 11.4562 13.9996 11.053 14.0001 10.5954C14.0001 10.5643 14.0001 10.5329 14.0001 10.5012V7.00001H10.0001ZM8.50013 5.00001V3.00001H15.5001V5.00001H8.50013ZM19.9995 19.2345C19.9978 18.9442 19.9924 18.8625 19.9809 18.8049C19.902 18.4082 19.5919 18.0981 19.1952 18.0192C19.123 18.0049 19.0127 18 18.5001 18H5.50013C4.98754 18 4.87729 18.0049 4.80504 18.0192C4.40835 18.0981 4.09825 18.4082 4.01934 18.8049C4.00789 18.8625 4.00249 18.9442 4.00077 19.2345C4.00228 19.576 4.00732 19.8273 4.02406 20.0322C4.04625 20.3038 4.08393 20.4046 4.10912 20.454C4.14593 20.5262 4.19115 20.5933 4.24355 20.6539C4.28787 20.7052 4.33731 20.7519 4.39111 20.7932C4.43943 20.8303 4.4913 20.8631 4.54614 20.891C4.59558 20.9162 4.6963 20.9539 4.96796 20.9761C5.2513 20.9992 5.62358 21 6.20013 21H17.8001C18.3767 21 18.749 20.9992 19.0323 20.9761C19.304 20.9539 19.4047 20.9162 19.4541 20.891C19.5264 20.8542 19.5934 20.809 19.654 20.7566C19.7059 20.7118 19.753 20.6617 19.7947 20.6072C19.8312 20.5594 19.8635 20.5082 19.8911 20.454C19.9163 20.4046 19.954 20.3038 19.9762 20.0322C19.9929 19.8273 19.998 19.576 19.9995 19.2345Z" fill="black"/>
</svg>
