<svg width="24" height="24" viewBox="0 0 24 24" fill="none" xmlns="http://www.w3.org/2000/svg">
<path fill-rule="evenodd" clip-rule="evenodd" d="M10.1551 4.1384C9.94071 3.3382 9.1182 2.86332 8.318 3.07774C7.5178 3.29215 7.04293 4.11466 7.25734 4.91485C7.31456 5.12841 7.41458 5.31839 7.54609 5.47844C7.9585 5.2863 8.39029 5.12892 8.83564 5.00959C9.281 4.89026 9.73362 4.81066 10.1869 4.77085C10.2207 4.56649 10.2123 4.35195 10.1551 4.1384ZM12.1913 4.85738C12.2297 4.45325 12.1981 4.03551 12.087 3.62076C11.5867 1.75363 9.6675 0.645589 7.80036 1.14589C5.93323 1.64618 4.82519 3.56536 5.32549 5.43249C5.43662 5.84724 5.61812 6.22482 5.85348 6.55558C5.35866 6.97264 4.92244 7.45221 4.56238 7.98431C3.58 9.43605 3.24032 11.1735 3.67884 12.8101C4.22434 14.8459 4.10803 16.422 3.78453 17.581L3.77918 17.6001C3.57115 18.3454 3.40868 18.9275 3.30605 19.3416C3.25476 19.5486 3.21189 19.7392 3.18651 19.8993C3.17392 19.9787 3.1619 20.0733 3.15898 20.171C3.15681 20.2439 3.15384 20.4321 3.23136 20.6386C3.27392 20.7519 3.36196 20.976 3.55977 21.1759C3.75758 21.3758 3.9808 21.4662 4.09369 21.5099C4.27765 21.5812 4.44449 21.5882 4.52684 21.5888C4.62403 21.5897 4.7159 21.5809 4.79141 21.5711C4.94237 21.5516 5.11474 21.5161 5.29325 21.4748C5.64919 21.3925 6.14231 21.2604 6.76369 21.0939L8.01002 20.76C8.88545 22.3115 10.7281 23.1375 12.5285 22.6551C14.3288 22.1727 15.5116 20.536 15.494 18.7546L18.6725 17.903C19.2937 17.7365 19.7867 17.6044 20.1361 17.4977C20.3113 17.4442 20.4783 17.3887 20.6188 17.3302C20.6891 17.3009 20.773 17.2625 20.8568 17.2132C20.9278 17.1715 21.0688 17.082 21.1924 16.9283C21.2683 16.834 21.4165 16.6441 21.4878 16.3721C21.5592 16.1001 21.5234 15.862 21.5036 15.7425C21.4675 15.525 21.3708 15.3635 21.3325 15.3014C21.2811 15.2182 21.2234 15.1424 21.1728 15.0799C21.0707 14.9539 20.9383 14.8103 20.7904 14.6567C20.4945 14.3494 20.0628 13.9266 19.5101 13.3852L19.4957 13.3712C18.6361 12.5292 17.7473 11.2224 17.2018 9.18659C16.7633 7.55004 15.6004 6.2152 14.0238 5.44914C13.4459 5.16836 12.8283 4.97115 12.1913 4.85738ZM10.8671 6.74088C10.8803 6.74119 10.8935 6.74124 10.9066 6.74103C11.7048 6.74675 12.4754 6.92041 13.1497 7.24803C14.2516 7.78344 14.9946 8.67652 15.2699 9.70423C15.9056 12.0765 16.9738 13.7007 18.0963 14.8C18.4824 15.1782 18.7954 15.4848 19.042 15.7313C18.792 15.8003 18.4913 15.8809 18.1328 15.977L6.26775 19.1562C5.90926 19.2523 5.60854 19.3328 5.35759 19.398C5.44786 19.0612 5.56559 18.6392 5.71089 18.1187C6.13329 16.6054 6.24634 14.6647 5.61069 12.2924C5.33532 11.2647 5.53219 10.1198 6.21878 9.10517C6.63891 8.4843 7.21948 7.94858 7.90782 7.54456C7.91932 7.53817 7.93069 7.53154 7.94195 7.52468C8.37485 7.27462 8.84959 7.0764 9.35328 6.94144C9.85697 6.80648 10.3672 6.74076 10.8671 6.74088ZM10.0786 20.2057C10.5673 20.6936 11.2958 20.9148 12.0108 20.7232C12.7259 20.5316 13.2461 19.9758 13.4254 19.3089L10.0786 20.2057Z" fill="black"/>
</svg>
