<svg width="24" height="24" viewBox="0 0 24 24" fill="none" xmlns="http://www.w3.org/2000/svg">
<path fill-rule="evenodd" clip-rule="evenodd" d="M3 3C3 1.89543 3.89543 1 5 1H19C20.1046 1 21 1.89543 21 3V12C21 14.2091 19.2091 16 17 16H15.5V19.5C15.5 21.433 13.933 23 12 23C10.067 23 8.5 21.433 8.5 19.5V16H7C4.79086 16 3 14.2091 3 12V3ZM17 14C18.1046 14 19 13.1046 19 12V11H5V12C5 13.1046 5.89543 14 7 14H17ZM10.5 16V19.5C10.5 20.3284 11.1716 21 12 21C12.8284 21 13.5 20.3284 13.5 19.5V16H10.5ZM19 3H5V9H19V3Z" fill="black"/>
</svg>
