<svg width="24" height="24" viewBox="0 0 24 24" fill="none" xmlns="http://www.w3.org/2000/svg">
<path fill-rule="evenodd" clip-rule="evenodd" d="M2 2.2C2 1.53726 2.53726 1 3.2 1H18.8C19.4627 1 20 1.53726 20 2.2V3.5H21.8C22.4627 3.5 23 4.03726 23 4.7V10.8C23 11.4627 22.4627 12 21.8 12H13V14H13.8C14.4627 14 15 14.5373 15 15.2V21.8C15 22.4627 14.4627 23 13.8 23H10.2C9.53726 23 9 22.4627 9 21.8V15.2C9 14.5373 9.53726 14 10.2 14H11V11.2C11 10.5373 11.5373 10 12.2 10H21V5.5H20V6.8C20 7.46274 19.4627 8 18.8 8H3.2C2.53726 8 2 7.46274 2 6.8V2.2ZM4 3V6H18V3H4ZM11 16V21H13V16H11Z" fill="black"/>
</svg>
