<svg width="24" height="24" viewBox="0 0 24 24" fill="none" xmlns="http://www.w3.org/2000/svg">
<g clip-path="url(#clip0_3733_26556)">
<path d="M21.6937 15.6726C20.9648 14.8059 18.3706 12.0649 15.5982 13.1851C15.1147 13.3804 14.6695 13.6823 14.2752 14.0824L13.7251 14.7589C13.6745 14.7329 13.5938 14.6825 13.4822 14.5852L13.2995 14.4475C13.2761 14.4322 11.0402 12.9453 9.47346 10.1323C9.47971 10.1267 9.48606 10.1214 9.49245 10.1162L10.227 9.49765C12.2527 7.92056 11.9981 5.85704 11.3301 4.85228L11.2195 4.70505C11.2093 4.69296 10.0568 3.31835 9.16031 2.18369C8.26087 1.04358 6.85193 0.715162 5.39146 1.30523C5.00395 1.46179 4.68301 1.65287 4.51331 1.75384L4.43893 1.7973C3.92524 2.08632 3.29166 2.61658 3.03132 2.92216C1.94367 4.15536 1.59829 6.02326 2.05894 8.18437C2.48865 10.1959 4.3919 14.4422 7.87394 17.8959C9.66578 19.6745 11.8978 21.0757 15.1324 22.4481C16.7665 23.097 18.1406 23.1784 19.333 22.6967C20.0235 22.4177 20.605 21.9749 21.1634 21.3032L21.7237 20.5693C22.7334 19.4155 23.1507 17.4052 21.6937 15.6726ZM20.1921 19.2538L19.5977 20.0285C19.2615 20.4298 18.9458 20.6759 18.5767 20.8249L18.5765 20.825C17.8888 21.1029 17.0059 21.0202 15.8995 20.5808C12.9339 19.3222 10.8974 18.0523 9.29575 16.463C6.14926 13.3417 4.39786 9.46997 4.03301 7.76316C3.70852 6.24033 3.89204 4.99341 4.54951 4.25258L4.56984 4.22922C4.65926 4.12426 5.09876 3.74242 5.42056 3.56139C5.44752 3.54652 5.47911 3.52803 5.51497 3.50692L5.54322 3.49004C5.68678 3.40464 5.90362 3.2756 6.14763 3.17701C6.98022 2.84062 7.3612 3.16258 7.57579 3.43454C8.40727 4.4873 9.45911 5.74817 9.65822 5.98505C9.73564 6.11352 10.1858 6.97919 8.97555 7.91348L8.20441 8.56179C7.64807 9.01554 7.01063 9.95403 7.49088 10.7105L7.50473 10.7336C9.247 14.0927 11.8312 15.8945 12.1669 16.1189L12.1858 16.1328C13.1926 16.9934 14.0485 16.8382 14.4714 16.6673C14.7782 16.5434 14.9908 16.3648 15.0902 16.2695L15.7455 15.4668C15.9362 15.2809 16.1405 15.1432 16.3544 15.0568C17.9053 14.4302 19.7873 16.5424 20.1488 16.972C21.1323 18.1413 20.2912 19.1434 20.1921 19.2538Z" fill="black"/>
</g>
<defs>
<clipPath id="clip0_3733_26556">
<rect width="24.0002" height="24.0002" fill="white"/>
</clipPath>
</defs>
</svg>
