<svg width="24" height="24" viewBox="0 0 24 24" fill="none" xmlns="http://www.w3.org/2000/svg"><path fill-rule="evenodd" clip-rule="evenodd" d="M9.64443 14.1876C9.13205 13.6866 8.6387 13.174 8.16437 12.6508C7.76093 12.2057 7.88785 11.5158 8.41458 11.2185L9.8814 10.3905C10.3859 10.1057 10.5587 9.47495 10.2674 8.98167L7.63044 4.51584C7.33916 4.02256 6.69405 3.85355 6.18953 4.13834L2.53555 6.20102C2.24727 6.36376 2.06728 6.63945 2.02029 6.93791C2.0191 6.94167 2.01793 6.9463 2.01679 6.95183C1.96251 7.21694 2.04962 7.70749 2.13826 7.99291C3.15967 11.0579 4.91585 13.9398 7.40683 16.3753C10.3335 19.2368 13.8903 21.1067 17.6405 21.9847L17.6426 21.9827C18.0698 22.0604 18.5192 21.873 18.7489 21.4841L20.8585 17.9115C21.1498 17.4182 20.9769 16.7875 20.4725 16.5027L15.905 13.9243C15.4004 13.6395 14.7554 13.8085 14.4641 14.3018L13.4429 16.0311C13.1444 16.5367 12.4567 16.6676 11.9986 16.2932C11.1897 15.6322 10.4041 14.9303 9.64443 14.1876Z" fill="#222727"/><path d="M12 2.25C11.5858 2.25 11.25 2.58579 11.25 3C11.25 3.41421 11.5858 3.75 12 3.75V2.25ZM21 3.75C21.4142 3.75 21.75 3.41421 21.75 3C21.75 2.58579 21.4142 2.25 21 2.25V3.75ZM12 3.75L21 3.75V2.25L12 2.25V3.75Z" fill="#222727"/><path d="M14 6.25C13.5858 6.25 13.25 6.58579 13.25 7C13.25 7.41421 13.5858 7.75 14 7.75V6.25ZM21 7.75C21.4142 7.75 21.75 7.41421 21.75 7C21.75 6.58579 21.4142 6.25 21 6.25V7.75ZM14 7.75L21 7.75V6.25L14 6.25V7.75Z" fill="#222727"/><path d="M16 10.25C15.5858 10.25 15.25 10.5858 15.25 11C15.25 11.4142 15.5858 11.75 16 11.75V10.25ZM21 11.75C21.4142 11.75 21.75 11.4142 21.75 11C21.75 10.5858 21.4142 10.25 21 10.25V11.75ZM16 11.75L21 11.75V10.25L16 10.25V11.75Z" fill="#222727"/></svg>