<svg width="24" height="24" viewBox="0 0 24 24" fill="none" xmlns="http://www.w3.org/2000/svg">
<path fill-rule="evenodd" clip-rule="evenodd" d="M13.3359 3.07326C14.206 2.94356 15.0968 2.98605 15.9538 3.20094C17.087 3.48509 18.1603 4.07066 19.0448 4.95513C19.9292 5.83959 20.5149 6.91287 20.799 8.04615C21.0139 8.90314 21.0564 9.79391 20.9267 10.664C20.8542 11.1502 20.4013 11.4855 19.9152 11.4131C19.429 11.3406 19.0936 10.8877 19.1661 10.4015C19.2614 9.76229 19.2301 9.10787 19.0724 8.47913C18.8644 7.64972 18.4365 6.86423 17.7861 6.21384C17.1357 5.56345 16.3502 5.13552 15.5209 4.92755C14.8921 4.76989 14.2376 4.73859 13.5984 4.83387C13.1122 4.90634 12.6593 4.57097 12.5869 4.08479C12.5144 3.59861 12.8498 3.14573 13.3359 3.07326ZM13.5008 6.25839C14.5762 6.09808 15.715 6.43194 16.5452 7.26208C17.3754 8.09227 17.7092 9.23114 17.5489 10.3065C17.4764 10.7927 17.0235 11.1281 16.5374 11.0556C16.0512 10.9831 15.7158 10.5302 15.7883 10.044C15.869 9.50258 15.701 8.93525 15.2866 8.52082C14.872 8.10635 14.3047 7.9383 13.7633 8.01901C13.2771 8.09148 12.8242 7.75611 12.7518 7.26993C12.6793 6.78375 13.0147 6.33087 13.5008 6.25839ZM9.81626 11.2133C9.73343 11.0195 9.67414 10.8501 9.63347 10.7198L10.5318 8.9232C10.7945 8.39777 10.781 7.77662 10.496 7.26313L9.40726 5.30196C9.0934 4.73671 8.49767 4.38595 7.85098 4.38595H5.59354C3.88737 4.38595 2.55888 6.00278 3.13761 7.71796C3.89886 9.97407 5.38887 13.6183 7.74549 15.9749C10.1021 18.3315 13.7463 19.8215 16.0024 20.5828C17.7176 21.1616 19.3345 19.833 19.3345 18.1269V15.8691C19.3345 15.2229 18.9842 14.6273 18.4193 14.3132L16.4527 13.2199C15.939 12.9343 15.3173 12.9206 14.7916 13.1836L12.9944 14.0821C12.8648 14.0419 12.6963 13.9832 12.5036 13.9011C12.0277 13.6983 11.4262 13.3621 10.8922 12.8282C10.3581 12.2941 10.0205 11.691 9.81626 11.2133Z" fill="black"/>
</svg>
