<svg width="24" height="24" viewBox="0 0 24 24" fill="none" xmlns="http://www.w3.org/2000/svg"><path fill-rule="evenodd" clip-rule="evenodd" d="M21.8637 10.6956C21.8637 15.4981 17.997 19.3913 13.2273 19.3913C12.7528 19.3913 12.2873 19.3528 11.8336 19.2787C12.1742 18.517 12.3636 17.6721 12.3636 16.7826C12.3636 13.4209 9.657 10.6956 6.31819 10.6956C5.71928 10.6956 5.14072 10.7833 4.59447 10.9466C4.59212 10.8633 4.59094 10.7796 4.59094 10.6956C4.59094 5.89317 8.45757 1.99999 13.2273 1.99999C17.997 1.99999 21.8637 5.89317 21.8637 10.6956ZM14.405 10.2045V6.34782C14.405 5.69293 13.8777 5.16205 13.2273 5.16205C12.5769 5.16205 12.0496 5.69293 12.0496 6.34782V10.6956C12.0496 11.0101 12.1737 11.3117 12.3946 11.5341L15.5351 14.6962C15.995 15.1592 16.7406 15.1592 17.2006 14.6962C17.6605 14.2331 17.6605 13.4823 17.2006 13.0192L14.405 10.2045Z" fill="#222727"/><path fill-rule="evenodd" clip-rule="evenodd" d="M6.31817 22C9.18001 22 11.5 19.6641 11.5 16.7826C11.5 13.9011 9.18001 11.5652 6.31817 11.5652C3.45633 11.5652 1.13635 13.9011 1.13635 16.7826C1.13635 19.6641 3.45633 22 6.31817 22ZM9.08954 15.7497L6.16997 19.3492C6.03689 19.5244 5.83063 19.6276 5.61156 19.6285C5.39249 19.6294 5.18539 19.5279 5.0509 19.3538L3.40507 17.4566C3.16548 17.1464 3.22097 16.6994 3.52901 16.4582C3.83706 16.2169 4.28101 16.2728 4.5206 16.583L5.60392 17.752L7.96693 14.8854C8.20399 14.5732 8.64747 14.5137 8.95746 14.7524C9.26746 14.9911 9.32659 15.4376 9.08954 15.7497Z" fill="#222727"/></svg>