<svg width="24" height="24" viewBox="0 0 24 24" fill="none" xmlns="http://www.w3.org/2000/svg">
<path fill-rule="evenodd" clip-rule="evenodd" d="M15.5001 1C16.0524 1 16.5001 1.44772 16.5001 2V3.5C16.5001 4.05228 16.0524 4.5 15.5001 4.5C14.9479 4.5 14.5001 4.05228 14.5001 3.5V2C14.5001 1.44772 14.9479 1 15.5001 1ZM7.75884 2H11.0001C11.5524 2 12.0001 2.44772 12.0001 3C12.0001 3.55228 11.5524 4 11.0001 4H7.80014C6.94356 4 6.36127 4.00078 5.91118 4.03755C5.47276 4.07337 5.24856 4.1383 5.09216 4.21799C4.71584 4.40973 4.40988 4.71569 4.21813 5.09202C4.13844 5.24842 4.07351 5.47262 4.03769 5.91104C4.00092 6.36113 4.00014 6.94342 4.00014 7.8V12.459C4.3297 12.4861 4.66321 12.5 5.00014 12.5C8.30584 12.5 11.2995 11.164 13.4708 9H12.0001C11.4479 9 11.0001 8.55228 11.0001 8C11.0001 7.44772 11.4479 7 12.0001 7H15.6079C15.6164 6.99989 15.6249 6.99989 15.6335 7H16.0001C16.5524 7 17.0001 7.44772 17.0001 8V12C17.0001 12.5523 16.5524 13 16.0001 13C15.4479 13 15.0001 12.5523 15.0001 12V10.2979C12.46 12.8899 8.91812 14.5 5.00014 14.5C4.66404 14.5 4.33057 14.4881 4.00014 14.4648V16.2C4.00014 17.0566 4.00092 17.6389 4.03769 18.089C4.07351 18.5274 4.13844 18.7516 4.21813 18.908C4.40987 19.2843 4.71584 19.5903 5.09216 19.782C5.24856 19.8617 5.47276 19.9266 5.91118 19.9624C6.36127 19.9992 6.94356 20 7.80014 20H16.2001C17.0567 20 17.639 19.9992 18.0891 19.9624C18.5275 19.9266 18.7517 19.8617 18.9081 19.782C19.2844 19.5903 19.5904 19.2843 19.7822 18.908C19.8618 18.7516 19.9268 18.5274 19.9626 18.089C19.9994 17.6389 20.0001 17.0566 20.0001 16.2V13C20.0001 12.4477 20.4479 12 21.0001 12C21.5524 12 22.0001 12.4477 22.0001 13V16.2413C22.0002 17.0463 22.0002 17.7106 21.9559 18.2518C21.91 18.8139 21.8115 19.3306 21.5642 19.816C21.1807 20.5686 20.5688 21.1805 19.8161 21.564C19.3308 21.8113 18.8141 21.9099 18.252 21.9558C17.7108 22 17.0464 22 16.2415 22H7.75882C6.95386 22 6.28951 22 5.74832 21.9558C5.18622 21.9099 4.66951 21.8113 4.18418 21.564C3.43153 21.1805 2.81961 20.5686 2.43612 19.816C2.18882 19.3306 2.09026 18.8139 2.04434 18.2518C2.00012 17.7106 2.00013 17.0463 2.00014 16.2413L2.00014 13.3651C1.99995 13.354 1.99995 13.3428 2.00014 13.3315L2.00014 7.7587C2.00013 6.95373 2.00012 6.28937 2.04434 5.74817C2.09026 5.18608 2.18882 4.66937 2.43612 4.18404C2.81961 3.43139 3.43153 2.81947 4.18418 2.43597C4.66951 2.18868 5.18622 2.09012 5.74832 2.04419C6.28951 1.99998 6.95387 1.99999 7.75884 2ZM21.2072 2.79289C21.5978 3.18342 21.5978 3.81658 21.2072 4.20711L20.1466 5.26777C19.7561 5.65829 19.1229 5.65829 18.7324 5.26777C18.3419 4.87724 18.3419 4.24408 18.7324 3.85355L19.793 2.79289C20.1836 2.40237 20.8167 2.40237 21.2072 2.79289ZM19.5104 8.5C19.5104 7.94772 19.9581 7.5 20.5104 7.5H22.0104C22.5627 7.5 23.0104 7.94772 23.0104 8.5C23.0104 9.05228 22.5627 9.5 22.0104 9.5H20.5104C19.9581 9.5 19.5104 9.05228 19.5104 8.5Z" fill="black"/>
</svg>
