<svg width="24" height="24" viewBox="0 0 24 24" fill="none" xmlns="http://www.w3.org/2000/svg">
<path fill-rule="evenodd" clip-rule="evenodd" d="M9.09643 3.07895C8.84335 2.97414 8.559 2.97414 8.30591 3.07896C8.05285 3.18376 7.85178 3.38479 7.7469 3.63782C7.74689 3.63784 7.74691 3.6378 7.7469 3.63782L7.02346 5.38387C6.7147 6.1267 6.12498 6.71487 5.38238 7.02208M5.38238 7.02208L3.63772 7.74394C3.6376 7.74398 3.63783 7.74389 3.63772 7.74394C3.51248 7.79586 3.39836 7.87206 3.3025 7.96793C3.20656 8.06389 3.13047 8.1778 3.07856 8.30318C3.02666 8.42855 2.99996 8.56292 3 8.69861C3.00004 8.8343 3.02681 8.96866 3.07879 9.094L3.80094 10.8404C3.95321 11.2082 4.03181 11.6029 4.03181 12.001C4.03181 12.3993 3.95338 12.7937 3.80099 13.1616C3.80097 13.1616 3.80101 13.1616 3.80099 13.1616L3.08031 14.9048C2.97593 15.1577 2.97602 15.442 3.08078 15.6947C3.18554 15.9475 3.38631 16.1484 3.63902 16.2533C3.63909 16.2533 3.63894 16.2533 3.63902 16.2533L5.38302 16.9763C5.75103 17.1289 6.08544 17.3525 6.36701 17.6343C6.64858 17.9162 6.87187 18.2507 7.02413 18.6188C7.02413 18.6188 7.02412 18.6188 7.02413 18.6188L7.74673 20.3629C7.85161 20.6157 8.05253 20.8165 8.30537 20.9213C8.55821 21.0261 8.84231 21.0263 9.09527 20.9218L10.8393 20.1992C11.5821 19.8916 12.4168 19.8915 13.1596 20.1991C13.1596 20.1991 13.1595 20.1991 13.1596 20.1991L14.9036 20.9211C15.0288 20.973 15.1636 21 15.2992 21.0001C15.4348 21.0001 15.5691 20.9734 15.6944 20.9215C15.8196 20.8696 15.9335 20.7936 16.0293 20.6977C16.1252 20.6018 16.2012 20.488 16.2531 20.3627L16.9762 18.6173C17.2844 17.8749 17.8749 17.2846 18.6175 16.9771L20.3622 16.2542C20.6153 16.1494 20.8163 15.9483 20.9211 15.6952C21.026 15.4421 21.026 15.1578 20.9212 14.9047L20.1994 13.1613C20.0467 12.7932 19.9681 12.3986 19.9681 12C19.9681 11.6015 20.0467 11.2069 20.1994 10.8388L20.9211 9.09554C21.0259 8.84245 21.026 8.55798 20.9211 8.3049C20.8163 8.05182 20.6153 7.85073 20.3622 7.74586L18.6181 7.02281C17.8843 6.71841 17.2997 6.14002 16.9889 5.4097C16.9852 5.40142 16.9816 5.39306 16.9781 5.38463L16.2551 3.63863C16.2033 3.51341 16.1273 3.39959 16.0314 3.30374C15.9356 3.20789 15.8218 3.13186 15.6966 3.07998C15.5714 3.0281 15.4372 3.0014 15.3017 3.00139C15.1661 3.00138 15.0319 3.02807 14.9067 3.07994L13.1611 3.79978C13.1607 3.79993 13.1604 3.80007 13.16 3.80022C12.4178 4.10768 11.5838 4.10807 10.8412 3.80127L9.09643 3.07895M18.8391 4.64897C18.8288 4.62152 18.8174 4.59464 18.8048 4.56839L18.103 2.8735C18.103 2.87351 18.103 2.87348 18.103 2.8735C17.9507 2.5056 17.7273 2.17128 17.4458 1.88969C17.1643 1.60809 16.83 1.3847 16.4622 1.23228C16.0943 1.07987 15.7 1.00141 15.3018 1.00139C14.9039 1.00137 14.5099 1.07965 14.1423 1.23177C14.1426 1.23165 14.142 1.2319 14.1423 1.23177L12.3968 1.95157L12.395 1.95231C12.1423 2.05712 11.8583 2.05736 11.6053 1.953C11.6055 1.95306 11.6052 1.95294 11.6053 1.953L9.86168 1.23114C9.86172 1.23116 9.86164 1.23113 9.86168 1.23114C9.11863 0.923451 8.28368 0.923425 7.54064 1.23116C6.79756 1.53891 6.20714 2.1292 5.89924 2.87221L5.17665 4.61622C5.17673 4.61604 5.17658 4.6164 5.17665 4.61622C5.07137 4.86911 4.871 5.06925 4.61782 5.17398L2.87274 5.89602C2.50465 6.04847 2.16988 6.27209 1.88818 6.55382C1.60649 6.83556 1.38306 7.17004 1.23066 7.53815C1.07827 7.90625 0.999886 8.30078 1 8.69918C1.00011 9.09745 1.07867 9.4918 1.23117 9.85971C1.23112 9.85959 1.23122 9.85984 1.23117 9.85971L1.95295 11.6052C2.00486 11.7305 2.03181 11.8654 2.03181 12.001C2.03181 12.1367 2.00509 12.271 1.95318 12.3964L1.23192 14.141C0.925112 14.8837 0.925496 15.7181 1.23319 16.4605C1.54088 17.2029 2.13061 17.7928 2.87288 18.1007L4.61704 18.8238C4.74238 18.8758 4.85625 18.9519 4.95216 19.0479C5.04806 19.1439 5.12411 19.2578 5.17597 19.3832L5.89922 21.1288C6.20714 21.8711 6.79723 22.4612 7.5396 22.7689C8.28197 23.0766 9.11611 23.0771 9.85884 22.7703L11.6047 22.0469C11.8575 21.9422 12.1416 21.9422 12.3944 22.0469L14.138 22.7688C14.5059 22.9214 14.9004 23 15.2988 23.0001C15.6971 23.0002 16.0916 22.9217 16.4596 22.7693C16.8277 22.6169 17.1621 22.3934 17.4437 22.1117C17.7253 21.8301 17.9486 21.4958 18.1009 21.1278C18.1008 21.128 18.101 21.1277 18.1009 21.1278L18.8237 19.3834C18.8236 19.3835 18.8237 19.3833 18.8237 19.3834C18.9286 19.1307 19.1297 18.9297 19.3826 18.825L21.1278 18.1019C21.8708 17.794 22.4612 17.2035 22.7689 16.4605C23.0767 15.7174 23.0767 14.8825 22.769 14.1394L22.047 12.3955C21.9951 12.2704 21.9681 12.1355 21.9681 12C21.9681 11.8646 21.9948 11.7304 22.0467 11.6053L22.769 9.86067C23.0767 9.11759 23.0767 8.2827 22.7689 7.53963C22.4612 6.79659 21.871 6.2062 21.128 5.89828C21.1281 5.8983 21.128 5.89826 21.128 5.89828L19.3842 5.17537C19.1405 5.07422 18.9467 4.88604 18.8391 4.64897ZM16.2072 8.79294C16.5977 9.18346 16.5977 9.81663 16.2072 10.2072L11.7072 14.7072C11.3166 15.0977 10.6835 15.0977 10.293 14.7072L8.29295 12.7072C7.90243 12.3166 7.90243 11.6835 8.29295 11.2929C8.68348 10.9024 9.31664 10.9024 9.70716 11.2929L11.0001 12.5858L14.793 8.79294C15.1835 8.40241 15.8166 8.40241 16.2072 8.79294Z" fill="black"/>
</svg>
