<svg width="24" height="24" viewBox="0 0 24 24" fill="none" xmlns="http://www.w3.org/2000/svg">
<path d="M8.99997 12L11 14L15.5 9.49997M9.20197 20.6C9.36403 20.5785 9.52875 20.5892 9.68664 20.6316C9.84453 20.674 9.99248 20.7472 10.122 20.847L11.325 21.771C11.723 22.076 12.276 22.076 12.673 21.771L13.921 20.812C14.155 20.633 14.449 20.554 14.741 20.593L16.302 20.799C16.799 20.864 17.278 20.587 17.47 20.124L18.071 18.671C18.183 18.399 18.399 18.183 18.671 18.071L20.124 17.47C20.588 17.279 20.864 16.799 20.799 16.302L20.601 14.797C20.5795 14.6349 20.5902 14.4702 20.6326 14.3123C20.675 14.1544 20.7482 14.0065 20.848 13.877L21.771 12.673C21.9194 12.4798 21.9999 12.2431 21.9999 11.9995C21.9999 11.7559 21.9194 11.5191 21.771 11.326L20.812 10.076C20.7235 9.96072 20.6586 9.82915 20.621 9.68878C20.5834 9.54842 20.5739 9.40202 20.593 9.25797L20.799 7.69597C20.8307 7.45414 20.7818 7.20859 20.6597 6.99741C20.5377 6.78623 20.3494 6.62122 20.124 6.52797L18.671 5.92697C18.5363 5.87153 18.4139 5.78996 18.311 5.68698C18.208 5.584 18.1264 5.46164 18.071 5.32697L17.471 3.87397C17.3778 3.6483 17.2127 3.45976 17.0013 3.33768C16.7898 3.2156 16.544 3.16683 16.302 3.19897L14.74 3.40497C14.5962 3.42447 14.45 3.41533 14.3098 3.37809C14.1696 3.34084 14.0381 3.27623 13.923 3.18797L12.673 2.22897C12.4798 2.0805 12.2431 2 11.9995 2C11.7559 2 11.5191 2.0805 11.326 2.22897L10.077 3.18797C9.84371 3.3657 9.54983 3.44438 9.25897 3.40697L7.69597 3.19997C7.4543 3.16847 7.20897 3.21753 6.998 3.33956C6.78703 3.46159 6.62217 3.64978 6.52897 3.87497L5.92897 5.32797C5.81568 5.59911 5.60011 5.81468 5.32897 5.92797L3.87597 6.52797C3.41197 6.71997 3.13597 7.19897 3.20097 7.69597L3.40697 9.25797C3.44497 9.54897 3.36597 9.84297 3.18797 10.076L2.22897 11.325C2.0805 11.5181 2 11.7549 2 11.9985C2 12.2421 2.0805 12.4788 2.22897 12.672L3.18797 13.922C3.36697 14.154 3.44597 14.449 3.40697 14.74L3.19997 16.303C3.13497 16.8 3.41097 17.279 3.87497 17.471L5.32797 18.072C5.59997 18.184 5.81597 18.4 5.92797 18.672L6.52797 20.125C6.71997 20.589 7.19997 20.865 7.69697 20.8L9.20197 20.6Z" stroke="black" stroke-width="2" stroke-linecap="round" stroke-linejoin="round"/>
</svg>
