<svg width="24" height="24" viewBox="0 0 24 24" fill="none" xmlns="http://www.w3.org/2000/svg">
<path fill-rule="evenodd" clip-rule="evenodd" d="M6.7589 2H17.2415C18.0465 1.99999 18.7108 1.99998 19.252 2.04419C19.8141 2.09012 20.3308 2.18868 20.8162 2.43597C21.5688 2.81947 22.1807 3.43139 22.5642 4.18404C22.8115 4.66937 22.9101 5.18608 22.956 5.74817C23.0002 6.28936 23.0002 6.95372 23.0002 7.75868V16.2413C23.0002 17.0463 23.0002 17.7106 22.956 18.2518C22.9101 18.8139 22.8115 19.3306 22.5642 19.816C22.1807 20.5686 21.5688 21.1805 20.8162 21.564C20.3308 21.8113 19.8141 21.9099 19.252 21.9558C18.7108 22 18.0465 22 17.2415 22H14.0002C13.4479 22 13.0002 21.5523 13.0002 21C13.0002 20.4477 13.4479 20 14.0002 20H17.2002C18.0568 20 18.6391 19.9992 19.0892 19.9624C19.5276 19.9266 19.7518 19.8617 19.9082 19.782C20.2845 19.5903 20.5905 19.2843 20.7822 18.908C20.8619 18.7516 20.9268 18.5274 20.9626 18.089C20.9994 17.6389 21.0002 17.0566 21.0002 16.2V7.8C21.0002 6.94342 20.9994 6.36113 20.9626 5.91104C20.9268 5.47262 20.8619 5.24842 20.7822 5.09202C20.5905 4.7157 20.2845 4.40973 19.9082 4.21799C19.7518 4.1383 19.5276 4.07337 19.0892 4.03755C18.6391 4.00078 18.0568 4 17.2002 4H6.8002C5.94362 4 5.36132 4.00078 4.91123 4.03755C4.47282 4.07337 4.24862 4.1383 4.09222 4.21799C3.71589 4.40973 3.40993 4.7157 3.21818 5.09202C3.13849 5.24842 3.07357 5.47262 3.03775 5.91104C3.00097 6.36113 3.0002 6.94342 3.0002 7.8V8C3.0002 8.55229 2.55248 9 2.0002 9C1.44791 9 1.0002 8.55229 1.0002 8L1.0002 7.7587C1.00018 6.95373 1.00017 6.28937 1.04439 5.74817C1.09032 5.18608 1.18888 4.66937 1.43617 4.18404C1.81966 3.43139 2.43159 2.81947 3.18423 2.43597C3.66957 2.18868 4.18627 2.09012 4.74837 2.04419C5.28957 1.99998 5.95393 1.99999 6.7589 2ZM1.00633 11.9395C1.06737 11.3906 1.56184 10.9951 2.11074 11.0561C4.36717 11.3071 6.47104 12.3184 8.07642 13.9238C9.68179 15.5292 10.6931 17.633 10.9441 19.8895C11.0051 20.4384 10.6096 20.9328 10.0607 20.9939C9.51183 21.0549 9.01737 20.6594 8.95633 20.1105C8.75556 18.3054 7.94651 16.6223 6.6622 15.338C5.3779 14.0537 3.6948 13.2446 1.88966 13.0439C1.34076 12.9828 0.945276 12.4884 1.00633 11.9395ZM1.02037 15.9002C1.13073 15.359 1.65888 15.0098 2.20003 15.1202C3.3531 15.3553 4.41156 15.9244 5.24369 16.7565C6.07581 17.5886 6.64487 18.6471 6.88003 19.8002C6.99039 20.3413 6.64117 20.8695 6.10003 20.9798C5.55888 21.0902 5.03073 20.741 4.92037 20.1998C4.76359 19.4311 4.38422 18.7255 3.82947 18.1707C3.27472 17.616 2.56908 17.2366 1.80037 17.0798C1.25922 16.9695 0.910003 16.4413 1.02037 15.9002ZM1.0002 20C1.0002 19.4477 1.44791 19 2.0002 19H2.0102C2.56248 19 3.0102 19.4477 3.0102 20C3.0102 20.5523 2.56248 21 2.0102 21H2.0002C1.44791 21 1.0002 20.5523 1.0002 20Z" fill="black"/>
</svg>
