<svg width="24" height="24" viewBox="0 0 24 24" fill="none" xmlns="http://www.w3.org/2000/svg"><g clip-path="url(#clip0_1332_3)"><path fill-rule="evenodd" clip-rule="evenodd" d="M4.22182 19.7782C8.51759 24.0739 15.4824 24.0739 19.7782 19.7782C24.0739 15.4824 24.0739 8.51759 19.7782 4.22182C15.4824 -0.0739452 8.51759 -0.0739452 4.22182 4.22182C-0.0739449 8.51759 -0.0739453 15.4824 4.22182 19.7782ZM12 7.05025C12.3905 6.65973 13.0237 6.65973 13.4142 7.05025L17.6569 11.2929C17.8514 11.4874 17.949 11.7421 17.9497 11.997C17.9497 11.999 17.9497 12.001 17.9497 12.003C17.9493 12.1375 17.9224 12.2657 17.8739 12.3828C17.8254 12.4999 17.7538 12.6096 17.659 12.705C17.6583 12.7057 17.6576 12.7064 17.6569 12.7071L13.4142 16.9497C13.0237 17.3403 12.3905 17.3403 12 16.9497C11.6095 16.5592 11.6095 15.9261 12 15.5355L14.5355 13H7.05025C6.49797 13 6.05025 12.5523 6.05025 12C6.05025 11.4477 6.49797 11 7.05025 11H14.5355L12 8.46446C11.6095 8.07394 11.6095 7.44077 12 7.05025Z" fill="#333333"/></g><defs><clipPath id="clip0_1332_3"><rect width="24" height="24" fill="white"/></clipPath></defs></svg>