<svg width="24" height="24" viewBox="0 0 24 24" fill="none" xmlns="http://www.w3.org/2000/svg"><path fill-rule="evenodd" clip-rule="evenodd" d="M12 23C18.0751 23 23 18.0751 23 12C23 5.92487 18.0751 1 12 1C5.92487 1 1 5.92487 1 12C1 18.0751 5.92487 23 12 23ZM8.5 8.5C8.5 7.94772 8.94772 7.5 9.5 7.5H15.5C15.7751 7.5 16.0242 7.61106 16.205 7.79078C16.2064 7.79219 16.2078 7.7936 16.2092 7.79502C16.304 7.8904 16.3757 8.00014 16.4241 8.11722C16.4727 8.23425 16.4996 8.3625 16.5 8.497C16.5 8.498 16.5 8.499 16.5 8.5V14.5C16.5 15.0523 16.0523 15.5 15.5 15.5C14.9477 15.5 14.5 15.0523 14.5 14.5V10.9142L9.20711 16.2071C8.81658 16.5976 8.18342 16.5976 7.79289 16.2071C7.40237 15.8166 7.40237 15.1834 7.79289 14.7929L13.0858 9.5H9.5C8.94772 9.5 8.5 9.05228 8.5 8.5Z" fill="#333333"/></svg>