<svg width="24" height="24" viewBox="0 0 24 24" fill="none" xmlns="http://www.w3.org/2000/svg">
<path d="M8.71879 19.2234C8.76961 19.0829 8.86871 18.965 8.9984 18.8908C9.12809 18.8166 9.27992 18.791 9.42679 18.8184L9.52579 18.8454L9.88379 18.9734C10.5738 19.2204 11.2988 19.3464 12.0378 19.3464C12.6558 19.3464 13.2628 19.2584 13.8458 19.0864L14.1348 18.9924L14.4938 18.8664C14.6348 18.8175 14.7886 18.8201 14.9279 18.8737C15.0672 18.9273 15.183 19.0285 15.2548 19.1594L15.2968 19.2524L15.5458 19.9694C15.5947 20.1104 15.5921 20.2642 15.5384 20.4034C15.4848 20.5427 15.3836 20.6585 15.2528 20.7304L15.1598 20.7724L14.8008 20.8984C13.912 21.2088 12.9772 21.3667 12.0358 21.3654C11.1858 21.3654 10.3488 21.2384 9.54379 20.9884L9.19979 20.8734L8.84079 20.7454C8.70029 20.6945 8.58243 20.5954 8.50825 20.4658C8.43406 20.3361 8.40838 20.1842 8.43579 20.0374L8.46279 19.9394L8.71979 19.2234H8.71879ZM19.0508 12.5114C21.3638 12.5114 23.2408 14.4494 23.2408 16.8284C23.2408 19.2084 21.3628 21.1494 19.0508 21.1494C16.7388 21.1494 14.8608 19.2094 14.8608 16.8304C14.8608 14.4504 16.7388 12.5114 19.0508 12.5114ZM4.94979 12.5114C7.26179 12.5114 9.13979 14.4494 9.13979 16.8284C9.13979 19.2084 7.26179 21.1494 4.94979 21.1494C2.63779 21.1494 0.758789 19.2094 0.758789 16.8304C0.758789 14.4504 2.63779 12.5114 4.94879 12.5114H4.94979ZM19.0508 14.5284C17.8578 14.5284 16.8798 15.5584 16.8798 16.8284C16.8798 18.0984 17.8578 19.1284 19.0508 19.1284C20.2448 19.1284 21.2228 18.0994 21.2228 16.8284C21.2228 15.5584 20.2438 14.5284 19.0508 14.5284ZM4.94979 14.5284C3.75579 14.5284 2.77779 15.5584 2.77779 16.8284C2.77779 18.0984 3.75579 19.1284 4.94979 19.1284C6.14379 19.1284 7.12079 18.0994 7.12079 16.8284C7.12079 15.5584 6.14279 14.5284 4.94979 14.5284ZM6.32179 6.54636C6.42647 6.4402 6.56541 6.3746 6.71391 6.36123C6.86241 6.34786 7.01083 6.3876 7.13279 6.47336L7.21179 6.53936L7.75279 7.07136C7.85885 7.17586 7.92448 7.31455 7.93802 7.46282C7.95157 7.6111 7.91216 7.75938 7.82679 7.88136L7.76079 7.96136L7.49479 8.23136C6.73986 8.99869 6.19238 9.94533 5.90379 10.9824L5.83179 11.2664L5.74979 11.6324C5.71928 11.7808 5.63554 11.913 5.51434 12.004C5.39314 12.095 5.24286 12.1385 5.09179 12.1264L4.99879 12.1124L4.25679 11.9434C4.11181 11.9099 3.98327 11.8264 3.89382 11.7075C3.80437 11.5886 3.75974 11.4419 3.76779 11.2934L3.78179 11.1924L3.86579 10.8214C4.18493 9.41984 4.86037 8.1244 5.82679 7.06036L6.05579 6.81736L6.32179 6.54736V6.54636ZM16.8818 6.56036C16.9888 6.45598 17.1294 6.39304 17.2785 6.38279C17.4276 6.37253 17.5755 6.41562 17.6958 6.50436L17.7728 6.57136L18.0378 6.84436C18.9728 7.80366 19.6644 8.97295 20.0548 10.2544L20.1448 10.5764L20.2408 10.9454C20.2783 11.0916 20.2621 11.2464 20.1951 11.3816C20.1282 11.5169 20.0148 11.6236 19.8758 11.6824L19.7868 11.7124L19.0508 11.8994C18.9047 11.937 18.75 11.9209 18.6147 11.8541C18.4795 11.7873 18.3727 11.6742 18.3138 11.5354L18.2838 11.4474L18.1888 11.0794C17.9375 10.1118 17.4597 9.21787 16.7948 8.47136L16.5908 8.25136L16.3278 7.98136C16.2235 7.87456 16.1606 7.73421 16.1501 7.58532C16.1397 7.43643 16.1824 7.28867 16.2708 7.16836L16.3388 7.09136L16.8818 6.56136V6.56036ZM12.0238 1.42236C14.3338 1.42236 16.2148 3.30236 16.2148 5.61336C16.2148 7.92336 14.3348 9.80336 12.0248 9.80336C9.71379 9.80336 7.83279 7.92336 7.83279 5.61336C7.83279 3.30336 9.71279 1.42336 12.0238 1.42336V1.42236ZM12.0238 3.44236C11.4484 3.44368 10.897 3.67284 10.4901 4.07969C10.0833 4.48655 9.85411 5.03798 9.85279 5.61336C9.85279 6.80936 10.8278 7.78436 12.0238 7.78436C12.5993 7.78331 13.151 7.55427 13.5581 7.14739C13.9652 6.7405 14.1945 6.18892 14.1958 5.61336C14.1945 5.03781 13.9652 4.48622 13.5581 4.07934C13.151 3.67246 12.5993 3.44342 12.0238 3.44236Z" fill="black"/>
</svg>
