<svg width="24" height="24" viewBox="0 0 24 24" fill="none" xmlns="http://www.w3.org/2000/svg"><path fill-rule="evenodd" clip-rule="evenodd" d="M12 23C18.0751 23 23 18.0751 23 12C23 5.92487 18.0751 1 12 1C5.92487 1 1 5.92487 1 12C1 18.0751 5.92487 23 12 23ZM9.75 12.8358V9.875C9.75 9.39175 9.35825 9 8.875 9C8.39175 9 8 9.39175 8 9.875V14.9993C8 14.9998 8 15.0002 8 15.0007V15.125C8 15.6082 8.39175 16 8.875 16H8.99931C8.99977 16 9.00023 16 9.00069 16H14.125C14.6082 16 15 15.6082 15 15.125C15 14.6418 14.6082 14.25 14.125 14.25H11.1642L16.7071 8.70711C17.0976 8.31658 17.0976 7.68342 16.7071 7.29289C16.3166 6.90237 15.6834 6.90237 15.2929 7.29289L9.75 12.8358Z" fill="#333333"/></svg>