<svg width="24" height="24" viewBox="0 0 24 24" fill="none" xmlns="http://www.w3.org/2000/svg">
<path fill-rule="evenodd" clip-rule="evenodd" d="M17.6449 7.06018C15.3354 4.4149 11.4055 3.68256 8.2495 5.50469C6.09103 6.75088 4.78573 8.90717 4.54031 11.2129C4.48185 11.7621 3.98926 12.1599 3.44008 12.1014C2.8909 12.043 2.49309 11.5504 2.55154 11.0012C2.86172 8.08714 4.514 5.35198 7.2495 3.77264C11.3783 1.3889 16.5526 2.45658 19.4315 6.08047L19.5402 5.67508C19.6831 5.14162 20.2314 4.82503 20.7649 4.96798C21.2984 5.11092 21.615 5.65925 21.472 6.19272L20.74 8.92477C20.597 9.45824 20.0487 9.77482 19.5152 9.63188L16.7832 8.89983C16.2497 8.75688 15.9331 8.20855 16.0761 7.67508C16.219 7.14162 16.7673 6.82503 17.3008 6.96798L17.6449 7.06018ZM11.9995 6.49988C12.5518 6.49988 12.9995 6.94759 12.9995 7.49988V11.4337L15.014 12.6424C15.4876 12.9265 15.6411 13.5408 15.357 14.0144C15.0728 14.488 14.4586 14.6415 13.985 14.3574L11.485 12.8574C11.1838 12.6766 10.9995 12.3511 10.9995 11.9999V7.49988C10.9995 6.94759 11.4472 6.49988 11.9995 6.49988ZM20.5589 11.8984C21.108 11.9568 21.5058 12.4494 21.4474 12.9986C21.1372 15.9127 19.4849 18.6478 16.7494 20.2272C12.6207 22.6109 7.44641 21.5432 4.56744 17.9194L4.45885 18.3247C4.31591 18.8581 3.76757 19.1747 3.2341 19.0318C2.70064 18.8888 2.38406 18.3405 2.527 17.807L3.25905 15.075C3.40199 14.5415 3.95033 14.2249 4.48379 14.3679L7.21584 15.0999C7.74931 15.2429 8.06589 15.7912 7.92295 16.3247C7.78001 16.8581 7.23167 17.1747 6.69821 17.0318L6.35393 16.9395C8.66347 19.5849 12.5934 20.3173 15.7494 18.4951C17.9079 17.2489 19.2132 15.0926 19.4586 12.7869C19.5171 12.2377 20.0097 11.8399 20.5589 11.8984Z" fill="black"/>
</svg>
