<svg width="24" height="24" viewBox="0 0 24 24" fill="none" xmlns="http://www.w3.org/2000/svg">
<path fill-rule="evenodd" clip-rule="evenodd" d="M11.543 1.24561C11.8436 1.17505 12.1565 1.17505 12.4571 1.24561C12.8052 1.32731 13.1088 1.52637 13.3505 1.68483C13.3732 1.69974 13.3954 1.71429 13.417 1.72835L21.817 7.18835C21.8352 7.20013 21.8539 7.21218 21.873 7.22453C22.0788 7.35729 22.3376 7.5243 22.5348 7.76024C22.7054 7.9644 22.8335 8.20055 22.9117 8.45485C23.0021 8.74874 23.0011 9.0568 23.0002 9.30168C23.0002 9.32446 23.0001 9.34668 23.0001 9.3683V14.6317C23.0001 14.6533 23.0002 14.6755 23.0002 14.6983C23.0011 14.9432 23.0021 15.2513 22.9117 15.5452C22.8335 15.7995 22.7054 16.0356 22.5348 16.2398C22.3376 16.4757 22.0788 16.6427 21.873 16.7755C21.8539 16.7878 21.8352 16.7999 21.817 16.8117L13.417 22.2717C13.3954 22.2857 13.3732 22.3003 13.3505 22.3152C13.1088 22.4736 12.8052 22.6727 12.4571 22.7544C12.1565 22.825 11.8436 22.825 11.543 22.7544C11.195 22.6727 10.8914 22.4736 10.6497 22.3152C10.6269 22.3003 10.6047 22.2857 10.5831 22.2717L2.1831 16.8117C2.16498 16.7999 2.1463 16.7878 2.12716 16.7755C1.92139 16.6427 1.66253 16.4757 1.46537 16.2398C1.29477 16.0356 1.16661 15.7995 1.08841 15.5452C0.998041 15.2513 0.999088 14.9432 0.999921 14.6983C0.999998 14.6756 1.00007 14.6533 1.00007 14.6317V9.3683C1.00007 9.34668 0.999998 9.32445 0.999921 9.30168C0.999088 9.0568 0.998041 8.74874 1.08841 8.45485C1.16661 8.20054 1.29477 7.9644 1.46537 7.76024C1.66253 7.52429 1.9214 7.35728 2.12717 7.22452C2.1463 7.21218 2.16498 7.20013 2.1831 7.18835L10.5831 1.72835C10.6047 1.71429 10.6269 1.69974 10.6497 1.68483C10.8913 1.52637 11.195 1.32731 11.543 1.24561ZM13.0001 3.84269L20.1444 8.48648C20.1335 8.49565 20.1208 8.50601 20.1061 8.51759C19.9635 8.62992 19.7513 8.76899 19.3912 9.00307L16.6155 10.8073L13.0001 8.45732V3.84269ZM11.0001 8.45732V3.84269L3.85577 8.48648C3.86669 8.49565 3.87939 8.50601 3.89408 8.51759C4.03666 8.62992 4.2488 8.76899 4.60892 9.00307L7.38469 10.8073L11.0001 8.45732ZM5.54979 12L3.48513 10.658C3.31403 10.5468 3.15 10.4402 3.00007 10.3378V13.6622C3.15001 13.5598 3.31404 13.4532 3.48515 13.342L5.54979 12ZM3.85577 15.5135C3.86669 15.5044 3.87939 15.494 3.89408 15.4824C4.03666 15.3701 4.2488 15.231 4.60893 14.9969L7.38469 13.1927L11.0001 15.5427V20.1573L3.85577 15.5135ZM13.0001 20.1573L20.1444 15.5135C20.1335 15.5043 20.1208 15.494 20.1061 15.4824C19.9635 15.3701 19.7513 15.231 19.3912 14.9969L16.6155 13.1927L13.0001 15.5427V20.1573ZM12.0001 13.8073L9.21959 12L12.0001 10.1927L14.7806 12L12.0001 13.8073ZM18.4504 12L20.515 13.342C20.6861 13.4532 20.8501 13.5598 21.0001 13.6622V10.3378C20.8501 10.4402 20.6861 10.5468 20.515 10.658L18.4504 12Z" fill="black"/>
</svg>
