<svg width="24" height="24" viewBox="0 0 24 24" fill="none" xmlns="http://www.w3.org/2000/svg">
<path fill-rule="evenodd" clip-rule="evenodd" d="M1 5C1 4.32275 1.38057 3.80688 1.78029 3.46322C2.18326 3.11678 2.70787 2.8501 3.26917 2.64599C4.4 2.23478 5.89597 2 7.5 2C9.10403 2 10.6 2.23478 11.7308 2.64599C12.2921 2.8501 12.8167 3.11678 13.2197 3.46322C13.6194 3.80688 14 4.32275 14 5V8.20236C14.7725 8.07067 15.62 8 16.5 8C18.104 8 19.6 8.23478 20.7308 8.64599C21.2921 8.8501 21.8167 9.11678 22.2197 9.46322C22.6194 9.80688 23 10.3228 23 11V19C23 19.6772 22.6194 20.1931 22.2197 20.5368C21.8167 20.8832 21.2921 21.1499 20.7308 21.354C19.6 21.7652 18.104 22 16.5 22C14.896 22 13.4 21.7652 12.2692 21.354C11.7079 21.1499 11.1833 20.8832 10.7803 20.5368C10.5483 20.3374 10.3228 20.0799 10.1744 19.7666C9.36034 19.9174 8.45201 20 7.5 20C5.89597 20 4.4 19.7652 3.26917 19.354C2.70787 19.1499 2.18326 18.8832 1.78029 18.5368C1.38057 18.1931 1 17.6772 1 17V5ZM3.08414 5.02021C3.07591 5.01313 3.06831 5.00639 3.06129 5C3.06831 4.99361 3.07591 4.98687 3.08414 4.97979C3.2378 4.84769 3.51866 4.6834 3.95266 4.52558C4.81243 4.21293 6.06647 4 7.5 4C8.93353 4 10.1876 4.21293 11.0473 4.52558C11.4813 4.6834 11.7622 4.84769 11.9159 4.97979C11.9241 4.98687 11.9317 4.99361 11.9387 5C11.9317 5.00639 11.9241 5.01313 11.9159 5.02021C11.7622 5.15231 11.4813 5.3166 11.0473 5.47442C10.1876 5.78707 8.93353 6 7.5 6C6.06647 6 4.81243 5.78707 3.95266 5.47442C3.51866 5.3166 3.2378 5.15231 3.08414 5.02021ZM11.7308 7.35401C11.8216 7.32099 11.9115 7.28633 12 7.24996V8.75004C11.5413 8.93847 11.1181 9.17282 10.7803 9.46322C10.7262 9.50973 10.6725 9.55939 10.62 9.61217C9.79003 9.84923 8.70586 10 7.5 10C6.06647 10 4.81243 9.78707 3.95266 9.47442C3.51866 9.3166 3.2378 9.15231 3.08414 9.02021C3.04049 8.98268 3.01461 8.95479 3 8.93678V7.24996C3.08852 7.28633 3.17837 7.32099 3.26917 7.35401C4.4 7.76522 5.89597 8 7.5 8C9.10403 8 10.6 7.76522 11.7308 7.35401ZM3 12.9368V11.25C3.08852 11.2863 3.17837 11.321 3.26917 11.354C4.4 11.7652 5.89597 12 7.5 12C8.38225 12 9.22939 11.929 10 11.7976V13.763C9.27811 13.9113 8.42484 14 7.5 14C6.06647 14 4.81243 13.7871 3.95266 13.4744C3.51866 13.3166 3.2378 13.1523 3.08414 13.0202C3.04049 12.9827 3.01461 12.9548 3 12.9368ZM3 15.25V16.9368C3.01461 16.9548 3.04049 16.9827 3.08414 17.0202C3.2378 17.1523 3.51866 17.3166 3.95266 17.4744C4.81243 17.7871 6.06647 18 7.5 18C8.42154 18 9.27525 17.9119 10 17.763V15.7976C9.22939 15.929 8.38225 16 7.5 16C5.89597 16 4.4 15.7652 3.26917 15.354C3.17837 15.321 3.08852 15.2863 3 15.25ZM12 14.5661V14.9368C12.0146 14.9548 12.0405 14.9827 12.0841 15.0202C12.2378 15.1523 12.5187 15.3166 12.9527 15.4744C13.8124 15.7871 15.0665 16 16.5 16C17.9335 16 19.1876 15.7871 20.0473 15.4744C20.4813 15.3166 20.7622 15.1523 20.9159 15.0202C20.9595 14.9827 20.9854 14.9548 21 14.9368V13.25C20.9115 13.2863 20.8216 13.321 20.7308 13.354C19.6 13.7652 18.104 14 16.5 14C14.896 14 13.4 13.7652 12.2692 13.354C12.1784 13.321 12.0885 13.2863 12 13.25V14.5204C12.0004 14.5357 12.0003 14.5509 12 14.5661ZM20.9159 11.0202C20.9241 11.0131 20.9317 11.0064 20.9387 11C20.9317 10.9936 20.9241 10.9869 20.9159 10.9798C20.7622 10.8477 20.4813 10.6834 20.0473 10.5256C19.1876 10.2129 17.9335 10 16.5 10C15.0665 10 13.8124 10.2129 12.9527 10.5256C12.5187 10.6834 12.2378 10.8477 12.0841 10.9798C12.0759 10.9869 12.0683 10.9936 12.0613 11C12.0683 11.0064 12.0759 11.0131 12.0841 11.0202C12.2378 11.1523 12.5187 11.3166 12.9527 11.4744C13.8124 11.7871 15.0665 12 16.5 12C17.9335 12 19.1876 11.7871 20.0473 11.4744C20.4813 11.3166 20.7622 11.1523 20.9159 11.0202ZM21 18.9368V17.25C20.9115 17.2863 20.8216 17.321 20.7308 17.354C19.6 17.7652 18.104 18 16.5 18C14.896 18 13.4 17.7652 12.2692 17.354C12.1784 17.321 12.0885 17.2863 12 17.25V18.9368C12.0146 18.9548 12.0405 18.9827 12.0841 19.0202C12.2378 19.1523 12.5187 19.3166 12.9527 19.4744C13.8124 19.7871 15.0665 20 16.5 20C17.9335 20 19.1876 19.7871 20.0473 19.4744C20.4813 19.3166 20.7622 19.1523 20.9159 19.0202C20.9595 18.9827 20.9854 18.9548 21 18.9368Z" fill="black"/>
</svg>
