<svg width="24" height="24" viewBox="0 0 24 24" fill="none" xmlns="http://www.w3.org/2000/svg">
<path fill-rule="evenodd" clip-rule="evenodd" d="M7 2.58579C7.37507 2.21071 7.88378 2 8.41421 2H20.8C21.4627 2 22 2.53726 22 3.2V15.5858C22 16.1162 21.7893 16.6249 21.4142 17L17 21.4142C16.6249 21.7893 16.1162 22 15.5858 22H3.2C2.53726 22 2 21.4627 2 20.8V8.41421C2 7.88378 2.21071 7.37507 2.58579 7L7 2.58579ZM18.5858 4L8.41421 4L5.41421 7H15.5858L18.5858 4ZM20 5.41421L17 8.41421V18.5858L20 15.5858V5.41421ZM15 9H4V20H15V9Z" fill="black"/>
</svg>
