<svg width="24" height="24" viewBox="0 0 24 24" fill="none" xmlns="http://www.w3.org/2000/svg">
<path fill-rule="evenodd" clip-rule="evenodd" d="M8.99903 3.00026C5.68533 3.00026 2.99904 5.68655 2.99904 9.00025C2.99904 11.6153 4.67202 13.8396 7.00607 14.6613C7.17899 10.5126 10.5114 7.18021 14.6601 7.0073C13.8384 4.67324 11.6141 3.00026 8.99903 3.00026ZM16.7963 7.20294C15.9807 3.65011 12.7993 1.00024 8.99903 1.00024C4.58075 1.00024 0.999023 4.58197 0.999023 9.00025C0.999023 12.8006 3.64889 15.982 7.20172 16.7976C8.01732 20.3504 11.1987 23.0003 14.999 23.0003C19.4173 23.0003 22.999 19.4185 22.999 15.0003C22.999 11.1999 20.3492 8.01855 16.7963 7.20294ZM8.99904 15.0002C8.99905 11.6865 11.6853 9.00027 14.999 9.00027C14.999 12.314 12.3127 15.0002 8.99904 15.0002ZM9.33797 16.9932C13.4867 16.8203 16.8191 13.4879 16.992 9.33919C19.326 10.1609 20.999 12.3852 20.999 15.0003C20.999 18.314 18.3127 21.0002 14.999 21.0002C12.384 21.0002 10.1597 19.3273 9.33797 16.9932Z" fill="black"/>
</svg>
