<svg width="24" height="24" viewBox="0 0 24 24" fill="none" xmlns="http://www.w3.org/2000/svg">
<path fill-rule="evenodd" clip-rule="evenodd" d="M11.597 1.18495C11.8628 1.13028 12.137 1.13028 12.4028 1.18495C12.7101 1.24815 12.9847 1.40198 13.203 1.52427C13.2234 1.53566 13.2432 1.54677 13.2626 1.55752L20.6626 5.66863C20.683 5.67999 20.7041 5.69161 20.7257 5.7035C20.9568 5.83081 21.2474 5.99088 21.4706 6.23306C21.6636 6.44244 21.8096 6.6906 21.8989 6.96095C22.0022 7.27366 22.001 7.60543 22.0001 7.86931C22 7.89397 21.9999 7.91804 21.9999 7.94144V16.0585C21.9999 16.082 22 16.106 22.0001 16.1307C22.001 16.3946 22.0022 16.7263 21.8989 17.039C21.8096 17.3094 21.6636 17.5575 21.4706 17.7669C21.2474 18.0091 20.9568 18.1692 20.7257 18.2965C20.7041 18.3084 20.683 18.32 20.6626 18.3314L13.2626 22.4425C13.2432 22.4532 13.2234 22.4643 13.203 22.4757C12.9847 22.598 12.7101 22.7518 12.4028 22.815C12.137 22.8697 11.8628 22.8697 11.597 22.815C11.2897 22.7518 11.0151 22.598 10.7967 22.4757C10.7764 22.4643 10.7565 22.4532 10.7372 22.4425L3.33721 18.3314C3.31675 18.32 3.29568 18.3084 3.27408 18.2965C3.04295 18.1692 2.75233 18.0091 2.52915 17.7669C2.3362 17.5575 2.19018 17.3094 2.10085 17.039C1.99753 16.7263 1.99874 16.3945 1.9997 16.1307C1.99979 16.106 1.99988 16.082 1.99988 16.0585V7.94144C1.99988 7.91804 1.99979 7.89397 1.9997 7.86931C1.99874 7.60544 1.99753 7.27366 2.10085 6.96096C2.19017 6.6906 2.3362 6.44244 2.52915 6.23306C2.75232 5.99088 3.04294 5.83081 3.27407 5.70351C3.29567 5.69161 3.31675 5.68 3.33721 5.66863L10.7372 1.55752C10.7565 1.54678 10.7764 1.53566 10.7967 1.52427C11.0151 1.40198 11.2897 1.24815 11.597 1.18495ZM11.9999 3.14898C11.9984 3.14971 11.9968 3.15047 11.9951 3.15127C11.9374 3.1791 11.86 3.22164 11.7085 3.30583L5.05902 6.99999L11.9998 10.856L18.9407 6.99997L12.2913 3.30583C12.1397 3.22164 12.0624 3.1791 12.0047 3.15127C12.003 3.15047 12.0014 3.14971 11.9999 3.14898ZM19.9999 8.69946V16.0585C19.9999 16.2415 19.9995 16.3352 19.9954 16.403C19.9953 16.405 19.9951 16.4069 19.995 16.4087C19.9935 16.4097 19.9919 16.4108 19.9902 16.4118C19.9329 16.4483 19.8512 16.4942 19.6913 16.583L12.9999 20.3005L12.9999 12.5884L19.9999 8.69946ZM10.9999 12.5884L3.99988 8.6995V16.0585C3.99988 16.2415 4.0003 16.3352 4.00438 16.403C4.0045 16.405 4.00462 16.4069 4.00474 16.4087C4.00628 16.4097 4.00789 16.4108 4.00958 16.4118C4.06688 16.4483 4.14854 16.4942 4.3085 16.583L10.9999 20.3005L10.9999 12.5884Z" fill="black"/>
</svg>
