<svg width="24" height="24" viewBox="0 0 24 24" fill="none" xmlns="http://www.w3.org/2000/svg">
<path fill-rule="evenodd" clip-rule="evenodd" d="M22 16C22 17.1046 21.1046 18 20 18V4H6C6 2.89543 6.89543 2 8 2H20C21.1046 2 22 2.89543 22 4V16ZM2 8C2 6.89543 2.89543 6 4 6H16C17.1046 6 18 6.89543 18 8V20C18 21.1046 17.1046 22 16 22H4C2.89543 22 2 21.1046 2 20V8ZM4 8H16V20H4V8Z" fill="black"/>
<path d="M9.29289 10.3429C9.68342 9.95237 10.3166 9.95237 10.7071 10.3429L13.7071 13.3429C14.0976 13.7334 14.0976 14.3666 13.7071 14.7571L10.7071 17.7571C10.3166 18.1476 9.68342 18.1476 9.29289 17.7571C8.90237 17.3666 8.90237 16.7334 9.29289 16.3429L10.5858 15.05H7C6.44772 15.05 6 14.6023 6 14.05C6 13.4977 6.44772 13.05 7 13.05H10.5858L9.29289 11.7571C8.90237 11.3666 8.90237 10.7334 9.29289 10.3429Z" fill="black"/>
</svg>
