<svg width="24" height="24" viewBox="0 0 24 24" fill="none" xmlns="http://www.w3.org/2000/svg">
<path fill-rule="evenodd" clip-rule="evenodd" d="M22 16.0002C22 17.1048 21.1046 18.0002 20 18.0002V4.00024H6C6 2.89567 6.89543 2.00024 8 2.00024H20C21.1046 2.00024 22 2.89567 22 4.00024V16.0002ZM2 8.00024C2 6.89567 2.89543 6.00024 4 6.00024H16C17.1046 6.00024 18 6.89567 18 8.00024V20.0002C18 21.1048 17.1046 22.0002 16 22.0002H4C2.89543 22.0002 2 21.1048 2 20.0002V8.00024ZM4 8.00024H16V20.0002H4V8.00024Z" fill="black"/>
</svg>
