<svg width="24" height="24" viewBox="0 0 24 24" fill="none" xmlns="http://www.w3.org/2000/svg">
<path fill-rule="evenodd" clip-rule="evenodd" d="M11.597 1.18496C11.8628 1.13029 12.137 1.13029 12.4028 1.18496C12.7101 1.24816 12.9847 1.40199 13.203 1.52428C13.2234 1.53567 13.2432 1.54678 13.2626 1.55753L12.7769 2.43168L13.2626 1.55753L14.7355 2.37584C15.2183 2.64406 15.3923 3.25286 15.124 3.73564C14.8558 4.21843 14.247 4.39237 13.7642 4.12416L12.2913 3.30584C12.1397 3.22165 12.0624 3.17911 12.0047 3.15128C12.003 3.15048 12.0014 3.14971 11.9999 3.14899C11.9984 3.14971 11.9968 3.15048 11.9951 3.15128C11.9374 3.17911 11.86 3.22165 11.7085 3.30584L10.2355 4.12416C9.75274 4.39237 9.14394 4.21843 8.87572 3.73564C8.60751 3.25286 8.78146 2.64406 9.26424 2.37584L10.7372 1.55753C10.7565 1.54678 10.7764 1.53567 10.7967 1.52428C11.0151 1.40198 11.2897 1.24816 11.597 1.18496ZM17.8757 5.26436C18.1439 4.78157 18.7527 4.60763 19.2355 4.87584L20.6626 5.66864C20.683 5.68 20.7041 5.69161 20.7257 5.70351C20.8858 5.7917 21.0745 5.89561 21.2495 6.03164C21.5057 6.09773 21.7354 6.26478 21.874 6.51436C22.004 6.74838 22.0302 7.01201 21.9676 7.2521C22.0015 7.47115 22.0007 7.68653 22.0001 7.86932C22 7.89398 21.9999 7.91804 21.9999 7.94145V9.5C21.9999 10.0523 21.5522 10.5 20.9999 10.5C20.4476 10.5 19.9999 10.0523 19.9999 9.5V8.69951L19.2355 9.12416C18.7527 9.39237 18.1439 9.21843 17.8757 8.73564C17.6075 8.25286 17.7815 7.64406 18.2642 7.37584L18.9408 7L18.2642 6.62416C17.7815 6.35594 17.6075 5.74714 17.8757 5.26436ZM6.12404 5.26436C6.39225 5.74714 6.21831 6.35595 5.73552 6.62416L5.05901 7L5.73552 7.37584C6.21831 7.64406 6.39225 8.25286 6.12404 8.73564C5.85582 9.21843 5.24702 9.39237 4.76424 9.12416L3.99988 8.69951V9.5C3.99988 10.0523 3.55217 10.5 2.99988 10.5C2.4476 10.5 1.99988 10.0523 1.99988 9.5V7.94145C1.99988 7.91804 1.99979 7.89398 1.9997 7.86932C1.99904 7.68653 1.99825 7.47115 2.03218 7.2521C1.96959 7.012 1.99571 6.74838 2.12572 6.51436C2.26438 6.26477 2.49406 6.09773 2.7503 6.03164C2.92531 5.89561 3.11396 5.7917 3.27406 5.70352C3.29567 5.69162 3.31675 5.68001 3.33721 5.66864L3.33721 5.66864L4.76424 4.87584C5.24702 4.60763 5.85582 4.78158 6.12404 5.26436ZM8.87572 10.2644C9.14394 9.78157 9.75274 9.60763 10.2355 9.87584L11.9999 10.856L13.7642 9.87584C14.247 9.60763 14.8558 9.78157 15.124 10.2644C15.3923 10.7471 15.2183 11.3559 14.7355 11.6242L12.9999 12.5884V14.5C12.9999 15.0523 12.5522 15.5 11.9999 15.5C11.4476 15.5 10.9999 15.0523 10.9999 14.5V12.5884L9.26424 11.6242C8.78145 11.3559 8.60751 10.7471 8.87572 10.2644ZM2.99988 13.5C3.55217 13.5 3.99988 13.9477 3.99988 14.5V16.0586C3.99988 16.2415 4.0003 16.3352 4.00438 16.403C4.0045 16.405 4.00462 16.4069 4.00474 16.4087C4.00628 16.4097 4.0079 16.4108 4.00959 16.4118C4.06688 16.4483 4.14855 16.4942 4.30849 16.583L3.87778 17.3583L4.30849 16.583L5.73552 17.3758C6.21831 17.6441 6.39225 18.2529 6.12404 18.7356C5.85583 19.2184 5.24702 19.3924 4.76424 19.1242L3.33721 18.3314L3.82285 17.4572L3.33721 18.3314C3.31676 18.32 3.29568 18.3084 3.27409 18.2965C3.04296 18.1692 2.75232 18.0091 2.52915 17.7669C2.3362 17.5576 2.19018 17.3094 2.10085 17.039C1.99753 16.7263 1.99874 16.3946 1.9997 16.1307C1.99979 16.106 1.99988 16.082 1.99988 16.0586V14.5C1.99988 13.9477 2.4476 13.5 2.99988 13.5ZM20.9999 13.5C21.5522 13.5 21.9999 13.9477 21.9999 14.5V16.0586C21.9999 16.082 22 16.106 22.0001 16.1307C22.001 16.3946 22.0022 16.7263 21.8989 17.039C21.8096 17.3094 21.6636 17.5576 21.4706 17.7669C21.2474 18.0091 20.9568 18.1692 20.7257 18.2965C20.7041 18.3084 20.683 18.32 20.6626 18.3314L19.2355 19.1242C18.7527 19.3924 18.1439 19.2184 17.8757 18.7356C17.6075 18.2529 17.7815 17.6441 18.2642 17.3758L19.6913 16.583C19.8512 16.4942 19.9329 16.4483 19.9902 16.4118C19.9919 16.4108 19.9935 16.4097 19.995 16.4087C19.9951 16.4069 19.9953 16.405 19.9954 16.403C19.9995 16.3352 19.9999 16.2415 19.9999 16.0586V14.5C19.9999 13.9477 20.4476 13.5 20.9999 13.5ZM11.9999 18.5C12.5522 18.5 12.9999 18.9477 12.9999 19.5V20.3005L13.7642 19.8758C14.247 19.6076 14.8558 19.7816 15.124 20.2644C15.3923 20.7471 15.2183 21.3559 14.7355 21.6242L13.2626 22.4425C13.2432 22.4532 13.2234 22.4643 13.203 22.4757C13.0527 22.5599 12.8758 22.659 12.6799 22.7332C12.5014 22.8988 12.2625 23 11.9999 23C11.7373 23 11.4983 22.8988 11.3199 22.7332C11.124 22.659 10.947 22.5599 10.7967 22.4757C10.7764 22.4643 10.7565 22.4532 10.7372 22.4425L9.26424 21.6242C8.78146 21.3559 8.60751 20.7471 8.87572 20.2644C9.14394 19.7816 9.75274 19.6076 10.2355 19.8758L10.9999 20.3005V19.5C10.9999 18.9477 11.4476 18.5 11.9999 18.5Z" fill="black"/>
</svg>
