<svg width="24" height="24" viewBox="0 0 24 24" fill="none" xmlns="http://www.w3.org/2000/svg">
<path fill-rule="evenodd" clip-rule="evenodd" d="M11.597 1.18495C11.8628 1.13028 12.137 1.13028 12.4028 1.18495C12.7101 1.24815 12.9847 1.40198 13.203 1.52427C13.2234 1.53566 13.2432 1.54677 13.2626 1.55752L20.6626 5.66863C20.683 5.67999 20.7041 5.69161 20.7257 5.7035C20.9568 5.83081 21.2474 5.99088 21.4706 6.23306C21.6636 6.44244 21.8096 6.6906 21.8989 6.96095C22.0022 7.27366 22.001 7.60543 22.0001 7.86931C22 7.89397 21.9999 7.91804 21.9999 7.94144V16.0585C21.9999 16.082 22 16.106 22.0001 16.1307C22.001 16.3946 22.0022 16.7263 21.8989 17.039C21.8096 17.3094 21.6636 17.5575 21.4706 17.7669C21.2474 18.0091 20.9568 18.1692 20.7257 18.2965C20.7041 18.3084 20.683 18.32 20.6626 18.3314L13.2626 22.4425C13.2432 22.4532 13.2234 22.4643 13.203 22.4757C12.9847 22.598 12.7101 22.7518 12.4028 22.815C12.137 22.8697 11.8628 22.8697 11.597 22.815C11.2897 22.7518 11.0151 22.598 10.7967 22.4757C10.7764 22.4643 10.7565 22.4532 10.7372 22.4425L3.33721 18.3314C3.31675 18.32 3.29568 18.3084 3.27408 18.2965C3.04295 18.1692 2.75233 18.0091 2.52915 17.7669C2.3362 17.5575 2.19018 17.3094 2.10085 17.039C1.99753 16.7263 1.99874 16.3945 1.9997 16.1307C1.99979 16.106 1.99988 16.082 1.99988 16.0585V7.94144C1.99988 7.91804 1.99979 7.89397 1.9997 7.86931C1.99874 7.60544 1.99753 7.27366 2.10085 6.96096C2.19017 6.6906 2.3362 6.44244 2.52915 6.23306C2.75232 5.99088 3.04294 5.83081 3.27407 5.70351C3.29567 5.69161 3.31675 5.68 3.33721 5.66863L10.7372 1.55752C10.7565 1.54678 10.7764 1.53566 10.7967 1.52427C11.0151 1.40198 11.2897 1.24815 11.597 1.18495ZM10.9999 3.69951V10.3005L5.05906 6.99996L10.9999 3.69951ZM3.99988 8.69945V15.3005L9.94077 12L3.99988 8.69945ZM10.9999 13.6995L5.05901 17L10.9999 20.3005V13.6995ZM12.9999 20.3005L18.9408 17L12.9999 13.6995V20.3005ZM14.059 12L19.9999 15.3005V8.69945L14.059 12ZM18.9407 6.99996L12.9999 3.69951V10.3005L18.9407 6.99996Z" fill="black"/>
</svg>
