<svg width="24" height="24" viewBox="0 0 24 24" fill="none" xmlns="http://www.w3.org/2000/svg">
<path fill-rule="evenodd" clip-rule="evenodd" d="M8.61165 1.9999C8.62909 1.99995 8.64612 1.99999 8.66269 1.99999L20.2231 1.99999C20.3422 1.99994 20.4845 1.99989 20.6098 2.01013C20.755 2.02199 20.963 2.05243 21.1809 2.16348C21.4632 2.30729 21.6926 2.53676 21.8365 2.81901C21.9475 3.03695 21.9779 3.24494 21.9898 3.39016C22.0001 3.51548 22 3.65773 22 3.77684C22 3.78466 21.9999 3.79238 21.9999 3.79999V15.3373C21.9999 15.3538 22 15.3709 22 15.3883C22.0005 15.5782 22.0012 15.8173 21.9447 16.0527C21.8957 16.2567 21.8149 16.4518 21.7052 16.6308C21.5788 16.8371 21.4092 17.0058 21.2746 17.1397C21.2622 17.152 21.2501 17.164 21.2384 17.1757L17.1757 21.2385C17.164 21.2502 17.152 21.2623 17.1397 21.2746C17.0057 21.4093 16.8371 21.5788 16.6307 21.7053C16.4518 21.8149 16.2567 21.8957 16.0526 21.9447C15.8173 22.0012 15.5782 22.0006 15.3882 22.0001C15.3708 22 15.3538 22 15.3372 22H3.79995C3.79234 22 3.78462 22 3.7768 22C3.65768 22 3.51543 22.0001 3.39012 21.9899C3.2449 21.978 3.03691 21.9476 2.81896 21.8365C2.53672 21.6927 2.30725 21.4632 2.16344 21.181C2.05239 20.963 2.02194 20.755 2.01008 20.6098C1.99984 20.4845 1.9999 20.3422 1.99994 20.2231L1.99995 8.66273C1.99995 8.64616 1.9999 8.62914 1.99985 8.6117C1.99935 8.42179 1.99871 8.18265 2.05521 7.94732C2.1042 7.74324 2.18501 7.54815 2.29467 7.36921C2.42112 7.16285 2.59067 6.99421 2.72532 6.86028C2.73768 6.84798 2.74975 6.83597 2.76147 6.82426L6.82421 2.76151C6.83593 2.7498 6.84794 2.73773 6.86024 2.72536C6.99416 2.59071 7.16281 2.42117 7.36916 2.29471C7.54811 2.18506 7.7432 2.10425 7.94727 2.05525C8.1826 1.99875 8.42174 1.99939 8.61165 1.9999ZM8.99995 3.99999V6.99999H15.5857L18.5857 3.99999H8.99995ZM19.9999 5.41421V15H16.9999V8.41421L19.9999 5.41421ZM14.9999 8.99999H8.99995V15H14.9999V8.99999ZM14.9999 17H8.41416L5.41416 20H14.9999V17ZM16.9999 18.5858L18.5857 17H16.9999V18.5858ZM3.99995 18.5858V8.99999H6.99995V15.5858L3.99995 18.5858ZM6.99995 6.99999V5.41421L5.41416 6.99999H6.99995Z" fill="black"/>
</svg>
