<svg width="24" height="24" viewBox="0 0 24 24" fill="none" xmlns="http://www.w3.org/2000/svg">
<path fill-rule="evenodd" clip-rule="evenodd" d="M4.90068 2.61979C4.91189 2.62381 4.92309 2.62784 4.93428 2.63185L20.8599 8.34875C21.1401 8.44932 21.4089 8.54576 21.616 8.64094C21.7909 8.72135 22.1736 8.90422 22.39 9.30182C22.6266 9.73658 22.6334 10.2601 22.4083 10.7009C22.2025 11.104 21.8247 11.2969 21.6519 11.3818C21.4474 11.4824 21.1813 11.5859 20.9038 11.6938L14.2726 14.2726L11.6938 20.9037C11.586 21.1812 11.4825 21.4474 11.3819 21.6519C11.2969 21.8246 11.1041 22.2024 10.701 22.4083C10.2601 22.6333 9.73665 22.6265 9.30189 22.3899C8.90429 22.1735 8.72142 21.7908 8.64101 21.6159C8.54583 21.4088 8.44939 21.1401 8.34883 20.8598L2.63197 4.93415C2.62795 4.92297 2.62393 4.91177 2.61991 4.90056C2.53898 4.67524 2.45686 4.44663 2.40669 4.2536C2.3591 4.07048 2.28021 3.71695 2.41147 3.3379C2.56196 2.90335 2.90347 2.56184 3.33803 2.41135C3.71708 2.28008 4.0706 2.35898 4.25372 2.40657C4.44675 2.45674 4.67536 2.53886 4.90068 2.61979ZM14.3434 14.0926C14.3435 14.0925 14.3435 14.0925 14.3434 14.0926ZM14.0927 14.3434C14.0925 14.3434 14.0925 14.3434 14.0927 14.3434ZM4.65762 4.6575L10.0376 19.6446L12.4405 13.4656C12.4432 13.4588 12.4462 13.4509 12.4496 13.4419C12.4827 13.355 12.5511 13.1752 12.6652 13.0152C12.7617 12.8799 12.88 12.7616 13.0153 12.6651C13.1753 12.551 13.355 12.4826 13.442 12.4495C13.4509 12.4461 13.4589 12.4431 13.4657 12.4404L19.6447 10.0375L4.65762 4.6575Z" fill="black"/>
</svg>
