<svg width="24" height="24" viewBox="0 0 24 24" fill="none" xmlns="http://www.w3.org/2000/svg">
<path d="M3.5 5.5C4.32843 5.5 5 4.82843 5 4C5 3.17157 4.32843 2.5 3.5 2.5C2.67157 2.5 2 3.17157 2 4C2 4.82843 2.67157 5.5 3.5 5.5Z" fill="#222727" fill-opacity="0.8"/>
<path d="M9 3C8.44772 3 8 3.44772 8 4C8 4.55228 8.44771 5 9 5H22C22.5523 5 23 4.55228 23 4C23 3.44772 22.5523 3 22 3H9Z" fill="#222727" fill-opacity="0.8"/>
<path d="M9 11C8.44772 11 8 11.4477 8 12C8 12.5523 8.44771 13 9 13H22C22.5523 13 23 12.5523 23 12C23 11.4477 22.5523 11 22 11H9Z" fill="#222727" fill-opacity="0.8"/>
<path d="M8 20C8 19.4477 8.44772 19 9 19H22C22.5523 19 23 19.4477 23 20C23 20.5523 22.5523 21 22 21H9C8.44771 21 8 20.5523 8 20Z" fill="#222727" fill-opacity="0.8"/>
<path d="M5 12C5 12.8284 4.32843 13.5 3.5 13.5C2.67157 13.5 2 12.8284 2 12C2 11.1716 2.67157 10.5 3.5 10.5C4.32843 10.5 5 11.1716 5 12Z" fill="#222727" fill-opacity="0.8"/>
<path d="M3.5 21.5C4.32843 21.5 5 20.8284 5 20C5 19.1716 4.32843 18.5 3.5 18.5C2.67157 18.5 2 19.1716 2 20C2 20.8284 2.67157 21.5 3.5 21.5Z" fill="#222727" fill-opacity="0.8"/>
</svg>
