<svg width="24" height="24" viewBox="0 0 24 24" fill="none" xmlns="http://www.w3.org/2000/svg">
<path d="M7.5 12C7.22386 12 7 12.2239 7 12.5V13.5C7 13.7761 7.22386 14 7.5 14H16.5C16.7761 14 17 13.7761 17 13.5V12.5C17 12.2239 16.7761 12 16.5 12H7.5Z" fill="black"/>
<path d="M7 16.5C7 16.2239 7.22386 16 7.5 16H16.5C16.7761 16 17 16.2239 17 16.5V17.5C17 17.7761 16.7761 18 16.5 18H7.5C7.22386 18 7 17.7761 7 17.5V16.5Z" fill="black"/>
<path fill-rule="evenodd" clip-rule="evenodd" d="M5 1C3.89543 1 3 1.89543 3 3V21C3 22.1046 3.89543 23 5 23H19C20.1046 23 21 22.1046 21 21V8.41421C21 7.88378 20.7893 7.37507 20.4142 7L15 1.58579C14.6249 1.21071 14.1162 1 13.5858 1H5ZM13 3L5 3V21H19V9H14C13.4477 9 13 8.55228 13 8V3ZM17.5858 7L15 4.41421V7H17.5858Z" fill="black"/>
</svg>
