<svg width="24" height="24" viewBox="0 0 24 24" fill="none" xmlns="http://www.w3.org/2000/svg">
<path fill-rule="evenodd" clip-rule="evenodd" d="M1.75195 4.02908C1.75195 2.77132 2.77156 1.75171 4.02932 1.75171C5.28707 1.75171 6.30669 2.77132 6.30669 4.02908C6.30669 5.28683 5.28707 6.30644 4.02932 6.30644C2.77156 6.30644 1.75195 5.28683 1.75195 4.02908ZM9.72274 4.02908C9.72274 2.77132 10.7423 1.75171 12.0001 1.75171C13.2579 1.75171 14.2775 2.77132 14.2775 4.02908C14.2775 5.28683 13.2579 6.30644 12.0001 6.30644C10.7423 6.30644 9.72274 5.28683 9.72274 4.02908ZM17.6935 4.02908C17.6935 2.77132 18.7131 1.75171 19.9709 1.75171C21.2286 1.75171 22.2483 2.77132 22.2483 4.02908C22.2483 5.28683 21.2286 6.30644 19.9709 6.30644C18.7131 6.30644 17.6935 5.28683 17.6935 4.02908ZM1.75195 11.9999C1.75195 10.7421 2.77156 9.72249 4.02932 9.72249C5.28707 9.72249 6.30669 10.7421 6.30669 11.9999C6.30669 13.2576 5.28707 14.2772 4.02932 14.2772C2.77156 14.2772 1.75195 13.2576 1.75195 11.9999ZM9.72274 11.9999C9.72274 10.7421 10.7423 9.72249 12.0001 9.72249C13.2579 9.72249 14.2775 10.7421 14.2775 11.9999C14.2775 13.2576 13.2579 14.2772 12.0001 14.2772C10.7423 14.2772 9.72274 13.2576 9.72274 11.9999ZM17.6935 11.9999C17.6935 10.7421 18.7131 9.72249 19.9709 9.72249C21.2286 9.72249 22.2483 10.7421 22.2483 11.9999C22.2483 13.2576 21.2286 14.2772 19.9709 14.2772C18.7131 14.2772 17.6935 13.2576 17.6935 11.9999ZM1.75195 19.9706C1.75195 18.7129 2.77156 17.6933 4.02932 17.6933C5.28707 17.6933 6.30669 18.7129 6.30669 19.9706C6.30669 21.2284 5.28707 22.248 4.02932 22.248C2.77156 22.248 1.75195 21.2284 1.75195 19.9706ZM9.72274 19.9706C9.72274 18.7129 10.7423 17.6933 12.0001 17.6933C13.2579 17.6933 14.2775 18.7129 14.2775 19.9706C14.2775 21.2284 13.2579 22.248 12.0001 22.248C10.7423 22.248 9.72274 21.2284 9.72274 19.9706ZM17.6935 19.9706C17.6935 18.7129 18.7131 17.6933 19.9709 17.6933C21.2286 17.6933 22.2483 18.7129 22.2483 19.9706C22.2483 21.2284 21.2286 22.248 19.9709 22.248C18.7131 22.248 17.6935 21.2284 17.6935 19.9706Z" fill="black"/>
</svg>
