<svg width="24" height="24" viewBox="0 0 24 24" fill="none" xmlns="http://www.w3.org/2000/svg">
<path fill-rule="evenodd" clip-rule="evenodd" d="M19.6035 17.7765C20.1322 18.2852 20.1322 19.11 19.6035 19.6187C19.0748 20.1274 18.2175 20.1274 17.6888 19.6187L12 14.1451L6.31116 19.6187C5.78245 20.1274 4.92524 20.1274 4.39653 19.6187C3.86782 19.11 3.86782 18.2852 4.39653 17.7765L11.0427 11.3818C11.5714 10.8731 12.4286 10.8731 12.9573 11.3818L19.6035 17.7765ZM19.6035 10.7765C20.1322 11.2852 20.1322 12.11 19.6035 12.6187C19.0748 13.1274 18.2175 13.1274 17.6888 12.6187L12 7.14508L6.31116 12.6187C5.78245 13.1274 4.92524 13.1274 4.39653 12.6187C3.86782 12.11 3.86782 11.2852 4.39653 10.7765L11.0427 4.38178C11.5714 3.87307 12.4286 3.87307 12.9573 4.38178L19.6035 10.7765Z" fill="black"/>
</svg>
