<svg width="24" height="24" viewBox="0 0 24 24" fill="none" xmlns="http://www.w3.org/2000/svg">
<path fill-rule="evenodd" clip-rule="evenodd" d="M19.6035 6.22398C20.1322 5.71527 20.1322 4.89049 19.6035 4.38178C19.0748 3.87307 18.2175 3.87307 17.6888 4.38178L12 9.85541L6.31116 4.38178C5.78245 3.87307 4.92524 3.87307 4.39653 4.38178C3.86782 4.89048 3.86782 5.71527 4.39653 6.22397L11.0427 12.6187C11.5714 13.1274 12.4286 13.1274 12.9573 12.6187L19.6035 6.22398ZM19.6035 13.224C20.1322 12.7153 20.1322 11.8905 19.6035 11.3818C19.0748 10.8731 18.2175 10.8731 17.6888 11.3818L12 16.8554L6.31116 11.3818C5.78245 10.8731 4.92524 10.8731 4.39653 11.3818C3.86782 11.8905 3.86782 12.7153 4.39653 13.224L11.0427 19.6187C11.5714 20.1274 12.4286 20.1274 12.9573 19.6187L19.6035 13.224Z" fill="black"/>
</svg>
