<svg width="24" height="24" viewBox="0 0 24 24" fill="none" xmlns="http://www.w3.org/2000/svg">
<path d="M14.9806 2.30388C14.8874 1.83798 14.4792 1.50197 14.0041 1.50001C13.529 1.49805 13.1181 1.83069 13.0211 2.29581C12.7805 3.44917 12.3374 4.55076 11.7123 5.54947C11.4193 6.01762 11.5613 6.63466 12.0295 6.92766C12.4976 7.22067 13.1147 7.07868 13.4077 6.61053C13.576 6.34156 13.726 6.06364 13.8763 5.78519C13.9188 5.7066 13.9612 5.62796 14.0041 5.54947C14.7248 7.18368 15.9894 8.67218 17.3753 9.78087C19.8792 11.784 20.8456 15.0571 19.0034 17.8343C18.3488 18.8212 17.4159 19.5915 16.323 20.0476C15.2301 20.5037 14.0264 20.625 12.8644 20.3961C11.7025 20.1673 10.6347 19.5986 9.79631 18.7621C9.40535 18.372 8.77218 18.3727 8.3821 18.7637C7.99201 19.1546 7.99272 19.7878 8.38368 20.1779C9.50241 21.2941 10.9274 22.053 12.4779 22.3584C14.0285 22.6638 15.6348 22.502 17.0932 21.8934C18.5517 21.2848 19.7966 20.2568 20.6701 18.9398C23.0847 15.2996 21.9377 10.8695 18.6247 8.21913C16.8008 6.76002 15.4326 4.56378 14.9806 2.30388Z" fill="black"/>
<path fill-rule="evenodd" clip-rule="evenodd" d="M7.98058 4.58391C7.8871 4.11649 7.47668 3.78003 7 3.78003C6.52332 3.78003 6.1129 4.11649 6.01942 4.58391C5.77579 5.80208 5.05247 6.98543 4.0853 7.75916C2.74214 8.83369 2 10.224 2 11.73C2 14.4894 4.23484 16.78 7 16.78C9.76516 16.78 12 14.4894 12 11.73C12 10.206 11.2407 8.84086 9.92213 7.76516C8.95318 6.9747 8.22292 5.79562 7.98058 4.58391ZM5.3347 9.3209C5.98735 8.79877 6.55461 8.14947 7.0031 7.42526C7.45197 8.146 8.01647 8.79164 8.65787 9.31489C9.61928 10.0992 10 10.9341 10 11.73C10 13.4107 8.63484 14.78 7 14.78C5.36516 14.78 4 13.4107 4 11.73C4 10.9361 4.37786 10.0864 5.3347 9.3209Z" fill="black"/>
</svg>
