<svg width="24" height="24" viewBox="0 0 24 24" fill="none" xmlns="http://www.w3.org/2000/svg"><path d="M12.6591 0C9.22474 0 6.54547 2.69197 6.54547 5.89034C6.54547 6.44407 7.03388 6.89295 7.63637 6.89295C8.23887 6.89295 8.72728 6.44407 8.72728 5.89034C8.72728 3.68989 10.5455 2.00522 12.6591 2.00522C13.2283 2.00522 13.7679 2.12421 14.256 2.33909C14.9125 2.62814 15.4812 3.09412 15.8929 3.68044C15.3824 3.38961 14.7117 3.53277 14.3931 4.00126C14.0738 4.47082 14.2291 5.08938 14.74 5.38286L17.0896 6.7325C17.2014 6.79901 17.3272 6.84724 17.462 6.8726C17.5593 6.89095 17.6581 6.89682 17.7557 6.89069C17.9223 6.88045 18.0787 6.83582 18.2165 6.76446C18.33 6.70589 18.4335 6.62784 18.5206 6.5314C18.5349 6.51568 18.5486 6.49956 18.5618 6.48305L20.3273 4.31959C20.6888 3.87661 20.5911 3.24817 20.1091 2.91594C19.6271 2.5837 18.9433 2.67348 18.5818 3.11646L18.2556 3.5162C17.6549 2.20272 16.5687 1.13386 15.1986 0.530661C14.4253 0.190193 13.5644 0 12.6591 0Z" fill="#333333"/><path fill-rule="evenodd" clip-rule="evenodd" d="M3 7.9375C1.89543 7.9375 1 8.83293 1 9.9375V21.9375C1 23.0421 1.89543 23.9375 3 23.9375H12C13.1046 23.9375 14 23.0421 14 21.9375V9.9375C14 8.83293 13.1046 7.9375 12 7.9375H3ZM12 9.9375H3L3 21.9375H12V9.9375Z" fill="#333333"/><path d="M18 7.9375C16.8954 7.9375 16 8.83293 16 9.9375V21.9375C16 23.0421 16.8954 23.9375 18 23.9375H21C22.1046 23.9375 23 23.0421 23 21.9375V9.9375C23 8.83293 22.1046 7.9375 21 7.9375H18Z" fill="#333333"/></svg>