<svg width="24" height="24" viewBox="0 0 24 24" fill="none" xmlns="http://www.w3.org/2000/svg">
<path fill-rule="evenodd" clip-rule="evenodd" d="M13.2583 3.91081C13.2583 3.40778 13.6661 3 14.1692 3H20.0894C20.5925 3 21.0002 3.40778 21.0002 3.91081V4.1295V4.14695V9.83108C21.0002 10.3341 20.5925 10.7419 20.0894 10.7419C19.5864 10.7419 19.1786 10.3341 19.1786 9.83108V6.27771L14.8005 10.4874C14.4379 10.8361 13.8613 10.8248 13.5127 10.4622C13.164 10.0996 13.1753 9.52301 13.5379 9.17436L18.0648 4.82162H14.1692C13.6661 4.82162 13.2583 4.41384 13.2583 3.91081ZM9.97538 11.259C9.89062 11.0608 9.82995 10.8874 9.78833 10.7541L10.7076 8.91545C10.9765 8.37776 10.9627 7.74211 10.671 7.21663L9.55684 5.20968C9.23565 4.63123 8.62601 4.27228 7.96422 4.27228H5.65409C3.90809 4.27228 2.54858 5.92686 3.14082 7.68208C3.91985 9.99086 5.44464 13.7202 7.85629 16.1318C10.2679 18.5434 13.9972 20.0682 16.306 20.8472C18.0612 21.4395 19.7158 20.0799 19.7158 18.334V16.0235C19.7158 15.3622 19.3573 14.7527 18.7792 14.4313L16.7667 13.3124C16.241 13.0202 15.6049 13.0062 15.0668 13.2753L13.2277 14.1948C13.0951 14.1537 12.9227 14.0936 12.7254 14.0096C12.2385 13.802 11.6229 13.458 11.0765 12.9116C10.5299 12.365 10.1844 11.7479 9.97538 11.259Z" fill="black"/>
</svg>
