<svg width="24" height="24" viewBox="0 0 24 24" fill="none" xmlns="http://www.w3.org/2000/svg">
<path fill-rule="evenodd" clip-rule="evenodd" d="M22.1142 1.77038C22.5361 2.19225 22.5361 2.87624 22.1142 3.29811L16.0903 9.32201C16.6361 10.1178 16.9554 11.0811 16.9554 12.1189C16.9554 14.8533 14.7387 17.07 12.0043 17.07C10.9664 17.07 10.0032 16.7507 9.20737 16.2049L3.17743 22.2349C2.75556 22.6567 2.07157 22.6567 1.6497 22.2349C1.22783 21.813 1.22783 21.129 1.6497 20.7071L4.32473 18.0321C3.60243 17.3754 2.99044 16.6816 2.48418 16.0239L2.44523 15.9733C2.05174 15.4624 1.66755 14.9635 1.40579 14.371C1.1207 13.7256 1.00195 13.03 1.00195 12.1188C1.00195 11.2077 1.12073 10.5121 1.40583 9.86672C1.66755 9.27427 2.05165 8.77551 2.44501 8.26471L2.48417 8.21386C4.27162 5.89166 7.37711 3.1193 12.002 3.1193C14.2351 3.1193 16.1139 3.76567 17.6612 4.69562L20.5865 1.77038C21.0083 1.34851 21.6923 1.34851 22.1142 1.77038ZM10.6603 14.752C11.0635 14.9582 11.5203 15.0746 12.0043 15.0746C13.6366 15.0746 14.9599 13.7513 14.9599 12.1189C14.9599 11.6349 14.8436 11.1781 14.6374 10.7749L10.6603 14.752ZM13.0159 9.3409L9.22627 13.1306C9.1113 12.815 9.04859 12.4743 9.04859 12.1189C9.04859 10.4865 10.3719 9.16322 12.0043 9.16322C12.3596 9.16322 12.7003 9.22594 13.0159 9.3409ZM14.5094 7.84741C13.7745 7.41547 12.9183 7.16777 12.0043 7.16777C9.26983 7.16777 7.05313 9.38446 7.05313 12.1189C7.05313 13.033 7.30083 13.8892 7.73277 14.6241L5.73678 16.6201C5.09245 16.0434 4.53678 15.4191 4.06543 14.8067C3.62227 14.231 3.38572 13.9147 3.23109 13.5647C3.09115 13.2479 2.99741 12.8475 2.99741 12.1188C2.99741 11.3903 3.09116 10.9899 3.23111 10.6731C3.38576 10.323 3.62231 10.0067 4.06543 9.431C5.67288 7.34266 8.26108 5.11476 12.002 5.11476C13.6084 5.11476 15.0022 5.52558 16.1971 6.15977L14.5094 7.84741ZM9.22514 18.6838C10.0693 18.9611 10.9937 19.1229 12.002 19.1229C15.7428 19.1229 18.3309 16.8951 19.9385 14.8067C20.3816 14.231 20.6181 13.9147 20.7728 13.5646C20.9127 13.2478 21.0065 12.8474 21.0065 12.1188C21.0065 11.3903 20.9127 10.9899 20.7728 10.6731C20.6181 10.323 20.3816 10.0068 19.9384 9.43102C19.7339 9.16533 19.5135 8.89737 19.2769 8.63204L20.6895 7.21942C20.9925 7.55382 21.269 7.88825 21.5196 8.21384L21.5587 8.26459C21.9521 8.77542 22.3363 9.27421 22.5981 9.8667C22.8832 10.5121 23.002 11.2077 23.002 12.1188C23.002 13.03 22.8832 13.7256 22.5981 14.371C22.3364 14.9634 21.9523 15.4622 21.5589 15.973L21.5198 16.0238C19.7322 18.346 16.6268 21.1184 12.002 21.1184C10.3759 21.1184 8.93773 20.7757 7.67858 20.2304L9.22514 18.6838Z" fill="black"/>
</svg>
