<svg width="24" height="24" viewBox="0 0 24 24" fill="none" xmlns="http://www.w3.org/2000/svg">
<path fill-rule="evenodd" clip-rule="evenodd" d="M4.06726 9.31453C5.67412 7.22696 8.26108 5.00024 12 5.00024C15.7389 5.00024 18.3258 7.22695 19.9326 9.31453L19.9327 9.31455C20.3758 9.89021 20.6121 10.2061 20.7666 10.5558C20.9063 10.8721 21 11.2721 21 12.0002C21 12.7284 20.9063 13.1284 20.7666 13.4447C20.6121 13.7944 20.3758 14.1103 19.9328 14.6859C18.3258 16.7735 15.7389 19.0002 12 19.0002C8.26108 19.0002 5.67412 16.7735 4.06726 14.686L4.06725 14.6859C3.62414 14.1103 3.38786 13.7944 3.23341 13.4447C3.09369 13.1284 3 12.7285 3 12.0002C3 11.2721 3.0937 10.8721 3.23344 10.5558C3.38791 10.2061 3.62419 9.89019 4.06726 9.31453ZM12 3.00024C7.3751 3.00024 4.26967 5.77266 2.4824 8.09462L2.48238 8.09464L2.44318 8.14555C2.04996 8.65615 1.66578 9.15502 1.404 9.74762C1.11878 10.3933 1 11.0891 1 12.0002C1 12.9114 1.11875 13.6072 1.40396 14.2529C1.66578 14.8456 2.05005 15.3445 2.4434 15.8552L2.48241 15.9059C4.26967 18.2278 7.3751 21.0002 12 21.0002C16.6249 21.0002 19.7302 18.2278 21.5176 15.9059L21.5176 15.9059L21.5568 15.8549C21.95 15.3443 22.3342 14.8455 22.596 14.2529C22.8812 13.6072 23 12.9114 23 12.0002C23 11.0891 22.8812 10.3932 22.596 9.7476C22.3342 9.15496 21.9499 8.65608 21.5566 8.14544L21.5175 8.09462C19.7302 5.77267 16.6249 3.00024 12 3.00024ZM10 12.0003C10 10.8956 10.8954 10.0002 12 10.0002C13.1047 10.0002 14.0001 10.8956 14.0001 12.0003C14.0001 13.1049 13.1047 14.0003 12 14.0003C10.8954 14.0003 10 13.1049 10 12.0003ZM12 8.00024C9.79083 8.00024 8 9.79107 8 12.0003C8 14.2095 9.79083 16.0003 12 16.0003C14.2093 16.0003 16.0001 14.2095 16.0001 12.0003C16.0001 9.79107 14.2093 8.00024 12 8.00024Z" fill="black"/>
</svg>
