<svg width="24" height="24" viewBox="0 0 24 24" fill="none" xmlns="http://www.w3.org/2000/svg">
<path fill-rule="evenodd" clip-rule="evenodd" d="M11.999 3.00026C7.02848 3.00026 2.99904 7.0297 2.99904 12.0003C2.99904 16.9708 7.02848 21.0002 11.999 21.0002C16.9696 21.0002 20.999 16.9708 20.999 12.0003C20.999 7.0297 16.9696 3.00026 11.999 3.00026ZM0.999023 12.0003C0.999023 5.92512 5.9239 1.00024 11.999 1.00024C18.0742 1.00024 22.999 5.92512 22.999 12.0003C22.999 18.0754 18.0742 23.0003 11.999 23.0003C5.9239 23.0003 0.999023 18.0754 0.999023 12.0003ZM7.49902 9.00025C7.49902 8.17182 8.1706 7.50024 8.99903 7.50024C9.82747 7.50024 10.499 8.17182 10.499 9.00025C10.499 9.82869 9.82747 10.5003 8.99903 10.5003C8.1706 10.5003 7.49902 9.82869 7.49902 9.00025ZM13.499 9.00025C13.499 8.17182 14.1706 7.50024 14.999 7.50024C15.8275 7.50024 16.499 8.17182 16.499 9.00025C16.499 9.82869 15.8275 10.5003 14.999 10.5003C14.1706 10.5003 13.499 9.82869 13.499 9.00025ZM8.79859 13.3996L8.7959 13.3961C8.46372 12.9579 7.83947 12.8699 7.39903 13.2002C6.9572 13.5316 6.86765 14.1584 7.19903 14.6003L7.99903 14.0003C7.19903 14.6003 7.19903 14.6003 7.19903 14.6003L7.20119 14.6031L7.20393 14.6068L7.21114 14.6162L7.23244 14.6434C7.24968 14.6652 7.27303 14.6941 7.30239 14.7291C7.36103 14.7989 7.44403 14.8936 7.55048 15.0047C7.76255 15.226 8.07246 15.5174 8.47336 15.809C9.2713 16.3893 10.4735 17.0003 11.999 17.0003C13.5246 17.0003 14.7268 16.3893 15.5247 15.809C15.9256 15.5174 16.2355 15.226 16.4476 15.0047C16.554 14.8936 16.637 14.7989 16.6957 14.7291C16.725 14.6941 16.7484 14.6652 16.7656 14.6434L16.7869 14.6162L16.7941 14.6068L16.7969 14.6031L16.798 14.6016C16.798 14.6016 16.799 14.6003 16.7941 14.6068L16.799 14.6003C17.1304 14.1584 17.0409 13.5316 16.599 13.2002C16.1586 12.8699 15.5344 12.9579 15.2022 13.3961L15.1997 13.3994L15.2006 13.3981L15.2022 13.3961L15.1975 13.402C15.1916 13.4095 15.1803 13.4236 15.1637 13.4433C15.1306 13.4828 15.0768 13.5444 15.0036 13.6208C14.8563 13.7745 14.635 13.9831 14.3484 14.1915C13.7713 14.6112 12.9735 15.0002 11.999 15.0002C11.0246 15.0002 10.2268 14.6112 9.64971 14.1915C9.36311 13.9831 9.14177 13.7745 8.99447 13.6208C8.92123 13.5444 8.8675 13.4828 8.83435 13.4433C8.81781 13.4236 8.8065 13.4095 8.80054 13.402L8.7959 13.3961L8.79743 13.3981L8.79859 13.3996Z" fill="black"/>
</svg>
