<svg width="24" height="24" viewBox="0 0 24 24" fill="none" xmlns="http://www.w3.org/2000/svg">
<path fill-rule="evenodd" clip-rule="evenodd" d="M4.84696 5.25204C4.04261 4.65575 4.48125 3.40405 5.45797 3.40405H13.9515C14.2191 3.40405 14.4726 3.52433 14.6418 3.73164C14.7932 3.91703 14.9915 4.14249 15.2281 4.41139L15.4156 4.62471C15.7277 4.98045 16.0795 5.38687 16.4144 5.8093C16.7477 6.22988 17.0774 6.6826 17.3405 7.13375C17.3864 7.21246 17.4314 7.29313 17.4749 7.37545C18.7803 6.76436 20.3041 6.54186 22.1405 6.97335L23 7.17528L22.806 8.03658C22.3751 9.95047 22.0086 11.4065 21.3913 12.714C20.7634 14.0441 19.8986 15.1767 18.5342 16.5107C16.3363 19.4624 13.2457 20.5207 10.2368 20.592C6.84899 20.6723 3.51813 19.5138 1.47254 18.4255C1.18173 18.2708 1 17.9682 1 17.6388V8.70623C1 8.33773 1.22682 8.00724 1.57068 7.87474C1.91453 7.74223 2.30447 7.83505 2.55176 8.10826C5.01001 10.8242 7.36865 12.5029 9.49125 13.4895C10.3067 13.4826 11.025 13.1199 11.7939 12.4618C11.9409 12.3359 12.0847 12.2041 12.2272 12.0668C10.4811 9.42655 9.31124 8.22672 8.32634 7.47774C7.7958 7.0743 7.30075 6.78717 6.73608 6.46028L6.73393 6.45904C6.17288 6.13425 5.55275 5.77526 4.84696 5.25204ZM15.9544 8.31679C15.5387 8.638 15.1541 8.98737 14.794 9.34324C14.4071 9.69998 14.0321 10.0855 13.5113 10.621L13.448 10.6861C11.7767 8.21383 10.5467 6.92725 9.40511 6.05914C8.94481 5.7091 8.50811 5.4345 8.08907 5.18624H13.5379C13.6518 5.31786 13.775 5.45789 13.9014 5.60156L14.0758 5.79997C14.3844 6.15169 14.7119 6.53051 15.0177 6.91639C15.3251 7.30413 15.5976 7.68281 15.8009 8.03146C15.8607 8.13411 15.9116 8.22922 15.9544 8.31679ZM16.0321 10.6257C15.8666 10.7896 15.702 10.9597 15.5371 11.1349C15.3136 11.3722 15.0844 11.6251 14.8506 11.8832C14.2448 12.5519 13.6071 13.2557 12.9527 13.8158C12.7 14.0321 12.4341 14.2372 12.153 14.4215C14.9835 15.0857 17.1478 14.5367 18.1857 13.9391L18.764 13.6061C19.1909 13.0503 19.5131 12.5178 19.7797 11.9532C20.2149 11.0313 20.5175 9.99299 20.8568 8.55985C19.8017 8.45445 18.9419 8.64968 18.1942 9.0067C18.1189 9.04267 18.0444 9.08043 17.9706 9.1199L17.5382 9.43096C16.8564 9.92136 16.442 10.2497 16.0321 10.6257ZM11.4537 16.0839C8.85107 15.4108 5.87188 13.8639 2.78219 10.9035V17.0921C4.65633 18.0015 7.43681 18.8757 10.1946 18.8103C12.2522 18.7616 14.2728 18.196 15.9263 16.733C14.2367 16.6667 13.0917 16.5097 12.1748 16.2866C11.9209 16.2248 11.6819 16.1565 11.4537 16.0839Z" fill="black"/>
</svg>
