<svg width="24" height="24" viewBox="0 0 24 24" fill="none" xmlns="http://www.w3.org/2000/svg">
<path fill-rule="evenodd" clip-rule="evenodd" d="M14.2242 3.05526C14.0208 3.00643 13.7931 3 13.0118 3H8.5C8.00379 3 7.85253 3.00216 7.73895 3.01711C6.84148 3.13527 6.13526 3.84148 6.01711 4.73895C6.00216 4.85253 6 5.0038 6 5.5C6 6.05229 5.55228 6.5 5 6.5C4.44772 6.5 4 6.05229 4 5.5C4 5.47674 3.99999 5.45382 3.99999 5.43124C3.99988 5.0338 3.9998 4.73935 4.03422 4.4779C4.27053 2.68296 5.68296 1.27053 7.4779 1.03422C7.73935 0.999801 8.0338 0.999882 8.43124 0.99999C8.45382 0.999996 8.47674 1 8.5 1H13.0118C13.0462 1 13.0801 0.999986 13.1137 0.99997C13.7487 0.999668 14.2284 0.999439 14.6911 1.11052C15.0993 1.20851 15.4895 1.37013 15.8474 1.58944C16.2531 1.83807 16.5922 2.1775 17.041 2.62673C17.0647 2.65044 17.0887 2.67446 17.113 2.69878L20.3012 5.88701C20.3255 5.91132 20.3495 5.93531 20.3732 5.95899C20.8225 6.4078 21.1619 6.74692 21.4106 7.15265C21.6299 7.51054 21.7915 7.90071 21.8895 8.30886C22.0006 8.77155 22.0003 9.25134 22 9.88633C22 9.91986 22 9.95381 22 9.98823V17.2413C22 18.0463 22 18.7106 21.9558 19.2518C21.9099 19.8139 21.8113 20.3306 21.564 20.816C21.1805 21.5686 20.5686 22.1805 19.816 22.564C19.3306 22.8113 18.8139 22.9099 18.2518 22.9558C17.7106 23 17.0463 23 16.2413 23H8.5C8.47673 23 8.45381 23 8.43122 23C8.03379 23.0001 7.73935 23.0002 7.4779 22.9658C5.68296 22.7295 4.27053 21.317 4.03422 19.5221C3.9998 19.2607 3.99988 18.9662 3.99999 18.5688C3.99999 18.5462 4 18.5233 4 18.5C4 17.9477 4.44772 17.5 5 17.5C5.55228 17.5 6 17.9477 6 18.5C6 18.9962 6.00216 19.1475 6.01711 19.2611C6.13526 20.1585 6.84148 20.8647 7.73895 20.9829C7.85253 20.9978 8.00379 21 8.5 21H16.2C17.0566 21 17.6389 20.9992 18.089 20.9625C18.5274 20.9266 18.7516 20.8617 18.908 20.782C19.2843 20.5903 19.5903 20.2843 19.782 19.908C19.8617 19.7516 19.9266 19.5274 19.9624 19.089C19.9992 18.6389 20 18.0566 20 17.2V9.98823C20 9.20685 19.9936 8.97916 19.9447 8.77575C19.8957 8.57168 19.8149 8.37659 19.7053 8.19764C19.596 8.01929 19.4395 7.85372 18.887 7.30122L15.6988 4.113C15.1463 3.56048 14.9807 3.40402 14.8024 3.29472C14.6234 3.18506 14.4283 3.10426 14.2242 3.05526ZM5.70711 8.7929C6.09763 9.18342 6.09763 9.81658 5.70711 10.2071L3.91421 12L5.70711 13.7929C6.09763 14.1834 6.09763 14.8166 5.70711 15.2071C5.31658 15.5976 4.68342 15.5976 4.29289 15.2071L1.79289 12.7071C1.40237 12.3166 1.40237 11.6834 1.79289 11.2929L4.29289 8.7929C4.68342 8.40237 5.31658 8.40237 5.70711 8.7929ZM8.29289 8.7929C8.68342 8.40237 9.31658 8.40237 9.70711 8.7929L12.2071 11.2929C12.5976 11.6834 12.5976 12.3166 12.2071 12.7071L9.70711 15.2071C9.31658 15.5976 8.68342 15.5976 8.29289 15.2071C7.90237 14.8166 7.90237 14.1834 8.29289 13.7929L10.0858 12L8.29289 10.2071C7.90237 9.81658 7.90237 9.18342 8.29289 8.7929Z" fill="black"/>
</svg>
