<svg width="24" height="24" viewBox="0 0 24 24" fill="none" xmlns="http://www.w3.org/2000/svg">
<path d="M15.2413 1H8.7587C7.95374 0.999988 7.28937 0.999978 6.74818 1.04419C6.18608 1.09012 5.66937 1.18868 5.18404 1.43598C4.43139 1.81947 3.81947 2.43139 3.43598 3.18404C3.18868 3.66937 3.09012 4.18608 3.04419 4.74818C2.99998 5.28937 2.99999 5.95372 3 6.75869V17.2413C2.99999 18.0463 2.99998 18.7106 3.04419 19.2518C3.09012 19.8139 3.18868 20.3306 3.43598 20.816C3.81947 21.5686 4.43139 22.1805 5.18404 22.564C5.66937 22.8113 6.18608 22.9099 6.74818 22.9558C7.28937 23 7.95372 23 8.75868 23H14C14.5523 23 15 22.5523 15 22C15 21.4477 14.5523 21 14 21H8.8C7.94342 21 7.36113 20.9992 6.91104 20.9624C6.47262 20.9266 6.24842 20.8617 6.09202 20.782C5.7157 20.5903 5.40973 20.2843 5.21799 19.908C5.1383 19.7516 5.07337 19.5274 5.03755 19.089C5.00078 18.6389 5 18.0566 5 17.2V6.8C5 5.94342 5.00078 5.36113 5.03755 4.91104C5.07337 4.47262 5.1383 4.24842 5.21799 4.09202C5.40973 3.7157 5.7157 3.40973 6.09202 3.21799C6.24842 3.1383 6.47262 3.07337 6.91104 3.03755C7.36113 3.00078 7.94342 3 8.8 3H15.2C16.0566 3 16.6389 3.00078 17.089 3.03755C17.5274 3.07337 17.7516 3.1383 17.908 3.21799C18.2843 3.40973 18.5903 3.7157 18.782 4.09202C18.8617 4.24842 18.9266 4.47262 18.9624 4.91104C18.9992 5.36113 19 5.94342 19 6.8V9.5C19 10.0523 19.4477 10.5 20 10.5C20.5523 10.5 21 10.0523 21 9.5V6.75868C21 5.95372 21 5.28937 20.9558 4.74818C20.9099 4.18608 20.8113 3.66937 20.564 3.18404C20.1805 2.43139 19.5686 1.81947 18.816 1.43598C18.3306 1.18868 17.8139 1.09012 17.2518 1.04419C16.7106 0.999978 16.0463 0.999988 15.2413 1Z" fill="black"/>
<path d="M8 6C7.44772 6 7 6.44772 7 7C7 7.55229 7.44772 8 8 8H16C16.5523 8 17 7.55229 17 7C17 6.44772 16.5523 6 16 6H8Z" fill="black"/>
<path d="M8 10C7.44772 10 7 10.4477 7 11C7 11.5523 7.44772 12 8 12H14C14.5523 12 15 11.5523 15 11C15 10.4477 14.5523 10 14 10H8Z" fill="black"/>
<path d="M8 14C7.44772 14 7 14.4477 7 15C7 15.5523 7.44772 16 8 16H10C10.5523 16 11 15.5523 11 15C11 14.4477 10.5523 14 10 14H8Z" fill="black"/>
<path d="M17.9887 14.6721C18.2428 14.5227 18.5417 14.4681 18.8322 14.518C19.1228 14.5678 19.3863 14.7189 19.5762 14.9444C19.766 15.1699 19.87 15.4554 19.8695 15.7502V15.7517C19.8695 15.9703 19.6923 16.2714 19.1907 16.6059C18.9702 16.7528 18.7427 16.8673 18.5664 16.9457C18.4796 16.9842 18.4087 17.0125 18.3618 17.0304C18.3384 17.0393 18.3213 17.0455 18.3114 17.049L18.3039 17.0517C17.7806 17.2268 17.498 17.7927 17.6725 18.3162C17.8343 18.8015 18.3321 19.0803 18.821 18.9799C18.9877 18.9457 19.12 18.8882 19.3786 18.7733C19.6238 18.6643 19.9584 18.4978 20.3001 18.27C20.9224 17.8551 21.8691 17.0324 21.8695 15.7526C21.8705 14.9857 21.6001 14.2431 21.1062 13.6564C20.6122 13.0695 19.9264 12.6765 19.1703 12.5468C18.4143 12.4171 17.6367 12.5592 16.9753 12.9478C16.314 13.3365 15.8115 13.9467 15.5569 14.6704C15.3737 15.1914 15.6474 15.7623 16.1684 15.9456C16.6894 16.1288 17.2603 15.8551 17.4436 15.3341C17.5414 15.056 17.7345 14.8215 17.9887 14.6721Z" fill="black"/>
<path d="M18.6502 20C18.0979 20 17.6502 20.4477 17.6502 21C17.6502 21.5523 18.0979 22 18.6502 22H18.6602C19.2125 22 19.6602 21.5523 19.6602 21C19.6602 20.4477 19.2125 20 18.6602 20H18.6502Z" fill="black"/>
</svg>
