<svg width="24" height="24" viewBox="0 0 24 24" fill="none" xmlns="http://www.w3.org/2000/svg">
<path fill-rule="evenodd" clip-rule="evenodd" d="M10.09 4.05466C9.96938 4.01305 9.8127 4 9.02229 4H5.2C4.62345 4 4.25118 4.00078 3.96784 4.02393C3.69617 4.04612 3.59546 4.0838 3.54601 4.109C3.35785 4.20487 3.20487 4.35785 3.109 4.54601C3.0838 4.59546 3.04612 4.69617 3.02393 4.96784C3.00357 5.21698 3.00052 5.5349 3.00007 6H11.382L10.99 5.21613C10.6366 4.50918 10.5548 4.37487 10.4637 4.28558C10.3578 4.18187 10.2301 4.10299 10.09 4.05466ZM13.618 6L12.7789 4.32171C12.7602 4.28432 12.7417 4.24722 12.7234 4.21043C12.4586 3.67919 12.2258 3.212 11.8631 2.85675C11.5454 2.5456 11.1625 2.30896 10.7421 2.16397C10.2622 1.99842 9.74022 1.99911 9.14666 1.99989C9.10555 1.99995 9.0641 2 9.02229 2L5.16146 2C4.63431 1.99998 4.17955 1.99997 3.80497 2.03057C3.40963 2.06287 3.01641 2.13419 2.63803 2.32698C2.07354 2.6146 1.6146 3.07354 1.32698 3.63803C1.13419 4.01641 1.06287 4.40963 1.03057 4.80497C0.999967 5.17955 0.999983 5.63431 1 6.16146L1 16.2413C0.999989 17.0463 0.999978 17.7106 1.0442 18.2518C1.09012 18.8139 1.18868 19.3306 1.43598 19.816C1.81947 20.5686 2.43139 21.1805 3.18404 21.564C3.66938 21.8113 4.18608 21.9099 4.74818 21.9558C5.28937 22 5.95372 22 6.75868 22H17.2413C18.0463 22 18.7106 22 19.2518 21.9558C19.8139 21.9099 20.3306 21.8113 20.816 21.564C21.5686 21.1805 22.1805 20.5686 22.564 19.816C22.8113 19.3306 22.9099 18.8139 22.9558 18.2518C23 17.7106 23 17.0463 23 16.2413V11.7587C23 10.9537 23 10.2894 22.9558 9.74818C22.9099 9.18608 22.8113 8.66938 22.564 8.18404C22.1805 7.43139 21.5686 6.81947 20.816 6.43598C20.3306 6.18869 19.8139 6.09012 19.2518 6.0442C18.7106 5.99998 18.0463 5.99999 17.2413 6L13.618 6ZM12.9799 8C12.9938 8.00029 13.0077 8.00029 13.0217 8H17.2C18.0566 8 18.6389 8.00078 19.089 8.03755C19.5274 8.07337 19.7516 8.1383 19.908 8.21799C20.2843 8.40974 20.5903 8.7157 20.782 9.09202C20.8617 9.24842 20.9266 9.47262 20.9625 9.91104C20.9992 10.3611 21 10.9434 21 11.8V16.2C21 17.0566 20.9992 17.6389 20.9625 18.089C20.9266 18.5274 20.8617 18.7516 20.782 18.908C20.5903 19.2843 20.2843 19.5903 19.908 19.782C19.7516 19.8617 19.5274 19.9266 19.089 19.9625C18.6389 19.9992 18.0566 20 17.2 20H6.8C5.94342 20 5.36113 19.9992 4.91104 19.9625C4.47262 19.9266 4.24842 19.8617 4.09202 19.782C3.7157 19.5903 3.40974 19.2843 3.21799 18.908C3.1383 18.7516 3.07337 18.5274 3.03755 18.089C3.00078 17.6389 3 17.0566 3 16.2V8H12.9799ZM13.1496 9.69978C13.1497 9.69981 13.1495 9.69975 13.1496 9.69978L15.3365 10.4812C15.7344 10.6234 16 11.0003 16 11.4229V13.9252C16 15.4643 14.9436 16.6151 14.1405 17.2849C13.7141 17.6405 13.2929 17.9161 12.9806 18.1021C12.8233 18.1958 12.6909 18.2685 12.5956 18.3188C12.5479 18.344 12.5093 18.3637 12.4812 18.3777L12.4473 18.3945L12.4366 18.3997L12.4329 18.4015L12.4314 18.4021C12.4312 18.4023 12.4303 18.4027 12 17.5C11.5697 18.4027 11.5695 18.4026 11.5692 18.4024L11.5671 18.4015L11.5634 18.3997L11.5527 18.3945L11.5188 18.3777C11.4907 18.3637 11.4521 18.344 11.4044 18.3188C11.3091 18.2685 11.1767 18.1958 11.0194 18.1021C10.7071 17.9161 10.2859 17.6405 9.85946 17.2849C9.05645 16.6151 8 15.4643 8 13.9252V11.4229C8 11.0004 8.26552 10.6235 8.66335 10.4813L10.8492 9.69978C10.8494 9.69971 10.849 9.69985 10.8492 9.69978C11.5926 9.43364 12.4062 9.43357 13.1496 9.69978ZM12 17.5L11.5692 18.4024C11.8414 18.5322 12.1581 18.5324 12.4303 18.4027L12 17.5ZM12 16.3581C12.2442 16.2104 12.5541 16.0037 12.8595 15.749C13.5565 15.1676 14 14.5311 14 13.9252V12.1275L12.4759 11.5829C12.1683 11.4727 11.8312 11.4725 11.5236 11.5826L10 12.1274V13.9252C10 14.5311 10.4436 15.1676 11.1405 15.749C11.4459 16.0037 11.7558 16.2104 12 16.3581Z" fill="black"/>
</svg>
