<svg width="24" height="24" viewBox="0 0 24 24" fill="none" xmlns="http://www.w3.org/2000/svg">
<path fill-rule="evenodd" clip-rule="evenodd" d="M10.4071 4H13.5933C14.8701 3.99999 15.8874 3.99999 16.712 4.0653C17.5578 4.1323 18.2815 4.27242 18.9536 4.59692C20.042 5.12248 20.9463 5.9645 21.5481 7.01271C21.9196 7.65992 22.1109 8.37184 22.238 9.21073C22.3619 10.0286 22.4344 11.0433 22.5254 12.3168L22.7744 15.8033C22.9364 18.071 21.1403 20 18.8667 20C17.7041 20 16.6015 19.4836 15.8571 18.5904L15.482 18.1402C15.1166 17.7017 15.0067 17.5752 14.8917 17.4773C14.6187 17.2448 14.2881 17.09 13.9347 17.0291C13.7859 17.0034 13.6184 17 13.0476 17H10.9528C10.382 17 10.2145 17.0034 10.0657 17.0291C9.71223 17.09 9.38168 17.2448 9.10863 17.4773C8.99363 17.5752 8.88381 17.7017 8.51841 18.1402L8.14325 18.5904C7.39892 19.4836 6.29632 20 5.13365 20C2.86008 20 1.06399 18.071 1.22598 15.8033L1.47501 12.3169C1.56597 11.0433 1.63844 10.0286 1.76234 9.21073C1.88943 8.37184 2.08076 7.65992 2.45231 7.01271C3.05408 5.9645 3.9584 5.12248 5.04682 4.59692C5.71885 4.27242 6.4426 4.1323 7.28841 4.0653C8.113 3.99999 9.13029 3.99999 10.4071 4ZM7.44633 6.05906C6.72216 6.11642 6.27461 6.22502 5.91647 6.39795C5.19086 6.74832 4.58798 7.30967 4.1868 8.00847C3.9888 8.35338 3.84859 8.79206 3.73978 9.5103C3.62913 10.2406 3.56157 11.1763 3.46693 12.5013L3.2209 15.9458C3.14161 17.0558 4.02077 18 5.13365 18C5.70276 18 6.24247 17.7472 6.6068 17.31L6.98197 16.8598C6.99815 16.8404 7.01412 16.8212 7.02988 16.8023C7.32653 16.4461 7.55012 16.1776 7.81195 15.9546C8.35805 15.4896 9.01914 15.1799 9.72599 15.0581C10.0649 14.9997 10.4143 14.9998 10.8779 15C10.9025 15 10.9275 15 10.9528 15H13.0476C13.0729 15 13.0978 15 13.1225 15C13.586 14.9998 13.9355 14.9997 14.2744 15.0581C14.9812 15.1799 15.6423 15.4896 16.1884 15.9546C16.4502 16.1776 16.6739 16.4461 16.9705 16.8023C16.9863 16.8212 17.0022 16.8404 17.0184 16.8598L17.3936 17.31C17.7579 17.7472 18.2976 18 18.8667 18C19.9796 18 20.8588 17.0558 20.7795 15.9458L20.5334 12.5013C20.4388 11.1763 20.3712 10.2406 20.2606 9.5103C20.1518 8.79206 20.0116 8.35338 19.8136 8.00848C19.4124 7.30967 18.8095 6.74832 18.0839 6.39795C17.7258 6.22502 17.2782 6.11642 16.554 6.05906C15.8177 6.00073 14.8796 6 13.5512 6H10.4491C9.12081 6 8.1827 6.00073 7.44633 6.05906ZM8.00019 8C8.55247 8 9.00019 8.44772 9.00019 9V10H10.0002C10.5525 10 11.0002 10.4477 11.0002 11C11.0002 11.5523 10.5525 12 10.0002 12H9.00019V13C9.00019 13.5523 8.55247 14 8.00019 14C7.4479 14 7.00019 13.5523 7.00019 13V12H6.00019C5.4479 12 5.00019 11.5523 5.00019 11C5.00019 10.4477 5.4479 10 6.00019 10H7.00019V9C7.00019 8.44772 7.4479 8 8.00019 8ZM17.0002 10C17.0002 9.44772 17.4479 9 18.0002 9H18.0102C18.5625 9 19.0102 9.44772 19.0102 10C19.0102 10.5523 18.5625 11 18.0102 11H18.0002C17.4479 11 17.0002 10.5523 17.0002 10ZM14.0002 12C14.0002 11.4477 14.4479 11 15.0002 11H15.0102C15.5625 11 16.0102 11.4477 16.0102 12C16.0102 12.5523 15.5625 13 15.0102 13H15.0002C14.4479 13 14.0002 12.5523 14.0002 12Z" fill="black"/>
</svg>
