<svg width="24" height="24" viewBox="0 0 24 24" fill="none" xmlns="http://www.w3.org/2000/svg">
<path fill-rule="evenodd" clip-rule="evenodd" d="M12 9C10.3432 9 9.00005 10.3431 9.00005 12C9.00005 13.6569 10.3432 15 12 15C13.6569 15 15 13.6569 15 12C15 10.3431 13.6569 9 12 9ZM7.10007 11C7.56334 8.71776 9.58109 7 12 7C14.419 7 16.4368 8.71776 16.9 11H22C22.5523 11 23 11.4477 23 12C23 12.5523 22.5523 13 22 13H16.9C16.4368 15.2822 14.419 17 12 17C9.58109 17 7.56334 15.2822 7.10007 13H2.00024C1.44796 13 1.00024 12.5523 1.00024 12C1.00024 11.4477 1.44796 11 2.00024 11H7.10007Z" fill="black"/>
</svg>
