<svg width="24" height="24" viewBox="0 0 24 24" fill="none" xmlns="http://www.w3.org/2000/svg">
<path fill-rule="evenodd" clip-rule="evenodd" d="M6 9C4.34315 9 3 10.3431 3 12C3 13.6569 4.34315 15 6 15C7.65685 15 9 13.6569 9 12C9 10.3431 7.65685 9 6 9ZM1 12C1 9.23858 3.23858 7 6 7C8.12018 7 9.93214 8.31963 10.6593 10.1823C11.5355 9.93922 12.4645 9.93923 13.3407 10.1823C14.0679 8.31963 15.8798 7 18 7C20.7614 7 23 9.23858 23 12C23 14.7614 20.7614 17 18 17C15.296 17 13.0934 14.8536 13.0029 12.1716C12.3555 11.9428 11.6445 11.9428 10.9971 12.1716C10.9066 14.8536 8.70398 17 6 17C3.23858 17 1 14.7614 1 12ZM18 9C16.3431 9 15 10.3431 15 12C15 13.6569 16.3431 15 18 15C19.6569 15 21 13.6569 21 12C21 10.3431 19.6569 9 18 9Z" fill="black"/>
</svg>
