<svg width="24" height="24" viewBox="0 0 24 24" fill="none" xmlns="http://www.w3.org/2000/svg">
<path fill-rule="evenodd" clip-rule="evenodd" d="M19.3387 1.66106C18.9482 1.27053 18.315 1.27053 17.9245 1.66106C17.5339 2.05158 17.5339 2.68475 17.9245 3.07527C22.025 7.17578 22.025 13.824 17.9245 17.9245C14.0625 21.7865 7.93973 22.0112 3.81551 18.5984L5.23798 17.176C6.68529 18.3183 8.51297 19 10.4999 19C15.1943 19 18.9999 15.1944 18.9999 10.5C18.9999 5.80558 15.1943 2 10.4999 2C5.80546 2 1.99988 5.80558 1.99988 10.5C1.99988 12.4868 2.68156 14.3145 3.82379 15.7617L2.22669 17.3588C1.96287 17.6226 1.60626 18.0612 1.62002 18.6633C1.63399 19.2752 2.02036 19.6915 2.29631 19.932C7.20746 24.2115 14.6636 24.0138 19.3387 19.3387C24.2202 14.4572 24.2202 6.54261 19.3387 1.66106ZM3.99988 10.5C3.99988 6.91015 6.91003 4 10.4999 4C14.0897 4 16.9999 6.91015 16.9999 10.5C16.9999 14.0899 14.0897 17 10.4999 17C6.91003 17 3.99988 14.0899 3.99988 10.5Z" fill="black"/>
</svg>
