<svg width="24" height="24" viewBox="0 0 24 24" fill="none" xmlns="http://www.w3.org/2000/svg">
<path fill-rule="evenodd" clip-rule="evenodd" d="M9.5922 3.3257C10.3586 3.11343 11.166 3 12 3C13.9619 3 15.7772 3.62777 17.256 4.6934C16.4692 5.21344 15.8823 5.77813 15.4755 6.38187C14.8539 7.30439 14.6946 8.25838 14.8234 9.12881C14.9484 9.9741 15.3365 10.696 15.7445 11.23C16.1402 11.7478 16.6256 12.1809 17.053 12.3946C18.1293 12.9327 19.3713 13.2021 20.2999 13.341C20.7726 13.4117 21.1826 13.4511 21.476 13.473C21.5953 13.4819 21.7002 13.4843 21.7919 13.4808C21.8396 13.4902 21.8885 13.4963 21.9385 13.4988C22.4901 13.5259 22.9593 13.1008 22.9864 12.5492C22.9954 12.3675 23 12.1844 23 12C23 5.92487 18.0751 1 12 1C5.92487 1 1 5.92487 1 12C1 18.0751 5.92487 23 12 23C12.1841 23 12.3672 22.9955 12.5492 22.9865C13.1008 22.9593 13.526 22.4902 13.4988 21.9385C13.4716 21.3869 13.0024 20.9618 12.4508 20.9889C12.3015 20.9963 12.1512 21 12 21C8.49066 21 5.45045 18.9914 3.96623 16.0612L4.93467 15.5021L8.50738 16.1708C9.43303 16.344 10.2875 15.6314 10.2833 14.6897L10.2693 11.5366L12.0952 8.41067C12.391 7.90419 12.3645 7.27176 12.0273 6.79183L9.5922 3.3257ZM7.68998 4.09719C4.89545 5.6245 3 8.5909 3 12C3 12.7443 3.09035 13.4675 3.26067 14.1592L4.09493 13.6776C4.405 13.4986 4.76888 13.4364 5.1208 13.5023L8.28064 14.0936L8.26871 11.409C8.26752 11.1408 8.33823 10.8773 8.47346 10.6458L10.2064 7.679L7.68998 4.09719ZM20.9813 11.4152C20.8511 9.3853 20.048 7.53849 18.7926 6.09553C17.9218 6.59335 17.4168 7.07987 17.1341 7.49942C16.8026 7.99155 16.7431 8.439 16.8018 8.83619C16.8643 9.25852 17.0699 9.67045 17.3338 10.0158C17.61 10.3774 17.8747 10.5693 17.9473 10.6057C18.7481 11.006 19.7498 11.2365 20.5957 11.363C20.7306 11.3832 20.8597 11.4004 20.9813 11.4152Z" fill="black"/>
<path fill-rule="evenodd" clip-rule="evenodd" d="M13.9456 12.6561C13.5777 12.5165 13.1621 12.6057 12.8838 12.884C12.6056 13.1622 12.5164 13.5778 12.6559 13.9457L15.8227 22.2945C15.9689 22.68 16.3367 22.9362 16.7489 22.9398C17.1611 22.9435 17.5333 22.6938 17.6863 22.311L19.007 19.0071L22.3109 17.6864C22.6937 17.5334 22.9433 17.1612 22.9397 16.749C22.936 16.3368 22.6798 15.9691 22.2944 15.8229L13.9456 12.6561ZM16.7821 19.1846L15.3141 15.3142L19.1845 16.7823L17.8664 17.3092C17.6121 17.4108 17.4107 17.6123 17.309 17.8666L16.7821 19.1846Z" fill="black"/>
</svg>
