<svg width="24" height="24" viewBox="0 0 24 24" fill="none" xmlns="http://www.w3.org/2000/svg">
<path fill-rule="evenodd" clip-rule="evenodd" d="M13.5296 12.4431C13.636 12.4857 13.7194 12.519 13.8162 12.5513C13.8425 12.56 13.8684 12.5699 13.8939 12.5808L16.5099 13.702C16.8872 13.8636 17.4702 14.178 17.6509 14.8435C17.8264 15.4901 17.5021 16.0495 17.2986 16.3549L16.0695 18.1984C15.93 18.4078 15.7306 18.6464 15.4221 18.8091C15.1149 18.9712 14.8094 19 14.5719 19H12.5766C12.2692 19 11.8566 18.9567 11.4865 18.6841C11.12 18.4141 10.9588 18.0385 10.869 17.7692L10.1561 15.6305C10.0902 15.4327 10.0388 15.1965 10.0588 14.9272C10.0789 14.6585 10.1643 14.4354 10.2538 14.2564L10.7953 13.1733C10.9652 12.8335 11.2172 12.5172 11.5924 12.3233C11.9694 12.1285 12.3448 12.1225 12.6345 12.1654C12.9087 12.206 13.1622 12.2993 13.3394 12.3679C13.4125 12.3962 13.4742 12.4209 13.5296 12.4431ZM12.5198 14.1965L12.0797 15.0767L12.7208 17H14.4648L15.5011 15.4455L13.1415 14.4343C12.9982 14.3848 12.8461 14.324 12.7288 14.2772C12.6862 14.2602 12.6481 14.2449 12.6167 14.2328C12.5802 14.2186 12.5481 14.2066 12.5198 14.1965Z" fill="black"/>
<path fill-rule="evenodd" clip-rule="evenodd" d="M14.5416 1.29508C13.7257 1.10212 12.8748 1 12 1C5.92487 1 1 5.92487 1 12C1 18.0751 5.92487 23 12 23C18.0751 23 23 18.0751 23 12C23 6.80358 19.3968 2.44873 14.5525 1.29767C14.5489 1.29679 14.5452 1.29593 14.5416 1.29508ZM3.5056 9.01849C3.1781 9.9516 3 10.955 3 12C3 16.9706 7.02944 21 12 21C16.9706 21 21 16.9706 21 12C21 8.16751 18.6045 4.89451 15.2291 3.59664L15.0299 6.58469C15.0129 6.84004 14.9591 7.18065 14.7389 7.50104C14.5173 7.82338 14.2148 7.99876 13.965 8.10982L10.1439 9.80806L9.26904 10.9746C9.04776 11.2696 8.67608 11.6761 8.09017 11.7563C7.51524 11.8351 7.05406 11.5531 6.78281 11.3593L3.5056 9.01849ZM4.39019 7.19253L7.78627 9.61826L8.57513 8.56644L8.58983 8.54676C8.6126 8.51621 8.64489 8.47289 8.67123 8.43995C8.71218 8.38873 8.78159 8.30667 8.88318 8.22574C8.98476 8.1448 9.08025 8.09546 9.13932 8.06699C9.17731 8.04868 9.22674 8.02688 9.2616 8.01151L9.28409 8.00157L13.0424 6.33122L13.2586 3.08731C12.8474 3.02976 12.4272 3 12 3C8.79729 3 5.98531 4.67289 4.39019 7.19253Z" fill="black"/>
</svg>
