<svg width="24" height="24" viewBox="0 0 24 24" fill="none" xmlns="http://www.w3.org/2000/svg">
<path d="M17 4.5C16.3096 4.5 15.75 5.05964 15.75 5.75C15.75 6.44036 16.3096 7 17 7C17.6904 7 18.25 6.44036 18.25 5.75C18.25 5.05964 17.6904 4.5 17 4.5Z" fill="black"/>
<path fill-rule="evenodd" clip-rule="evenodd" d="M15.0024 1.415C14.047 1.14449 13.0396 1 12 1C6.35442 1 1.7022 5.25304 1.07253 10.7299C1.07104 10.7413 1.06974 10.7528 1.06864 10.7642C1.02329 11.1699 1 11.5822 1 12C1 17.511 5.0527 22.0755 10.3404 22.8756L10.3597 22.8785C10.8948 22.9585 11.4426 23 12 23C18.0751 23 23 18.0751 23 12C23 10.2514 22.5913 8.59573 21.8635 7.12564C21.9512 6.76545 22 6.39056 22 6C22 3.23858 19.7614 1 17 1C16.2898 1 15.6142 1.14806 15.0024 1.415ZM12 3C7.80702 3 4.28374 5.86734 3.28401 9.74817L7.50308 9.37239C8.08731 9.32036 8.64826 9.61362 8.93896 10.123L10.8008 13.3858C10.8008 13.3857 10.8006 13.3856 10.8008 13.3858C10.8011 13.3861 10.8018 13.3869 10.8023 13.3875C10.8141 13.4017 10.8962 13.5005 11.0639 13.6184C11.2487 13.7485 11.4901 13.8833 11.7746 14.024C12.018 14.1445 12.2682 14.2574 12.5209 14.3714L12.6471 14.4285C12.9258 14.5545 13.2286 14.6933 13.4709 14.8317C14.2885 15.2989 14.4784 16.3952 13.8655 17.1102L11.6224 19.7273C11.5065 19.8625 11.5001 19.9776 11.5001 20.1467L11.5001 20.9863C11.6656 20.9954 11.8322 21 12 21C16.9706 21 21 16.9706 21 12C21 11.1445 20.8809 10.3178 20.6585 9.53496C20.6202 9.58655 20.5814 9.63776 20.5423 9.68859C19.8677 10.5645 19.0044 11.4201 18.1712 12.2458C18.0151 12.4005 17.8597 12.5545 17.7071 12.7071C17.3166 13.0976 16.6834 13.0976 16.2929 12.7071C16.1402 12.5544 15.985 12.4006 15.8288 12.2458C14.9956 11.4201 14.1323 10.5645 13.4577 9.68859C12.6468 8.63566 12 7.42161 12 6C12 4.89706 12.3571 3.87753 12.962 3.05073C12.6461 3.01721 12.3252 3 12 3ZM3 12C3 11.9268 3.00087 11.8539 3.00261 11.7812L7.36091 11.393L9.06376 14.3771C9.28296 14.7612 9.61919 15.0474 9.91315 15.2542C10.2196 15.4698 10.565 15.657 10.8877 15.8166C11.1678 15.9552 11.4575 16.0859 11.7094 16.1995C11.786 16.234 11.8592 16.267 11.9274 16.2982L10.1039 18.4257C9.95165 18.6033 9.77712 18.8254 9.65783 19.1141C9.53343 19.4152 9.50013 19.7104 9.50011 20L9.50008 20.6483C5.74576 19.5649 3 16.1031 3 12ZM14 6C14 4.34315 15.3431 3 17 3C18.6569 3 20 4.34315 20 6C20 6.78753 19.6468 7.57348 18.9577 8.46827C18.4223 9.16346 17.7498 9.84473 17 10.5899C16.2502 9.84473 15.5777 9.16346 15.0423 8.46827C14.3532 7.57348 14 6.78753 14 6Z" fill="black"/>
</svg>
