<svg width="20" height="20" viewBox="0 0 20 20" fill="none" xmlns="http://www.w3.org/2000/svg"><path fill-rule="evenodd" clip-rule="evenodd" d="M6.45119 16.1301C7.64955 17.6533 9.75914 18.633 12.0833 18.633C13.1165 18.633 14.0973 18.4428 14.9733 18.1015L17.4768 18.6342C17.8273 18.7088 18.1769 18.6171 18.42 18.4109C18.6687 18.2 18.8253 17.8382 18.666 17.457L17.965 15.779C18.463 15.0242 18.75 14.1563 18.75 13.2298C18.75 12.0016 18.2565 10.8907 17.4343 9.99999C17.3842 10.357 17.3061 10.7062 17.202 11.0457C17.6597 11.7025 17.9166 12.4502 17.9166 13.2298C17.9166 14.0439 17.6438 14.8132 17.1557 15.4841L17.0178 15.6736L17.1082 15.8899L17.8917 17.7651C17.889 17.768 17.8856 17.7715 17.8809 17.7754C17.842 17.8085 17.7576 17.8419 17.6502 17.8191L15.0229 17.2601L14.8971 17.2334L14.7781 17.2821C13.9739 17.6119 13.0578 17.7996 12.0833 17.7996C10.4447 17.7996 9.00059 17.2793 7.95911 16.4582C7.43938 16.3905 6.9352 16.2797 6.45119 16.1301Z" fill="#222727"/><path fill-rule="evenodd" clip-rule="evenodd" d="M16.6666 8.7309C16.6666 4.82943 13.1222 1.66667 8.74998 1.66667C4.37773 1.66667 0.833313 4.82943 0.833313 8.7309C0.833313 10.0212 1.22102 11.2308 1.89814 12.2718L0.898822 14.947C0.709002 15.4551 1.22837 15.9478 1.80837 15.8098L5.1363 15.0179C6.21966 15.5147 7.44812 15.7951 8.74998 15.7951C13.1222 15.7951 16.6666 12.6324 16.6666 8.7309ZM4.98014 9.74008C4.35553 9.74008 3.84919 9.28825 3.84919 8.7309C3.84919 8.17355 4.35553 7.72173 4.98014 7.72173C5.60475 7.72173 6.11109 8.17355 6.11109 8.7309C6.11109 9.28825 5.60475 9.74008 4.98014 9.74008ZM9.88093 8.7309C9.88093 9.28825 9.37459 9.74008 8.74998 9.74008C8.12537 9.74008 7.61903 9.28825 7.61903 8.7309C7.61903 8.17355 8.12537 7.72173 8.74998 7.72173C9.37459 7.72173 9.88093 8.17355 9.88093 8.7309ZM12.5198 9.74008C11.8952 9.74008 11.3889 9.28825 11.3889 8.7309C11.3889 8.17355 11.8952 7.72173 12.5198 7.72173C13.1444 7.72173 13.6508 8.17355 13.6508 8.7309C13.6508 9.28825 13.1444 9.74008 12.5198 9.74008Z" fill="#222727"/></svg>