<svg width="24" height="24" viewBox="0 0 24 24" fill="none" xmlns="http://www.w3.org/2000/svg">
<path d="M2.5 22.5002C1.94772 22.5002 1.49355 22.0508 1.56239 21.5028C1.78276 19.7488 2.5799 18.1066 3.84315 16.8434C5.34344 15.3431 7.37827 14.5002 9.5 14.5002C11.6217 14.5002 13.6566 15.3431 15.1569 16.8434C16.4201 18.1066 17.2172 19.7488 17.4376 21.5028C17.5065 22.0508 17.0523 22.5002 16.5 22.5002C15.9477 22.5002 15.5085 22.0495 15.4169 21.5048C15.2113 20.2828 14.6304 19.1454 13.7426 18.2576C12.6174 17.1324 11.0913 16.5002 9.5 16.5002C7.9087 16.5002 6.38258 17.1324 5.25736 18.2576C4.36956 19.1454 3.78871 20.2828 3.58312 21.5048C3.4915 22.0495 3.05228 22.5002 2.5 22.5002ZM9.5 13.5002C6.185 13.5002 3.5 10.8152 3.5 7.50024C3.5 4.18524 6.185 1.50024 9.5 1.50024C12.815 1.50024 15.5 4.18524 15.5 7.50024C15.5 10.8152 12.815 13.5002 9.5 13.5002ZM9.5 11.5002C11.71 11.5002 13.5 9.71024 13.5 7.50024C13.5 5.29024 11.71 3.50024 9.5 3.50024C7.29 3.50024 5.5 5.29024 5.5 7.50024C5.5 9.71024 7.29 11.5002 9.5 11.5002ZM17.3734 16.1154C17.6001 15.6117 18.1966 15.382 18.668 15.6698C19.6905 16.2942 20.5637 17.1426 21.2186 18.156C21.8736 19.1694 22.2885 20.3141 22.4377 21.503C22.5065 22.0509 22.0524 22.5002 21.5002 22.5002C20.9478 22.5002 20.5086 22.0494 20.417 21.5047C20.2822 20.7019 19.9847 19.9314 19.5391 19.2418C19.0934 18.5522 18.513 17.9644 17.8364 17.5117C17.3774 17.2045 17.1468 16.619 17.3734 16.1154ZM16.7885 4.9898C16.9524 4.41591 17.5863 4.10766 18.0807 4.44198C18.6667 4.8382 19.1737 5.34577 19.571 5.93947C20.1771 6.84517 20.5004 7.91048 20.5 9.00024C20.5004 10.3726 19.9877 11.6955 19.0625 12.7091C18.3854 13.4509 17.5232 13.9878 16.5737 14.2712C16.0102 14.4395 15.5 13.9711 15.5 13.383V13.3322C15.5 12.8347 15.8742 12.427 16.3343 12.2378C16.7523 12.066 17.1356 11.8138 17.4613 11.4927C17.9943 10.9671 18.3447 10.2846 18.4612 9.54518C18.5776 8.80579 18.454 8.04854 18.1084 7.3846C17.8926 6.97006 17.5974 6.60552 17.2424 6.31014C16.8699 6.00021 16.6379 5.51693 16.771 5.05101L16.7885 4.9898Z" fill="black"/>
</svg>
