<svg width="24" height="24" viewBox="0 0 24 24" fill="none" xmlns="http://www.w3.org/2000/svg">
<g clip-path="url(#clip0_3739_26577)">
<path fill-rule="evenodd" clip-rule="evenodd" d="M10.7828 1.65039C11.2082 1.23021 11.7827 0.996094 12.3796 0.996094C12.9764 0.996094 13.551 1.23021 13.9763 1.65039C14.2019 1.87323 14.3757 2.13881 14.4892 2.42847C14.6886 2.37233 14.8963 2.3432 15.1069 2.3432C15.7037 2.3432 16.2783 2.57731 16.7036 2.99749C17.1293 3.41804 17.3705 3.99077 17.3705 4.59031V5.08505C17.522 5.05358 17.6773 5.03741 17.8341 5.03741C18.431 5.03741 19.0055 5.27153 19.4309 5.69171C19.8566 6.11225 20.0978 6.68498 20.0978 7.28452V14.6936C20.0978 15.1907 19.6948 15.5936 19.1978 15.5936C18.7007 15.5936 18.2978 15.1907 18.2978 14.6936V7.28452C18.2978 7.16951 18.2516 7.05695 18.1659 6.97224C18.0797 6.88715 17.9606 6.83741 17.8341 6.83741C17.7076 6.83741 17.5885 6.88715 17.5024 6.97224C17.4166 7.05695 17.3705 7.16951 17.3705 7.28452V11.9994C17.3705 12.4964 16.9675 12.8994 16.4705 12.8994C15.9734 12.8994 15.5705 12.4964 15.5705 11.9994V4.59031C15.5705 4.47529 15.5243 4.36274 15.4386 4.27802C15.3525 4.19294 15.2333 4.1432 15.1069 4.1432C14.9804 4.1432 14.8612 4.19294 14.7751 4.27802C14.6894 4.36274 14.6432 4.47529 14.6432 4.59031V11.3258C14.6432 11.8229 14.2403 12.2258 13.7432 12.2258C13.2462 12.2258 12.8432 11.8229 12.8432 11.3258V3.2432C12.8432 3.12819 12.7971 3.01563 12.7113 2.93092C12.6252 2.84583 12.5061 2.79609 12.3796 2.79609C12.2531 2.79609 12.134 2.84583 12.0478 2.93092C11.9621 3.01563 11.9159 3.12819 11.9159 3.2432V11.3679C11.9159 11.865 11.513 12.2679 11.0159 12.2679C10.5189 12.2679 10.1159 11.865 10.1159 11.3679V5.26386C10.1159 5.14885 10.0698 5.03629 9.98404 4.95158C9.89791 4.86649 9.77879 4.81675 9.65231 4.81675C9.52583 4.81675 9.4067 4.86649 9.32058 4.95158C9.23482 5.03629 9.18867 5.14885 9.18867 5.26386V14.6936C9.18867 15.1907 8.78573 15.5936 8.28867 15.5936C7.79162 15.5936 7.38867 15.1907 7.38867 14.6936V5.26386C7.38867 4.66432 7.62986 4.09159 8.05557 3.67105C8.4809 3.25087 9.05547 3.01675 9.65231 3.01675C9.81159 3.01675 9.96929 3.03343 10.123 3.06587C10.1656 2.53164 10.3993 2.02926 10.7828 1.65039Z" fill="black"/>
<path fill-rule="evenodd" clip-rule="evenodd" d="M5.715 11.1749C5.60826 11.0115 5.32564 10.9006 5.04199 11.0599L5.04182 11.06C4.91467 11.1313 4.87529 11.2037 4.8565 11.2789C4.83165 11.3784 4.82948 11.5604 4.92963 11.8285L4.93053 11.8309L4.93052 11.8309L7.20771 17.9813C7.60751 18.9175 8.12531 19.6901 8.90974 20.2403C9.69662 20.7923 10.8442 21.1849 12.6175 21.1849C14.324 21.1849 15.7162 20.6287 16.6872 19.5869C17.6634 18.5394 18.3107 16.8963 18.3107 14.5431C18.3107 14.046 18.7137 13.6431 19.2107 13.6431C19.7078 13.6431 20.1107 14.046 20.1107 14.5431C20.1107 17.2205 19.37 19.3484 18.0039 20.8141C16.6326 22.2855 14.7281 22.9849 12.6175 22.9849C10.5736 22.9849 9.03804 22.529 7.8761 21.714C6.71699 20.9009 6.02191 19.7948 5.54269 18.6655C5.53721 18.6526 5.53204 18.6396 5.52717 18.6265L3.24341 12.4583C3.24325 12.4579 3.24308 12.4574 3.24292 12.457C3.05452 11.952 2.97367 11.3891 3.11016 10.8427C3.25284 10.2715 3.61528 9.79648 4.16082 9.49031M5.715 11.1749L7.27651 14.8917C7.46904 15.3499 7.9966 15.5653 8.45486 15.3728C8.91311 15.1803 9.12853 14.6527 8.936 14.1945L7.35318 10.427C7.34251 10.4016 7.33068 10.3767 7.31773 10.3524C6.68278 9.16063 5.21012 8.90133 4.16098 9.49022" fill="black"/>
</g>
<defs>
<clipPath id="clip0_3739_26577">
<rect width="24" height="24" fill="white" transform="translate(0 0.000244141)"/>
</clipPath>
</defs>
</svg>
