<svg width="24" height="24" viewBox="0 0 24 24" fill="none" xmlns="http://www.w3.org/2000/svg">
<path fill-rule="evenodd" clip-rule="evenodd" d="M14.7458 11.6963L14.7469 11.6969L15.4574 13.8283C15.6315 14.3508 16.0522 14.7536 16.5815 14.905L18.8919 15.5659C19.4747 15.7326 20.1021 15.5701 20.5307 15.1415L22.2409 13.4314C23.428 12.2442 23.2192 10.2113 21.6399 9.42888C19.3588 8.29879 15.5117 6.68933 12 6.68933C8.48829 6.6893 4.64118 8.29879 2.36006 9.42892C0.780787 10.2113 0.572027 12.2443 1.75915 13.4314L3.46954 15.1418C3.89793 15.5702 4.52481 15.7327 5.10739 15.5664L7.42555 14.9049C7.95536 14.7537 8.37645 14.3507 8.55068 13.8279L9.26208 11.6957C9.40246 11.6182 9.61212 11.5121 9.87755 11.4053C10.4112 11.1905 11.1523 10.9802 12 10.9802C12.8478 10.9802 13.5911 11.1906 14.1272 11.4055C14.3938 11.5125 14.6046 11.6187 14.7458 11.6963Z" fill="black"/>
</svg>
