<svg width="24" height="24" viewBox="0 0 24 24" fill="none" xmlns="http://www.w3.org/2000/svg">
<path fill-rule="evenodd" clip-rule="evenodd" d="M8.81412 2.99993C8.86426 2.99996 8.91508 3 8.96658 3H15.0335C15.085 3 15.1358 2.99996 15.1859 2.99993C16.1136 2.9993 16.813 2.99883 17.4502 3.21862C18.0107 3.41194 18.5212 3.72746 18.9448 4.14232C19.4263 4.61396 19.7387 5.23972 20.153 6.06973C20.1754 6.11461 20.1981 6.16008 20.2211 6.20616L22.3877 10.5393C22.3964 10.5568 22.4051 10.574 22.4136 10.5911C22.5777 10.9191 22.7019 11.1673 22.7912 11.4327C22.8701 11.6672 22.9271 11.9086 22.9614 12.1536C23.0002 12.4309 23.0001 12.7084 23 13.0752C23 13.0943 23 13.1136 23 13.1331V15.2413C23 16.0463 23 16.7106 22.9558 17.2518C22.9099 17.8139 22.8113 18.3306 22.564 18.816C22.1806 19.5686 21.5686 20.1805 20.816 20.564C20.3306 20.8113 19.8139 20.9099 19.2518 20.9558C18.7107 21 18.0463 21 17.2413 21H6.7587C5.95374 21 5.28938 21 4.74819 20.9558C4.1861 20.9099 3.66939 20.8113 3.18406 20.564C2.43141 20.1805 1.81949 19.5686 1.436 18.816C1.1887 18.3306 1.09014 17.8139 1.04421 17.2518C0.999997 16.7106 1.00001 16.0463 1.00002 15.2413L1.00002 13.1331C1.00002 13.1136 1.00002 13.0942 1.00001 13.0752C0.999908 12.7084 0.99983 12.4309 1.03865 12.1536C1.07296 11.9086 1.12994 11.6672 1.20885 11.4327C1.29814 11.1673 1.42228 10.9192 1.58641 10.5911C1.59495 10.5741 1.60359 10.5568 1.61234 10.5393L2.50677 10.9865L2.51262 10.9894M2.50677 10.9865L1.61234 10.5393L3.77891 6.20616C3.80194 6.16009 3.82464 6.11462 3.84703 6.06976C4.26135 5.23972 4.5737 4.61396 5.05525 4.14232C5.47883 3.72746 5.98934 3.41194 6.54984 3.21862C7.18704 2.99883 7.88642 2.9993 8.81412 2.99993M3.61806 11L5.56776 7.10058C6.08177 6.07256 6.24378 5.77773 6.45468 5.57116C6.66647 5.36373 6.92173 5.20597 7.20198 5.10931C7.48106 5.01304 7.81722 5 8.96658 5H15.0335C16.1828 5 16.519 5.01304 16.7981 5.10931C17.0783 5.20597 17.3336 5.36373 17.5454 5.57116C17.7563 5.77773 17.9183 6.07256 18.4323 7.10059L20.382 11H3.61806ZM3.00011 13C3.00005 13.041 3.00002 13.0853 3.00002 13.1331V15.2C3.00002 16.0566 3.0008 16.6389 3.03757 17.089C3.07339 17.5274 3.13832 17.7516 3.21801 17.908C3.40975 18.2843 3.71572 18.5903 4.09204 18.782C4.24844 18.8617 4.47264 18.9266 4.91106 18.9624C5.36115 18.9992 5.94344 19 6.80002 19H17.2C18.0566 19 18.6389 18.9992 19.089 18.9624C19.5274 18.9266 19.7516 18.8617 19.908 18.782C20.2843 18.5903 20.5903 18.2843 20.782 17.908C20.8617 17.7516 20.9266 17.5274 20.9625 17.089C20.9992 16.6389 21 16.0566 21 15.2V13.1331C21 13.0853 21 13.041 20.9999 13H3.00011ZM10 17H6.00002C5.44774 17 5.00002 16.5523 5.00002 16C5.00002 15.4477 5.44774 15 6.00002 15H10C10.5523 15 11 15.4477 11 16C11 16.5523 10.5523 17 10 17Z" fill="black"/>
</svg>
