<svg width="24" height="24" viewBox="0 0 24 24" fill="none" xmlns="http://www.w3.org/2000/svg">
<path fill-rule="evenodd" clip-rule="evenodd" d="M12 3.00024C7.02944 3.00024 3 7.02968 3 12.0002C3 16.9708 7.02944 21.0002 12 21.0002C16.9706 21.0002 21 16.9708 21 12.0002C21 7.02968 16.9706 3.00024 12 3.00024ZM1 12.0002C1 5.92511 5.92487 1.00024 12 1.00024C18.0751 1.00024 23 5.92511 23 12.0002C23 18.0754 18.0751 23.0002 12 23.0002C5.92487 23.0002 1 18.0754 1 12.0002ZM11.996 7.72372C10.6795 6.79131 8.86733 6.66497 7.42775 7.89497C5.77349 9.30841 5.52749 11.7019 6.8425 13.3941C7.53827 14.2894 9.22841 15.8575 10.2832 16.8121L10.3052 16.832C10.4653 16.9769 10.6265 17.1228 10.7761 17.2374C10.9454 17.3671 11.1521 17.4991 11.4166 17.5793C11.7902 17.6925 12.2029 17.6925 12.5766 17.5793C12.841 17.4991 13.0478 17.3671 13.217 17.2374C13.3666 17.1228 13.5278 16.9769 13.6879 16.832L13.7099 16.8121C14.7647 15.8575 16.4549 14.2894 17.1507 13.3941C18.4568 11.7133 18.2545 9.29877 16.555 7.8862C15.1054 6.68135 13.3103 6.79163 11.996 7.72372ZM11.2367 9.71817C10.5313 8.89351 9.48801 8.76526 8.72695 9.41553C7.87616 10.1425 7.76947 11.3275 8.4217 12.1668C8.98595 12.8929 10.5228 14.3315 11.6252 15.3291C11.8164 15.5021 11.9161 15.5913 11.9925 15.6499C11.9939 15.6509 11.9953 15.652 11.9966 15.653C11.9979 15.652 11.9992 15.6509 12.0006 15.6499C12.0771 15.5913 12.1768 15.5021 12.3679 15.3291C13.4704 14.3315 15.0072 12.8929 15.5714 12.1668C16.2325 11.3162 16.1252 10.1296 15.2766 9.4243C14.4837 8.76529 13.4544 8.90232 12.7565 9.71817C12.5665 9.94028 12.2889 10.0682 11.9966 10.0682C11.7043 10.0682 11.4266 9.94028 11.2367 9.71817Z" fill="black"/>
</svg>
