<svg width="24" height="24" viewBox="0 0 24 24" fill="none" xmlns="http://www.w3.org/2000/svg">
<path fill-rule="evenodd" clip-rule="evenodd" d="M11.597 1.18492C11.8628 1.13025 12.137 1.13025 12.4028 1.18492C12.7101 1.24812 12.9847 1.40195 13.203 1.52424C13.2234 1.53563 13.2432 1.54674 13.2626 1.55749L20.6626 5.6686C20.683 5.67996 20.7041 5.69157 20.7257 5.70347C20.9568 5.83078 21.2474 5.99085 21.4706 6.23303C21.6636 6.4424 21.8096 6.69057 21.8989 6.96092C22.0022 7.27362 22.001 7.60541 22.0001 7.86927C22 7.89393 21.9999 7.918 21.9999 7.94141V16.0585C21.9999 16.0819 22 16.106 22.0001 16.1307C22.001 16.3945 22.0022 16.7263 21.8989 17.039C21.8096 17.3094 21.6636 17.5575 21.4706 17.7669C21.2474 18.0091 20.9568 18.1691 20.7257 18.2964C20.7041 18.3083 20.683 18.32 20.6626 18.3313L13.2626 22.4424C13.2432 22.4532 13.2234 22.4643 13.203 22.4757C12.9847 22.598 12.7101 22.7518 12.4028 22.815C12.137 22.8697 11.8628 22.8697 11.597 22.815C11.2897 22.7518 11.0151 22.598 10.7967 22.4757C10.7764 22.4643 10.7565 22.4532 10.7372 22.4424L3.33721 18.3313C3.31675 18.32 3.29568 18.3084 3.27408 18.2965C3.04295 18.1691 2.75233 18.0091 2.52915 17.7669C2.3362 17.5575 2.19018 17.3094 2.10085 17.039C1.99753 16.7263 1.99874 16.3945 1.9997 16.1306C1.99979 16.106 1.99988 16.0819 1.99988 16.0585V7.94141C1.99988 7.918 1.99979 7.89394 1.9997 7.86928C1.99874 7.60541 1.99753 7.27363 2.10085 6.96092C2.19017 6.69057 2.3362 6.44241 2.52915 6.23303C2.75232 5.99085 3.04294 5.83078 3.27407 5.70347C3.29567 5.69158 3.31675 5.67996 3.33721 5.6686L10.7372 1.55749C10.7565 1.54674 10.7764 1.53563 10.7967 1.52424C11.0151 1.40195 11.2897 1.24812 11.597 1.18492ZM11.9999 3.14895C11.9984 3.14968 11.9968 3.15044 11.9951 3.15124C11.9374 3.17907 11.86 3.22161 11.7085 3.3058L4.30849 7.41691C4.14854 7.50578 4.06688 7.55162 4.00958 7.58812C4.00789 7.5892 4.00628 7.59023 4.00475 7.59123C4.00462 7.59305 4.0045 7.59497 4.00438 7.59696C4.0003 7.66478 3.99988 7.75843 3.99988 7.94141V16.0585C3.99988 16.2415 4.0003 16.3351 4.00438 16.403C4.0045 16.405 4.00462 16.4069 4.00474 16.4087C4.00628 16.4097 4.00789 16.4107 4.00958 16.4118C4.06688 16.4483 4.14854 16.4941 4.3085 16.583L11.7085 20.6941C11.86 20.7783 11.9374 20.8209 11.9951 20.8487C11.9968 20.8495 11.9984 20.8502 11.9999 20.851C12.0014 20.8502 12.003 20.8495 12.0047 20.8487C12.0624 20.8209 12.1397 20.7783 12.2913 20.6941L19.6913 16.583C19.8512 16.4941 19.9329 16.4483 19.9902 16.4118C19.9919 16.4107 19.9935 16.4097 19.995 16.4087C19.9951 16.4069 19.9953 16.405 19.9954 16.403C19.9995 16.3351 19.9999 16.2415 19.9999 16.0585V7.94141C19.9999 7.75843 19.9995 7.66477 19.9954 7.59696C19.9953 7.59496 19.9951 7.59305 19.995 7.59123C19.9935 7.59023 19.9919 7.5892 19.9902 7.58812C19.9329 7.55162 19.8512 7.50577 19.6913 7.41691L12.2913 3.3058C12.1397 3.22161 12.0624 3.17907 12.0047 3.15124C12.003 3.15044 12.0014 3.14968 11.9999 3.14895ZM12.258 8.02427C11.7924 7.94442 11.3137 8.0319 10.9065 8.27122C10.4993 8.51053 10.1899 8.88624 10.0332 9.33179C9.84991 9.85278 9.27899 10.1266 8.758 9.94329C8.23701 9.76001 7.96324 9.1891 8.14651 8.66811C8.45998 7.777 9.07871 7.02558 9.89312 6.54695C10.7075 6.06832 11.665 5.89336 12.5961 6.05306C13.5271 6.21276 14.3716 6.69681 14.9799 7.41948C15.5882 8.142 15.9211 9.05643 15.9198 10.0009C15.9194 11.5312 14.7848 12.5418 13.9745 13.082C13.5389 13.3724 13.1104 13.586 12.7947 13.7263C12.6355 13.797 12.5014 13.8508 12.4047 13.8876C12.3563 13.906 12.3171 13.9203 12.2885 13.9304L12.2538 13.9426L12.2428 13.9464L12.2389 13.9477L12.2373 13.9482C12.237 13.9483 12.2361 13.9486 11.9198 13L12.2361 13.9486C11.7121 14.1233 11.1458 13.8401 10.9712 13.3162C10.7966 12.7924 11.0795 12.2263 11.6031 12.0514L11.6019 12.0518C11.6021 12.0518 11.6021 12.0518 11.6031 12.0514L11.6185 12.046C11.6339 12.0405 11.6591 12.0314 11.6928 12.0186C11.7602 11.9929 11.8605 11.9529 11.9825 11.8986C12.2293 11.7889 12.5508 11.6275 12.8651 11.4179C13.5547 10.9582 13.9198 10.4691 13.9198 9.99995L13.9198 9.99846C13.9206 9.52614 13.7541 9.06882 13.4499 8.70748C13.1457 8.34614 12.7235 8.10412 12.258 8.02427ZM10.9999 17C10.9999 16.4477 11.4476 16 11.9999 16H12.0099C12.5622 16 13.0099 16.4477 13.0099 17C13.0099 17.5522 12.5622 18 12.0099 18H11.9999C11.4476 18 10.9999 17.5522 10.9999 17Z" fill="black"/>
</svg>
