<svg width="24" height="24" viewBox="0 0 24 24" fill="none" xmlns="http://www.w3.org/2000/svg">
<path fill-rule="evenodd" clip-rule="evenodd" d="M8.47165 0.999855C8.48909 0.999902 8.50612 0.999947 8.52269 0.999947H15.4772C15.4938 0.999947 15.5108 0.999902 15.5282 0.999855C15.7182 0.999348 15.9573 0.998709 16.1926 1.05521C16.3967 1.1042 16.5918 1.18501 16.7707 1.29467C16.9771 1.42112 17.1457 1.59067 17.2797 1.72532C17.292 1.73768 17.304 1.74975 17.3157 1.76147L22.2384 6.68421C22.2501 6.69593 22.2622 6.70794 22.2746 6.72025C22.4092 6.85417 22.5788 7.02282 22.7052 7.22916C22.8149 7.40811 22.8957 7.6032 22.9447 7.80727C23.0012 8.0426 23.0005 8.28173 23 8.47164C23 8.48909 22.9999 8.50612 22.9999 8.52269V15.4772C22.9999 15.4938 23 15.5108 23 15.5282C23.0005 15.7182 23.0012 15.9573 22.9447 16.1926C22.8957 16.3967 22.8149 16.5918 22.7052 16.7707C22.5788 16.9771 22.4092 17.1457 22.2746 17.2797C22.2622 17.292 22.2501 17.304 22.2384 17.3157L17.3157 22.2384C17.304 22.2501 17.292 22.2622 17.2797 22.2746C17.1457 22.4092 16.9771 22.5788 16.7707 22.7052C16.5918 22.8149 16.3967 22.8957 16.1926 22.9447C15.9573 23.0012 15.7182 23.0005 15.5282 23C15.5108 23 15.4938 22.9999 15.4772 22.9999H8.52269C8.50612 22.9999 8.48909 23 8.47164 23C8.28173 23.0005 8.0426 23.0012 7.80727 22.9447C7.6032 22.8957 7.40811 22.8149 7.22916 22.7052C7.02282 22.5788 6.85417 22.4092 6.72025 22.2746C6.70794 22.2622 6.69593 22.2501 6.68421 22.2384L1.76147 17.3157C1.74975 17.304 1.73768 17.292 1.72532 17.2797C1.59067 17.1457 1.42112 16.9771 1.29467 16.7707C1.18501 16.5918 1.1042 16.3967 1.05521 16.1926C0.998709 15.9573 0.999348 15.7182 0.999855 15.5282C0.999902 15.5108 0.999947 15.4938 0.999947 15.4772V8.52269C0.999947 8.50612 0.999902 8.48909 0.999855 8.47165C0.999348 8.28174 0.998709 8.0426 1.05521 7.80727C1.1042 7.6032 1.18501 7.40811 1.29467 7.22916C1.42112 7.02281 1.59067 6.85417 1.72531 6.72024C1.73768 6.70794 1.74975 6.69593 1.76147 6.68421L6.68421 1.76147C6.69593 1.74975 6.70794 1.73768 6.72024 1.72531C6.85417 1.59067 7.02281 1.42112 7.22916 1.29467C7.40811 1.18501 7.6032 1.1042 7.80727 1.05521C8.0426 0.998709 8.28174 0.999348 8.47165 0.999855ZM8.27523 3.00253C8.27438 3.0033 8.27349 3.0041 8.27257 3.00494C8.23746 3.03699 8.19106 3.08305 8.09842 3.17568L3.17568 8.09842C3.08305 8.19106 3.03699 8.23746 3.00494 8.27257C3.0041 8.27349 3.0033 8.27438 3.00253 8.27523C3.00247 8.27638 3.00241 8.27757 3.00236 8.27882C3.00019 8.32631 2.99995 8.39169 2.99995 8.52269V15.4772C2.99995 15.6082 3.00019 15.6736 3.00236 15.7211C3.00241 15.7223 3.00247 15.7235 3.00253 15.7247C3.0033 15.7255 3.0041 15.7264 3.00494 15.7273C3.03699 15.7624 3.08305 15.8088 3.17568 15.9015L8.09842 20.8242C8.19106 20.9168 8.23746 20.9629 8.27257 20.995C8.27349 20.9958 8.27438 20.9966 8.27523 20.9974C8.27638 20.9974 8.27757 20.9975 8.27881 20.9975C8.32631 20.9997 8.39169 20.9999 8.52269 20.9999H15.4772C15.6082 20.9999 15.6736 20.9997 15.7211 20.9975C15.7223 20.9975 15.7235 20.9974 15.7247 20.9974C15.7255 20.9966 15.7264 20.9958 15.7273 20.995C15.7624 20.9629 15.8088 20.9168 15.9015 20.8242L20.8242 15.9015C20.9168 15.8088 20.9629 15.7624 20.995 15.7273C20.9958 15.7264 20.9966 15.7255 20.9974 15.7247C20.9974 15.7235 20.9975 15.7223 20.9975 15.7211C20.9997 15.6736 20.9999 15.6082 20.9999 15.4772V8.52269C20.9999 8.39169 20.9997 8.32631 20.9975 8.27881C20.9975 8.27757 20.9974 8.27638 20.9974 8.27523C20.9966 8.27438 20.9958 8.27349 20.995 8.27257C20.9629 8.23746 20.9168 8.19106 20.8242 8.09842L15.9015 3.17568C15.8088 3.08305 15.7624 3.03699 15.7273 3.00494C15.7264 3.0041 15.7255 3.0033 15.7247 3.00253C15.7235 3.00247 15.7223 3.00241 15.7211 3.00236C15.6736 3.00019 15.6082 2.99995 15.4772 2.99995H8.52269C8.39169 2.99995 8.32631 3.00019 8.27882 3.00236C8.27757 3.00241 8.27638 3.00247 8.27523 3.00253ZM12.258 8.02425C11.7925 7.94441 11.3138 8.03189 10.9065 8.2712C10.4993 8.51052 10.19 8.88622 10.0332 9.33178C9.84997 9.85277 9.27906 10.1265 8.75807 9.94327C8.23708 9.76 7.96331 9.18908 8.14658 8.66809C8.46005 7.77698 9.07878 7.02557 9.89318 6.54694C10.7076 6.06831 11.6651 5.89334 12.5961 6.05304C13.5272 6.21274 14.3717 6.69679 14.98 7.41946C15.5882 8.14199 15.9212 9.05642 15.9199 10.0008C15.9195 11.5312 14.7849 12.5418 13.9746 13.082C13.539 13.3724 13.1105 13.586 12.7948 13.7262C12.6355 13.797 12.5014 13.8507 12.4048 13.8875C12.3564 13.906 12.3172 13.9203 12.2886 13.9304L12.2539 13.9426L12.2428 13.9464L12.2389 13.9477L12.2374 13.9482C12.2371 13.9483 12.2361 13.9486 11.9199 12.9999L12.2361 13.9486C11.7122 14.1233 11.1459 13.8401 10.9712 13.3162C10.7966 12.7924 11.0796 12.2263 11.6032 12.0514L11.6186 12.046C11.634 12.0405 11.6592 12.0314 11.6928 12.0186C11.7603 11.9929 11.8605 11.9528 11.9825 11.8986C12.2294 11.7889 12.5508 11.6275 12.8652 11.4179C13.5548 10.9582 13.9199 10.4691 13.9199 9.99994L13.9199 9.99845C13.9206 9.52613 13.7541 9.0688 13.45 8.70747C13.1458 8.34613 12.7236 8.1041 12.258 8.02425ZM10.9999 16.9999C10.9999 16.4477 11.4477 15.9999 11.9999 15.9999H12.0099C12.5622 15.9999 13.0099 16.4477 13.0099 16.9999C13.0099 17.5522 12.5622 17.9999 12.0099 17.9999H11.9999C11.4477 17.9999 10.9999 17.5522 10.9999 16.9999Z" fill="black"/>
</svg>
