<svg width="24" height="24" viewBox="0 0 24 24" fill="none" xmlns="http://www.w3.org/2000/svg">
<path fill-rule="evenodd" clip-rule="evenodd" d="M11.597 1.18496C11.8628 1.13029 12.137 1.13029 12.4028 1.18496C12.7101 1.24816 12.9847 1.40199 13.203 1.52428C13.2234 1.53567 13.2432 1.54678 13.2626 1.55753L20.6626 5.66864C20.683 5.68 20.7041 5.69161 20.7257 5.70351C20.9568 5.83082 21.2474 5.99089 21.4706 6.23307C21.6636 6.44244 21.8096 6.6906 21.8989 6.96096C22.0022 7.27366 22.001 7.60544 22.0001 7.86931C22 7.89397 21.9999 7.91804 21.9999 7.94145V16.0586C21.9999 16.082 22 16.106 22.0001 16.1307C22.001 16.3946 22.0022 16.7263 21.8989 17.039C21.8096 17.3094 21.6636 17.5576 21.4706 17.7669C21.2474 18.0091 20.9568 18.1692 20.7257 18.2965C20.7041 18.3084 20.683 18.32 20.6626 18.3314L13.2626 22.4425C13.2432 22.4532 13.2234 22.4643 13.203 22.4757C12.9847 22.598 12.7101 22.7518 12.4028 22.815C12.137 22.8697 11.8628 22.8697 11.597 22.815C11.2897 22.7518 11.0151 22.598 10.7967 22.4757C10.7764 22.4643 10.7565 22.4532 10.7372 22.4425L3.33721 18.3314C3.31675 18.32 3.29568 18.3084 3.27408 18.2965C3.04295 18.1692 2.75233 18.0091 2.52915 17.7669C2.3362 17.5576 2.19018 17.3094 2.10085 17.039C1.99753 16.7263 1.99874 16.3946 1.9997 16.1307C1.99979 16.106 1.99988 16.082 1.99988 16.0586V7.94145C1.99988 7.91804 1.99979 7.89398 1.9997 7.86932C1.99874 7.60544 1.99753 7.27366 2.10085 6.96096C2.19017 6.69061 2.3362 6.44244 2.52915 6.23307C2.75232 5.99089 3.04294 5.83082 3.27407 5.70351C3.29567 5.69161 3.31675 5.68 3.33721 5.66864L10.7372 1.55753C10.7565 1.54678 10.7764 1.53567 10.7967 1.52428C11.0151 1.40198 11.2897 1.24816 11.597 1.18496ZM11.9999 3.14899C11.9984 3.14971 11.9968 3.15048 11.9951 3.15128C11.9374 3.17911 11.86 3.22165 11.7085 3.30584L4.30849 7.41695C4.14854 7.50581 4.06688 7.55166 4.00958 7.58816C4.00789 7.58924 4.00628 7.59027 4.00475 7.59126C4.00462 7.59309 4.0045 7.595 4.00438 7.597C4.0003 7.66481 3.99988 7.75847 3.99988 7.94145V16.0586C3.99988 16.2415 4.0003 16.3352 4.00438 16.403C4.0045 16.405 4.00462 16.4069 4.00474 16.4087C4.00628 16.4097 4.00789 16.4108 4.00958 16.4118C4.06688 16.4483 4.14854 16.4942 4.3085 16.583L11.7085 20.6942C11.86 20.7784 11.9374 20.8209 11.9951 20.8487C11.9968 20.8495 11.9984 20.8503 11.9999 20.851C12.0014 20.8503 12.003 20.8495 12.0047 20.8487C12.0624 20.8209 12.1397 20.7783 12.2913 20.6942L19.6913 16.583C19.8512 16.4942 19.9329 16.4483 19.9902 16.4118C19.9919 16.4108 19.9935 16.4097 19.995 16.4087C19.9951 16.4069 19.9953 16.405 19.9954 16.403C19.9995 16.3352 19.9999 16.2415 19.9999 16.0586V7.94145C19.9999 7.75847 19.9995 7.66481 19.9954 7.597C19.9953 7.595 19.9951 7.59309 19.995 7.59126C19.9935 7.59027 19.9919 7.58924 19.9902 7.58816C19.9329 7.55166 19.8512 7.50581 19.6913 7.41695L12.2913 3.30584C12.1397 3.22165 12.0624 3.17911 12.0047 3.15128C12.003 3.15048 12.0014 3.14971 11.9999 3.14899Z" fill="black"/>
</svg>
