<svg width="24" height="24" viewBox="0 0 24 24" fill="none" xmlns="http://www.w3.org/2000/svg">
<path fill-rule="evenodd" clip-rule="evenodd" d="M11.4772 1.33636C11.8195 1.24368 12.1803 1.24368 12.5226 1.33636C12.92 1.44395 13.2545 1.7066 13.5215 1.91624C13.547 1.93625 13.5719 1.95578 13.5961 1.97465L20.3784 7.24977C20.4046 7.27008 20.4305 7.29019 20.4562 7.31013C20.8328 7.60241 21.1646 7.85991 21.4119 8.19421C21.6288 8.48759 21.7905 8.8181 21.8889 9.1695C22.0009 9.56992 22.0005 9.98993 22 10.4667C21.9999 10.4992 21.9999 10.532 21.9999 10.5651V17.8386C21.9999 18.3657 21.9999 18.8204 21.9693 19.195C21.937 19.5904 21.8657 19.9836 21.6729 20.362C21.3853 20.9264 20.9264 21.3854 20.3619 21.673C19.9835 21.8658 19.5903 21.9371 19.1949 21.9694C18.8204 22 18.3656 22 17.8385 22H15.7999C15.7923 22 15.7846 22 15.7767 22C15.6576 22 15.5154 22.0001 15.3901 21.9899C15.2448 21.978 15.0369 21.9475 14.8189 21.8365C14.5367 21.6927 14.3072 21.4632 14.1634 21.181C14.0523 20.963 14.0219 20.755 14.01 20.6098C13.9998 20.4845 13.9998 20.3422 13.9999 20.2231L13.9999 13.6C13.9999 13.3035 13.9991 13.1412 13.9896 13.0246C13.9892 13.02 13.9888 13.0156 13.9884 13.0114C13.9843 13.011 13.9799 13.0107 13.9753 13.0103C13.8587 13.0008 13.6964 13 13.3999 13H10.5999C10.3034 13 10.1411 13.0008 10.0245 13.0103C10.0199 13.0107 10.0155 13.011 10.0113 13.0114C10.011 13.0156 10.0106 13.02 10.0102 13.0246C10.0007 13.1412 9.9999 13.3035 9.9999 13.6L9.9999 20.2231C9.99995 20.3422 10 20.4845 9.98976 20.6098C9.9779 20.755 9.94745 20.963 9.83641 21.181C9.6926 21.4632 9.46312 21.6927 9.18088 21.8365C8.96294 21.9475 8.75494 21.978 8.60973 21.9899C8.48441 22.0001 8.34216 22 8.22305 22C8.21523 22 8.2075 22 8.1999 22H6.16133C5.63419 22 5.17943 22 4.80487 21.9694C4.40952 21.9371 4.0163 21.8658 3.63792 21.673C3.07344 21.3854 2.6145 20.9264 2.32688 20.362C2.13408 19.9836 2.06277 19.5904 2.03046 19.195C1.99986 18.8204 1.99988 18.3657 1.99989 17.8385L1.9999 10.5651C1.9999 10.532 1.99986 10.4992 1.99982 10.4667C1.99931 9.98993 1.99886 9.56992 2.11094 9.1695C2.2093 8.8181 2.37094 8.48759 2.58794 8.19421C2.83519 7.85991 3.16701 7.6024 3.54364 7.31012C3.56934 7.29018 3.59524 7.27007 3.62134 7.24977L10.4037 1.97465C10.4279 1.95578 10.4528 1.93625 10.4783 1.91623C10.7453 1.7066 11.0798 1.44395 11.4772 1.33636ZM11.9926 3.28153C11.9174 3.33174 11.8184 3.40798 11.6315 3.55335L4.84923 8.82848C4.35115 9.21587 4.2584 9.29901 4.19591 9.3835C4.12358 9.4813 4.0697 9.59147 4.03691 9.7086C4.00858 9.8098 3.9999 9.93406 3.9999 10.5651V17.8C3.9999 18.3765 4.00067 18.7488 4.02382 19.0321C4.04602 19.3038 4.0837 19.4045 4.10889 19.454C4.20476 19.6421 4.35774 19.7951 4.5459 19.891C4.59535 19.9162 4.69607 19.9539 4.96773 19.9761C5.25107 19.9992 5.62334 20 6.1999 20H7.9999L7.99989 13.5681C7.99986 13.3157 7.99983 13.0699 8.01684 12.8618C8.03552 12.6332 8.07959 12.3634 8.21788 12.092C8.40963 11.7157 8.71559 11.4097 9.09191 11.218C9.36334 11.0797 9.63307 11.0356 9.86167 11.0169C10.0698 10.9999 10.3156 11 10.568 11H13.4318C13.6842 11 13.93 10.9999 14.1381 11.0169C14.3667 11.0356 14.6365 11.0797 14.9079 11.218C15.2842 11.4097 15.5902 11.7157 15.7819 12.092C15.9202 12.3634 15.9643 12.6332 15.983 12.8618C16 13.0699 15.9999 13.3157 15.9999 13.5681L15.9999 20H17.7999C18.3764 20 18.7487 19.9992 19.0321 19.9761C19.3037 19.9539 19.4044 19.9162 19.4539 19.891C19.642 19.7951 19.795 19.6421 19.8909 19.454C19.9161 19.4045 19.9538 19.3038 19.976 19.0321C19.9991 18.7488 19.9999 18.3765 19.9999 17.8V10.5651C19.9999 9.93406 19.9912 9.8098 19.9629 9.7086C19.9301 9.59146 19.8762 9.4813 19.8039 9.3835C19.7414 9.29901 19.6486 9.21587 19.1506 8.82848L12.3683 3.55335C12.1814 3.40798 12.0823 3.33174 12.0072 3.28153C12.0046 3.27983 12.0022 3.27822 11.9999 3.27669C11.9976 3.27822 11.9951 3.27983 11.9926 3.28153Z" fill="black"/>
</svg>
