<svg width="24" height="24" viewBox="0 0 24 24" fill="none" xmlns="http://www.w3.org/2000/svg">
<path fill-rule="evenodd" clip-rule="evenodd" d="M4 2C4 1.44772 3.55228 1 3 1C2.44772 1 2 1.44772 2 2V22C2 22.5523 2.44772 23 3 23C3.55228 23 4 22.5523 4 22V20.5H12C13.1046 20.5 14 19.6046 14 18.5V15.5H20C21.1046 15.5 22 14.6046 22 13.5V10.5C22 9.39543 21.1046 8.5 20 8.5H18V5.5C18 4.39543 17.1046 3.5 16 3.5H4L4 2ZM4 5.5V8.5H16V5.5H4ZM4 10.5V13.5H20V10.5H4ZM4 15.5V18.5H12V15.5H4Z" fill="black"/>
</svg>
