<svg width="24" height="24" viewBox="0 0 24 24" fill="none" xmlns="http://www.w3.org/2000/svg">
<path d="M9 17.5C8.44772 17.5 8 17.9477 8 18.5C8 19.0523 8.44772 19.5 9 19.5H15C15.5523 19.5 16 19.0523 16 18.5C16 17.9477 15.5523 17.5 15 17.5H9Z" fill="black"/>
<path fill-rule="evenodd" clip-rule="evenodd" d="M6 1C4.89543 1 4 1.89543 4 3V6.58579C4 7.11622 4.21071 7.62493 4.58579 8L8.58579 12L4.58579 16C4.21071 16.3751 4 16.8838 4 17.4142V21C4 22.1046 4.89543 23 6 23H18C19.1046 23 20 22.1046 20 21V17.4142C20 16.8838 19.7893 16.3751 19.4142 16L15.4142 12L19.4142 8C19.7893 7.62493 20 7.11622 20 6.58579V3C20 1.89543 19.1046 1 18 1H6ZM6 3H18V6.58579L14 10.5858C13.2189 11.3668 13.219 12.6332 14 13.4142L18 17.4142V21H6V17.4142L10 13.4142C10.7811 12.6332 10.781 11.3668 10 10.5858L6 6.58579V3Z" fill="black"/>
</svg>
