<svg width="24" height="24" viewBox="0 0 24 24" fill="none" xmlns="http://www.w3.org/2000/svg">
<path d="M16.3779 3.275C16.008 2.90833 15.4081 2.90833 15.0382 3.275C14.6682 3.64165 14.6682 4.23614 15.0382 4.60278L17.7654 7.30559H3.94737C3.42413 7.30559 3 7.72595 3 8.24449C3 8.76302 3.42413 9.18339 3.94737 9.18339H20.0526C20.5759 9.18339 21 8.76302 21 8.24449C21 7.95667 20.8694 7.69911 20.6636 7.52687C20.6501 7.51051 20.6357 7.49467 20.6203 7.47942L16.3779 3.275Z" fill="black"/>
<path d="M20.0526 16.6944C20.5759 16.6944 21 16.274 21 15.7555C21 15.237 20.5759 14.8166 20.0526 14.8166H3.94737C3.42413 14.8166 3 15.237 3 15.7555C3 16.0433 3.13062 16.3009 3.33641 16.4731C3.34989 16.4895 3.36434 16.5053 3.37972 16.5206L7.62206 20.725C7.99201 21.0917 8.59187 21.0917 8.96182 20.725C9.33183 20.3584 9.33183 19.7639 8.96182 19.3972L6.23466 16.6944H20.0526Z" fill="black"/>
</svg>
