<svg width="24" height="24" viewBox="0 0 24 24" fill="none" xmlns="http://www.w3.org/2000/svg">
<path d="M19.5309 2C20.1857 2 20.8138 2.26014 21.2768 2.72319C21.7399 3.18625 22 3.81428 22 4.46914V19.5309C22 20.1857 21.7399 20.8138 21.2768 21.2768C20.8138 21.7399 20.1857 22 19.5309 22H4.46914C3.81428 22 3.18625 21.7399 2.72319 21.2768C2.26014 20.8138 2 20.1857 2 19.5309V4.46914C2 3.81428 2.26014 3.18625 2.72319 2.72319C3.18625 2.26014 3.81428 2 4.46914 2H19.5309ZM11.5333 6.75309H9.7L9.57407 6.83333L5.2284 16.063L5.35432 16.2605H7.22346L7.35062 16.179L8.2 14.2704H10.8889L11.1852 16.1444L11.3235 16.2617H13.1951L13.3309 16.0975L11.6704 6.8679L11.5333 6.75309ZM18.2284 13.3877H14.4272L14.3407 13.3975L14.2519 13.4333C14.1872 13.4668 14.133 13.5175 14.0953 13.5798C14.0576 13.6421 14.0379 13.7136 14.0383 13.7864V14.5642L14.0469 14.6494L14.079 14.7383C14.1098 14.8048 14.1589 14.8613 14.2205 14.901C14.2822 14.9408 14.3538 14.9623 14.4272 14.963H18.2272L18.3136 14.9531L18.4012 14.9185C18.4668 14.8855 18.5219 14.8348 18.5602 14.7722C18.5986 14.7097 18.6188 14.6376 18.6185 14.5642V13.7864L18.6062 13.6951L18.5741 13.6086C18.5434 13.5427 18.4947 13.4867 18.4335 13.4474C18.3723 13.408 18.3011 13.3881 18.2284 13.3877ZM10.1926 9.83704L10.6173 12.5407H8.98272L10.1926 9.83704ZM18.2296 9.49136L18.1309 9.53333L14.4272 9.49383L14.3407 9.5037L14.2519 9.53827C14.187 9.57182 14.1327 9.62269 14.095 9.68524C14.0573 9.74779 14.0376 9.81956 14.0383 9.89259V10.6704L14.0469 10.7531L14.0778 10.842C14.1084 10.9088 14.1574 10.9655 14.2191 11.0055C14.2807 11.0455 14.3524 11.0671 14.4259 11.0679H18.2272L18.3136 11.058L18.4012 11.0235C18.4666 10.9902 18.5215 10.9395 18.5599 10.877C18.5982 10.8144 18.6185 10.7425 18.6185 10.6691V9.89136L18.6062 9.8L18.5741 9.71358C18.5434 9.64759 18.4947 9.59167 18.4335 9.55233C18.3723 9.51299 18.3024 9.49184 18.2296 9.49136Z" fill="black"/>
</svg>
