<svg width="24" height="24" viewBox="0 0 24 24" fill="none" xmlns="http://www.w3.org/2000/svg">
<path d="M3.78468 18.2717L2.7879 19.7421C2.29152 20.4743 2.81497 21.4646 3.69839 21.4646H10.1793C10.5601 21.4646 11.0504 21.126 11.0504 20.4325C11.0504 19.8296 10.6089 19.4181 10.1249 19.4181H5.24799L6.22977 18.0673L5.13969 16.9125C3.83205 15.5272 3.0082 13.7047 2.90361 11.6998L2.9033 11.6941C2.8949 11.5414 2.89064 11.3875 2.89064 11.2323C2.89064 6.70943 6.56526 2.94901 11.2121 2.94901H11.3985C13.3981 2.94901 15.2228 3.69943 16.6295 4.94446L16.6497 4.96212C17.7268 5.8887 18.5571 7.07994 19.0439 8.42486C19.0549 8.47211 19.07 8.53959 19.0882 8.62418C19.1288 8.81372 19.1821 9.07842 19.2348 9.38142C19.2458 9.44452 19.2694 9.68733 19.2918 9.91821C19.4008 10.5381 19.7605 10.9579 20.5713 10.8672C21.0612 10.8124 21.2866 10.2368 21.2246 9.66122C21.0893 8.407 20.8673 7.89033 20.8517 7.84586C20.2518 6.13133 19.2091 4.62539 17.8611 3.46572C16.1246 1.92874 13.8668 1 11.3985 1H11.2121C5.57212 1 1 5.58115 1 11.2323C1 11.4243 1.00528 11.615 1.0157 11.8044C1.14612 14.3045 2.1749 16.5663 3.78468 18.2717ZM8.11353 7.13938C7.55229 7.13938 7.09731 7.5975 7.09731 8.16261C7.09731 8.72772 7.55229 9.18584 8.11353 9.18584H13.1946C13.7559 9.18584 14.2108 8.72772 14.2108 8.16261C14.2108 7.5975 13.7559 7.13938 13.1946 7.13938H8.11353ZM8.11353 11.2323C7.55229 11.2323 7.09731 11.6904 7.09731 12.2555C7.09731 12.8206 7.55229 13.2788 8.11353 13.2788H10.146C10.7072 13.2788 11.1622 12.8206 11.1622 12.2555C11.1622 11.6904 10.7072 11.2323 10.146 11.2323H8.11353ZM12.8378 19.0396C13.0432 19.8077 13.4152 20.5202 13.9272 21.126L15.1157 20.995C15.3487 20.9693 15.5837 21.0192 15.7866 21.1374C15.9895 21.2554 16.1497 21.4357 16.2437 21.6519L16.7736 22.8686C17.4919 23.0328 18.2365 23.0432 18.959 22.8993L19.5017 21.6519C19.5958 21.4357 19.7558 21.2554 19.9588 21.1374C20.1616 21.0192 20.3967 20.9693 20.6297 20.995L21.9355 21.1388C22.4241 20.5642 22.7869 19.8924 23 19.167L22.251 18.1305C22.1142 17.941 22.0404 17.7127 22.0404 17.4784C22.0404 17.2442 22.1142 17.0159 22.251 16.8264L22.9345 15.8804C22.676 15.1166 22.2502 14.421 21.6886 13.8452L20.6302 13.9619C20.3972 13.9875 20.1621 13.9377 19.9593 13.8195C19.7563 13.7014 19.5963 13.5212 19.5022 13.3049L19.1023 12.3866C18.7273 12.3012 18.3371 12.2556 17.9367 12.2556C17.4953 12.2554 17.0557 12.3113 16.6283 12.4219L16.2442 13.3049C16.1502 13.5212 15.99 13.7014 15.7871 13.8195C15.5842 13.9377 15.3492 13.9875 15.1162 13.9619L14.1726 13.858C13.587 14.4622 13.1508 15.1968 12.8993 16.0022L13.4948 16.8259C13.7758 17.2147 13.7758 17.7417 13.4948 18.1305L12.8378 19.0396ZM20.053 17.628C20.053 18.8147 19.0975 19.7768 17.9189 19.7768C16.7403 19.7768 15.7849 18.8147 15.7849 17.628C15.7849 16.4412 16.7403 15.4792 17.9189 15.4792C19.0975 15.4792 20.053 16.4412 20.053 17.628Z" fill="black"/>
</svg>
