<svg width="24" height="24" viewBox="0 0 24 24" fill="none" xmlns="http://www.w3.org/2000/svg">
<path fill-rule="evenodd" clip-rule="evenodd" d="M2.83476 20.4777L3.85768 18.9496C2.2057 17.1772 1.14995 14.8267 1.01611 12.2285C1.00542 12.0317 1 11.8334 1 11.6339C1 5.76096 5.69198 1 11.4798 1H11.6711C14.2041 1 16.5211 1.96519 18.3031 3.5625C19.6865 4.76769 20.7565 6.33273 21.3721 8.11455C21.3731 8.11745 21.3749 8.12227 21.3775 8.12908C21.4163 8.23104 21.6246 8.77936 21.7547 10.0012C21.8184 10.5993 21.5871 11.1975 21.0843 11.2544C20.2523 11.3487 19.8832 10.9125 19.7714 10.2682C19.7483 10.0284 19.7241 9.77593 19.7128 9.71038C19.6587 9.39549 19.6041 9.1204 19.5624 8.92342C19.5437 8.83551 19.5282 8.76538 19.5169 8.71627C19.0174 7.31857 18.1653 6.08058 17.06 5.11763L17.0392 5.09928C15.5957 3.80537 13.7231 3.02551 11.6711 3.02551H11.4798C6.71115 3.02551 2.9402 6.93352 2.9402 11.6339C2.9402 11.7952 2.94458 11.9552 2.9532 12.1138L2.95352 12.1197C3.06084 14.2033 3.9063 16.0973 5.24821 17.537L6.36687 18.7372L5.35935 20.141H10.3641C10.8608 20.141 11.3138 20.5686 11.3138 21.1952C11.3138 21.9159 10.8107 22.2678 10.4199 22.2678H3.76913C2.86255 22.2678 2.32538 21.2387 2.83476 20.4777ZM7.25715 8.44373C7.25715 7.85644 7.72405 7.38034 8.3 7.38034H13.5143C14.0902 7.38034 14.5571 7.85644 14.5571 8.44373C14.5571 9.03103 14.0902 9.50712 13.5143 9.50712H8.3C7.72405 9.50712 7.25715 9.03103 7.25715 8.44373ZM7.25715 12.6973C7.25715 12.11 7.72405 11.6339 8.3 11.6339H10.3857C10.9617 11.6339 11.4286 12.11 11.4286 12.6973C11.4286 13.2846 10.9617 13.7607 10.3857 13.7607H8.3C7.72405 13.7607 7.25715 13.2846 7.25715 12.6973ZM20.4324 12.7941L22.7115 15.0973C22.72 15.1059 22.7282 15.1147 22.7362 15.1237C22.8972 15.2703 22.9997 15.4841 22.9997 15.7224C22.9997 16.1691 22.6421 16.5268 22.2063 16.5268H13.5541C13.1183 16.5268 12.7607 16.1691 12.7607 15.7224C12.7607 15.2758 13.1183 14.9181 13.5541 14.9181H20.2865L19.3122 13.9335C19.0012 13.6192 19.0012 13.1084 19.3122 12.7941C19.6218 12.4812 20.1228 12.4812 20.4324 12.7941ZM22.9997 19.837C22.9997 20.2837 22.6421 20.6414 22.2063 20.6414H15.4739L16.4482 21.626C16.7593 21.9403 16.7593 22.451 16.4482 22.7654C16.1386 23.0782 15.6377 23.0782 15.3281 22.7653L13.0489 20.4621C13.0405 20.4536 13.0322 20.4448 13.0243 20.4357C12.8632 20.2891 12.7607 20.0753 12.7607 19.837C12.7607 19.3904 13.1183 19.0327 13.5541 19.0327H22.2063C22.6421 19.0327 22.9997 19.3904 22.9997 19.837Z" fill="black"/>
</svg>
