<svg width="24" height="24" viewBox="0 0 24 24" fill="none" xmlns="http://www.w3.org/2000/svg">
<path fill-rule="evenodd" clip-rule="evenodd" d="M10.9498 4.33632L8.49178 6.5991C8.39268 6.68971 8.27554 6.76105 8.14706 6.80903C8.01859 6.85702 7.88131 6.8807 7.74308 6.87872C7.60485 6.87674 7.46839 6.84915 7.34153 6.79751C7.21467 6.74588 7.09989 6.67122 7.00377 6.57782C6.81098 6.38993 6.70483 6.13765 6.70907 5.87663C6.71331 5.61573 6.82719 5.36701 7.02584 5.18477L11.2658 1.28034L11.2667 1.27948C11.441 1.1203 11.6686 1.02282 11.9108 1.00364C12.0608 0.9915 12.212 1.00983 12.3539 1.05739C12.4959 1.10499 12.6253 1.18076 12.7334 1.27955L12.7343 1.28033L16.9745 5.18499C17.1724 5.36805 17.2857 5.61775 17.2888 5.87876C17.2918 6.13977 17.1848 6.39131 16.9912 6.57841C16.7973 6.7653 16.5323 6.87271 16.2547 6.8767C15.977 6.88068 15.709 6.78119 15.5091 6.59996L15.5075 6.59857L13.0515 4.34101V16.2709C13.0513 16.4007 13.0237 16.5299 12.9706 16.6497C12.9174 16.7696 12.8395 16.8785 12.7416 16.97C12.6436 17.0616 12.5273 17.1341 12.3995 17.1834C12.2717 17.2327 12.1347 17.2578 11.9966 17.2573C11.7189 17.2563 11.453 17.152 11.2569 16.9673C11.0608 16.7826 10.9504 16.5324 10.9498 16.2714L10.9498 4.33632ZM15.7267 8.43467H19.3029C20.7824 8.43467 22 9.57371 22 10.9659V19.4647C22 20.8562 20.7831 22 19.3029 22H4.69276C3.21183 22 2 20.8555 2 19.4647V10.9659C2 9.5744 3.21257 8.43467 4.69276 8.43467H8.27594C8.55323 8.43569 8.81884 8.53968 9.01491 8.72399C9.21091 8.90823 9.32152 9.15779 9.32269 9.41833C9.32346 9.54813 9.29701 9.67679 9.24486 9.79697C9.19267 9.91724 9.11576 10.0266 9.01853 10.1189C8.92131 10.2112 8.80567 10.2846 8.67825 10.3348C8.55083 10.3851 8.41411 10.4112 8.27594 10.4117L8.27472 10.4117L4.69276 10.4117C4.35004 10.4117 4.10169 10.6442 4.10169 10.9659V19.4647C4.10169 19.7889 4.35267 20.0244 4.69276 20.0244H19.3029C19.645 20.0244 19.8983 19.787 19.8983 19.4647V10.9659C19.8983 10.646 19.6476 10.4117 19.3029 10.4117H15.7267C15.5884 10.4114 15.4508 10.3855 15.3232 10.3354C15.1955 10.2853 15.0796 10.2119 14.9822 10.1196C14.8848 10.0273 14.8077 9.9178 14.7553 9.79741C14.7031 9.67711 14.6766 9.54829 14.6773 9.41834C14.6785 9.15746 14.7894 8.90761 14.9858 8.72331C15.1823 8.53895 15.4491 8.43518 15.7267 8.43467Z" fill="black"/>
</svg>
