<svg width="24" height="24" viewBox="0 0 24 24" fill="none" xmlns="http://www.w3.org/2000/svg">
<path d="M20.8075 17.4928V21.3062C20.8082 21.4168 20.7871 21.5265 20.7454 21.629C20.7036 21.7315 20.6421 21.8248 20.5643 21.9035C20.4864 21.9821 20.3939 22.0447 20.2918 22.0875C20.1898 22.1304 20.0803 22.1527 19.9696 22.1532C19.7468 22.1517 19.5336 22.0619 19.3769 21.9035C19.2201 21.745 19.1327 21.5309 19.1336 21.308V17.414L18.2903 18.2646C18.213 18.343 18.121 18.4052 18.0195 18.4476C17.918 18.49 17.8091 18.5119 17.699 18.5119C17.589 18.5119 17.4801 18.49 17.3786 18.4476C17.2771 18.4052 17.1851 18.343 17.1078 18.2646C16.951 18.1052 16.8632 17.8906 16.8632 17.667C16.8632 17.4434 16.951 17.2287 17.1078 17.0693L19.339 14.8124C19.4163 14.7338 19.5084 14.6714 19.6101 14.6288C19.7118 14.5862 19.8209 14.5642 19.9311 14.5642C20.0414 14.5642 20.1505 14.5862 20.2522 14.6288C20.3539 14.6714 20.446 14.7338 20.5233 14.8124L22.7545 17.0675C22.9118 17.227 23 17.442 23 17.666C23 17.8901 22.9118 18.1051 22.7545 18.2646C22.6772 18.343 22.5852 18.4052 22.4837 18.4476C22.3822 18.49 22.2733 18.5119 22.1632 18.5119C22.0532 18.5119 21.9443 18.49 21.8428 18.4476C21.7413 18.4052 21.6493 18.343 21.572 18.2646L20.8075 17.4946V17.4928ZM12.6931 12.0184H15.7749C16.237 12.0184 16.6128 12.3979 16.6128 12.8654C16.6133 12.9759 16.592 13.0855 16.5501 13.1877C16.5083 13.29 16.4467 13.3831 16.3689 13.4615C16.2911 13.54 16.1986 13.6024 16.0967 13.6451C15.9948 13.6879 15.8855 13.7101 15.7749 13.7106H11.8718C11.7284 13.7107 11.5875 13.6734 11.4629 13.6024C11.3289 13.5294 11.217 13.4215 11.1393 13.2902C11.0615 13.1588 11.0207 13.0089 11.0211 12.8563V8.27839C11.0211 7.81089 11.3951 7.43138 11.8571 7.43138C12.3209 7.43138 12.6949 7.81089 12.6949 8.27839V12.0184H12.6931ZM22.76 12.0001C22.7607 12.1106 22.7397 12.2202 22.6981 12.3225C22.6564 12.4249 22.5951 12.5181 22.5174 12.5967C22.4398 12.6754 22.3474 12.738 22.2456 12.7809C22.1438 12.8239 22.0345 12.8464 21.924 12.8471C21.8133 12.8466 21.7038 12.8243 21.6018 12.7815C21.4998 12.7386 21.4072 12.6761 21.3294 12.5974C21.2516 12.5187 21.19 12.4255 21.1483 12.323C21.1065 12.2205 21.0854 12.1107 21.0862 12.0001C21.0862 6.85938 16.9648 2.69218 11.8809 2.69218C6.79338 2.69218 2.67385 6.85938 2.67385 12.0001C2.67385 17.1408 6.79521 21.308 11.8809 21.308C12.9809 21.308 14.0571 21.1118 15.0673 20.736C15.1708 20.6978 15.2808 20.6806 15.391 20.6852C15.5012 20.6898 15.6094 20.7163 15.7093 20.763C15.8092 20.8097 15.8988 20.8758 15.9731 20.9573C16.0473 21.0389 16.1046 21.1344 16.1416 21.2383C16.2184 21.448 16.2096 21.6795 16.1169 21.8826C16.0243 22.0858 15.8553 22.2442 15.6466 22.3237C14.4419 22.7724 13.1665 23.0015 11.8809 23.0002C5.8712 23.0002 1 18.0758 1 12.0001C1 5.92437 5.8712 1 11.8809 1C17.8888 1 22.76 5.92437 22.76 12.0001Z" fill="black" stroke="black" stroke-width="0.200002"/>
</svg>
