<svg width="24" height="24" viewBox="0 0 24 24" fill="none" xmlns="http://www.w3.org/2000/svg">
<path d="M12.2619 2C12.58 2.00003 12.8906 2.0966 13.1526 2.27695C13.4147 2.45729 13.6158 2.71292 13.7295 3.01003C13.8431 3.30713 13.8639 3.63174 13.7891 3.94092C13.7143 4.2501 13.5475 4.52931 13.3106 4.74162L13.3095 6.19048H17.2381C18.0397 6.19043 18.8111 6.49672 19.3944 7.04668C19.9776 7.59663 20.3287 8.34868 20.3757 9.14895L20.381 9.33333V17.7143C20.381 18.5478 20.0498 19.3472 19.4604 19.9366C18.871 20.526 18.0716 20.8571 17.2381 20.8571H6.7619C5.92837 20.8571 5.12897 20.526 4.53957 19.9366C3.95017 19.3472 3.61905 18.5478 3.61905 17.7143V9.33333C3.61905 8.4998 3.95017 7.7004 4.53957 7.111C5.12897 6.5216 5.92837 6.19048 6.7619 6.19048H11.2143V4.74267C10.9198 4.47967 10.7354 4.1153 10.6978 3.72229L10.6905 3.57143C10.6905 3.15466 10.856 2.75496 11.1507 2.46026C11.4454 2.16556 11.8451 2 12.2619 2ZM17.2381 8.28571H6.7619C6.62433 8.28571 6.4881 8.31281 6.361 8.36546C6.2339 8.41811 6.11841 8.49527 6.02113 8.59256C5.92385 8.68984 5.84668 8.80532 5.79403 8.93243C5.74138 9.05953 5.71429 9.19576 5.71429 9.33333V17.7143C5.71429 17.9921 5.82466 18.2586 6.02113 18.4551C6.21759 18.6515 6.48406 18.7619 6.7619 18.7619H17.2381C17.5159 18.7619 17.7824 18.6515 17.9789 18.4551C18.1753 18.2586 18.2857 17.9921 18.2857 17.7143V9.33333C18.2857 9.19576 18.2586 9.05953 18.206 8.93243C18.1533 8.80532 18.0762 8.68984 17.9789 8.59256C17.8816 8.49527 17.7661 8.41811 17.639 8.36546C17.5119 8.31281 17.3757 8.28571 17.2381 8.28571ZM2.04762 10.381C2.30422 10.381 2.55188 10.4752 2.74363 10.6457C2.93538 10.8162 3.05788 11.0512 3.0879 11.306L3.09524 11.4286V15.619C3.09494 15.8861 2.9927 16.1429 2.8094 16.3371C2.6261 16.5312 2.37557 16.6481 2.10901 16.6637C1.84246 16.6794 1.57998 16.5926 1.37522 16.4212C1.17046 16.2499 1.03887 16.0068 1.00733 15.7416L1 15.619V11.4286C1 11.1507 1.11037 10.8843 1.30684 10.6878C1.50331 10.4913 1.76977 10.381 2.04762 10.381ZM21.9524 10.381C22.209 10.381 22.4566 10.4752 22.6484 10.6457C22.8401 10.8162 22.9626 11.0512 22.9927 11.306L23 11.4286V15.619C22.9997 15.8861 22.8975 16.1429 22.7142 16.3371C22.5309 16.5312 22.2803 16.6481 22.0138 16.6637C21.7472 16.6794 21.4847 16.5926 21.28 16.4212C21.0752 16.2499 20.9436 16.0068 20.9121 15.7416L20.9048 15.619V11.4286C20.9048 11.1507 21.0151 10.8843 21.2116 10.6878C21.4081 10.4913 21.6745 10.381 21.9524 10.381ZM9.11905 11.381C9.53582 11.381 9.93552 11.5465 10.2302 11.8412C10.5249 12.1359 10.6905 12.5356 10.6905 12.9524C10.6905 13.3692 10.5249 13.7689 10.2302 14.0635C9.93552 14.3582 9.53582 14.5238 9.11905 14.5238C8.70228 14.5238 8.30258 14.3582 8.00788 14.0635C7.71318 13.7689 7.54762 13.3692 7.54762 12.9524C7.54762 12.5356 7.71318 12.1359 8.00788 11.8412C8.30258 11.5465 8.70228 11.381 9.11905 11.381ZM15.4048 11.381C15.8215 11.381 16.2212 11.5465 16.5159 11.8412C16.8106 12.1359 16.9762 12.5356 16.9762 12.9524C16.9762 13.3692 16.8106 13.7689 16.5159 14.0635C16.2212 14.3582 15.8215 14.5238 15.4048 14.5238C14.988 14.5238 14.5883 14.3582 14.2936 14.0635C13.9989 13.7689 13.8333 13.3692 13.8333 12.9524C13.8333 12.5356 13.9989 12.1359 14.2936 11.8412C14.5883 11.5465 14.988 11.381 15.4048 11.381Z" fill="black"/>
</svg>
