<svg width="24" height="24" viewBox="0 0 24 24" fill="none" xmlns="http://www.w3.org/2000/svg">
<path fill-rule="evenodd" clip-rule="evenodd" d="M5.38889 17.4545C5.38889 18.9608 6.65742 20.1818 8.22222 20.1818H18.6111V6.54545C18.6111 5.03922 17.3426 3.81818 15.7778 3.81818H5.38889V17.4545ZM3.97222 2C3.71142 2 3.5 2.20351 3.5 2.45455V17.4545C3.5 19.9649 5.61421 22 8.22222 22H20.0278C20.2886 22 20.5 21.7965 20.5 21.5455V6.54545C20.5 4.03507 18.3858 2 15.7778 2H3.97222ZM8.22222 7C7.70062 7 7.27778 7.40701 7.27778 7.90909C7.27778 8.41117 7.70062 8.81818 8.22222 8.81818H15.7778C16.2994 8.81818 16.7222 8.41117 16.7222 7.90909C16.7222 7.40701 16.2994 7 15.7778 7H8.22222ZM7.27778 12C7.27778 11.4979 7.70062 11.0909 8.22222 11.0909H15.7778C16.2994 11.0909 16.7222 11.4979 16.7222 12C16.7222 12.5021 16.2994 12.9091 15.7778 12.9091H8.22222C7.70062 12.9091 7.27778 12.5021 7.27778 12ZM8.22222 15.1818C7.70062 15.1818 7.27778 15.5888 7.27778 16.0909C7.27778 16.593 7.70062 17 8.22222 17H12.9444C13.466 17 13.8889 16.593 13.8889 16.0909C13.8889 15.5888 13.466 15.1818 12.9444 15.1818H8.22222Z" fill="black"/>
</svg>
