<svg width="24" height="24" viewBox="0 0 24 24" fill="none" xmlns="http://www.w3.org/2000/svg">
<path fill-rule="evenodd" clip-rule="evenodd" d="M6.25 3C6.25 2.30964 5.69036 1.75 5 1.75C4.30964 1.75 3.75 2.30964 3.75 3L3.75 21C3.75 21.6904 4.30964 22.25 5 22.25C5.69036 22.25 6.25 21.6904 6.25 21L6.25 3ZM11.5 19.5V4.5H15.5C16.6046 4.5 17.5 5.39543 17.5 6.5V17.5C17.5 18.6046 16.6046 19.5 15.5 19.5H11.5ZM9 3C9 2.44772 9.44772 2 10 2H15.5C17.9853 2 20 4.01472 20 6.5V17.5C20 19.9853 17.9853 22 15.5 22H10C9.44772 22 9 21.5523 9 21V3Z" fill="black"/>
</svg>
