<svg width="24" height="24" viewBox="0 0 24 24" fill="none" xmlns="http://www.w3.org/2000/svg">
<path d="M22.7368 5.00093C22.7326 4.71522 22.6201 4.44242 22.423 4.24041L19.7457 1.49439C19.647 1.38897 19.5289 1.30481 19.3981 1.24683C19.2673 1.18885 19.1265 1.15822 18.984 1.15673C18.8416 1.15525 18.7002 1.18293 18.5683 1.23817C18.4364 1.29341 18.3166 1.37509 18.2158 1.47843C18.1151 1.58176 18.0354 1.70468 17.9816 1.83998C17.9277 1.97528 17.9007 2.12024 17.9022 2.26637C17.9036 2.4125 17.9335 2.55687 17.99 2.69102C18.0465 2.82516 18.1286 2.94639 18.2314 3.04761L19.0806 3.91861L14.9621 3.91861C13.7916 3.91861 12.6865 4.48117 11.9784 5.43643C11.9724 5.44421 11.9664 5.45208 11.9606 5.46003L8.49788 10.4072C8.19298 10.8184 7.72186 11.0583 7.21884 11.0583H2.92468C2.78277 11.0562 2.64187 11.0831 2.51018 11.1374C2.37849 11.1916 2.25863 11.2722 2.15757 11.3744C2.05651 11.4766 1.97626 11.5984 1.92148 11.7327C1.86671 11.867 1.8385 12.0111 1.8385 12.1567C1.8385 12.3022 1.86671 12.4464 1.92148 12.5806C1.97626 12.7149 2.05651 12.8367 2.15757 12.9389C2.25863 13.0411 2.37849 13.1217 2.51018 13.176C2.64187 13.2302 2.78277 13.2571 2.92468 13.2551H7.21884C7.72186 13.2551 8.19298 13.4949 8.49788 13.9062L11.9606 18.8533C11.9664 18.8613 11.9724 18.8691 11.9784 18.8769C12.6865 19.8322 13.7916 20.3947 14.9621 20.3947H19.0806L18.2314 21.2657C18.1286 21.367 18.0465 21.4882 17.99 21.6223C17.9335 21.7565 17.9036 21.9008 17.9022 22.047C17.9007 22.1931 17.9277 22.3381 17.9816 22.4734C18.0354 22.6087 18.115 22.7316 18.2158 22.8349C18.3166 22.9383 18.4364 23.0199 18.5683 23.0752C18.7002 23.1304 18.8416 23.1581 18.984 23.1566C19.1265 23.1551 19.2673 23.1245 19.3981 23.0665C19.5289 23.0085 19.647 22.9244 19.7457 22.819L22.423 20.0729C22.5244 19.969 22.6044 19.8454 22.6582 19.7092C22.7121 19.573 22.7388 19.4272 22.7368 19.2802C22.7326 18.9945 22.6201 18.7217 22.423 18.5197L19.7457 15.7737C19.647 15.6683 19.5289 15.5841 19.3981 15.5261C19.2673 15.4682 19.1265 15.4375 18.984 15.436C18.8416 15.4345 18.7002 15.4622 18.5683 15.5175C18.4364 15.5727 18.3166 15.6544 18.2158 15.7577C18.115 15.8611 18.0354 15.984 17.9816 16.1193C17.9277 16.2546 17.9007 16.3995 17.9022 16.5457C17.9036 16.6918 17.9335 16.8362 17.99 16.9703C18.0465 17.1045 18.1286 17.2257 18.2314 17.3269L19.0806 18.1979H14.9621C14.4611 18.1979 13.9902 17.9582 13.6862 17.55L10.2204 12.6008C10.2149 12.5925 10.2093 12.5842 10.2036 12.5761C10.0706 12.3966 9.86679 12.3073 9.7079 12.1567C9.86679 12.006 10.0706 11.9167 10.2036 11.7373C10.2093 11.7291 10.2149 11.7209 10.2204 11.7126L13.6862 6.76332C13.9902 6.35518 14.4611 6.11543 14.9621 6.11543L19.0806 6.11543L18.2314 6.98643C18.1286 7.08764 18.0465 7.20887 17.99 7.34302C17.9335 7.47717 17.9036 7.62154 17.9022 7.76767C17.9007 7.9138 17.9277 8.05876 17.9816 8.19406C18.0354 8.32936 18.1151 8.45228 18.2158 8.55562C18.3166 8.65896 18.4364 8.74064 18.5683 8.79587C18.7002 8.85111 18.8416 8.8788 18.984 8.87731C19.1265 8.87582 19.2673 8.84519 19.3981 8.78721C19.5289 8.72923 19.647 8.64507 19.7457 8.53965L22.423 5.79363C22.5244 5.68974 22.6044 5.56605 22.6582 5.42989C22.7121 5.29373 22.7388 5.14787 22.7368 5.00093Z" fill="black"/>
</svg>
