<svg width="24" height="24" viewBox="0 0 24 24" fill="none" xmlns="http://www.w3.org/2000/svg">
<path fill-rule="evenodd" clip-rule="evenodd" d="M11.597 1.18492C11.8628 1.13025 12.137 1.13025 12.4028 1.18492C12.7101 1.24812 12.9847 1.40195 13.203 1.52424C13.2234 1.53563 13.2432 1.54674 13.2626 1.55749L20.6626 5.6686C20.683 5.67996 20.7041 5.69157 20.7257 5.70347C20.9568 5.83078 21.2474 5.99085 21.4706 6.23303C21.6636 6.4424 21.8096 6.69057 21.8989 6.96092C22.0022 7.27362 22.001 7.60541 22.0001 7.86927C22 7.89393 21.9999 7.918 21.9999 7.94141V16.0585C21.9999 16.0819 22 16.106 22.0001 16.1307C22.001 16.3945 22.0022 16.7263 21.8989 17.039C21.8096 17.3094 21.6636 17.5575 21.4706 17.7669C21.2474 18.0091 20.9568 18.1691 20.7257 18.2964C20.7041 18.3083 20.683 18.32 20.6626 18.3313L13.2626 22.4424C13.2432 22.4532 13.2234 22.4643 13.203 22.4757C12.9847 22.598 12.7101 22.7518 12.4028 22.815C12.137 22.8697 11.8628 22.8697 11.597 22.815C11.2897 22.7518 11.0151 22.598 10.7967 22.4757C10.7764 22.4643 10.7565 22.4532 10.7372 22.4424L3.33721 18.3313C3.31675 18.32 3.29568 18.3084 3.27408 18.2965C3.04295 18.1691 2.75233 18.0091 2.52915 17.7669C2.3362 17.5575 2.19018 17.3094 2.10085 17.039C1.99753 16.7263 1.99874 16.3945 1.9997 16.1306C1.99979 16.106 1.99988 16.0819 1.99988 16.0585V7.94141C1.99988 7.918 1.99979 7.89394 1.9997 7.86928C1.99874 7.60541 1.99753 7.27363 2.10085 6.96092C2.19017 6.69057 2.3362 6.44241 2.52915 6.23303C2.75232 5.99085 3.04294 5.83078 3.27407 5.70347C3.29567 5.69158 3.31675 5.67996 3.33721 5.6686L10.7372 1.55749C10.7565 1.54674 10.7764 1.53563 10.7967 1.52424C11.0151 1.40195 11.2897 1.24812 11.597 1.18492ZM11.9999 3.14895C11.9984 3.14968 11.9968 3.15044 11.9951 3.15124C11.9374 3.17907 11.86 3.22161 11.7085 3.3058L4.30849 7.41691C4.14854 7.50578 4.06688 7.55162 4.00958 7.58812C4.00789 7.5892 4.00628 7.59023 4.00475 7.59123C4.00462 7.59305 4.0045 7.59497 4.00438 7.59696C4.0003 7.66478 3.99988 7.75843 3.99988 7.94141V16.0585C3.99988 16.2415 4.0003 16.3351 4.00438 16.403C4.0045 16.405 4.00462 16.4069 4.00474 16.4087C4.00628 16.4097 4.00789 16.4107 4.00958 16.4118C4.06688 16.4483 4.14854 16.4941 4.3085 16.583L11.7085 20.6941C11.86 20.7783 11.9374 20.8209 11.9951 20.8487C11.9968 20.8495 11.9984 20.8502 11.9999 20.851C12.0014 20.8502 12.003 20.8495 12.0047 20.8487C12.0624 20.8209 12.1397 20.7783 12.2913 20.6941L19.6913 16.583C19.8512 16.4941 19.9329 16.4483 19.9902 16.4118C19.9919 16.4107 19.9935 16.4097 19.995 16.4087C19.9951 16.4069 19.9953 16.405 19.9954 16.403C19.9995 16.3351 19.9999 16.2415 19.9999 16.0585V7.94141C19.9999 7.75843 19.9995 7.66477 19.9954 7.59696C19.9953 7.59496 19.9951 7.59305 19.995 7.59123C19.9935 7.59023 19.9919 7.5892 19.9902 7.58812C19.9329 7.55162 19.8512 7.50577 19.6913 7.41691L12.2913 3.3058C12.1397 3.22161 12.0624 3.17907 12.0047 3.15124C12.003 3.15044 12.0014 3.14968 11.9999 3.14895ZM10.9999 7.99996C10.9999 7.44768 11.4476 6.99996 11.9999 6.99996H12.0099C12.5622 6.99996 13.0099 7.44768 13.0099 7.99996C13.0099 8.55225 12.5622 8.99996 12.0099 8.99996H11.9999C11.4476 8.99996 10.9999 8.55225 10.9999 7.99996ZM11.9999 11C12.5522 11 12.9999 11.4477 12.9999 12V16C12.9999 16.5522 12.5522 17 11.9999 17C11.4476 17 10.9999 16.5522 10.9999 16V12C10.9999 11.4477 11.4476 11 11.9999 11Z" fill="black"/>
</svg>
