<svg width="24" height="24" viewBox="0 0 24 24" fill="none" xmlns="http://www.w3.org/2000/svg"><path fill-rule="evenodd" clip-rule="evenodd" d="M16.2929 4.29289C16.6834 3.90237 17.3166 3.90237 17.7071 4.29289L19 5.58579L20.2929 4.29289C20.6834 3.90237 21.3166 3.90237 21.7071 4.29289C22.0976 4.68342 22.0976 5.31658 21.7071 5.70711L20.4142 7L21.7071 8.29289C22.0976 8.68342 22.0976 9.31658 21.7071 9.70711C21.3166 10.0976 20.6834 10.0976 20.2929 9.70711L19 8.41421L17.7071 9.70711C17.3166 10.0976 16.6834 10.0976 16.2929 9.70711C15.9024 9.31658 15.9024 8.68342 16.2929 8.29289L17.5858 7L16.2929 5.70711C15.9024 5.31658 15.9024 4.68342 16.2929 4.29289ZM22.7526 15.6585C23.1163 15.2429 23.0741 14.6111 22.6585 14.2474C22.2429 13.8837 21.6111 13.9259 21.2474 14.3415L18.4513 17.5371L17.2071 16.2929C16.8166 15.9024 16.1834 15.9024 15.7929 16.2929C15.4024 16.6834 15.4024 17.3166 15.7929 17.7071L17.7929 19.7071C17.9886 19.9028 18.2567 20.0087 18.5333 19.9994C18.8099 19.9902 19.0703 19.8668 19.2526 19.6585L22.7526 15.6585ZM2 4C1.44772 4 1 4.44772 1 5V9C1 9.55229 1.44772 10 2 10H13C13.5523 10 14 9.55229 14 9V5C14 4.44772 13.5523 4 13 4H2ZM2 14C1.44772 14 1 14.4477 1 15V19C1 19.5523 1.44772 20 2 20H13C13.5523 20 14 19.5523 14 19V15C14 14.4477 13.5523 14 13 14H2Z" fill="#333333"/></svg>