<svg width="24" height="24" viewBox="0 0 24 24" fill="none" xmlns="http://www.w3.org/2000/svg">
<path fill-rule="evenodd" clip-rule="evenodd" d="M6.16125 3H17.8383C18.3655 2.99998 18.8203 2.99997 19.1948 3.03057C19.5902 3.06287 19.9834 3.13419 20.3618 3.32698C20.9263 3.6146 21.3852 4.07354 21.6728 4.63803C21.8656 5.01641 21.9369 5.40963 21.9692 5.80497C21.9998 6.17954 21.9998 6.6343 21.9998 7.16144V15.2679C22.4532 15.5297 22.7926 15.9633 22.9317 16.4824C23.0015 16.7432 23.0007 17.031 22.9999 17.2658C22.9999 17.2888 22.9998 17.3114 22.9998 17.3333C22.9998 17.371 22.9998 17.4083 22.9999 17.4452C23.0004 17.9529 23.0009 18.3909 22.8976 18.7765C22.6202 19.8117 21.8115 20.6204 20.7763 20.8978C20.3907 21.0011 19.9527 21.0006 19.445 21.0001C19.4081 21 19.3708 21 19.3331 21H4.66647C4.62881 21 4.59154 21 4.55463 21.0001C4.0469 21.0006 3.60887 21.0011 3.22334 20.8978C2.18807 20.6204 1.37942 19.8117 1.10202 18.7765C0.99872 18.3909 0.999183 17.9529 0.999721 17.4452C0.99976 17.4083 0.999799 17.371 0.999799 17.3333C0.999799 17.3114 0.99973 17.2888 0.99966 17.2658C0.998945 17.031 0.998069 16.7432 1.06795 16.4824C1.20703 15.9633 1.54645 15.5297 1.9998 15.2679V7.16146C1.99978 6.63431 1.99976 6.17955 2.03037 5.80497C2.06267 5.40963 2.13399 5.01641 2.32678 4.63803C2.6144 4.07354 3.07334 3.6146 3.63783 3.32698C4.01621 3.13419 4.40943 3.06287 4.80477 3.03057C5.17934 2.99997 5.63411 2.99998 6.16125 3ZM3.00354 17.0037C3.00678 17.0036 3.01028 17.0034 3.01405 17.0032C3.07939 17.0002 3.16907 17 3.33313 17H20.6665C20.8305 17 20.9202 17.0002 20.9855 17.0032C20.9893 17.0034 20.9928 17.0036 20.9961 17.0037C20.9962 17.007 20.9964 17.0105 20.9966 17.0143C20.9996 17.0796 20.9998 17.1693 20.9998 17.3333C20.9998 18.0177 20.9912 18.1637 20.9657 18.2588C20.8733 18.6039 20.6037 18.8735 20.2586 18.9659C20.1635 18.9914 20.0175 19 19.3331 19H4.66647C3.9821 19 3.83609 18.9914 3.74098 18.9659C3.39589 18.8735 3.12634 18.6039 3.03387 18.2588C3.00839 18.1637 2.9998 18.0177 2.9998 17.3333C2.9998 17.1693 3.00004 17.0796 3.00302 17.0143C3.00319 17.0105 3.00337 17.007 3.00354 17.0037ZM19.9998 15H3.9998V7.2C3.9998 6.62345 4.00058 6.25117 4.02373 5.96784C4.04592 5.69617 4.0836 5.59546 4.10879 5.54601C4.20467 5.35785 4.35765 5.20487 4.54581 5.109C4.59525 5.0838 4.69597 5.04612 4.96764 5.02393C5.25097 5.00078 5.62325 5 6.1998 5H17.7998C18.3764 5 18.7486 5.00078 19.032 5.02393C19.3036 5.04612 19.4043 5.0838 19.4538 5.109C19.642 5.20487 19.7949 5.35785 19.8908 5.54601C19.916 5.59545 19.9537 5.69617 19.9759 5.96784C19.999 6.25118 19.9998 6.62345 19.9998 7.2V15Z" fill="black"/>
</svg>
