<svg width="24" height="24" viewBox="0 0 24 24" fill="none" xmlns="http://www.w3.org/2000/svg">
<path fill-rule="evenodd" clip-rule="evenodd" d="M6.16161 3H17.8387C18.3658 2.99998 18.8206 2.99997 19.1952 3.03057C19.5905 3.06287 19.9837 3.13419 20.3621 3.32698C20.9266 3.6146 21.3856 4.07355 21.6732 4.63803C21.866 5.01641 21.9373 5.40963 21.9696 5.80497C22.0002 6.17954 22.0002 6.6343 22.0002 7.16144V15.2679C22.4535 15.5297 22.7929 15.9633 22.932 16.4824C23.0019 16.7432 23.001 17.031 23.0003 17.2658C23.0002 17.2888 23.0002 17.3114 23.0002 17.3333C23.0002 17.371 23.0002 17.4083 23.0002 17.4452C23.0008 17.9529 23.0012 18.3909 22.8979 18.7765C22.6205 19.8117 21.8119 20.6204 20.7766 20.8978C20.3911 21.0011 19.9531 21.0006 19.4453 21.0001C19.4084 21 19.3711 21 19.3335 21H4.66682C4.62917 21 4.59189 21 4.55498 21.0001C4.04726 21.0006 3.60923 21.0011 3.2237 20.8978C2.18842 20.6204 1.37978 19.8117 1.10238 18.7765C0.999075 18.3909 0.999539 17.9529 1.00008 17.4452C1.00012 17.4083 1.00015 17.371 1.00015 17.3333V17C1.00015 16.2597 1.40235 15.6134 2.00015 15.2676V7.16146C2.00014 6.63431 2.00012 6.17955 2.03072 5.80497C2.06303 5.40963 2.13434 5.01641 2.32714 4.63803C2.61476 4.07354 3.0737 3.6146 3.63818 3.32698C4.01656 3.13419 4.40978 3.06287 4.80513 3.03057C5.1797 2.99997 5.63446 2.99998 6.16161 3ZM4.00015 15H8.33741C8.35398 15 8.37101 15 8.38845 14.9999C8.57836 14.9994 8.8175 14.9988 9.05283 15.0553C9.25691 15.1043 9.452 15.1851 9.63094 15.2947C9.83729 15.4212 10.0059 15.5907 10.1399 15.7254C10.1522 15.7377 10.1642 15.7498 10.1759 15.7615L10.2386 15.8243C10.3313 15.9169 10.3777 15.963 10.4128 15.995C10.4137 15.9958 10.4146 15.9967 10.4154 15.9974C10.4166 15.9975 10.4178 15.9975 10.419 15.9976C10.4665 15.9998 10.5319 16 10.6629 16H13.3374C13.4684 16 13.5338 15.9998 13.5813 15.9976C13.5825 15.9975 13.5837 15.9975 13.5849 15.9974C13.5857 15.9967 13.5866 15.9958 13.5875 15.995C13.6226 15.963 13.669 15.9169 13.7617 15.8243L13.8244 15.7615C13.8361 15.7498 13.8481 15.7377 13.8604 15.7254C13.9944 15.5907 14.163 15.4212 14.3694 15.2947C14.5483 15.1851 14.7434 15.1043 14.9475 15.0553C15.1828 14.9988 15.4219 14.9994 15.6119 14.9999C15.6293 15 15.6463 15 15.6629 15H20.0002V7.2C20.0002 6.62345 19.9994 6.25118 19.9762 5.96784C19.954 5.69617 19.9164 5.59546 19.8912 5.54601C19.7953 5.35785 19.6423 5.20487 19.4541 5.109C19.4047 5.0838 19.304 5.04612 19.0323 5.02393C18.749 5.00078 18.3767 5 17.8002 5H6.20016C5.6236 5 5.25133 5.00078 4.96799 5.02393C4.69633 5.04612 4.59561 5.0838 4.54616 5.109C4.358 5.20487 4.20502 5.35785 4.10915 5.54601C4.08396 5.59546 4.04628 5.69617 4.02408 5.96784C4.00093 6.25117 4.00015 6.62345 4.00015 7.2V15ZM15.6629 17C15.5319 17 15.4665 17.0002 15.419 17.0024C15.4178 17.0025 15.4166 17.0025 15.4154 17.0026C15.4146 17.0034 15.4137 17.0042 15.4128 17.005C15.3777 17.037 15.3313 17.0831 15.2386 17.1757L15.1759 17.2385C15.1642 17.2502 15.1522 17.2623 15.1399 17.2746C15.0059 17.4093 14.8373 17.5788 14.6309 17.7053C14.452 17.8149 14.2569 17.8957 14.0528 17.9447C13.8175 18.0012 13.5784 18.0006 13.3885 18.0001C13.371 18 13.354 18 13.3374 18H10.6629C10.6463 18 10.6293 18 10.6119 18.0001C10.4219 18.0006 10.1828 18.0012 9.94748 17.9447C9.7434 17.8957 9.54831 17.8149 9.36937 17.7053C9.16302 17.5788 8.99437 17.4093 8.86044 17.2746C8.84814 17.2623 8.83614 17.2502 8.82442 17.2385L8.76168 17.1757C8.66905 17.0831 8.62265 17.037 8.58753 17.005C8.58661 17.0042 8.58572 17.0034 8.58487 17.0026C8.58373 17.0025 8.58253 17.0025 8.58129 17.0024C8.5338 17.0002 8.46841 17 8.33741 17H3.00015V17.3333C3.00015 18.0177 3.00874 18.1637 3.03423 18.2588C3.1267 18.6039 3.39624 18.8735 3.74134 18.9659C3.83645 18.9914 3.98246 19 4.66682 19H19.3335C20.0178 19 20.1639 18.9914 20.259 18.9659C20.6041 18.8735 20.8736 18.6039 20.9661 18.2588C20.9916 18.1637 21.0002 18.0177 21.0002 17.3333C21.0002 17.1693 20.9999 17.0796 20.9969 17.0143C20.9968 17.0105 20.9966 17.007 20.9964 17.0037C20.9932 17.0036 20.9897 17.0034 20.9859 17.0032C20.9206 17.0002 20.8309 17 20.6668 17H15.6629Z" fill="black"/>
</svg>
