<svg width="24" height="24" viewBox="0 0 24 24" fill="none" xmlns="http://www.w3.org/2000/svg">
<path fill-rule="evenodd" clip-rule="evenodd" d="M11.8026 3.02039L11.8026 3.02039L11.8026 3.02039ZM12 3.11798L19.7639 6.99994L16.5618 8.601C16.5553 8.60417 16.5488 8.60741 16.5424 8.61072L12 10.8819L7.45763 8.61072C7.45118 8.60741 7.44469 8.60417 7.43817 8.60099L4.23607 6.99994L12 3.11798ZM4.76393 9.49994L1.55279 7.89437C1.214 7.72498 1 7.37872 1 6.99994C1 6.62117 1.214 6.27491 1.55279 6.10552L11.195 1.2844C11.2024 1.2807 11.211 1.27633 11.2206 1.27143C11.3139 1.22382 11.507 1.12529 11.7234 1.08468C11.9062 1.05039 12.0938 1.05039 12.2766 1.08468C12.493 1.12529 12.6861 1.22382 12.7794 1.27143C12.789 1.27633 12.7976 1.2807 12.805 1.2844L22.4472 6.10552C22.786 6.27491 23 6.62117 23 6.99994C23 7.37872 22.786 7.72498 22.4472 7.89437L19.2361 9.49994L22.4472 11.1055C22.786 11.2749 23 11.6212 23 11.9999C23 12.3787 22.786 12.725 22.4472 12.8944L19.2361 14.4999L22.4472 16.1055C22.786 16.2749 23 16.6212 23 16.9999C23 17.3787 22.786 17.725 22.4472 17.8944L12.805 22.7155C12.7976 22.7192 12.789 22.7236 12.7794 22.7285C12.6861 22.7761 12.493 22.8746 12.2766 22.9152C12.0938 22.9495 11.9062 22.9495 11.7234 22.9152C11.507 22.8746 11.3139 22.7761 11.2206 22.7285C11.211 22.7236 11.2024 22.7192 11.195 22.7155L1.55279 17.8944C1.214 17.725 1 17.3787 1 16.9999C1 16.6212 1.214 16.2749 1.55279 16.1055L4.76393 14.4999L1.55279 12.8944C1.214 12.725 1 12.3787 1 11.9999C1 11.6212 1.214 11.2749 1.55279 11.1055L4.76393 9.49994ZM7 10.618L4.23607 11.9999L7.43819 13.601C7.4447 13.6042 7.45117 13.6074 7.45761 13.6107L12 15.8819L16.5424 13.6107C16.5488 13.6074 16.5553 13.6042 16.5618 13.601L19.7639 11.9999L17 10.618L12.805 12.7155C12.7976 12.7192 12.789 12.7236 12.7794 12.7285C12.6861 12.7761 12.493 12.8746 12.2766 12.9152C12.0938 12.9495 11.9062 12.9495 11.7234 12.9152C11.507 12.8746 11.3139 12.7761 11.2206 12.7285C11.211 12.7236 11.2024 12.7192 11.195 12.7155L7 10.618ZM17 15.618L12.805 17.7155C12.7976 17.7192 12.789 17.7236 12.7794 17.7285C12.6861 17.7761 12.493 17.8746 12.2766 17.9152C12.0938 17.9495 11.9062 17.9495 11.7234 17.9152C11.507 17.8746 11.3139 17.7761 11.2206 17.7285C11.211 17.7236 11.2024 17.7192 11.195 17.7155L7 15.618L4.23607 16.9999L12 20.8819L19.7639 16.9999L17 15.618ZM11.8026 15.9795C11.8024 15.9796 11.8024 15.9796 11.8026 15.9795L11.8026 15.9795ZM12.1974 15.9795C12.1976 15.9796 12.1976 15.9796 12.1974 15.9795L12.1974 15.9795ZM11.8026 10.9795C11.8024 10.9796 11.8024 10.9796 11.8026 10.9795L11.8026 10.9795ZM12.1974 10.9795C12.1976 10.9796 12.1976 10.9796 12.1974 10.9795L12.1974 10.9795ZM12.1974 3.02039L12.1974 3.02039L12.1974 3.02039Z" fill="black"/>
</svg>
