<svg width="24" height="24" viewBox="0 0 24 24" fill="none" xmlns="http://www.w3.org/2000/svg"><path fill-rule="evenodd" clip-rule="evenodd" d="M12 7.9375C10.8954 7.9375 10 8.83293 10 9.9375V21.9375C10 23.0421 10.8954 23.9375 12 23.9375H21C22.1046 23.9375 23 23.0421 23 21.9375V9.9375C23 8.83293 22.1046 7.9375 21 7.9375H12ZM21 9.9375H12V21.9375H21V9.9375Z" fill="#333333"/><path d="M3 7.9375C1.89543 7.9375 1 8.83293 1 9.9375V21.9375C1 23.0421 1.89543 23.9375 3 23.9375H6C7.10457 23.9375 8 23.0421 8 21.9375V9.9375C8 8.83293 7.10457 7.9375 6 7.9375H3Z" fill="#333333"/><path d="M12.8864 0C16.3207 0 19 2.73374 19 5.98175C19 6.54407 18.5116 6.99992 17.9091 6.99992C17.3066 6.99992 16.8182 6.54407 16.8182 5.98175C16.8182 3.74715 14.9999 2.03634 12.8864 2.03634C12.3172 2.03634 11.7776 2.15717 11.2895 2.37539C10.633 2.66892 10.0643 3.14213 9.65262 3.73755C10.1631 3.44221 10.8338 3.58759 11.1524 4.06336C11.4717 4.5402 11.3164 5.16836 10.8055 5.46639L8.45589 6.83698C8.34415 6.90452 8.21834 6.9535 8.08347 6.97925C7.98625 6.99789 7.88745 7.00385 7.78984 6.99762C7.6232 6.98723 7.4668 6.9419 7.32898 6.86943C7.2155 6.80995 7.11202 6.73069 7.02488 6.63275C7.01064 6.61679 6.99692 6.60042 6.98373 6.58366L5.21825 4.38662C4.85675 3.93677 4.95443 3.29858 5.43643 2.96119C5.91842 2.62379 6.6022 2.71496 6.96369 3.16482L7.2899 3.57077C7.89063 2.2369 8.97686 1.15145 10.3469 0.538896C11.1202 0.193145 11.9811 0 12.8864 0Z" fill="#333333"/></svg>