<svg width="24" height="24" viewBox="0 0 24 24" fill="none" xmlns="http://www.w3.org/2000/svg">
<path fill-rule="evenodd" clip-rule="evenodd" d="M4 3C4 2.44772 3.55229 2 3 2C2.44772 2 2 2.44772 2 3V17.8385V17.8386C1.99998 18.3657 1.99997 18.8205 2.03057 19.195C2.06287 19.5904 2.13419 19.9836 2.32698 20.362C2.6146 20.9265 3.07355 21.3854 3.63803 21.673C4.01641 21.8658 4.40963 21.9371 4.80497 21.9694C5.17954 22 5.6343 22 6.16144 22H21C21.5523 22 22 21.5523 22 21C22 20.4477 21.5523 20 21 20H6.2C5.62345 20 5.25118 19.9992 4.96784 19.9761C4.69618 19.9539 4.59546 19.9162 4.54601 19.891C4.35785 19.7951 4.20487 19.6422 4.109 19.454C4.0838 19.4045 4.04613 19.3038 4.02393 19.0322C4.00078 18.7488 4 18.3766 4 17.8V3ZM16 7C16 7.55228 16.4477 8 17 8H18.5858L15 11.5858L13.2728 9.85858L13.2564 9.84221C13.1722 9.75795 13.0717 9.65732 12.9758 9.57595C12.8648 9.48166 12.6962 9.35611 12.4635 9.28052C12.1623 9.18263 11.8377 9.18263 11.5365 9.28052C11.3038 9.35611 11.1352 9.48166 11.0242 9.57595C10.9283 9.65731 10.8278 9.75793 10.7436 9.84218L10.7436 9.84221L10.7272 9.85858L6.29289 14.2929C5.90237 14.6834 5.90237 15.3166 6.29289 15.7071C6.68342 16.0976 7.31658 16.0976 7.70711 15.7071L12 11.4142L13.7272 13.1414L13.7436 13.1578L13.7436 13.1578C13.8278 13.2421 13.9283 13.3427 14.0242 13.4241C14.1352 13.5183 14.3038 13.6439 14.5365 13.7195C14.8377 13.8174 15.1623 13.8174 15.4635 13.7195C15.6962 13.6439 15.8648 13.5183 15.9758 13.4241C16.0717 13.3427 16.1722 13.2421 16.2564 13.1578L16.2565 13.1578L16.2728 13.1414L20 9.41421V11C20 11.5523 20.4477 12 21 12C21.5523 12 22 11.5523 22 11V7C22 6.44772 21.5523 6 21 6H17C16.4477 6 16 6.44772 16 7Z" fill="black"/>
</svg>
