<svg width="24" height="24" viewBox="0 0 24 24" fill="none" xmlns="http://www.w3.org/2000/svg">
<path fill-rule="evenodd" clip-rule="evenodd" d="M4 3C4 2.44772 3.55229 2 3 2C2.44772 2 2 2.44772 2 3V17.8385V17.8386C1.99998 18.3657 1.99997 18.8205 2.03057 19.195C2.06287 19.5904 2.13419 19.9836 2.32698 20.362C2.6146 20.9265 3.07355 21.3854 3.63803 21.673C4.01641 21.8658 4.40963 21.9371 4.80497 21.9694C5.17954 22 5.6343 22 6.16144 22H21C21.5523 22 22 21.5523 22 21C22 20.4477 21.5523 20 21 20H6.2C5.62345 20 5.25118 19.9992 4.96784 19.9761C4.69618 19.9539 4.59546 19.9162 4.54601 19.891C4.35785 19.7951 4.20487 19.6422 4.109 19.454C4.0838 19.4045 4.04613 19.3038 4.02393 19.0322C4.00078 18.7488 4 18.3766 4 17.8V3ZM7.72975 7.31628C7.35214 6.91326 6.71931 6.89265 6.31628 7.27026C5.91326 7.64787 5.89265 8.2807 6.27026 8.68372L10.1891 12.8664C10.1974 12.8752 10.207 12.8857 10.2177 12.8974L10.2177 12.8974C10.3201 13.0093 10.5327 13.2416 10.8154 13.3708C11.0526 13.4793 11.314 13.524 11.5738 13.5006C11.8833 13.4727 12.1611 13.3244 12.2948 13.2529L12.295 13.2529C12.309 13.2454 12.3214 13.2387 12.3321 13.2332L15.455 11.6117L19.2703 15.6837C19.6479 16.0868 20.2807 16.1074 20.6837 15.7297C21.0868 15.3521 21.1074 14.7193 20.7297 14.3163L16.8109 10.1336C16.8066 10.129 16.8019 10.124 16.7969 10.1185C16.7923 10.1135 16.7874 10.1082 16.7823 10.1026C16.6799 9.99073 16.4673 9.75843 16.1846 9.62918C15.9474 9.52071 15.686 9.47597 15.4262 9.49937C15.1167 9.52727 14.8389 9.67563 14.7052 9.74707C14.6911 9.75459 14.6786 9.76125 14.6679 9.76684L11.545 11.3883L7.72975 7.31628Z" fill="black"/>
</svg>
