<svg width="24" height="24" viewBox="0 0 24 24" fill="none" xmlns="http://www.w3.org/2000/svg">
<path fill-rule="evenodd" clip-rule="evenodd" d="M4 3C4 2.44772 3.55229 2 3 2C2.44772 2 2 2.44772 2 3V17.8385V17.8386C1.99998 18.3657 1.99997 18.8205 2.03057 19.195C2.06287 19.5904 2.13419 19.9836 2.32698 20.362C2.6146 20.9265 3.07355 21.3854 3.63803 21.673C4.01641 21.8658 4.40963 21.9371 4.80497 21.9694C5.17954 22 5.6343 22 6.16144 22H21C21.5523 22 22 21.5523 22 21C22 20.4477 21.5523 20 21 20H6.2C5.62345 20 5.25118 19.9992 4.96784 19.9761C4.69618 19.9539 4.59546 19.9162 4.54601 19.891C4.35785 19.7951 4.20487 19.6422 4.109 19.454C4.0838 19.4045 4.04613 19.3038 4.02393 19.0322C4.00078 18.7488 4 18.3766 4 17.8V3ZM20.7297 8.68372C21.1074 8.2807 21.0868 7.64787 20.6837 7.27026C20.2807 6.89265 19.6479 6.91326 19.2703 7.31628L15.455 11.3883L12.3321 9.76684C12.3257 9.7635 12.3187 9.75978 12.311 9.75571C12.3059 9.75298 12.3005 9.75009 12.2948 9.74707C12.1611 9.67563 11.8833 9.52726 11.5738 9.49937C11.314 9.47597 11.0526 9.52071 10.8154 9.62918C10.5327 9.75843 10.3201 9.99073 10.2177 10.1026C10.2151 10.1054 10.2126 10.1082 10.2102 10.1109C10.2024 10.1193 10.1954 10.1269 10.1891 10.1336L6.27026 14.3163C5.89265 14.7193 5.91326 15.3521 6.31628 15.7297C6.71931 16.1074 7.35214 16.0868 7.72975 15.6837L11.545 11.6117L14.6679 13.2332C14.6786 13.2388 14.6911 13.2454 14.7052 13.2529C14.8389 13.3244 15.1167 13.4727 15.4262 13.5006C15.686 13.524 15.9474 13.4793 16.1846 13.3708C16.4673 13.2416 16.6799 13.0093 16.7823 12.8974C16.793 12.8857 16.8026 12.8752 16.8109 12.8664L20.7297 8.68372Z" fill="black"/>
</svg>
