<svg width="24" height="24" viewBox="0 0 24 24" fill="none" xmlns="http://www.w3.org/2000/svg">
<path d="M4 3C4 2.44772 3.55229 2 3 2C2.44772 2 2 2.44772 2 3V17.8385C1.99998 18.3657 1.99997 18.8205 2.03057 19.195C2.06287 19.5904 2.13419 19.9836 2.32698 20.362C2.6146 20.9265 3.07355 21.3854 3.63803 21.673C4.01641 21.8658 4.40963 21.9371 4.80497 21.9694C5.17954 22 5.6343 22 6.16144 22H21C21.5523 22 22 21.5523 22 21C22 20.4477 21.5523 20 21 20H6.2C5.62345 20 5.25118 19.9992 4.96784 19.9761C4.69618 19.9539 4.59546 19.9162 4.54601 19.891C4.35785 19.7951 4.20487 19.6422 4.109 19.454C4.0838 19.4045 4.04613 19.3038 4.02393 19.0322C4.00078 18.7488 4 18.3766 4 17.8V3Z" fill="black"/>
<path d="M7.70711 6.29289C7.31658 5.90237 6.68342 5.90237 6.29289 6.29289C5.90237 6.68342 5.90237 7.31658 6.29289 7.70711L10.7436 12.1578C10.8278 12.242 10.9283 12.3427 11.0242 12.4241C11.1352 12.5183 11.3038 12.6439 11.5365 12.7195C11.8377 12.8174 12.1623 12.8174 12.4635 12.7195C12.6962 12.6439 12.8648 12.5183 12.9758 12.4241C13.0717 12.3427 13.1722 12.2421 13.2564 12.1578L15 10.4142L18.5858 14H17C16.4477 14 16 14.4477 16 15C16 15.5523 16.4477 16 17 16H21C21.5523 16 22 15.5523 22 15V11C22 10.4477 21.5523 10 21 10C20.4477 10 20 10.4477 20 11V12.5858L16.2564 8.84222C16.1722 8.75796 16.0717 8.65732 15.9758 8.57595C15.8648 8.48166 15.6962 8.35611 15.4635 8.28052C15.1623 8.18263 14.8377 8.18263 14.5365 8.28052C14.3038 8.35611 14.1352 8.48166 14.0242 8.57595C13.9283 8.65732 13.8278 8.75795 13.7436 8.84221L12 10.5858L7.70711 6.29289Z" fill="black"/>
</svg>
