<svg width="24" height="24" viewBox="0 0 24 24" fill="none" xmlns="http://www.w3.org/2000/svg">
<path fill-rule="evenodd" clip-rule="evenodd" d="M8.07123 2.55742L9.12878 2.67492C9.14332 2.67654 9.15765 2.67813 9.17177 2.6797C9.42373 2.70765 9.61105 2.72843 9.78005 2.76203C11.5265 3.10927 12.8331 4.56911 12.9854 6.3432C13.0001 6.51488 13.0001 6.70334 13 6.95684C13 6.97105 13 6.98547 13 7.0001C13 7.55239 12.5523 8.0001 12 8.0001C11.4477 8.0001 11 7.55239 11 7.0001C11 6.68453 10.9991 6.58897 10.9927 6.51422C10.9165 5.62717 10.2632 4.89725 9.39002 4.72363C9.31644 4.709 9.22157 4.69754 8.90792 4.66269L7.88651 4.5492C7.10494 4.46236 6.57081 4.40361 6.15481 4.3871C5.74652 4.37091 5.53541 4.40066 5.39044 4.44705C4.84862 4.62044 4.40628 5.01635 4.17412 5.53571C4.11201 5.67467 4.05912 5.88121 4.03013 6.28878C4.00059 6.70407 4 7.24141 4 8.0278V15.9724C4 16.7588 4.00059 17.2961 4.03013 17.7114C4.05912 18.119 4.112 18.3255 4.17412 18.4645C4.40628 18.9839 4.84862 19.3798 5.39044 19.5532C5.5354 19.5995 5.74652 19.6293 6.15481 19.6131C6.57082 19.5966 7.10495 19.5378 7.88651 19.451L8.90792 19.3375C9.22147 19.3027 9.31646 19.2912 9.39002 19.2766C10.2632 19.103 10.9165 18.373 10.9927 17.486C10.9991 17.4112 11 17.3157 11 17.0001C11 16.4478 11.4477 16.0001 12 16.0001C12.5523 16.0001 13 16.4478 13 17.0001C13 17.0147 13 17.0292 13 17.0434C13.0001 17.2969 13.0001 17.4853 12.9854 17.657C12.8331 19.4311 11.5265 20.8909 9.78005 21.2382C9.61105 21.2718 9.4236 21.2926 9.17168 21.3205L8.07121 21.4428C7.3347 21.5246 6.72965 21.5919 6.2341 21.6115C5.72276 21.6318 5.24547 21.6067 4.78088 21.458C3.69724 21.1112 2.81255 20.3194 2.34824 19.2807C2.14917 18.8354 2.07147 18.3638 2.03517 17.8533C1.99998 17.3586 1.99999 16.7498 2 16.0088V7.99144C1.99999 7.25037 1.99998 6.64158 2.03517 6.14689C2.07147 5.63644 2.14918 5.16485 2.34824 4.71953C2.81256 3.68081 3.69724 2.88897 4.78089 2.54221C5.24547 2.39354 5.72275 2.36839 6.23409 2.38868C6.72964 2.40834 7.3347 2.47557 8.07123 2.55742ZM15.2929 6.293C15.6834 5.90247 16.3166 5.90247 16.7071 6.293L21.7071 11.293C22.0976 11.6835 22.0976 12.3167 21.7071 12.7072L16.7071 17.7072C16.3166 18.0977 15.6834 18.0977 15.2929 17.7072C14.9024 17.3167 14.9024 16.6835 15.2929 16.293L18.5858 13.0001H9C8.44772 13.0001 8 12.5524 8 12.0001C8 11.4478 8.44772 11.0001 9 11.0001H18.5858L15.2929 7.70721C14.9024 7.31669 14.9024 6.68352 15.2929 6.293Z" fill="black"/>
</svg>
