<svg width="24" height="24" viewBox="0 0 24 24" fill="none" xmlns="http://www.w3.org/2000/svg">
<path d="M21.4326 5.29783L19.2388 3.216C19.1797 3.15674 19.1095 3.10973 19.0322 3.07766C18.9549 3.04558 18.872 3.02907 18.7883 3.02907C18.7046 3.02907 18.6218 3.04558 18.5445 3.07766C18.4672 3.10973 18.397 3.15674 18.3379 3.216L3.38963 18.4276C3.19255 18.628 3.03715 18.8655 2.93243 19.1264C2.82771 19.3872 2.77574 19.6662 2.77953 19.9472C2.78332 20.2283 2.84278 20.5058 2.95449 20.7637C3.0662 21.0216 3.22794 21.2548 3.43035 21.4499C3.84188 21.8464 4.3933 22.0644 4.96473 22.0566C5.53616 22.0487 6.08138 21.8156 6.48184 21.4079L21.4301 6.19622C21.4896 6.13759 21.5368 6.06776 21.5692 5.99075C21.6016 5.91374 21.6183 5.83109 21.6186 5.74756C21.6188 5.66403 21.6025 5.58128 21.5706 5.50409C21.5387 5.4269 21.4918 5.3568 21.4326 5.29783ZM17.6163 8.21698L16.4291 7.03354L18.8405 4.62212C18.8479 4.61454 18.8567 4.60852 18.8664 4.6044C18.8761 4.60029 18.8866 4.59816 18.8971 4.59816C18.9077 4.59816 18.9181 4.60029 18.9279 4.6044C18.9376 4.60852 18.9464 4.61454 18.9538 4.62212L20.029 5.69358C20.0434 5.70851 20.0513 5.72848 20.0511 5.7492C20.0508 5.76991 20.0425 5.7897 20.0278 5.80429L17.6163 8.21698ZM10.7028 6.39728L7.82179 7.97265L6.24897 10.8511L4.67359 7.97265L1.79517 6.39728L4.67359 4.82318L6.24897 1.94348L7.82307 4.82445L10.7028 6.39728ZM15.6261 17.2327L17.5349 16.6754L16.9763 18.5842L17.5349 20.4929L15.6261 19.9317L13.7174 20.4917L14.2785 18.5829L13.7174 16.6741L15.6261 17.234V17.2327ZM20.2963 12.0383L22.205 11.481L21.6477 13.3897L22.205 15.2985L20.2963 14.7361L18.3875 15.2985L18.9499 13.3897L18.3875 11.481L20.2963 12.0383Z" fill="black"/>
</svg>
