<svg width="24" height="24" viewBox="0 0 24 24" fill="none" xmlns="http://www.w3.org/2000/svg">
<path fill-rule="evenodd" clip-rule="evenodd" d="M11.3143 0.964753C11.7652 0.858917 12.2345 0.858917 12.6854 0.964753C13.2004 1.08565 13.6583 1.38414 14.1792 1.72374C14.2154 1.74736 14.2519 1.77117 14.2888 1.79514L21.5387 6.50756C21.5561 6.51885 21.5736 6.53027 21.5913 6.54179L21.8168 6.68835C21.8349 6.70013 21.8536 6.71218 21.8727 6.72453C22.0785 6.85728 22.3374 7.0243 22.5345 7.26024C22.7051 7.4644 22.8333 7.70055 22.9115 7.95485C23.0019 8.24874 23.0008 8.55681 23 8.80168C22.9999 8.82446 22.9998 8.84668 22.9998 8.8683V16.2413C22.9998 17.0463 22.9999 17.7106 22.9556 18.2518C22.9097 18.8139 22.8111 19.3306 22.5639 19.816C22.1804 20.5686 21.5684 21.1805 20.8158 21.564C20.3305 21.8113 19.8138 21.9099 19.2517 21.9558C18.7105 22 18.0461 22 17.2412 22H6.7585C5.95355 22 5.28919 22 4.748 21.9558C4.18591 21.9099 3.6692 21.8113 3.18387 21.564C2.43122 21.1805 1.8193 20.5686 1.4358 19.816C1.18851 19.3306 1.08995 18.8139 1.04402 18.2518C0.999806 17.7106 0.999816 17.0463 0.999829 16.2413L0.999829 8.8683C0.999829 8.84668 0.999754 8.82445 0.999676 8.80168C0.998844 8.5568 0.997797 8.24874 1.08817 7.95485C1.16637 7.70054 1.29452 7.4644 1.46513 7.26024C1.66229 7.0243 1.92115 6.85728 2.12692 6.72453C2.14606 6.71218 2.16473 6.70013 2.18286 6.68835L2.40835 6.54178C2.42604 6.53026 2.44362 6.51884 2.46099 6.50755C2.46964 6.50194 2.47823 6.49636 2.48677 6.49081L9.71088 1.79514C9.74775 1.77117 9.78427 1.74736 9.82049 1.72375C10.3414 1.38414 10.7992 1.08565 11.3143 0.964753ZM10.8009 3.47202L3.83473 8L10.8009 12.528C11.4962 12.98 11.6421 13.0578 11.7713 13.0882C11.9216 13.1235 12.078 13.1235 12.2283 13.0882C12.3576 13.0578 12.5035 12.98 13.1988 12.528L20.1649 8L13.1988 3.47202C12.5034 3.02004 12.3576 2.94218 12.2283 2.91184C12.078 2.87656 11.9216 2.87656 11.7713 2.91184C11.6421 2.94218 11.4962 3.02004 10.8009 3.47202ZM20.9998 9.84269L14.2888 14.2049C14.2519 14.2288 14.2154 14.2526 14.1792 14.2762C13.6583 14.6159 13.2004 14.9144 12.6854 15.0353C12.2345 15.1411 11.7652 15.1411 11.3143 15.0353C10.7992 14.9144 10.3414 14.6159 9.82048 14.2763C9.78426 14.2526 9.74774 14.2288 9.71088 14.2049L2.99983 9.84269V16.2C2.99983 17.0566 3.00061 17.6389 3.03738 18.089C3.0732 18.5274 3.13813 18.7516 3.21782 18.908C3.40956 19.2843 3.71552 19.5903 4.09185 19.782C4.24825 19.8617 4.47245 19.9266 4.91087 19.9625C5.36096 19.9992 5.94325 20 6.79983 20H17.1998C18.0564 20 18.6387 19.9992 19.0888 19.9625C19.5272 19.9266 19.7514 19.8617 19.9078 19.782C20.2841 19.5903 20.5901 19.2843 20.7818 18.908C20.8615 18.7516 20.9265 18.5274 20.9623 18.089C20.9991 17.6389 20.9998 17.0566 20.9998 16.2V9.84269Z" fill="black"/>
</svg>
