<svg width="24" height="24" viewBox="0 0 24 24" fill="none" xmlns="http://www.w3.org/2000/svg">
<path fill-rule="evenodd" clip-rule="evenodd" d="M11.3143 0.964631C11.7652 0.858795 12.2345 0.858795 12.6854 0.964631C13.2004 1.08553 13.6583 1.38402 14.1792 1.72362C14.2154 1.74724 14.2519 1.77105 14.2888 1.79501L20.5148 5.8419C20.5368 5.85625 20.5588 5.87052 20.5806 5.88472L21.8168 6.68823C21.8349 6.70001 21.8536 6.71206 21.8727 6.7244C22.0785 6.85716 22.3374 7.02417 22.5345 7.26012C22.7051 7.46428 22.8333 7.70043 22.9115 7.95473C23.0019 8.24862 23.0008 8.55668 23 8.80156C22.9999 8.82434 22.9998 8.84656 22.9998 8.86818V16.2412C22.9998 17.0462 22.9999 17.7105 22.9556 18.2517C22.9097 18.8138 22.8111 19.3305 22.5639 19.8158C22.1804 20.5685 21.5684 21.1804 20.8158 21.5639C20.3305 21.8112 19.8138 21.9098 19.2517 21.9557C18.7105 21.9999 18.0461 21.9999 17.2412 21.9999H6.7585C5.95355 21.9999 5.28919 21.9999 4.748 21.9557C4.18591 21.9098 3.6692 21.8112 3.18387 21.5639C2.43122 21.1804 1.8193 20.5685 1.4358 19.8158C1.18851 19.3305 1.08995 18.8138 1.04402 18.2517C0.999806 17.7105 0.999816 17.0462 0.999829 16.2412L0.999829 8.86818C0.999829 8.84656 0.999754 8.82433 0.999676 8.80156C0.998844 8.55668 0.997797 8.24862 1.08817 7.95473C1.16637 7.70042 1.29452 7.46427 1.46513 7.26012C1.66229 7.02417 1.92115 6.85716 2.12692 6.7244C2.14606 6.71206 2.16473 6.70001 2.18286 6.68823L3.41824 5.88523C3.44033 5.87086 3.46255 5.85642 3.48489 5.8419C3.49613 5.8346 3.5074 5.82727 3.5187 5.81993L9.71088 1.79502C9.74775 1.77105 9.78427 1.74724 9.82049 1.72363C10.3414 1.38402 10.7992 1.08553 11.3143 0.964631ZM10.8009 3.4719L4.60868 7.49682C4.24856 7.73089 4.03642 7.86996 3.89383 7.9823C3.88595 7.98851 3.87864 7.99437 3.87188 7.99988C3.87864 8.0054 3.88595 8.01126 3.89383 8.01747C4.03642 8.1298 4.24856 8.26887 4.60868 8.50295L10.8009 12.5279C11.4962 12.9798 11.6421 13.0577 11.7713 13.088C11.9216 13.1233 12.078 13.1233 12.2283 13.0881C12.3576 13.0577 12.5035 12.9798 13.1988 12.5279L19.391 8.50295C19.7511 8.26887 19.9632 8.1298 20.1058 8.01747C20.1137 8.01126 20.121 8.00539 20.1278 7.99988C20.121 7.99437 20.1137 7.98851 20.1058 7.9823C19.9647 7.87111 19.7554 7.73373 19.402 7.50396C19.3983 7.50159 19.3947 7.4992 19.391 7.49681L13.1988 3.4719C12.5034 3.01992 12.3576 2.94205 12.2283 2.91171C12.078 2.87643 11.9216 2.87643 11.7713 2.91171C11.6421 2.94205 11.4962 3.01992 10.8009 3.4719ZM20.9998 9.83769C20.8499 9.94007 20.6859 10.0467 20.5148 10.1579L16.2625 12.9218L20.9962 17.1975C20.9997 16.9113 20.9998 16.5831 20.9998 16.1999V9.83769ZM20.4387 19.389L14.5274 14.0497L14.2888 14.2048C14.2519 14.2287 14.2154 14.2525 14.1792 14.2761C13.6583 14.6157 13.2004 14.9142 12.6854 15.0351C12.2345 15.141 11.7652 15.141 11.3143 15.0351C10.7992 14.9142 10.3414 14.6157 9.82048 14.2761C9.78426 14.2525 9.74774 14.2287 9.71088 14.2047L9.47229 14.0497L3.56094 19.389C3.71398 19.5475 3.8931 19.6806 4.09185 19.7819C4.24825 19.8616 4.47245 19.9265 4.91087 19.9623C5.36096 19.9991 5.94325 19.9999 6.79983 19.9999H17.1998C18.0564 19.9999 18.6387 19.9991 19.0888 19.9623C19.5272 19.9265 19.7514 19.8616 19.9078 19.7819C20.1066 19.6806 20.2857 19.5475 20.4387 19.389ZM3.00345 17.1975L7.73716 12.9218L3.48487 10.1578C3.31378 10.0467 3.14976 9.94006 2.99983 9.83769V16.1999C2.99983 16.5831 2.99998 16.9113 3.00345 17.1975Z" fill="black"/>
</svg>
