<svg width="24" height="24" viewBox="0 0 24 24" fill="none" xmlns="http://www.w3.org/2000/svg">
<path fill-rule="evenodd" clip-rule="evenodd" d="M8.02167 2.00001C8.00684 1.99967 7.99199 1.99967 7.97711 2.00001L7.75864 2C6.95367 1.99999 6.28931 1.99998 5.74811 2.0442C5.18601 2.09012 4.66931 2.18869 4.18398 2.43598C3.43133 2.81947 2.81941 3.4314 2.43591 4.18404C2.18862 4.66938 2.09006 5.18608 2.04413 5.74818C1.99991 6.28937 1.99992 6.95374 1.99994 7.75871V16.2413C1.99993 16.4897 1.99993 16.7246 2.00123 16.9467C1.99902 16.9874 1.99929 17.0282 2.00209 17.0691C2.00584 17.5158 2.01609 17.9086 2.04413 18.2518C2.09006 18.8139 2.18862 19.3306 2.43591 19.816C2.81941 20.5686 3.43133 21.1805 4.18398 21.564C4.66931 21.8113 5.18601 21.9099 5.74811 21.9558C6.2893 22 6.95365 22 7.75861 22H15.9782C15.993 22.0003 16.0079 22.0003 16.0227 22H16.2413C17.0462 22 17.7106 22 18.2518 21.9558C18.8139 21.9099 19.3306 21.8113 19.8159 21.564C20.5685 21.1805 21.1805 20.5686 21.564 19.816C21.8113 19.3306 21.9098 18.8139 21.9557 18.2518C22 17.7106 22 17.0463 21.9999 16.2413V7.75868C22 6.95372 22 6.28937 21.9557 5.74818C21.9098 5.18608 21.8113 4.66938 21.564 4.18404C21.1805 3.43139 20.5685 2.81947 19.8159 2.43598C19.3306 2.18869 18.8139 2.09012 18.2518 2.0442C17.7106 1.99998 17.0462 1.99999 16.2412 2L8.02167 2.00001ZM16.6497 19.9997C17.2682 19.9985 17.7224 19.9924 18.0889 19.9625C18.5273 19.9266 18.7515 19.8617 18.9079 19.782C19.2842 19.5903 19.5902 19.2843 19.782 18.908C19.8616 18.7516 19.9266 18.5274 19.9624 18.089C19.9992 17.6389 19.9999 17.0566 19.9999 16.2V7.80001C19.9999 6.94343 19.9992 6.36113 19.9624 5.91104C19.9266 5.47263 19.8616 5.24842 19.782 5.09202C19.5902 4.7157 19.2842 4.40974 18.9079 4.21799C18.7515 4.1383 18.5273 4.07338 18.0889 4.03756C17.6388 4.00078 17.0565 4.00001 16.1999 4.00001H9.5387L12.9097 11.5847C12.9128 11.5915 12.9158 11.5983 12.9187 11.6051L16.6497 19.9997ZM14.4612 20L11.5301 13.405L4.01119 17.5822C4.01675 17.7698 4.02507 17.9369 4.03749 18.089C4.07331 18.5274 4.13824 18.7516 4.21793 18.908C4.40967 19.2843 4.71563 19.5903 5.09196 19.782C5.24836 19.8617 5.47256 19.9266 5.91098 19.9625C6.36107 19.9992 6.94336 20 7.79994 20H14.4612ZM3.99994 15.3005V7.8C3.99994 6.94343 4.00072 6.36113 4.03749 5.91104C4.07331 5.47263 4.13824 5.24842 4.21793 5.09202C4.40967 4.7157 4.71563 4.40974 5.09196 4.21799C5.24836 4.1383 5.47256 4.07338 5.91098 4.03756C6.27748 4.00761 6.73165 4.00154 7.3502 4.00031L10.7146 11.5701L3.99994 15.3005Z" fill="black"/>
</svg>
