<svg width="24" height="24" viewBox="0 0 24 24" fill="none" xmlns="http://www.w3.org/2000/svg">
<path fill-rule="evenodd" clip-rule="evenodd" d="M6 4C4.89543 4 4 4.89543 4 6V7.5C4 8.05228 3.55228 8.5 3 8.5C2.44772 8.5 2 8.05228 2 7.5V6C2 3.79086 3.79086 2 6 2H7.5C8.05228 2 8.5 2.44772 8.5 3C8.5 3.55228 8.05228 4 7.5 4H6ZM15.5 3C15.5 2.44772 15.9477 2 16.5 2H18C20.2091 2 22 3.79086 22 6V7.5C22 8.05228 21.5523 8.5 21 8.5C20.4477 8.5 20 8.05228 20 7.5V6C20 4.89543 19.1046 4 18 4H16.5C15.9477 4 15.5 3.55228 15.5 3ZM5 10C5 8.34315 6.34315 7 8 7H16C17.6569 7 19 8.34315 19 10V14C19 15.6569 17.6569 17 16 17H8C6.34315 17 5 15.6569 5 14V10ZM8 9C7.44772 9 7 9.44772 7 10V14C7 14.5523 7.44772 15 8 15H16C16.5523 15 17 14.5523 17 14V10C17 9.44772 16.5523 9 16 9H8ZM3 15.5C3.55228 15.5 4 15.9477 4 16.5V18C4 19.1046 4.89543 20 6 20H7.5C8.05228 20 8.5 20.4477 8.5 21C8.5 21.5523 8.05228 22 7.5 22H6C3.79086 22 2 20.2091 2 18V16.5C2 15.9477 2.44772 15.5 3 15.5ZM21 15.5C21.5523 15.5 22 15.9477 22 16.5V18C22 20.2091 20.2091 22 18 22H16.5C15.9477 22 15.5 21.5523 15.5 21C15.5 20.4477 15.9477 20 16.5 20H18C19.1046 20 20 19.1046 20 18V16.5C20 15.9477 20.4477 15.5 21 15.5Z" fill="black"/>
</svg>
