<svg width="24" height="24" viewBox="0 0 24 24" fill="none" xmlns="http://www.w3.org/2000/svg">
<path fill-rule="evenodd" clip-rule="evenodd" d="M7.99976 1.99994C8.55204 1.99994 8.99976 2.44765 8.99976 2.99994V3.24124C8.99977 4.04621 8.99978 4.71057 8.95556 5.25177C8.90964 5.81386 8.81107 6.33057 8.56378 6.8159C8.18029 7.56855 7.56837 8.18047 6.81572 8.56396C6.33038 8.81126 5.81368 8.90982 5.25158 8.95575C4.71039 8.99996 4.04603 8.99995 3.24106 8.99994H2.99976C2.44747 8.99994 1.99976 8.55222 1.99976 7.99994C1.99976 7.44765 2.44747 6.99994 2.99976 6.99994H3.19976C4.05634 6.99994 4.63863 6.99916 5.08872 6.96239C5.52713 6.92657 5.75134 6.86164 5.90774 6.78195C6.28406 6.59021 6.59002 6.28424 6.78177 5.90792C6.86146 5.75152 6.92638 5.52732 6.9622 5.0889C6.99898 4.63881 6.99976 4.05652 6.99976 3.19994V2.99994C6.99976 2.44765 7.44747 1.99994 7.99976 1.99994ZM15.9998 1.99994C16.552 1.99994 16.9998 2.44765 16.9998 2.99994V3.19994C16.9998 4.05652 17.0005 4.63881 17.0373 5.0889C17.0731 5.52732 17.1381 5.75152 17.2177 5.90792C17.4095 6.28424 17.7155 6.5902 18.0918 6.78195C18.2482 6.86164 18.4724 6.92657 18.9108 6.96239C19.3609 6.99916 19.9432 6.99994 20.7998 6.99994H20.9998C21.552 6.99994 21.9998 7.44765 21.9998 7.99994C21.9998 8.55222 21.552 8.99994 20.9998 8.99994H20.7585C19.9535 8.99995 19.2891 8.99996 18.7479 8.95575C18.1858 8.90982 17.6691 8.81126 17.1838 8.56396C16.4311 8.18047 15.8192 7.56855 15.4357 6.8159C15.1884 6.33057 15.0899 5.81386 15.0439 5.25177C14.9997 4.71056 14.9997 4.0462 14.9998 3.24121V2.99994C14.9998 2.44765 15.4475 1.99994 15.9998 1.99994ZM1.99976 15.9999C1.99976 15.4477 2.44747 14.9999 2.99976 14.9999H3.24103C4.04601 14.9999 4.71038 14.9999 5.25158 15.0441C5.81368 15.0901 6.33038 15.1886 6.81572 15.4359C7.56837 15.8194 8.18029 16.4313 8.56378 17.184C8.81107 17.6693 8.90964 18.186 8.95556 18.7481C8.99978 19.2893 8.99977 19.9537 8.99976 20.7586V20.9999C8.99976 21.5522 8.55204 21.9999 7.99976 21.9999C7.44747 21.9999 6.99976 21.5522 6.99976 20.9999V20.7999C6.99976 19.9434 6.99898 19.3611 6.9622 18.911C6.92638 18.4726 6.86146 18.2484 6.78177 18.092C6.59002 17.7156 6.28406 17.4097 5.90774 17.2179C5.75134 17.1382 5.52713 17.0733 5.08872 17.0375C4.63863 17.0007 4.05634 16.9999 3.19976 16.9999H2.99976C2.44747 16.9999 1.99976 16.5522 1.99976 15.9999ZM20.7585 14.9999H20.9998C21.552 14.9999 21.9998 15.4477 21.9998 15.9999C21.9998 16.5522 21.552 16.9999 20.9998 16.9999H20.7998C19.9432 16.9999 19.3609 17.0007 18.9108 17.0375C18.4724 17.0733 18.2482 17.1382 18.0918 17.2179C17.7155 17.4097 17.4095 17.7156 17.2177 18.092C17.1381 18.2484 17.0731 18.4726 17.0373 18.911C17.0005 19.3611 16.9998 19.9434 16.9998 20.7999V20.9999C16.9998 21.5522 16.552 21.9999 15.9998 21.9999C15.4475 21.9999 14.9998 21.5522 14.9998 20.9999V20.7587C14.9997 19.9537 14.9997 19.2893 15.0439 18.7481C15.0899 18.186 15.1884 17.6693 15.4357 17.184C15.8192 16.4313 16.4311 15.8194 17.1838 15.4359C17.6691 15.1886 18.1858 15.0901 18.7479 15.0441C19.2891 14.9999 19.9535 14.9999 20.7585 14.9999Z" fill="black"/>
</svg>
