<svg width="24" height="24" viewBox="0 0 24 24" fill="none" xmlns="http://www.w3.org/2000/svg">
<path fill-rule="evenodd" clip-rule="evenodd" d="M5.63604 1.22185C6.02656 1.61237 6.02656 2.24554 5.63604 2.63606C2.2402 6.0319 2.12535 11.4664 5.29143 15H11.0002V9C11.0002 8.44772 11.4479 8 12.0002 8C12.5525 8 13.0002 8.44772 13.0002 9V15H18.709C21.8751 11.4664 21.7602 6.0319 18.3644 2.63606C17.9739 2.24554 17.9739 1.61237 18.3644 1.22185C18.7549 0.831324 19.3881 0.831324 19.7786 1.22185C23.582 5.02521 24.0179 10.9207 21.0865 15.2038C21.1071 15.2117 21.1277 15.2198 21.1483 15.2284C21.8834 15.5328 22.4674 16.1169 22.7719 16.8519C22.9069 17.1779 22.9564 17.5078 22.9789 17.8376C23.0002 18.1509 23.0002 18.5294 23.0002 18.968V19.032C23.0002 19.4706 23.0002 19.8491 22.9789 20.1624C22.9564 20.4922 22.9069 20.8221 22.7719 21.148C22.4674 21.8831 21.8834 22.4672 21.1483 22.7716C20.8223 22.9066 20.4924 22.9561 20.1626 22.9787C19.8493 23 19.4709 23 19.0322 23H4.96823C4.52958 23 4.1511 23 3.83784 22.9787C3.50801 22.9561 3.1781 22.9066 2.85217 22.7716C2.11709 22.4672 1.53306 21.8831 1.22858 21.148C1.09358 20.8221 1.04407 20.4922 1.02157 20.1624C1.0002 19.8491 1.00021 19.4706 1.00022 19.032V18.968C1.00021 18.5294 1.0002 18.1509 1.02157 17.8376C1.04407 17.5078 1.09358 17.1779 1.22858 16.8519C1.53306 16.1169 2.11709 15.5328 2.85217 15.2284C2.87275 15.2198 2.89334 15.2117 2.91395 15.2038C-0.0175065 10.9207 0.418463 5.02521 4.22183 1.22185C4.61235 0.831324 5.24551 0.831324 5.63604 1.22185ZM5.00022 17C4.5206 17 4.21096 17.0005 3.97398 17.0167C3.74598 17.0323 3.65915 17.0589 3.61754 17.0761C3.37251 17.1776 3.17784 17.3723 3.07634 17.6173C3.0591 17.6589 3.03249 17.7458 3.01693 17.9738C3.00076 18.2107 3.00022 18.5204 3.00022 19C3.00022 19.4796 3.00076 19.7893 3.01693 20.0262C3.03249 20.2542 3.0591 20.3411 3.07634 20.3827C3.17784 20.6277 3.37251 20.8224 3.61754 20.9239C3.65915 20.9411 3.74598 20.9677 3.97398 20.9833C4.21096 20.9995 4.5206 21 5.00022 21H19.0002C19.4798 21 19.7895 20.9995 20.0265 20.9833C20.2545 20.9677 20.3413 20.9411 20.3829 20.9239C20.6279 20.8224 20.8226 20.6277 20.9241 20.3827C20.9413 20.3411 20.968 20.2542 20.9835 20.0262C20.9997 19.7893 21.0002 19.4796 21.0002 19C21.0002 18.5204 20.9997 18.2107 20.9835 17.9738C20.968 17.7458 20.9413 17.6589 20.9241 17.6173C20.8226 17.3723 20.6279 17.1776 20.3829 17.0761C20.3413 17.0589 20.2545 17.0323 20.0265 17.0167C19.7895 17.0005 19.4798 17 19.0002 17H5.00022ZM8.46469 4.05022C8.85521 4.44074 8.85521 5.07391 8.46469 5.46443C6.51207 7.41705 6.51207 10.5829 8.46469 12.5355C8.85521 12.926 8.85521 13.5592 8.46469 13.9497C8.07416 14.3402 7.441 14.3402 7.05047 13.9497C4.3168 11.216 4.3168 6.78389 7.05047 4.05022C7.441 3.65969 8.07416 3.65969 8.46469 4.05022ZM15.5358 4.05022C15.9263 3.65969 16.5595 3.65969 16.95 4.05022C19.6837 6.78389 19.6837 11.216 16.95 13.9497C16.5595 14.3402 15.9263 14.3402 15.5358 13.9497C15.1453 13.5592 15.1453 12.926 15.5358 12.5355C17.4884 10.5829 17.4884 7.41705 15.5358 5.46443C15.1453 5.07391 15.1453 4.44074 15.5358 4.05022Z" fill="black"/>
</svg>
