<svg width="24" height="24" viewBox="0 0 24 24" fill="none" xmlns="http://www.w3.org/2000/svg">
<path fill-rule="evenodd" clip-rule="evenodd" d="M5.10282 1.69125C5.51959 2.05364 5.56367 2.68527 5.20128 3.10204C3.1861 5.41963 2.55296 8.52561 3.30785 11.3406C3.4509 11.874 3.13443 12.4225 2.601 12.5655C2.06756 12.7086 1.51916 12.3921 1.37611 11.8586C0.455092 8.42417 1.22507 4.62688 3.69204 1.78972C4.05442 1.37295 4.68605 1.32887 5.10282 1.69125ZM18.894 1.6913C19.3107 1.32891 19.9424 1.37299 20.3048 1.78976C22.7717 4.62692 23.5417 8.42421 22.6207 11.8587C22.4776 12.3921 21.9292 12.7086 21.3958 12.5655C20.8624 12.4225 20.5459 11.8741 20.6889 11.3407C21.4438 8.52565 20.8107 5.41967 18.7955 3.10208C18.4331 2.68531 18.4772 2.05368 18.894 1.6913ZM16.0912 4.49932C16.5244 4.15674 17.1533 4.2302 17.4958 4.6634C18.8996 6.43844 19.3194 8.73275 18.7613 10.8165C18.6185 11.35 18.0702 11.6666 17.5367 11.5238C17.0032 11.3809 16.6866 10.8326 16.8294 10.2991C17.2292 8.80635 16.9265 7.16774 15.9271 5.90398C15.5845 5.47078 15.658 4.84189 16.0912 4.49932ZM7.90909 4.49936C8.34229 4.84194 8.41575 5.47083 8.07318 5.90403C7.07378 7.16779 6.77104 8.8064 7.17083 10.2992C7.31371 10.8326 6.99706 11.3809 6.46358 11.5238C5.9301 11.6667 5.3818 11.3501 5.23892 10.8166C4.68084 8.7328 5.10071 6.43849 6.50443 4.66345C6.84701 4.23025 7.4759 4.15679 7.90909 4.49936ZM12.0001 8C12.5524 8 13.0001 8.44771 13.0001 9V14H18.8387C19.3658 14 19.8206 14 20.1952 14.0306C20.5905 14.0629 20.9837 14.1342 21.3621 14.327C21.9266 14.6146 22.3855 15.0735 22.6731 15.638C22.8659 16.0164 22.9373 16.4096 22.9696 16.805C23.0002 17.1795 23.0001 17.6343 23.0001 18.1614V18.8386C23.0001 19.3657 23.0002 19.8205 22.9696 20.195C22.9373 20.5904 22.8659 20.9836 22.6731 21.362C22.3855 21.9265 21.9266 22.3854 21.3621 22.673C20.9837 22.8658 20.5905 22.9371 20.1952 22.9694C19.8206 23 19.3658 23 18.8387 23H5.16156C4.63443 23 4.17967 23 3.8051 22.9694C3.40976 22.9371 3.01654 22.8658 2.63816 22.673C2.07367 22.3854 1.61473 21.9265 1.32711 21.362C1.13432 20.9836 1.063 20.5904 1.0307 20.195C1.0001 19.8205 1.00011 19.3657 1.00013 18.8385V18.1615C1.00011 17.6343 1.0001 17.1795 1.0307 16.805C1.063 16.4096 1.13432 16.0164 1.32711 15.638C1.61473 15.0735 2.07367 14.6146 2.63816 14.327C3.01654 14.1342 3.40976 14.0629 3.8051 14.0306C4.17968 14 4.63445 14 5.16161 14H11.0001V9C11.0001 8.44771 11.4478 8 12.0001 8ZM5.20013 16C4.62358 16 4.2513 16.0008 3.96797 16.0239C3.6963 16.0461 3.59558 16.0838 3.54614 16.109C3.35798 16.2049 3.205 16.3578 3.10912 16.546C3.08393 16.5955 3.04625 16.6962 3.02406 16.9678C3.00091 17.2512 3.00013 17.6234 3.00013 18.2V18.8C3.00013 19.3766 3.00091 19.7488 3.02406 20.0322C3.04625 20.3038 3.08393 20.4045 3.10912 20.454C3.205 20.6422 3.35798 20.7951 3.54614 20.891C3.59558 20.9162 3.6963 20.9539 3.96796 20.9761C4.2513 20.9992 4.62358 21 5.20013 21H18.8001C19.3767 21 19.749 20.9992 20.0323 20.9761C20.304 20.9539 20.4047 20.9162 20.4541 20.891C20.6423 20.7951 20.7953 20.6422 20.8911 20.454C20.9163 20.4045 20.954 20.3038 20.9762 20.0322C20.9994 19.7488 21.0001 19.3766 21.0001 18.8V18.2C21.0001 17.6234 20.9994 17.2512 20.9762 16.9678C20.954 16.6962 20.9163 16.5955 20.8911 16.546C20.7953 16.3578 20.6423 16.2049 20.4541 16.109C20.4047 16.0838 20.304 16.0461 20.0323 16.0239C19.749 16.0008 19.3767 16 18.8001 16H5.20013ZM4.50013 18.5C4.50013 17.9477 4.94785 17.5 5.50013 17.5H9.50013C10.0524 17.5 10.5001 17.9477 10.5001 18.5C10.5001 19.0523 10.0524 19.5 9.50013 19.5H5.50013C4.94785 19.5 4.50013 19.0523 4.50013 18.5Z" fill="black"/>
</svg>
