<svg width="24" height="24" viewBox="0 0 24 24" fill="none" xmlns="http://www.w3.org/2000/svg">
<path fill-rule="evenodd" clip-rule="evenodd" d="M11.326 1.90254C11.7478 1.69199 12.2441 1.69199 12.6659 1.90254C13.0392 2.08891 13.2322 2.41706 13.3241 2.58421C13.4242 2.76638 13.5268 3.0003 13.6297 3.235C13.6346 3.24618 13.6395 3.25736 13.6444 3.26854L20.941 19.9047C21.056 20.167 21.1675 20.421 21.2388 20.6318C21.3004 20.8139 21.4253 21.2071 21.2916 21.63C21.1441 22.0964 20.7785 22.4616 20.3119 22.6085C19.8889 22.7417 19.4959 22.6164 19.3138 22.5545C19.1031 22.483 18.8492 22.3712 18.5871 22.2559L11.996 19.3558L5.40495 22.2558C5.14278 22.3712 4.88888 22.483 4.67815 22.5545C4.49609 22.6164 4.10307 22.7417 3.67999 22.6085C3.21344 22.4616 2.84782 22.0964 2.70035 21.63C2.56662 21.2071 2.69153 20.8139 2.75315 20.6318C2.82446 20.421 2.93591 20.167 3.05099 19.9047L10.3476 3.26854C10.3525 3.25736 10.3574 3.24618 10.3623 3.23501C10.4651 3.00031 10.5677 2.76638 10.6679 2.58421C10.7598 2.41706 10.9527 2.08891 11.326 1.90254ZM12.1733 19.2786C12.1735 19.2785 12.1734 19.2785 12.1733 19.2786ZM11.996 4.48946L5.10397 20.2032L11.271 17.4897C11.2778 17.4867 11.2855 17.4833 11.2942 17.4794C11.3791 17.4413 11.5546 17.3625 11.7484 17.3301C11.9123 17.3027 12.0796 17.3027 12.2435 17.3301C12.4373 17.3625 12.6128 17.4413 12.6977 17.4794C12.7064 17.4833 12.7142 17.4867 12.7209 17.4897L18.888 20.2032L11.996 4.48946Z" fill="black"/>
</svg>
