<svg width="24" height="24" viewBox="0 0 24 24" fill="none" xmlns="http://www.w3.org/2000/svg">
<path fill-rule="evenodd" clip-rule="evenodd" d="M8.47189 0.999916C8.48934 0.999963 8.50636 1.00001 8.52293 1.00001H15.4774C15.494 1.00001 15.511 0.999963 15.5285 0.999916C15.7184 0.999409 15.9575 0.99877 16.1929 1.05527C16.3969 1.10426 16.592 1.18507 16.771 1.29473C16.9773 1.42118 17.146 1.59073 17.2799 1.72538C17.2922 1.73774 17.3042 1.74981 17.3159 1.76153L22.2387 6.68427C22.2504 6.69599 22.2625 6.708 22.2748 6.72031C22.4095 6.85424 22.579 7.02288 22.7055 7.22922C22.8151 7.40817 22.8959 7.60326 22.9449 7.80733C23.0014 8.04266 23.0008 8.2818 23.0003 8.47171C23.0002 8.48915 23.0002 8.50618 23.0002 8.52275V15.4773C23.0002 15.4938 23.0002 15.5109 23.0003 15.5283C23.0008 15.7182 23.0014 15.9574 22.9449 16.1927C22.8959 16.3968 22.8151 16.5918 22.7055 16.7708C22.579 16.9771 22.4095 17.1458 22.2748 17.2797C22.2625 17.292 22.2504 17.304 22.2387 17.3157L17.3159 22.2385C17.3042 22.2502 17.2922 22.2623 17.2799 22.2746C17.146 22.4093 16.9773 22.5788 16.771 22.7053C16.592 22.8149 16.3969 22.8958 16.1929 22.9447C15.9575 23.0012 15.7184 23.0006 15.5285 23.0001C15.511 23.0001 15.494 23 15.4774 23H8.52293C8.50636 23 8.48933 23.0001 8.47189 23.0001C8.28198 23.0006 8.04284 23.0012 7.80751 22.9447C7.60344 22.8958 7.40835 22.8149 7.22941 22.7053C7.02306 22.5788 6.85442 22.4093 6.72049 22.2747C6.70819 22.2623 6.69618 22.2502 6.68446 22.2385L1.76171 17.3157C1.75 17.304 1.73793 17.292 1.72556 17.2797C1.59092 17.1458 1.42137 16.9771 1.29491 16.7708C1.18525 16.5918 1.10444 16.3968 1.05545 16.1927C0.998953 15.9574 0.999592 15.7182 1.0001 15.5283C1.00015 15.5109 1.00019 15.4938 1.00019 15.4773V8.52275C1.00019 8.50618 1.00015 8.48915 1.0001 8.47171C0.999592 8.2818 0.998953 8.04266 1.05545 7.80733C1.10444 7.60326 1.18525 7.40817 1.29491 7.22922C1.42136 7.02287 1.59091 6.85423 1.72556 6.7203C1.73793 6.708 1.75 6.69599 1.76171 6.68427L6.68446 1.76153C6.69617 1.74981 6.70818 1.73774 6.72048 1.72538C6.85441 1.59073 7.02305 1.42118 7.22941 1.29473C7.40835 1.18507 7.60344 1.10426 7.80751 1.05527C8.04285 0.99877 8.28198 0.999409 8.47189 0.999916ZM8.27547 3.00259C8.27462 3.00336 8.27374 3.00416 8.27282 3.005C8.2377 3.03705 8.1913 3.08311 8.09867 3.17574L3.17593 8.09849C3.0833 8.19112 3.03723 8.23752 3.00519 8.27263C3.00435 8.27355 3.00354 8.27444 3.00277 8.27529C3.00271 8.27644 3.00266 8.27763 3.0026 8.27888C3.00043 8.32637 3.00019 8.39175 3.00019 8.52275V15.4773C3.00019 15.6083 3.00043 15.6736 3.0026 15.7211C3.00266 15.7224 3.00271 15.7236 3.00277 15.7247C3.00354 15.7256 3.00435 15.7265 3.00519 15.7274C3.03723 15.7625 3.0833 15.8089 3.17593 15.9015L8.09867 20.8243C8.1913 20.9169 8.2377 20.963 8.27282 20.995C8.27374 20.9959 8.27462 20.9967 8.27547 20.9974C8.27662 20.9975 8.27781 20.9975 8.27906 20.9976C8.32655 20.9998 8.39193 21 8.52293 21H15.4774C15.6084 21 15.6738 20.9998 15.7213 20.9976C15.7226 20.9975 15.7238 20.9975 15.7249 20.9974C15.7258 20.9967 15.7266 20.9959 15.7276 20.995C15.7627 20.963 15.8091 20.9169 15.9017 20.8243L20.8245 15.9015C20.9171 15.8089 20.9632 15.7625 20.9952 15.7274C20.996 15.7265 20.9968 15.7256 20.9976 15.7247C20.9977 15.7236 20.9977 15.7224 20.9978 15.7211C21 15.6736 21.0002 15.6083 21.0002 15.4773V8.52275C21.0002 8.39175 21 8.32637 20.9978 8.27888C20.9977 8.27763 20.9977 8.27644 20.9976 8.27529C20.9968 8.27444 20.996 8.27356 20.9952 8.27264C20.9632 8.23752 20.9171 8.19112 20.8245 8.09849L15.9017 3.17574C15.8091 3.08311 15.7627 3.03705 15.7276 3.005C15.7266 3.00416 15.7258 3.00336 15.7249 3.00259C15.7238 3.00253 15.7226 3.00247 15.7213 3.00242C15.6738 3.00025 15.6084 3.00001 15.4774 3.00001H8.52293C8.39193 3.00001 8.32655 3.00025 8.27906 3.00242C8.27782 3.00247 8.27662 3.00253 8.27547 3.00259Z" fill="black"/>
</svg>
