<svg width="24" height="24" viewBox="0 0 24 24" fill="none" xmlns="http://www.w3.org/2000/svg">
<path fill-rule="evenodd" clip-rule="evenodd" d="M19.2 4.99998H16V4.19998C16 3.31906 15.2809 2.59998 14.4 2.59998H9.6C8.71909 2.59998 8 3.31906 8 4.19998V4.99998H4.8C3.25909 4.99998 2 6.25906 2 7.79998V18.6C2 20.1409 3.25909 21.4 4.8 21.4H19.2C20.7409 21.4 22 20.1409 22 18.6V7.79998C22 6.25906 20.7409 4.99998 19.2 4.99998ZM10 4.79998C10 4.71087 10.028 4.66771 10.0478 4.64782C10.0677 4.62793 10.1109 4.59998 10.2 4.59998H13.8C13.8891 4.59998 13.9323 4.62793 13.9522 4.64782C13.972 4.66771 14 4.71088 14 4.79998V4.99998H10V4.79998ZM20 18.6C20 19.0391 19.6391 19.4 19.2 19.4H4.8C4.36091 19.4 4 19.0391 4 18.6V12.4H9.20195C9.19987 12.4677 9.19993 12.5288 9.19998 12.5784L9.2 12.6C9.2 14.1409 10.4591 15.4 12 15.4C13.5409 15.4 14.8 14.1409 14.8 12.6C14.8 12.534 14.7943 12.4648 14.7869 12.4H20V18.6ZM11.2 12.6C11.2 12.5228 11.2083 12.4588 11.2258 12.4H12.7742C12.7917 12.4588 12.8 12.5228 12.8 12.6C12.8 13.0391 12.4391 13.4 12 13.4C11.5609 13.4 11.2 13.0391 11.2 12.6ZM20 10.4H4V7.79998C4 7.36089 4.36091 6.99998 4.8 6.99998H19.2C19.6391 6.99998 20 7.36089 20 7.79998V10.4Z" fill="black"/>
</svg>
