<svg width="24" height="24" viewBox="0 0 24 24" fill="none" xmlns="http://www.w3.org/2000/svg">
<path fill-rule="evenodd" clip-rule="evenodd" d="M16.5004 3H7.50037C7.22422 3 7.00037 3.22386 7.00037 3.5V5H17.0004V3.5C17.0004 3.22386 16.7765 3 16.5004 3ZM5.00037 3.5V5C2.79123 5 1.00037 6.79086 1.00037 9V19C1.00037 21.2091 2.79123 23 5.00037 23H19.0004C21.2095 23 23.0004 21.2091 23.0004 19V9C23.0004 6.79086 21.2095 5 19.0004 5V3.5C19.0004 2.11929 17.8811 1 16.5004 1H7.50037C6.11965 1 5.00037 2.11929 5.00037 3.5ZM21.0004 9C21.0004 7.89543 20.1049 7 19.0004 7H17.0004H7.00037H5.00037C3.8958 7 3.00037 7.89543 3.00037 9V13H8.00037V11.5C8.00037 10.6716 8.67194 10 9.50037 10H14.5004C15.3288 10 16.0004 10.6716 16.0004 11.5V13H21.0004V9ZM21.0004 15V19C21.0004 20.1046 20.1049 21 19.0004 21H5.00037C3.8958 21 3.00037 20.1046 3.00037 19V15H8.00037V16.5C8.00037 17.3284 8.67194 18 9.50037 18H14.5004C15.3288 18 16.0004 17.3284 16.0004 16.5V15H21.0004ZM10.0004 16V12H14.0004V16H10.0004Z" fill="black"/>
</svg>
