<svg width="24" height="24" viewBox="0 0 24 24" fill="none" xmlns="http://www.w3.org/2000/svg">
<path d="M4.57684 1.80853C4.57684 1.38849 4.12041 1.12747 3.75839 1.34048L3.25586 1.63611L3.25198 1.63851C3.19917 1.67122 3.08633 1.73945 2.94315 1.82603C2.60082 2.03302 2.085 2.34492 1.80097 2.52734C1.63285 2.63532 1.54016 2.8201 1.54016 3.01172C1.54016 3.49409 2.08449 3.78575 2.48833 3.53433C2.71529 3.39303 2.9531 3.24663 3.12996 3.1392V6.61712C3.12996 7.01666 3.45386 7.34056 3.8534 7.34056C4.25294 7.34056 4.57684 7.01666 4.57684 6.61712V1.80853Z" fill="#222727" fill-opacity="0.8"/>
<path d="M3.67768 8.93656C2.44534 8.93656 1.62222 9.75402 1.62222 10.7772C1.62222 10.9157 1.73449 11.028 1.873 11.028H2.76362C2.90644 11.028 3.02222 10.9122 3.02222 10.7694C3.02222 10.4488 3.25032 10.1803 3.63081 10.1803C3.8144 10.1803 3.96094 10.2393 4.05956 10.3304C4.1566 10.42 4.21987 10.552 4.21987 10.7264C4.21987 11.041 4.03129 11.3047 3.68088 11.6748L1.86653 13.6428C1.75213 13.7669 1.68862 13.9295 1.68862 14.0982C1.68862 14.4693 1.98945 14.7702 2.36053 14.7702H5.36282C5.71059 14.7702 5.99251 14.4882 5.99251 14.1405C5.99251 13.7927 5.71059 13.5108 5.36282 13.5108H3.7441L4.67703 12.4627C5.28622 11.8108 5.66675 11.3364 5.66675 10.6287C5.66675 10.1345 5.46222 9.70545 5.10404 9.40315C4.74828 9.10289 4.25244 8.93656 3.67768 8.93656Z" fill="#222727" fill-opacity="0.8"/>
<path d="M3.69331 16.3664C2.68732 16.3664 2.00128 16.8441 1.74752 17.5442C1.67182 17.7531 1.72932 17.955 1.85454 18.0967C1.97627 18.2345 2.16121 18.3171 2.35727 18.3171C2.54878 18.3171 2.70879 18.2354 2.83492 18.1367C2.95993 18.0389 3.06421 17.9147 3.14747 17.807C3.24332 17.6831 3.40416 17.5828 3.65815 17.5828C3.86851 17.5828 4.02734 17.6457 4.13047 17.7354C4.23185 17.8235 4.29018 17.946 4.29018 18.0937L4.29019 18.0955C4.29165 18.2607 4.22946 18.3935 4.12486 18.4872C4.01852 18.5823 3.85577 18.6476 3.64253 18.6476H3.5019C3.16708 18.6476 2.89565 18.919 2.89565 19.2539C2.89565 19.5887 3.16708 19.8601 3.5019 19.8601H3.66987C3.94547 19.8601 4.13856 19.9344 4.25981 20.0379C4.37848 20.1391 4.44494 20.2818 4.44644 20.4587C4.44794 20.6386 4.38116 20.7871 4.26118 20.893C4.13928 21.0005 3.94675 21.0773 3.67768 21.0773C3.35774 21.0773 3.1497 20.9632 3.03424 20.8135C2.95209 20.707 2.84952 20.5857 2.72621 20.4904C2.60162 20.3941 2.4443 20.3156 2.2563 20.3156C2.06006 20.3156 1.87503 20.3979 1.7524 20.5352C1.62651 20.6763 1.567 20.8772 1.63832 21.0867C1.88207 21.8029 2.56442 22.3054 3.65034 22.3054C4.2518 22.3054 4.81161 22.1377 5.22476 21.8285C5.6414 21.5167 5.90784 21.0597 5.9011 20.505C5.89166 19.8158 5.52496 19.3827 5.1079 19.1725C5.44777 18.9417 5.73822 18.5292 5.72921 17.9492C5.71062 16.9871 4.80999 16.3664 3.69331 16.3664Z" fill="#222727" fill-opacity="0.8"/>
<path d="M8 3.99995C8 3.44767 8.44772 2.99995 9 2.99995H22C22.5523 2.99995 23 3.44767 23 3.99995C23 4.55224 22.5523 4.99995 22 4.99995H9C8.44771 4.99995 8 4.55224 8 3.99995Z" fill="#222727" fill-opacity="0.8"/>
<path d="M8 12C8 11.4477 8.44772 11 9 11H22C22.5523 11 23 11.4477 23 12C23 12.5522 22.5523 13 22 13H9C8.44771 13 8 12.5522 8 12Z" fill="#222727" fill-opacity="0.8"/>
<path d="M8 20C8 19.4477 8.44772 19 9 19H22C22.5523 19 23 19.4477 23 20C23 20.5522 22.5523 21 22 21H9C8.44771 21 8 20.5522 8 20Z" fill="#222727" fill-opacity="0.8"/>
</svg>
