<svg width="24" height="24" viewBox="0 0 24 24" fill="none" xmlns="http://www.w3.org/2000/svg">
<path d="M6.99994 8.00244C7.55085 8.00244 7.99744 8.44904 7.99744 8.99994V14.9999C7.99744 15.5508 7.55085 15.9974 6.99994 15.9974C6.44904 15.9974 6.00244 15.5508 6.00244 14.9999V8.99994C6.00244 8.44904 6.44904 8.00244 6.99994 8.00244Z" fill="black"/>
<path d="M17.9974 8.99994C17.9974 8.44904 17.5508 8.00244 16.9999 8.00244C16.449 8.00244 16.0024 8.44904 16.0024 8.99994V14.9999C16.0024 15.5508 16.449 15.9974 16.9999 15.9974C17.5508 15.9974 17.9974 15.5508 17.9974 14.9999V8.99994Z" fill="black"/>
<path d="M12.9999 9.99994C12.9999 10.5522 12.5522 10.9999 11.9999 10.9999C11.4477 10.9999 10.9999 10.5522 10.9999 9.99994C10.9999 9.44766 11.4477 8.99994 11.9999 8.99994C12.5522 8.99994 12.9999 9.44766 12.9999 9.99994Z" fill="black"/>
<path d="M11.9999 14.9999C12.5522 14.9999 12.9999 14.5522 12.9999 13.9999C12.9999 13.4477 12.5522 12.9999 11.9999 12.9999C11.4477 12.9999 10.9999 13.4477 10.9999 13.9999C10.9999 14.5522 11.4477 14.9999 11.9999 14.9999Z" fill="black"/>
<path fill-rule="evenodd" clip-rule="evenodd" d="M1.00244 6.99994C1.00244 4.79218 2.79218 3.00244 4.99994 3.00244H18.9999C21.2077 3.00244 22.9974 4.79218 22.9974 6.99994V16.9999C22.9974 19.2077 21.2077 20.9974 18.9999 20.9974H4.99994C2.79218 20.9974 1.00244 19.2077 1.00244 16.9999V6.99994ZM4.99994 4.99744C3.89399 4.99744 2.99744 5.89399 2.99744 6.99994V16.9999C2.99744 18.1059 3.89399 19.0024 4.99994 19.0024H18.9999C20.1059 19.0024 21.0024 18.1059 21.0024 16.9999V6.99994C21.0024 5.89399 20.1059 4.99744 18.9999 4.99744H4.99994Z" fill="black"/>
</svg>
