<svg width="24" height="24" viewBox="0 0 24 24" fill="none" xmlns="http://www.w3.org/2000/svg">
<path fill-rule="evenodd" clip-rule="evenodd" d="M11.597 1.18498C11.8628 1.13031 12.137 1.13031 12.4028 1.18498C12.7101 1.24818 12.9847 1.40201 13.203 1.5243C13.2234 1.53569 13.2432 1.54681 13.2626 1.55755L20.6626 5.66866C20.683 5.68002 20.7041 5.69164 20.7257 5.70353C20.9568 5.83084 21.2474 5.99091 21.4706 6.23309C21.6636 6.44247 21.8096 6.69064 21.8989 6.96098C22.0022 7.27369 22.001 7.60547 22.0001 7.86934C22 7.894 21.9999 7.91807 21.9999 7.94147V16.0586C21.9999 16.082 22 16.106 22.0001 16.1307C22.001 16.3946 22.0022 16.7264 21.8989 17.0391C21.8096 17.3094 21.6636 17.5576 21.4706 17.767C21.2474 18.0091 20.9568 18.1692 20.7257 18.2965C20.7041 18.3084 20.683 18.32 20.6626 18.3314L13.2626 22.4425C13.2432 22.4532 13.2234 22.4644 13.203 22.4757C12.9847 22.598 12.7101 22.7519 12.4028 22.8151C12.137 22.8697 11.8628 22.8697 11.597 22.8151C11.2897 22.7519 11.0151 22.598 10.7967 22.4757C10.7764 22.4644 10.7565 22.4532 10.7372 22.4425L3.33721 18.3314C3.31675 18.32 3.29568 18.3084 3.27408 18.2965C3.04295 18.1692 2.75233 18.0091 2.52915 17.767C2.3362 17.5576 2.19018 17.3094 2.10085 17.0391C1.99753 16.7264 1.99874 16.3946 1.9997 16.1307C1.99979 16.106 1.99988 16.082 1.99988 16.0586V7.94147C1.99988 7.91807 1.99979 7.894 1.9997 7.86934C1.99874 7.60547 1.99753 7.27369 2.10085 6.96099C2.19017 6.69063 2.3362 6.44247 2.52915 6.23309C2.75232 5.99091 3.04294 5.83084 3.27407 5.70354C3.29567 5.69164 3.31675 5.68003 3.33721 5.66866L10.7372 1.55755C10.7565 1.54681 10.7764 1.53569 10.7967 1.5243C11.0151 1.40201 11.2897 1.24818 11.597 1.18498ZM11.9999 3.14901C11.9984 3.14974 11.9968 3.1505 11.9951 3.1513C11.9374 3.17913 11.86 3.22167 11.7085 3.30586L5.05902 7.00002L11.9998 10.856L18.9407 7L12.2913 3.30586C12.1397 3.22167 12.0624 3.17913 12.0047 3.1513C12.003 3.1505 12.0014 3.14974 11.9999 3.14901ZM19.9999 8.69949V16.0586C19.9999 16.2416 19.9995 16.3352 19.9954 16.403C19.9953 16.405 19.9951 16.4069 19.995 16.4088C19.9935 16.4097 19.9919 16.4108 19.9902 16.4119C19.9329 16.4484 19.8512 16.4942 19.6913 16.5831L12.9999 20.3005L12.9999 12.5884L19.9999 8.69949ZM10.9999 12.5884L3.99988 8.69953V16.0586C3.99988 16.2416 4.0003 16.3352 4.00438 16.403C4.0045 16.405 4.00462 16.4069 4.00474 16.4088C4.00628 16.4097 4.00789 16.4108 4.00958 16.4119C4.06688 16.4484 4.14854 16.4942 4.3085 16.5831L10.9999 20.3005L10.9999 12.5884Z" fill="black"/>
<path fill-rule="evenodd" clip-rule="evenodd" d="M6.62578 4.01436C6.89399 3.53157 7.5028 3.35763 7.98558 3.62584L16.9856 8.62584C17.4684 8.89405 17.6423 9.50286 17.3741 9.98564C17.1059 10.4684 16.4971 10.6424 16.0143 10.3742L7.0143 5.37416C6.53151 5.10594 6.35757 4.49714 6.62578 4.01436Z" fill="black"/>
</svg>
