<svg width="24" height="24" viewBox="0 0 24 24" fill="none" xmlns="http://www.w3.org/2000/svg">
<path fill-rule="evenodd" clip-rule="evenodd" d="M11.597 1.18499C11.8628 1.13031 12.137 1.13031 12.4028 1.18498C12.7101 1.24818 12.9847 1.40201 13.203 1.5243C13.2234 1.53569 13.2432 1.54681 13.2626 1.55755L12.7844 2.41817L13.2626 1.55755L20.6626 5.66866C20.683 5.68002 20.7041 5.69163 20.7257 5.70353C20.9568 5.83084 21.2474 5.99091 21.4706 6.23309L21.1561 6.5229L21.4706 6.23309C21.6636 6.44247 21.8096 6.69064 21.8989 6.96099C22.0022 7.27368 22.001 7.60547 22.0001 7.86934C22 7.894 21.9999 7.91807 21.9999 7.94147L21.9999 12.5C21.9999 13.0523 21.5522 13.5 20.9999 13.5C20.4476 13.5 19.9999 13.0523 19.9999 12.5L19.9999 8.69949L17.0027 10.3646C16.9919 10.3709 16.981 10.3769 16.9699 10.3828L12.9999 12.5884L12.9999 20.4443C13.351 20.4446 13.6914 20.6301 13.874 20.9588C14.1423 21.4416 13.9683 22.0504 13.4855 22.3186L13.2626 22.4425C13.2432 22.4532 13.2234 22.4644 13.203 22.4757C12.9847 22.598 12.7101 22.7519 12.4028 22.8151C12.137 22.8697 11.8628 22.8697 11.597 22.8151C11.2897 22.7519 11.0151 22.598 10.7967 22.4757C10.7764 22.4644 10.7565 22.4532 10.7372 22.4425L3.33721 18.3314C3.31676 18.32 3.29568 18.3084 3.27408 18.2965C3.04295 18.1692 2.75232 18.0091 2.52915 17.767C2.3362 17.5576 2.19018 17.3094 2.10085 17.0391C1.99753 16.7264 1.99874 16.3946 1.9997 16.1307C1.99979 16.106 1.99988 16.082 1.99988 16.0586V7.94147C1.99988 7.91807 1.99979 7.894 1.9997 7.86934C1.99874 7.60547 1.99753 7.27369 2.10085 6.96099C2.19017 6.69063 2.3362 6.44247 2.52915 6.23309C2.75232 5.99092 3.04294 5.83084 3.27406 5.70354C3.29567 5.69164 3.31675 5.68003 3.33721 5.66866L3.33721 5.66866L6.99892 3.63438C7.0085 3.62885 7.01816 3.62348 7.0279 3.61828L10.7372 1.55755C10.7565 1.54681 10.7764 1.53569 10.7967 1.5243C11.0151 1.40201 11.2897 1.24818 11.597 1.18499ZM7.49988 5.64398L5.05902 7.00002L11.9998 10.856L14.4407 9.5L7.49988 5.64398ZM16.4998 8.35604L9.55901 4.50002L11.7085 3.30586C11.86 3.22168 11.9374 3.17914 11.9951 3.1513C11.9968 3.1505 11.9984 3.14974 11.9999 3.14901C12.0014 3.14974 12.003 3.1505 12.0047 3.1513C12.0624 3.17913 12.1397 3.22167 12.2913 3.30586L18.9407 7L16.4998 8.35604ZM10.9999 12.5884L3.99988 8.69953V16.0586C3.99988 16.2416 4.0003 16.3352 4.00438 16.403C4.0045 16.405 4.00462 16.4069 4.00474 16.4088C4.00628 16.4097 4.0079 16.4108 4.00959 16.4119C4.06688 16.4484 4.14855 16.4942 4.30849 16.5831L3.82285 17.4572L4.3085 16.5831L10.9999 20.3005L10.9999 12.5884ZM15.7928 15.2929C16.1833 14.9024 16.8165 14.9024 17.207 15.2929L18.9999 17.0858L20.7928 15.2929C21.1833 14.9024 21.8165 14.9024 22.207 15.2929C22.5975 15.6834 22.5975 16.3166 22.207 16.7071L20.4141 18.5L22.207 20.2929C22.5975 20.6834 22.5975 21.3166 22.207 21.7071C21.8165 22.0977 21.1833 22.0977 20.7928 21.7071L18.9999 19.9142L17.207 21.7071C16.8165 22.0977 16.1833 22.0977 15.7928 21.7071C15.4022 21.3166 15.4022 20.6834 15.7928 20.2929L17.5857 18.5L15.7928 16.7071C15.4022 16.3166 15.4022 15.6834 15.7928 15.2929Z" fill="black"/>
</svg>
