<svg width="24" height="24" viewBox="0 0 24 24" fill="none" xmlns="http://www.w3.org/2000/svg">
<path fill-rule="evenodd" clip-rule="evenodd" d="M8 3.99997C8.55228 3.99997 9 4.44769 9 4.99997C9 5.55226 8.55228 5.99997 8 5.99997C4.08385 5.99997 5.28015 5.99997 2 5.99997C1.44772 5.99997 1 5.55226 1 4.99997C1 4.44769 1.44772 3.99997 2 3.99997C5.17128 3.99997 4.2224 3.99997 8 3.99997ZM16.382 2.51207C16.7837 2.38156 17.2163 2.38156 17.618 2.51207C17.9078 2.60621 18.1296 2.76578 18.3045 2.91421C18.4637 3.04937 18.6375 3.2232 18.8159 3.40168L22.5983 7.18408C22.7768 7.36251 22.9506 7.53628 23.0858 7.69548C23.2342 7.87033 23.3938 8.09222 23.4879 8.38194C23.6184 8.78362 23.6184 9.21632 23.4879 9.618C23.3938 9.90772 23.2342 10.1296 23.0858 10.3045C22.9506 10.4637 22.7768 10.6375 22.5983 10.8159L21.8159 11.5983C21.6375 11.7768 21.4637 11.9506 21.3045 12.0857C21.1296 12.2342 20.9078 12.3937 20.618 12.4879C20.2877 12.5952 19.9364 12.6143 19.5986 12.5451L18.1999 17.4402C18.194 17.461 18.188 17.4824 18.1818 17.5043C18.1154 17.7399 18.0318 18.0362 17.8642 18.2939C17.7193 18.5168 17.5313 18.7087 17.3113 18.8581C17.0571 19.0308 16.7625 19.1204 16.5283 19.1915C16.5065 19.1982 16.4853 19.2046 16.4646 19.211L4.29409 22.9557C3.94006 23.0647 3.55481 22.969 3.29289 22.7071C3.03097 22.4452 2.93529 22.0599 3.04422 21.7059L6.789 9.53537C6.79535 9.51471 6.80181 9.49345 6.80843 9.47167C6.87962 9.23749 6.96917 8.94288 7.14187 8.68865C7.29131 8.46867 7.48312 8.28069 7.70608 8.13573C7.96375 7.9682 8.26011 7.88462 8.49568 7.81817C8.51759 7.81199 8.53897 7.80596 8.55975 7.80003L13.4549 6.40141C13.3857 6.06361 13.4048 5.71229 13.5121 5.38194C13.6062 5.09222 13.7658 4.87033 13.9142 4.69548C14.0494 4.53627 14.2232 4.36249 14.4017 4.18405L15.1841 3.40169C15.3625 3.2232 15.5363 3.04938 15.6955 2.91421C15.8704 2.76578 16.0922 2.60621 16.382 2.51207ZM14.709 8.12314L9.10919 9.72308C8.94623 9.76964 8.8635 9.79365 8.80446 9.81421L8.79962 9.81591L8.79782 9.82071C8.77608 9.87933 8.7504 9.96155 8.70055 10.1235L6.13983 18.4459L9.29235 15.2933C9.10495 14.9017 9 14.4631 9 14C9 12.3431 10.3431 11 12 11C13.6569 11 15 12.3431 15 14C15 15.6568 13.6569 17 12 17C11.5368 17 11.0982 16.895 10.7065 16.7076L7.55399 19.8602L15.8764 17.2994C16.0384 17.2496 16.1206 17.2239 16.1793 17.2021L16.1841 17.2004L16.1858 17.1955C16.2063 17.1365 16.2303 17.0537 16.2769 16.8908L17.8768 11.291L14.709 8.12314ZM11.3062 14.7202C11.486 14.8934 11.7306 15 12 15C12.5523 15 13 14.5523 13 14C13 13.4477 12.5523 13 12 13C11.4477 13 11 13.4477 11 14C11 14.2694 11.1065 14.5139 11.2798 14.6937C11.2843 14.698 11.2887 14.7024 11.2931 14.7068C11.2975 14.7112 11.3019 14.7157 11.3062 14.7202ZM16.9899 4.43889C16.9007 4.51459 16.7854 4.62877 16.5757 4.83845L15.8385 5.57571C15.6288 5.78538 15.5146 5.90066 15.4389 5.98984C15.4359 5.99339 15.4331 5.99677 15.4304 5.99997C15.4331 6.00318 15.4359 6.00655 15.4389 6.0101C15.5146 6.09928 15.6288 6.21456 15.8385 6.42424L19.5757 10.1615C19.7854 10.3712 19.9007 10.4854 19.9899 10.5611C19.9934 10.5641 19.9968 10.5669 20 10.5696C20.0032 10.5669 20.0066 10.5641 20.0101 10.5611C20.0993 10.4853 20.2146 10.3712 20.4243 10.1615L21.1615 9.42424C21.3712 9.21456 21.4854 9.09928 21.5611 9.0101C21.5641 9.00656 21.5669 9.00317 21.5696 8.99996C21.5669 8.99676 21.5641 8.99339 21.5611 8.98984C21.4854 8.90066 21.3712 8.78538 21.1615 8.57571L17.4243 4.83845C17.2146 4.62877 17.0993 4.51459 17.0101 4.43889C17.0066 4.43587 17.0032 4.43304 17 4.43038C16.9968 4.43304 16.9934 4.43587 16.9899 4.43889Z" fill="black"/>
</svg>
