<svg width="24" height="24" viewBox="0 0 24 24" fill="none" xmlns="http://www.w3.org/2000/svg">
<path fill-rule="evenodd" clip-rule="evenodd" d="M16.2929 2.29295C17.788 0.797857 20.2121 0.797859 21.7072 2.29295C23.2023 3.78805 23.2023 6.21207 21.7072 7.70717L10.4274 18.9869C10.415 18.9993 10.4027 19.0116 10.3906 19.0237C10.1572 19.2573 9.98061 19.4339 9.78113 19.5887C9.60481 19.7255 9.41734 19.8474 9.2207 19.9529C8.99822 20.0723 8.76508 20.1619 8.45686 20.2804C8.44087 20.2865 8.42468 20.2928 8.40828 20.2991L2.85901 22.4334C2.49016 22.5753 2.07236 22.4866 1.79292 22.2072C1.51348 21.9277 1.42482 21.5099 1.56668 21.1411L3.70102 15.5918C3.70733 15.5754 3.71355 15.5592 3.7197 15.5432C3.83815 15.235 3.92775 15.0019 4.04718 14.7794C4.15273 14.5827 4.27456 14.3953 4.41139 14.219C4.56618 14.0195 4.74284 13.8429 4.97637 13.6095C4.98849 13.5974 5.00077 13.5851 5.0132 13.5727L16.2929 2.29295ZM20.2929 3.70717C19.5789 2.99312 18.4212 2.99312 17.7072 3.70716L6.42742 14.9869C6.41641 14.9979 6.40571 15.0086 6.3953 15.019C6.46013 15.0591 6.52139 15.1072 6.57762 15.1634L8.83671 17.4225C8.89293 17.4787 8.94105 17.54 8.98108 17.6048C8.9915 17.5944 9.0022 17.5837 9.0132 17.5727L20.2929 6.29295C21.007 5.57891 21.007 4.42121 20.2929 3.70717ZM7.20487 18.6191L5.381 16.7952L4.24108 19.759L7.20487 18.6191Z" fill="black"/>
</svg>
