<svg width="24" height="24" viewBox="0 0 24 24" fill="none" xmlns="http://www.w3.org/2000/svg">
<path fill-rule="evenodd" clip-rule="evenodd" d="M21.7072 2.29295C20.2121 0.797859 17.788 0.797857 16.2929 2.29295L5.0132 13.5727L4.97637 13.6095L4.97636 13.6095C4.74283 13.8429 4.56618 14.0195 4.41139 14.219C4.27456 14.3953 4.15273 14.5827 4.04718 14.7794C3.92775 15.0019 3.83815 15.235 3.7197 15.5432L3.70102 15.5918L1.56668 21.1411C1.42482 21.5099 1.51348 21.9277 1.79292 22.2072C2.07236 22.4866 2.49016 22.5753 2.85901 22.4334L8.40828 20.2991L8.45686 20.2804L8.4569 20.2804C8.7651 20.1619 8.99823 20.0723 9.2207 19.9529C9.41734 19.8474 9.60481 19.7255 9.78113 19.5887C9.98061 19.4339 10.1572 19.2573 10.3906 19.0237L10.4274 18.9869L21.7072 7.70717C23.2023 6.21207 23.2023 3.78805 21.7072 2.29295ZM17.7072 3.70716C18.4212 2.99312 19.5789 2.99312 20.2929 3.70717C21.007 4.42121 21.007 5.57891 20.2929 6.29295L9.0132 17.5727L8.98108 17.6048C8.94105 17.54 8.89293 17.4787 8.83671 17.4225L6.57762 15.1634C6.52139 15.1072 6.46013 15.0591 6.3953 15.019L6.42742 14.9869L17.7072 3.70716ZM5.381 16.7952L7.20487 18.6191L4.24108 19.759L5.381 16.7952ZM13 20C12.4477 20 12 20.4477 12 21C12 21.5523 12.4477 22 13 22H21C21.5523 22 22 21.5523 22 21C22 20.4477 21.5523 20 21 20H13Z" fill="black"/>
</svg>
