<svg width="24" height="24" viewBox="0 0 24 24" fill="none" xmlns="http://www.w3.org/2000/svg">
<path d="M5.5725 6.70004C7.20709 5.03263 9.48197 4 11.9998 4C14.5177 4 16.7926 5.03263 18.4272 6.70004C18.8138 7.09443 19.4469 7.10072 19.8413 6.7141C20.2357 6.32748 20.242 5.69434 19.8554 5.29996C17.8601 3.26464 15.0768 2 11.9998 2C8.92291 2 6.13955 3.26464 4.1443 5.29996C3.75768 5.69434 3.76397 6.32748 4.15835 6.7141C4.55274 7.10072 5.18587 7.09443 5.5725 6.70004Z" fill="black"/>
<path d="M8.27272 9.66691C9.18969 8.6424 10.5191 8 11.9998 8C13.4805 8 14.8099 8.6424 15.7269 9.66691C16.0952 10.0784 16.7274 10.1135 17.1389 9.74513C17.5505 9.37681 17.5855 8.74461 17.2171 8.33309C15.9368 6.9026 14.0731 6 11.9998 6C9.92654 6 8.06277 6.9026 6.78245 8.33309C6.41413 8.74461 6.44915 9.37681 6.86067 9.74513C7.2722 10.1135 7.9044 10.0784 8.27272 9.66691Z" fill="black"/>
<path fill-rule="evenodd" clip-rule="evenodd" d="M21.5721 21.8934C22.3987 21.6221 23.0469 20.9739 23.3181 20.1474C23.456 19.7274 23.4554 19.2425 23.4546 18.6816L23.4546 18.2675C23.4549 17.6672 23.4551 17.2069 23.3189 16.7215C23.1635 16.1678 22.7865 15.5258 22.3786 15.1203C22.0217 14.7655 21.6885 14.5798 21.2588 14.3403L21.2121 14.3143C18.569 12.8398 15.5237 12 12.285 12C9.04629 12 6.00099 12.8398 3.35785 14.3143L3.31121 14.3403C2.88149 14.5798 2.54825 14.7655 2.19137 15.1203C1.78348 15.5258 1.40648 16.1678 1.25108 16.7215C1.11487 17.2069 1.1151 17.6672 1.11541 18.2675L1.11534 18.6816C1.11462 19.2425 1.114 19.7274 1.25184 20.1474C1.52311 20.9739 2.17133 21.6221 2.99785 21.8934C3.41783 22.0312 3.90272 22.0306 4.46365 22.0299L4.91983 22.0298C5.28915 22.0302 5.60729 22.0304 5.89077 21.9703C6.94868 21.7461 7.77515 20.9196 7.99942 19.8617C8.05952 19.5782 8.05925 19.2601 8.05894 18.8907L8.05889 18.8094C8.05889 18.7351 8.05899 18.6971 8.05975 18.6699L8.06253 18.6658L8.06585 18.6614L8.09419 18.651C8.11355 18.644 8.13601 18.6361 8.16669 18.6253C9.4543 18.1731 10.8399 17.9267 12.285 17.9267C13.7301 17.9267 15.1157 18.1731 16.4033 18.6253C16.434 18.6361 16.4564 18.644 16.4758 18.651L16.5041 18.6614L16.5075 18.6658L16.5102 18.6699C16.511 18.6971 16.5111 18.7351 16.5111 18.8094L16.511 18.8907C16.5107 19.2601 16.5105 19.5782 16.5706 19.8617C16.7948 20.9196 17.6213 21.7461 18.6792 21.9703C18.9627 22.0304 19.2808 22.0302 19.6502 22.0298L20.1063 22.0299C20.6673 22.0306 21.1522 22.0312 21.5721 21.8934ZM21.5855 19.5787C21.4951 19.8542 21.279 20.0703 21.0035 20.1607C20.8999 20.1947 20.7398 20.2062 19.9828 20.2062H19.7315C19.2342 20.2062 19.1273 20.2012 19.0574 20.1864C18.7048 20.1116 18.4293 19.8361 18.3545 19.4835C18.3397 19.4136 18.3347 19.3067 18.3347 18.8094L18.3347 18.7791C18.3349 18.6632 18.3352 18.5164 18.3102 18.3655C18.2211 17.8267 17.867 17.327 17.3882 17.0644C17.2546 16.9911 17.1285 16.947 17.0304 16.9127L17.0076 16.9048C15.5285 16.3852 13.9387 16.1031 12.285 16.1031C10.6313 16.1031 9.04148 16.3852 7.56236 16.9048L7.53962 16.9127C7.44149 16.947 7.31534 16.9911 7.1818 17.0644C6.70298 17.327 6.34891 17.8267 6.25975 18.3655C6.23478 18.5164 6.23504 18.6632 6.23525 18.7791L6.23529 18.8094C6.23529 19.3067 6.23029 19.4136 6.21547 19.4835C6.14071 19.8361 5.86522 20.1116 5.51259 20.1864C5.44265 20.2012 5.33581 20.2062 4.83845 20.2062H4.58717C3.83021 20.2062 3.67012 20.1947 3.56651 20.1607C3.291 20.0703 3.07493 19.8542 2.98451 19.5787C2.95051 19.4751 2.93904 19.315 2.93904 18.5581V18.3548C2.93904 17.6324 2.94615 17.4306 3.00686 17.2142C3.07724 16.9634 3.29227 16.5973 3.47701 16.4136C3.64139 16.2502 3.76429 16.1757 4.24624 15.9068C6.6248 14.58 9.36519 13.8236 12.285 13.8236C15.2048 13.8236 17.9452 14.58 20.3237 15.9068C20.8057 16.1757 20.9286 16.2502 21.093 16.4136C21.2777 16.5973 21.4927 16.9634 21.5631 17.2142C21.6238 17.4306 21.6309 17.6324 21.6309 18.3548V18.5581C21.6309 19.315 21.6195 19.4751 21.5855 19.5787Z" fill="black"/>
</svg>
