<svg width="24" height="24" viewBox="0 0 24 24" fill="none" xmlns="http://www.w3.org/2000/svg">
<path fill-rule="evenodd" clip-rule="evenodd" d="M12.8307 1.03067C12.8492 1.03242 12.8655 1.03396 12.8795 1.03508C14.0229 1.12675 15.1468 1.39687 16.2099 1.83723C17.5445 2.39003 18.7571 3.20028 19.7786 4.22173C20.8 5.24317 21.6103 6.4558 22.1631 7.79038C22.6034 8.8535 22.8736 9.97741 22.9652 11.1208C22.9663 11.1348 22.9679 11.1512 22.9696 11.1696C22.9869 11.352 23.0237 11.7412 22.8633 12.105C22.7311 12.4049 22.492 12.6639 22.2037 12.8197C21.9836 12.9385 21.7723 12.9743 21.6166 12.9884C21.487 13 21.3415 13 21.2242 12.9999C21.2161 12.9999 21.2082 12.9999 21.2004 12.9999H12.8004C12.7928 12.9999 12.7851 12.9999 12.7773 12.9999C12.6582 13 12.5159 13 12.3906 12.9898C12.2454 12.9779 12.0374 12.9475 11.8194 12.8364C11.5372 12.6926 11.3077 12.4631 11.1639 12.1809C11.0528 11.9629 11.0224 11.755 11.0105 11.6097C11.0003 11.4844 11.0004 11.3421 11.0004 11.223C11.0004 11.2152 11.0004 11.2075 11.0004 11.1999V2.7999C11.0004 2.79213 11.0004 2.7842 11.0004 2.77615C11.0003 2.65885 11.0003 2.51334 11.0119 2.38369C11.026 2.22796 11.0618 2.01668 11.1806 1.79664C11.3364 1.5083 11.5954 1.26918 11.8953 1.13698C12.2591 0.976578 12.6483 1.01341 12.8307 1.03067ZM13.0004 3.05563V10.9999H20.9447C20.8509 10.1613 20.6395 9.33839 20.3153 8.55575C19.863 7.46382 19.2001 6.47167 18.3644 5.63594C17.5286 4.80021 16.5365 4.13728 15.4446 3.68499C14.6619 3.3608 13.839 3.14939 13.0004 3.05563ZM8.91694 2.42994C9.13783 2.93613 8.90655 3.52554 8.40036 3.74643C7.05296 4.33442 5.8701 5.24352 4.9552 6.39426C4.04031 7.545 3.42123 8.90234 3.1521 10.3476C2.88297 11.7929 2.97197 13.2821 3.41133 14.685C3.8507 16.0879 4.62704 17.3618 5.67248 18.3954C6.71793 19.429 8.00065 20.1907 9.40849 20.614C10.8163 21.0374 12.3065 21.1094 13.7486 20.8237C15.1907 20.5381 16.5408 19.9036 17.6811 18.9756C18.8213 18.0476 19.7168 16.8545 20.2894 15.5004C20.5045 14.9918 21.0912 14.7538 21.5999 14.9689C22.1085 15.184 22.3465 15.7707 22.1314 16.2794C21.4316 17.9343 20.3371 19.3926 18.9435 20.5268C17.5499 21.661 15.8997 22.4365 14.1371 22.7856C12.3746 23.1347 10.5533 23.0467 8.8326 22.5293C7.1119 22.012 5.54413 21.0809 4.26637 19.8177C2.9886 18.5544 2.03974 16.9974 1.50274 15.2827C0.965745 13.568 0.856961 11.7479 1.1859 9.98147C1.51484 8.21503 2.27149 6.55606 3.38969 5.1496C4.5079 3.74314 5.95361 2.63202 7.60044 1.91337C8.10663 1.69248 8.69604 1.92376 8.91694 2.42994Z" fill="black"/>
</svg>
