<svg width="24" height="24" viewBox="0 0 24 24" fill="none" xmlns="http://www.w3.org/2000/svg">
<path d="M12.8803 1.92604C12.8803 1.7533 12.9923 1.47636 13.3177 1.4983C18.3669 1.71491 22.4074 5.84155 22.5031 10.9334C22.5031 11.1911 22.3746 11.3693 22.0684 11.3693H13.3067C13.0716 11.3693 12.8803 11.1774 12.8803 10.9416V1.92604Z" fill="black"/>
<path d="M11.4997 13.1242H20.234C20.48 13.1242 20.6796 13.3326 20.6605 13.5793C20.2723 18.9399 15.5183 23.0857 9.94417 22.4358C5.58111 21.9258 2.04638 18.364 1.55977 13.9879C0.92554 8.33125 5.18472 3.51638 10.6303 3.2559C10.8682 3.24493 11.0705 3.44509 11.0705 3.68638V12.6937C11.0705 12.9295 11.2618 13.1242 11.4997 13.1242Z" fill="black"/>
</svg>
