<svg width="24" height="24" viewBox="0 0 24 24" fill="none" xmlns="http://www.w3.org/2000/svg">
<path fill-rule="evenodd" clip-rule="evenodd" d="M11.5 2C9.01472 2 7 4.01472 7 6.5C7 6.74312 7.01937 6.98218 7.05673 7.21557C5.47185 8.29794 4.35477 10.0145 4.07081 12H4C3.44772 12 3 11.5523 3 11C3 10.6311 3.19922 10.3076 3.50073 10.1332C3.97879 9.85662 4.14215 9.24489 3.86561 8.76683C3.58906 8.28877 2.97733 8.1254 2.49927 8.40195C1.60518 8.91915 1 9.88831 1 11C1 12.6568 2.34315 14 4 14H4.07091C4.28686 15.5082 4.98384 16.862 5.99993 17.899L5.99992 20.2231C5.99988 20.3422 5.99982 20.4845 6.01006 20.6098C6.02193 20.755 6.05237 20.963 6.16342 21.181C6.30723 21.4632 6.5367 21.6927 6.81894 21.8365C7.03689 21.9475 7.24488 21.978 7.3901 21.9899C7.51542 22.0001 7.65768 22 7.7768 22H9.72306C9.84218 22 9.98444 22.0001 10.1098 21.9899C10.255 21.978 10.463 21.9475 10.6809 21.8365C10.9632 21.6927 11.1926 21.4632 11.3364 21.181C11.4475 20.963 11.4779 20.755 11.4898 20.6098C11.5 20.4845 11.5 20.3422 11.4999 20.2231L11.4999 20H12.4999L12.4999 20.2231C12.4999 20.3422 12.4998 20.4845 12.5101 20.6098C12.5219 20.755 12.5524 20.963 12.6634 21.181C12.8072 21.4632 13.0367 21.6927 13.3189 21.8365C13.5369 21.9475 13.7449 21.978 13.8901 21.9899C14.0154 22.0001 14.1577 22 14.2768 22H16.2231C16.3422 22 16.4845 22.0001 16.6098 21.9899C16.755 21.978 16.963 21.9475 17.181 21.8365C17.4632 21.6927 17.6927 21.4632 17.8365 21.181C17.9476 20.963 17.978 20.755 17.9899 20.6098C18.0001 20.4845 18.0001 20.3423 18 20.2232L18 19.3261C19.1062 18.8007 20.0517 17.9945 20.7452 17L21.2231 17C21.3422 17 21.4845 17.0001 21.6098 16.9899C21.755 16.978 21.963 16.9475 22.181 16.8365C22.4632 16.6927 22.6927 16.4632 22.8365 16.181C22.9476 15.963 22.978 15.755 22.9899 15.6098C23.0001 15.4845 23.0001 15.3423 23 15.2232L23 11.7857L23.0002 11.7549C23.0013 11.6404 23.0039 11.3702 22.9378 11.1143C22.8458 10.7581 22.6149 10.3721 22.1509 10.1486C21.9411 10.0475 21.7428 10.02 21.6047 10.0092C21.5155 10.0023 21.4174 10.0005 21.3262 10.0001C20.9905 9.29336 20.5403 8.65243 20 8.10101L20 7.03243C20.0001 6.87762 20.0001 6.70231 19.9867 6.5516C19.9718 6.38516 19.9331 6.12783 19.7751 5.87278C19.578 5.55479 19.2693 5.3219 18.9094 5.2198C18.6207 5.13791 18.3627 5.17135 18.1986 5.20281C18.0499 5.2313 17.8814 5.2795 17.7326 5.32208L15.9506 5.8312C15.6276 3.6631 13.758 2 11.5 2ZM14.8956 7.99767C14.9375 8.0006 14.9789 8.00089 15.0199 7.99866C15.1416 7.99951 15.2641 7.99999 15.3874 7.99999L15.401 8.00001C15.4215 8.00004 15.4509 8.00009 15.4735 7.99972C15.5097 7.99912 15.5681 7.99724 15.6383 7.98741C15.7086 7.97757 15.7654 7.96329 15.8004 7.95391C15.8218 7.94816 15.85 7.94006 15.8693 7.93448L15.8824 7.93073L18 7.32571V8.17016L17.9999 8.19586C17.9992 8.28743 17.9979 8.47465 18.041 8.65525C18.0783 8.81142 18.1354 8.94986 18.2189 9.08703C18.3159 9.24634 18.4573 9.38676 18.5284 9.45746L18.5494 9.47837C18.9583 9.89045 19.2955 10.3728 19.5415 10.905L19.5484 10.9199C19.5883 11.0062 19.6324 11.1016 19.6746 11.182C19.719 11.2665 19.7951 11.4019 19.9176 11.5313C20.0907 11.7141 20.2891 11.841 20.5277 11.9214C20.69 11.9761 20.863 11.9935 21 11.9987V15H20.6587L20.6259 14.9998C20.5101 14.9988 20.2735 14.9967 20.052 15.063C19.8607 15.1202 19.6959 15.207 19.5405 15.3324C19.3597 15.4781 19.219 15.6872 19.1478 15.793L19.1265 15.8244C18.62 16.5628 17.9206 17.1582 17.1026 17.538L17.0869 17.5453C16.9968 17.5871 16.8969 17.6334 16.8131 17.6779C16.7245 17.7249 16.5832 17.8055 16.4499 17.9362C16.2824 18.1004 16.1647 18.2847 16.0863 18.5058C15.9953 18.7623 15.9983 19.0455 15.9997 19.1845L16 19.2243V20H14.4999L14.4999 19.7769C14.5 19.6577 14.5 19.5155 14.4898 19.3902C14.4779 19.2449 14.4475 19.0369 14.3364 18.819C14.1926 18.5368 13.9632 18.3073 13.6809 18.1635C13.463 18.0524 13.255 18.022 13.1098 18.0101C12.9844 17.9999 12.8422 17.9999 12.7231 18H11.2768C11.1577 17.9999 11.0154 17.9999 10.8901 18.0101C10.7449 18.022 10.5369 18.0524 10.3189 18.1635C10.0367 18.3073 9.80723 18.5368 9.66342 18.819C9.55237 19.0369 9.52193 19.2449 9.51006 19.3902C9.49982 19.5155 9.49988 19.6577 9.49992 19.7768L9.49993 20H7.99993V17.8298L8.00006 17.8041C8.00071 17.7126 8.00203 17.5253 7.95889 17.3447C7.92159 17.1885 7.86456 17.0501 7.78102 16.9129C7.684 16.7536 7.54267 16.6132 7.47149 16.5425L7.45053 16.5216C6.55279 15.6168 5.99993 14.3739 5.99993 13C5.99993 11.0828 7.07931 9.41722 8.66327 8.57831C8.67051 8.57461 8.67768 8.57083 8.68479 8.56697C9.28813 8.25119 9.96389 8.05503 10.6806 8.00999C11.7179 7.9448 12.7395 7.96283 13.8024 7.98159C14.1614 7.98792 14.525 7.99434 14.8956 7.99767ZM13.9465 5.9831C13.7084 4.85041 12.7035 4 11.5 4C10.1909 4 9.11683 5.00617 9.00892 6.28735C9.50366 6.14083 10.0213 6.04748 10.5551 6.01393C11.6727 5.94369 12.8324 5.96379 13.939 5.98297C13.9415 5.98301 13.944 5.98305 13.9465 5.9831Z" fill="black"/>
</svg>
