<svg width="24" height="24" viewBox="0 0 24 24" fill="none" xmlns="http://www.w3.org/2000/svg">
<path fill-rule="evenodd" clip-rule="evenodd" d="M13.2741 1.55335C13.7148 1.26429 14.2518 1.16087 14.7684 1.26559C15.1584 1.34464 15.4563 1.55475 15.6784 1.73985C15.8906 1.91675 16.1282 2.15437 16.3839 2.41012L21.5831 7.60932C21.8388 7.86502 22.0764 8.1026 22.2533 8.31482C22.4384 8.53687 22.6485 8.83483 22.7276 9.2248C22.8323 9.74135 22.7289 10.2783 22.4398 10.7191C22.2216 11.0518 21.9159 11.2504 21.6615 11.3878C21.4185 11.5192 21.1096 11.6515 20.7771 11.794L18.2464 12.8786C18.1896 12.9029 18.1619 12.9148 18.1419 12.924C18.1414 12.9242 18.141 12.9244 18.1405 12.9246C18.1402 12.9249 18.1398 12.9252 18.1394 12.9256C18.1235 12.9408 18.1022 12.9621 18.0585 13.0058L16.4976 14.5667C16.4293 14.635 16.3957 14.6687 16.3721 14.694C16.3715 14.6946 16.371 14.6952 16.3704 14.6958C16.3703 14.6966 16.3701 14.6974 16.3699 14.6982C16.3619 14.7319 16.3524 14.7786 16.3335 14.8733L15.5921 18.5802C15.5042 19.0198 15.4252 19.4152 15.333 19.7256C15.2407 20.0362 15.089 20.4374 14.747 20.7408C14.3096 21.1289 13.7242 21.3062 13.1449 21.2259C12.6921 21.1631 12.3433 20.9134 12.0942 20.7062C11.8453 20.4991 11.5603 20.214 11.2432 19.8969L8.37684 17.0305L3.42708 21.9803C3.03655 22.3708 2.40339 22.3708 2.01286 21.9803C1.62234 21.5897 1.62234 20.9566 2.01286 20.5661L6.96262 15.6163L4.0963 12.75C3.77922 12.4329 3.4941 12.1479 3.287 11.899C3.07975 11.6499 2.83008 11.3011 2.7673 10.8483C2.687 10.269 2.86424 9.68362 3.25237 9.24619C3.5558 8.90422 3.95703 8.75248 4.26762 8.66021C4.57799 8.56801 4.97337 8.48896 5.41306 8.40105L9.11993 7.65968C9.21463 7.64074 9.26125 7.63128 9.29496 7.62331C9.29579 7.62311 9.29659 7.62292 9.29736 7.62274C9.29794 7.6222 9.29854 7.62164 9.29916 7.62106C9.32449 7.59744 9.35823 7.56389 9.42652 7.4956L10.9874 5.93471C11.0311 5.891 11.0524 5.86964 11.0676 5.85375C11.0679 5.85338 11.0683 5.85302 11.0686 5.85267C11.0688 5.85223 11.069 5.85178 11.0692 5.85131C11.0783 5.83131 11.0903 5.80362 11.1146 5.7468L12.1992 3.21604C12.3417 2.8836 12.474 2.57473 12.6054 2.33165C12.7428 2.07733 12.9414 1.77158 13.2741 1.55335ZM12.6268 18.4521C12.9842 18.8095 13.2039 19.0277 13.3735 19.1688C13.3844 19.1779 13.3946 19.1863 13.4042 19.1939C13.4079 19.1823 13.4117 19.1697 13.4158 19.156C13.4786 18.9445 13.5403 18.6411 13.6394 18.1455L14.3723 14.481C14.3747 14.4691 14.3771 14.4569 14.3796 14.4443C14.4069 14.3066 14.4412 14.1331 14.5072 13.9648C14.5646 13.8187 14.6389 13.6798 14.7287 13.551C14.8321 13.4028 14.9574 13.278 15.0569 13.1789C15.0659 13.1699 15.0748 13.161 15.0834 13.1525L16.6443 11.5916C16.6497 11.5861 16.6553 11.5805 16.6611 11.5747C16.7247 11.5109 16.8048 11.4306 16.8963 11.358C16.9757 11.2948 17.0599 11.2378 17.1481 11.1875C17.2495 11.1296 17.3538 11.085 17.4366 11.0496C17.4441 11.0464 17.4514 11.0433 17.4585 11.0403L19.9529 9.97126C20.3343 9.80778 20.5575 9.71108 20.7108 9.62827C20.719 9.62384 20.7266 9.61963 20.7337 9.61565C20.7286 9.60932 20.7231 9.60258 20.7171 9.59542C20.6056 9.46162 20.4343 9.28895 20.1408 8.9955L14.9977 3.85237C14.7042 3.55892 14.5316 3.38763 14.3978 3.2761C14.3906 3.27013 14.3839 3.26461 14.3775 3.2595C14.3736 3.26659 14.3693 3.27422 14.3649 3.28242C14.2821 3.43567 14.1854 3.65884 14.0219 4.04028L12.9529 6.53464C12.9499 6.54176 12.9467 6.54908 12.9435 6.55657C12.9082 6.6394 12.8636 6.74374 12.8057 6.84511C12.7553 6.93326 12.6983 7.01744 12.6352 7.09693C12.5626 7.18835 12.4823 7.26848 12.4185 7.33209C12.4127 7.33784 12.4071 7.34345 12.4016 7.34893L10.8407 8.90981C10.8321 8.9184 10.8233 8.92725 10.8143 8.9363C10.7152 9.03579 10.5904 9.16111 10.4422 9.2645C10.3134 9.3543 10.1745 9.42863 10.0284 9.48595C9.86011 9.55195 9.6866 9.58629 9.54885 9.61356C9.53631 9.61604 9.52407 9.61846 9.51216 9.62084L5.84769 10.3537C5.35206 10.4529 5.04869 10.5146 4.83716 10.5774C4.82353 10.5815 4.81093 10.5853 4.79931 10.589C4.80693 10.5985 4.81525 10.6088 4.82435 10.6197C4.9655 10.7893 5.18369 11.0089 5.5411 11.3663L12.6268 18.4521Z" fill="black"/>
</svg>
