<svg width="24" height="24" viewBox="0 0 24 24" fill="none" xmlns="http://www.w3.org/2000/svg">
<path fill-rule="evenodd" clip-rule="evenodd" d="M17.0263 2.11716C18.3796 0.719346 20.6156 0.701264 21.9914 2.07701C23.3294 3.41506 23.3543 5.57666 22.0475 6.94519L19.2688 9.85496C19.1524 9.97686 19.0935 10.039 19.0532 10.0863C19.052 10.0877 19.0509 10.089 19.0499 10.0902C19.0502 10.0918 19.0505 10.0935 19.0508 10.0952C19.0613 10.1565 19.0802 10.24 19.1181 10.4042L20.846 17.8918C20.851 17.9133 20.8561 17.9354 20.8614 17.958C20.9184 18.2011 20.9901 18.507 20.9661 18.8191C20.9453 19.0892 20.8699 19.3522 20.7444 19.5922C20.5993 19.8696 20.3764 20.091 20.1993 20.2669C20.1828 20.2833 20.1667 20.2993 20.151 20.3149L19.7511 20.7148C19.4732 20.9928 19.2181 21.2479 18.9922 21.436C18.7595 21.6296 18.4422 21.8541 18.0279 21.9274C17.4862 22.0232 16.9289 21.8916 16.4873 21.5637C16.1495 21.3128 15.9661 20.9702 15.8446 20.6929C15.7266 20.4236 15.6125 20.0814 15.4882 19.7084L13.9771 15.1751L11.7759 17.3763C11.6691 17.4832 11.6155 17.5372 11.5785 17.5782C11.5775 17.5794 11.5765 17.5804 11.5756 17.5815C11.5756 17.5829 11.5757 17.5843 11.5758 17.5858C11.5791 17.641 11.5872 17.7167 11.6039 17.8668L11.7876 19.5202C11.7897 19.5393 11.7919 19.5589 11.7942 19.579C11.819 19.7962 11.8503 20.0696 11.8067 20.3427C11.769 20.5793 11.689 20.8072 11.5707 21.0155C11.4341 21.256 11.2389 21.45 11.0838 21.6041C11.0695 21.6183 11.0555 21.6323 11.042 21.6458L10.8445 21.8433L10.819 21.8688C10.6045 22.0833 10.4003 22.2876 10.2151 22.443C10.0161 22.61 9.75678 22.7935 9.41709 22.882C8.956 23.0022 8.46715 22.9538 8.03858 22.7455C7.72285 22.5921 7.50456 22.3613 7.34212 22.1585C7.19108 21.9698 7.03087 21.7295 6.86264 21.4771L5.27432 19.0946C5.23872 19.0412 5.22129 19.0152 5.20819 18.9965C5.20788 18.996 5.20758 18.9956 5.20729 18.9952C5.20689 18.9949 5.20646 18.9946 5.20603 18.9943C5.18734 18.9812 5.16131 18.9638 5.10791 18.9282L2.72545 17.3399C2.47302 17.1716 2.23265 17.0114 2.04402 16.8604C1.84115 16.6979 1.61043 16.4796 1.457 16.1639C1.24874 15.7353 1.20034 15.2465 1.3205 14.7854C1.40903 14.4457 1.59246 14.1864 1.75953 13.9874C1.91489 13.8022 2.11918 13.598 2.33371 13.3835L2.55667 13.1605C2.57024 13.147 2.58414 13.133 2.59838 13.1187C2.75249 12.9636 2.94648 12.7684 3.18698 12.6318C3.3953 12.5135 3.62319 12.4335 3.8598 12.3958C4.13293 12.3522 4.40633 12.3835 4.62353 12.4083C4.64361 12.4106 4.6632 12.4128 4.68227 12.4149L6.33566 12.5986C6.48583 12.6153 6.56149 12.6234 6.61668 12.6267C6.61819 12.6268 6.61964 12.6269 6.62103 12.6269C6.62206 12.626 6.62314 12.625 6.62426 12.624C6.66532 12.587 6.71934 12.5334 6.82618 12.4266L9.02738 10.2254L4.49405 8.71426C4.12109 8.58997 3.77885 8.47593 3.5096 8.35793C3.23229 8.23641 2.88966 8.05304 2.63883 7.71523C2.31087 7.27356 2.17931 6.71629 2.27513 6.17457C2.34841 5.76025 2.57286 5.44301 2.76654 5.2103C2.9546 4.98435 3.2097 4.72929 3.48771 4.45133C3.49739 4.44165 3.50709 4.43195 3.51682 4.42222L3.88759 4.05145C3.9032 4.03585 3.91919 4.01974 3.93557 4.00325C4.11153 3.82606 4.33287 3.60319 4.61031 3.45814C4.85033 3.33265 5.11334 3.25722 5.38338 3.23642C5.69553 3.21238 6.00134 3.28407 6.24446 3.34106C6.2671 3.34637 6.2892 3.35155 6.3107 3.35651L13.7698 5.07785C13.9354 5.11606 14.02 5.13519 14.082 5.14586C14.0838 5.14618 14.0856 5.14648 14.0872 5.14676C14.0885 5.14561 14.0898 5.14441 14.0912 5.14314C14.1374 5.10048 14.198 5.03847 14.3162 4.91638L17.0263 2.11716ZM20.5771 3.49122C19.9914 2.90547 19.0394 2.91317 18.4632 3.50832L15.7531 6.30753C15.738 6.32313 15.7225 6.33922 15.7066 6.3557C15.5366 6.53252 15.3229 6.75476 15.0541 6.90294C14.8004 7.04277 14.5194 7.12583 14.2305 7.14637C13.9243 7.16815 13.6241 7.0978 13.3853 7.04183C13.363 7.03661 13.3413 7.03152 13.3201 7.02663L5.86098 5.30529C5.69244 5.2664 5.60654 5.24697 5.54354 5.23621C5.54173 5.2359 5.53999 5.2356 5.53833 5.23533C5.53707 5.23644 5.53575 5.23761 5.53438 5.23883C5.48666 5.28135 5.42411 5.34335 5.3018 5.46567L4.93103 5.83644C4.61417 6.1533 4.42595 6.34293 4.30377 6.48973C4.29674 6.49818 4.29026 6.50611 4.28429 6.51353C4.29295 6.5175 4.30229 6.5217 4.31236 6.52611C4.48729 6.60277 4.74044 6.6882 5.16556 6.82991L11.1948 8.83967C11.5236 8.94927 11.7722 9.22129 11.8519 9.5586C11.9315 9.89591 11.8308 10.2504 11.5857 10.4955L8.2404 13.8408C8.22683 13.8544 8.21292 13.8683 8.19868 13.8827C8.04457 14.0377 7.85059 14.2329 7.61009 14.3695C7.40176 14.4878 7.17387 14.5678 6.93727 14.6055C6.66413 14.6491 6.39074 14.6179 6.17353 14.5931C6.15346 14.5908 6.13386 14.5885 6.1148 14.5864L4.46141 14.4027C4.31124 14.386 4.23557 14.3779 4.18038 14.3746C4.17888 14.3746 4.17743 14.3745 4.17604 14.3744C4.17501 14.3753 4.17393 14.3763 4.17281 14.3773C4.13175 14.4143 4.07772 14.4679 3.97089 14.5748L3.77338 14.7723C3.5241 15.0215 3.38367 15.1632 3.29151 15.2731C3.28726 15.2781 3.2833 15.2829 3.2796 15.2874C3.28411 15.2911 3.28894 15.2951 3.2941 15.2992C3.40601 15.3888 3.5715 15.5002 3.86482 15.6958L6.21731 17.2641C6.224 17.2685 6.23088 17.2731 6.23792 17.2778C6.31578 17.3295 6.41386 17.3948 6.50601 17.4734C6.58615 17.5418 6.66074 17.6164 6.72911 17.6965C6.80775 17.7886 6.87295 17.8867 6.92471 17.9646C6.92939 17.9716 6.93396 17.9785 6.93842 17.9852L8.50674 20.3377C8.70229 20.631 8.8137 20.7965 8.90331 20.9084C8.90744 20.9136 8.91136 20.9184 8.91507 20.9229C8.91959 20.9192 8.92438 20.9152 8.92944 20.911C9.03926 20.8188 9.18096 20.6784 9.43023 20.4291L9.62774 20.2316C9.73458 20.1248 9.78817 20.0707 9.8252 20.0297C9.82621 20.0286 9.82718 20.0275 9.8281 20.0265C9.82802 20.0251 9.82794 20.0236 9.82785 20.0221C9.82459 19.9669 9.81649 19.8913 9.79981 19.7411L9.6161 18.0877C9.61398 18.0686 9.61174 18.049 9.60945 18.029C9.58464 17.8118 9.55342 17.5384 9.59698 17.2652C9.63472 17.0286 9.71466 16.8007 9.83299 16.5924C9.9696 16.3519 10.1648 16.1579 10.3198 16.0038C10.3342 15.9896 10.3481 15.9757 10.3617 15.9621L13.707 12.6168C13.9521 12.3717 14.3066 12.271 14.6439 12.3506C14.9812 12.4303 15.2532 12.6789 15.3628 13.0077L17.3726 19.0369C17.5143 19.4621 17.5997 19.7152 17.6764 19.8901C17.6808 19.9002 17.685 19.9095 17.689 19.9182C17.6964 19.9122 17.7043 19.9058 17.7128 19.8987C17.8596 19.7765 18.0492 19.5883 18.3661 19.2715L18.7368 18.9007C18.8591 18.7784 18.9211 18.7158 18.9637 18.6681C18.9649 18.6667 18.9661 18.6654 18.9672 18.6642C18.9669 18.6625 18.9666 18.6608 18.9663 18.659C18.9555 18.596 18.9361 18.5101 18.8972 18.3415L17.1693 10.854C17.1645 10.833 17.1594 10.8115 17.1543 10.7895C17.0987 10.5525 17.0288 10.2543 17.0502 9.94918C17.0687 9.68519 17.1394 9.4275 17.2582 9.19103C17.3955 8.91777 17.6078 8.69698 17.7765 8.52148C17.7922 8.50517 17.8075 8.48924 17.8224 8.4737L20.601 5.56394C21.1575 4.98126 21.1468 4.06092 20.5771 3.49122Z" fill="black"/>
</svg>
