<svg width="24" height="24" viewBox="0 0 24 24" fill="none" xmlns="http://www.w3.org/2000/svg">
<path fill-rule="evenodd" clip-rule="evenodd" d="M21.9892 12.7034C21.9915 12.7688 21.9805 12.8339 21.9569 12.8949C21.9333 12.9559 21.8975 13.0114 21.8518 13.0582C21.8061 13.1049 21.7513 13.1419 21.6909 13.1669C21.6305 13.1918 21.5656 13.2043 21.5002 13.2034H20.4982C20.2222 13.2034 19.9997 12.9794 19.9847 12.7034C19.7342 8.12591 16.0672 4.45891 11.4897 4.20841C11.2137 4.19341 10.9897 3.97091 10.9897 3.69491V2.69291C10.9888 2.62753 11.0013 2.56265 11.0262 2.50221C11.0512 2.44177 11.0882 2.38703 11.1349 2.3413C11.1817 2.29558 11.2372 2.25983 11.2982 2.23621C11.3592 2.21259 11.4243 2.20161 11.4897 2.20391C17.1732 2.45791 21.7352 7.01991 21.9892 12.7034ZM17.9787 12.7034C17.9982 12.9789 17.7727 13.2034 17.4967 13.2034H16.4947C16.2182 13.2034 15.9972 12.9789 15.9702 12.7039C15.8545 11.5549 15.3452 10.4811 14.5286 9.66452C13.712 8.84791 12.6382 8.33863 11.4892 8.22291C11.2142 8.19591 10.9897 7.97491 10.9897 7.69841V6.69641C10.9897 6.42041 11.2142 6.19491 11.4897 6.21441C14.9607 6.45891 17.7342 9.23241 17.9787 12.7034ZM6.0572 8.91041L3.8982 11.0699C1.6312 13.3369 1.4022 16.8584 3.2322 19.3119L2.6342 19.9099C2.4912 20.0529 2.4537 20.1199 2.4292 20.1999C2.40431 20.278 2.40344 20.3618 2.4267 20.4404C2.4502 20.5199 2.4862 20.5854 2.6267 20.7264L3.0802 21.1799C3.2212 21.3204 3.2867 21.3564 3.3662 21.3799C3.44491 21.4034 3.52889 21.4027 3.6072 21.3779C3.6872 21.3529 3.7537 21.3159 3.8972 21.1729L4.4947 20.5749C6.9482 22.4049 10.4697 22.1754 12.7372 19.9084L14.8962 17.7494C15.0397 17.6059 15.0767 17.5394 15.1017 17.4594C15.1264 17.3813 15.1271 17.2975 15.1037 17.2189C15.0802 17.1389 15.0442 17.0734 14.9037 16.9324L13.4142 15.4434L13.9662 14.8909C14.1097 14.7479 14.1472 14.6809 14.1717 14.6009C14.1965 14.523 14.1974 14.4394 14.1742 14.3609C14.1507 14.2809 14.1142 14.2149 13.9742 14.0744L13.5202 13.6209C13.3802 13.4804 13.3137 13.4439 13.2342 13.4209C13.1556 13.3975 13.0719 13.3982 12.9937 13.4229C12.9137 13.4479 12.8472 13.4849 12.7037 13.6279L12.1517 14.1804L9.6262 11.6554L10.1782 11.1029C10.3217 10.9599 10.3587 10.8929 10.3837 10.8129C10.4086 10.7348 10.4095 10.651 10.3862 10.5724C10.3627 10.4929 10.3262 10.4274 10.1862 10.2864L9.7322 9.83291C9.5917 9.69241 9.5257 9.65591 9.4462 9.63291C9.36748 9.60939 9.28351 9.61009 9.2052 9.63491C9.1252 9.65991 9.0587 9.69691 8.9157 9.83991L8.3637 10.3924L6.8737 8.90291C6.7337 8.76241 6.6672 8.72641 6.5882 8.70291C6.50948 8.67939 6.42551 8.68009 6.3472 8.70491C6.2672 8.72991 6.2007 8.76741 6.0572 8.91041ZM6.4467 11.0469L5.1607 12.3324C3.3857 14.1074 3.3602 16.9599 5.1032 18.7034C6.8467 20.4469 9.6992 20.4209 11.4742 18.6459L12.7602 17.3604L6.4467 11.0469Z" fill="black"/>
</svg>
