<svg width="24" height="24" viewBox="0 0 24 24" fill="none" xmlns="http://www.w3.org/2000/svg"><path d="M2 7C2 5.89544 2.89544 5 4 5H20C21.1046 5 22 5.89545 22 7V11C22 11.5523 21.5523 12 21 12C20.4477 12 20 11.5523 20 11V7H4V17H11C11.5523 17 12 17.4477 12 18C12 18.5523 11.5523 19 11 19H4C2.89545 19 2 18.1046 2 17V7Z" fill="black"/><path d="M6 10C6 9.44772 6.44772 9 7 9H11C11.5523 9 12 9.44772 12 10C12 10.5523 11.5523 11 11 11H7C6.44772 11 6 10.5523 6 10Z" fill="black"/><path d="M7 12C6.44772 12 6 12.4477 6 13C6 13.5523 6.44772 14 7 14H8C8.55228 14 9 13.5523 9 13C9 12.4477 8.55228 12 8 12H7Z" fill="black"/><path d="M17.4142 15H19C19.5523 15 20 14.5523 20 14C20 13.4477 19.5523 13 19 13H15C14.4477 13 14 13.4477 14 14V18C14 18.5523 14.4477 19 15 19C15.5523 19 16 18.5523 16 18V16.4142L19.2929 19.7071C19.6834 20.0976 20.3166 20.0976 20.7071 19.7071C21.0976 19.3166 21.0976 18.6834 20.7071 18.2929L17.4142 15Z" fill="black"/></svg>