<svg width="24" height="24" viewBox="0 0 24 24" fill="none" xmlns="http://www.w3.org/2000/svg">
<path fill-rule="evenodd" clip-rule="evenodd" d="M8.18714 4.98239C8.72821 4.87935 9.08433 4.3579 8.98294 3.8161C8.88134 3.27324 8.35891 2.91553 7.81605 3.01712L8 4.00006C7.81605 3.01712 7.81555 3.01722 7.81502 3.01731L7.81386 3.01753L7.81111 3.01806L7.80396 3.01944L7.78314 3.0236C7.76642 3.02701 7.74405 3.03171 7.7164 3.03783C7.66113 3.05007 7.58464 3.06802 7.48995 3.0927C7.30081 3.14201 7.03761 3.21855 6.72487 3.33073C6.1023 3.55404 5.26693 3.92445 4.42555 4.51493C2.71573 5.71488 1 7.82109 1 11.2987V18.0001C1 19.657 2.34315 21.0001 4 21.0001H8C9.65685 21.0001 11 19.657 11 18.0001V14.0001C11 12.3433 9.65685 11.0001 8 11.0001H4C3.64973 11.0001 3.31348 11.0602 3.00098 11.1705C3.04098 8.55151 4.30485 7.04301 5.57445 6.15201C6.23307 5.6898 6.8977 5.3935 7.40013 5.21328C7.64989 5.1237 7.85544 5.06426 7.99443 5.02803C8.0638 5.00995 8.11621 4.99774 8.14883 4.99052C8.16513 4.98691 8.17645 4.98455 8.18243 4.98333L8.18714 4.98239ZM3 14.0001V18.0001C3 18.5524 3.44772 19.0001 4 19.0001H8C8.55228 19.0001 9 18.5524 9 18.0001V14.0001C9 13.4478 8.55228 13.0001 8 13.0001H4C3.44772 13.0001 3 13.4478 3 14.0001ZM8.00078 4.00424L8.18395 4.98299C8.18374 4.98301 8.18341 4.98126 8.16081 4.86025L8.00078 4.00424Z" fill="black"/>
<path d="M20.9829 3.8161C21.0843 4.3579 20.7282 4.87935 20.1871 4.98239L20.1856 4.98268L20.184 4.98299L20 4.00006L19.816 3.01712C20.3589 2.91553 20.8813 3.27324 20.9829 3.8161Z" fill="black"/>
<path fill-rule="evenodd" clip-rule="evenodd" d="M15.001 11.1705C15.041 8.55151 16.3049 7.04301 17.5744 6.15201C18.2331 5.6898 18.8977 5.3935 19.4001 5.21328C19.6499 5.1237 19.8554 5.06426 19.9944 5.02803C20.0638 5.00995 20.1162 4.99774 20.1488 4.99052C20.1651 4.98691 20.1765 4.98455 20.1824 4.98333L20.184 4.98299C20.1835 4.98307 20.184 4.98299 20 4.00006C19.816 3.01712 19.8155 3.01722 19.815 3.01731L19.8139 3.01753L19.8111 3.01806L19.804 3.01944L19.7831 3.0236C19.7664 3.02701 19.744 3.03171 19.7164 3.03783C19.6611 3.05007 19.5846 3.06802 19.4899 3.0927C19.3008 3.14201 19.0376 3.21855 18.7249 3.33073C18.1023 3.55404 17.2669 3.92445 16.4256 4.51493C14.7157 5.71488 13 7.82109 13 11.2987V18.0001C13 19.657 14.3431 21.0001 16 21.0001H20C21.6569 21.0001 23 19.657 23 18.0001V14.0001C23 12.3433 21.6569 11.0001 20 11.0001H16C15.6497 11.0001 15.3135 11.0602 15.001 11.1705ZM15 14.0001V18.0001C15 18.5524 15.4477 19.0001 16 19.0001H20C20.5523 19.0001 21 18.5524 21 18.0001V14.0001C21 13.4478 20.5523 13.0001 20 13.0001H16C15.4477 13.0001 15 13.4478 15 14.0001Z" fill="black"/>
</svg>
