<svg width="24" height="24" viewBox="0 0 24 24" fill="none" xmlns="http://www.w3.org/2000/svg"><path fill-rule="evenodd" clip-rule="evenodd" d="M19 12C19 10.6155 18.5895 9.26216 17.8203 8.11102C17.0511 6.95987 15.9579 6.06266 14.6788 5.53285C13.3997 5.00304 11.9922 4.86441 10.6344 5.13451C9.27651 5.40461 8.02923 6.07129 7.05026 7.05026C6.07129 8.02923 5.40461 9.27651 5.13451 10.6344C4.86441 11.9922 5.00304 13.3997 5.53285 14.6788C6.06266 15.9579 6.95987 17.0511 8.11101 17.8203C9.26216 18.5895 10.6155 19 12 19C12.8284 19 13.5 19.6716 13.5 20.5C13.5 21.3284 12.8284 22 12 22C10.0222 22 8.08879 21.4135 6.4443 20.3147C4.79981 19.2159 3.51809 17.6541 2.76121 15.8268C2.00433 13.9996 1.8063 11.9889 2.19215 10.0491C2.578 8.10929 3.53041 6.32747 4.92894 4.92894C6.32746 3.53042 8.10929 2.57801 10.0491 2.19216C11.9889 1.8063 13.9996 2.00434 15.8268 2.76121C17.6541 3.51809 19.2159 4.79981 20.3147 6.44431C21.4135 8.0888 22 10.0222 22 12C22 12.8284 21.3284 13.5 20.5 13.5C19.6716 13.5 19 12.8284 19 12ZM14.4944 10.3333C14.8241 10.8266 15 11.4067 15 12C15 12.5523 15.4477 13 16 13C16.5523 13 17 12.5523 17 12C17 11.0111 16.7068 10.0444 16.1574 9.22215C15.6079 8.39991 14.8271 7.75904 13.9134 7.38061C12.9998 7.00217 11.9945 6.90315 11.0246 7.09608C10.0546 7.289 9.16373 7.76521 8.46447 8.46447C7.76521 9.16373 7.289 10.0546 7.09608 11.0246C6.90315 11.9945 7.00217 12.9998 7.38061 13.9134C7.75905 14.8271 8.39991 15.6079 9.22215 16.1574C10.0444 16.7068 11.0111 17 12 17C12.5523 17 13 16.5523 13 16C13 15.4477 12.5523 15 12 15C11.4067 15 10.8266 14.8241 10.3333 14.4944C9.83995 14.1648 9.45543 13.6962 9.22837 13.1481C9.0013 12.5999 8.94189 11.9967 9.05765 11.4147C9.1734 10.8328 9.45913 10.2982 9.87868 9.87868C10.2982 9.45913 10.8328 9.1734 11.4147 9.05765C11.9967 8.94189 12.5999 9.0013 13.1481 9.22836C13.6962 9.45543 14.1648 9.83995 14.4944 10.3333ZM11 12C11 12.5523 11.4477 13 12 13C12.5523 13 13 12.5523 13 12C13 11.4477 12.5523 11 12 11C11.4477 11 11 11.4477 11 12ZM21.5981 16.5C21.5981 16.1427 21.4075 15.8126 21.0981 15.634L18.5 14.134C18.1906 13.9553 17.8094 13.9553 17.5 14.134L14.9019 15.634C14.5925 15.8126 14.4019 16.1427 14.4019 16.5V19.5C14.4019 19.8573 14.5925 20.1874 14.9019 20.366L17.5 21.866C17.8094 22.0447 18.1906 22.0447 18.5 21.866L21.0981 20.366C21.4075 20.1874 21.5981 19.8573 21.5981 19.5V16.5ZM16.4019 17.0774L18 16.1547L19.5981 17.0774V18.9227L18 19.8453L16.4019 18.9227V17.0774Z" fill="#333333"/></svg>