<svg width="24" height="24" viewBox="0 0 24 24" fill="none" xmlns="http://www.w3.org/2000/svg"><path fill-rule="evenodd" clip-rule="evenodd" d="M19.7486 0.943492C19.4746 0.0605565 18.3603 -0.214779 17.7066 0.438924L16.3859 1.75965C14.7321 3.41342 14.0556 5.78717 14.5558 8.0397L11.2929 11.3026C10.9024 11.6931 10.9024 12.3263 11.2929 12.7168C11.6834 13.1074 12.3166 13.1074 12.7071 12.7168L16.1097 9.31423C18.2565 9.67494 20.4737 8.98557 22.0428 7.41651L23.3635 6.09578C24.0172 5.44208 23.7419 4.32778 22.8589 4.05377L21.5263 3.64019C20.8747 3.43797 20.3644 2.92776 20.1622 2.27613L19.7486 0.943492ZM12 5C10.6155 5 9.26216 5.41054 8.11101 6.17971C6.95987 6.94888 6.06266 8.04213 5.53285 9.32122C5.00303 10.6003 4.86441 12.0078 5.13451 13.3656C5.4046 14.7235 6.07129 15.9708 7.05026 16.9497C8.02922 17.9287 9.2765 18.5954 10.6344 18.8655C11.9922 19.1356 13.3997 18.997 14.6788 18.4672C15.9579 17.9373 17.0511 17.0401 17.8203 15.889C18.5895 14.7379 19 13.3845 19 12C19 11.1716 19.6716 10.5 20.5 10.5C21.3284 10.5 22 11.1716 22 12C22 13.9778 21.4135 15.9112 20.3147 17.5557C19.2159 19.2002 17.6541 20.4819 15.8268 21.2388C13.9996 21.9957 11.9889 22.1937 10.0491 21.8079C8.10929 21.422 6.32746 20.4696 4.92894 19.0711C3.53041 17.6725 2.578 15.8907 2.19215 13.9509C1.8063 12.0111 2.00433 10.0004 2.76121 8.17317C3.51809 6.3459 4.79981 4.78412 6.4443 3.6853C8.0888 2.58649 10.0222 2 12 2C12.8284 2 13.5 2.67157 13.5 3.5C13.5 4.32843 12.8284 5 12 5ZM12 9C11.4067 9 10.8266 9.17595 10.3333 9.50559C9.83994 9.83524 9.45543 10.3038 9.22836 10.8519C9.0013 11.4001 8.94189 12.0033 9.05764 12.5853C9.1734 13.1672 9.45912 13.7018 9.87868 14.1213C10.2982 14.5409 10.8328 14.8266 11.4147 14.9424C11.9967 15.0581 12.5999 14.9987 13.1481 14.7716C13.6962 14.5446 14.1648 14.1601 14.4944 13.6667C14.8241 13.1734 15 12.5933 15 12C15 11.4477 15.4477 11 16 11C16.5523 11 17 11.4477 17 12C17 12.9889 16.7068 13.9556 16.1573 14.7779C15.6079 15.6001 14.827 16.241 13.9134 16.6194C12.9998 16.9978 11.9945 17.0969 11.0245 16.9039C10.0546 16.711 9.16373 16.2348 8.46447 15.5355C7.7652 14.8363 7.289 13.9454 7.09607 12.9755C6.90315 12.0055 7.00217 11.0002 7.3806 10.0866C7.75904 9.17295 8.3999 8.39206 9.22215 7.84265C10.0444 7.29325 11.0111 7 12 7C12.5523 7 13 7.44772 13 8C13 8.55229 12.5523 9 12 9Z" fill="#333333"/></svg>