<svg width="24" height="24" viewBox="0 0 24 24" fill="none" xmlns="http://www.w3.org/2000/svg">
<path d="M17.1053 18.1851C15.7245 19.3192 13.9573 20 12.031 20C7.61277 20 4.03105 16.4183 4.03105 12C4.03105 11.5883 4.06214 11.1839 4.12212 10.7889L5.06338 11.3456C5.43864 11.5675 5.89835 11.2364 5.80674 10.8101L5.08777 7.46523C5.02646 7.18 4.73499 7.00763 4.45551 7.09132L1.17798 8.07274C0.760333 8.1978 0.69163 8.76017 1.06689 8.9821L2.29487 9.70831C2.12232 10.4442 2.03105 11.2115 2.03105 12C2.03105 17.5228 6.5082 22 12.031 22C14.7061 22 17.1359 20.9496 18.9303 19.2388L17.1053 18.1851Z" fill="black"/>
<path d="M7.26381 5.57493C8.59521 4.58545 10.2448 4 12.031 4C16.4493 4 20.031 7.58172 20.031 12C20.031 12.2832 20.0163 12.5629 19.9876 12.8385L18.8911 12.2146C18.5121 11.999 18.058 12.3378 18.1568 12.7624L18.9318 16.0948C18.9979 16.379 19.2922 16.5464 19.5702 16.4581L22.8308 15.4218C23.2463 15.2897 23.3056 14.7263 22.9266 14.5107L21.851 13.8987C21.9692 13.284 22.031 12.6492 22.031 12C22.031 6.47715 17.5539 2 12.031 2C9.49218 2 7.17429 2.94614 5.41075 4.50507L7.26381 5.57493Z" fill="black"/>
</svg>
