<svg width="24" height="24" viewBox="0 0 24 24" fill="none" xmlns="http://www.w3.org/2000/svg">
<path fill-rule="evenodd" clip-rule="evenodd" d="M20 4.00001L16.6667 6.50001L20 9.00001V4.00001ZM19.6802 1.76166C19.8399 1.6632 20.143 1.49227 20.5312 1.50034C20.9813 1.5097 21.4035 1.72076 21.681 2.07526C21.9204 2.38095 21.9655 2.72604 21.9826 2.91286C22.0001 3.10499 22.0001 3.33837 22 3.56512V9.4349C22.0001 9.66166 22.0001 9.89503 21.9826 10.0872C21.9655 10.274 21.9204 10.6191 21.681 10.9248C21.4035 11.2793 20.9813 11.4903 20.5312 11.4997C20.143 11.5078 19.8399 11.3368 19.6802 11.2384C19.516 11.1371 19.3293 10.9971 19.148 10.861C19.1386 10.854 19.1293 10.847 19.12 10.84L15.2533 7.94001C15.2459 7.93441 15.2383 7.92877 15.2307 7.92307C15.1062 7.82972 14.9654 7.72418 14.8524 7.62261C14.7279 7.51061 14.5445 7.32445 14.4353 7.04372C14.2993 6.69401 14.2993 6.30602 14.4353 5.95631C14.5445 5.67557 14.7279 5.48941 14.8524 5.37741C14.9654 5.27584 15.1062 5.1703 15.2307 5.07695C15.2383 5.07126 15.2459 5.06561 15.2533 5.06001L19.1479 2.13905C19.3293 2.00297 19.516 1.86292 19.6802 1.76166ZM2 4.00001C2 3.44773 2.44772 3.00001 3 3.00001L12 3.00001C12.5523 3.00001 13 3.44773 13 4.00001C13 4.5523 12.5523 5.00001 12 5.00001L3 5.00001C2.44772 5.00001 2 4.5523 2 4.00001ZM2 9.25001C2 8.69773 2.44772 8.25001 3 8.25001H12C12.5523 8.25001 13 8.69773 13 9.25001C13 9.8023 12.5523 10.25 12 10.25H3C2.44772 10.25 2 9.8023 2 9.25001ZM2 14.75C2 14.1977 2.44772 13.75 3 13.75H21C21.5523 13.75 22 14.1977 22 14.75C22 15.3023 21.5523 15.75 21 15.75H3C2.44772 15.75 2 15.3023 2 14.75ZM2 20C2 19.4477 2.44772 19 3 19H21C21.5523 19 22 19.4477 22 20C22 20.5523 21.5523 21 21 21H3C2.44772 21 2 20.5523 2 20Z" fill="black"/>
</svg>
