<svg width="24" height="24" viewBox="0 0 24 24" fill="none" xmlns="http://www.w3.org/2000/svg">
<path fill-rule="evenodd" clip-rule="evenodd" d="M9.90117 1.5C8.13155 1.5 7.24533 3.64928 8.49663 4.90629L11.0258 7.44695L2.08301 16.3299C1.30874 17.099 1.30522 18.3541 2.07518 19.1276L4.85714 21.9222C5.62099 22.6895 6.85835 22.693 7.62649 21.93L16.585 13.0315L19.1092 15.5672C20.3605 16.8242 22.5 15.9339 22.5 14.1562V3.49536C22.5 2.39335 21.6107 1.5 20.5137 1.5H9.90117ZM17.5423 10.7706L17.5445 10.7684L20.2285 13.4647V3.78182L10.5896 3.78182L12.641 5.84255L12.6441 5.83941L13.1986 6.40274L13.896 7.10326L13.8921 7.1072L14.2412 7.46195L3.90015 17.7339L6.24696 20.0914L16.5971 9.81042L17.5423 10.7706Z" fill="black"/>
</svg>
