<svg width="24" height="24" viewBox="0 0 24 24" fill="none" xmlns="http://www.w3.org/2000/svg">
<path fill-rule="evenodd" clip-rule="evenodd" d="M20.6635 4.40771C20.7763 3.73088 20.1895 3.14411 19.5127 3.25691L16.1141 3.82335C16.8362 4.39318 17.5362 5.01441 18.2079 5.68618C18.8897 6.36789 19.5193 7.07869 20.0961 7.81215L20.6635 4.40771ZM19.3552 10.1804C18.6205 9.10701 17.766 8.07266 16.7937 7.10039C15.8308 6.13747 14.807 5.29004 13.7446 4.56019L9.99766 8.56559C9.98964 8.57449 9.98146 8.58322 9.97315 8.5918L7.17632 11.5815C6.05347 12.7818 5.89357 14.5446 6.68055 15.9047L12.2926 10.2927C12.6831 9.90216 13.3163 9.90216 13.7068 10.2927C14.0973 10.6832 14.0973 11.3164 13.7068 11.7069L8.11725 17.2965C9.46257 18.0183 11.1683 17.8391 12.3389 16.7441L15.3246 13.9509C15.3358 13.94 15.3472 13.9293 15.3589 13.9188L19.3552 10.1804ZM17.1759 14.9578L20.7743 11.5915C21.3271 11.0744 21.6941 10.3896 21.8185 9.64298L22.6362 4.7365C22.9747 2.70604 21.2143 0.945715 19.1839 1.28413L14.2774 2.10187C13.5308 2.22631 12.8459 2.59329 12.3288 3.14605L8.96257 6.74448L6.69601 5.98896C6.03384 5.76824 5.3045 5.9087 4.77167 6.35955L1.91451 8.77715C0.744659 9.76702 1.07701 11.6508 2.51498 12.1806L4.32563 12.8477C3.98557 14.3806 4.291 16.0249 5.23472 17.3505L2.79258 19.7927C2.40206 20.1832 2.40206 20.8164 2.79258 21.2069C3.18311 21.5974 3.81627 21.5974 4.2068 21.2069L6.66307 18.7506C7.97207 19.6433 9.57559 19.9269 11.0728 19.5947L11.7398 21.4052C12.2696 22.8432 14.1534 23.1756 15.1432 22.0057L17.5608 19.1485C18.0117 18.6157 18.1522 17.8864 17.9314 17.2242L17.1759 14.9578ZM15.5689 16.4611L13.7052 18.2046C13.4574 18.4364 13.1941 18.6417 12.9189 18.8205L13.6165 20.7138L16.0341 17.8567L15.5689 16.4611ZM5.09985 11.0015C5.27868 10.7263 5.48397 10.463 5.71578 10.2152L7.4592 8.35154L6.06355 7.88633L3.2064 10.3039L5.09985 11.0015Z" fill="black"/>
</svg>
