<svg width="24" height="24" viewBox="0 0 24 24" fill="none" xmlns="http://www.w3.org/2000/svg">
<path fill-rule="evenodd" clip-rule="evenodd" d="M5.4162 0.999982C5.44388 1 5.47184 1.00003 5.50009 1.00003H16.5001C16.5283 1.00003 16.5563 1 16.584 0.999982C16.9647 0.999679 17.2925 0.999418 17.5854 1.05767C18.7754 1.29439 19.7057 2.22468 19.9424 3.41476C19.9487 3.44631 19.9543 3.47827 19.9593 3.51065C20.0298 3.51344 20.0975 3.51695 20.1625 3.52138C20.4923 3.54388 20.8222 3.59338 21.1481 3.72839C21.8832 4.03287 22.4672 4.61689 22.7717 5.35198C22.9067 5.6779 22.9562 6.00781 22.9787 6.33764C23.0001 6.6509 23.0001 7.02939 23.0001 7.46804V7.83859C23.0001 8.36573 23.0001 8.82049 22.9695 9.19505C22.9372 9.5904 22.8659 9.98362 22.6731 10.362C22.3855 10.9265 21.9265 11.3854 21.3621 11.673C20.9837 11.8658 20.5905 11.9372 20.1951 11.9695C19.8205 12.0001 19.3658 12 18.8386 12H15.2001C14.6235 12 14.2513 12.0008 13.9679 12.024C13.6963 12.0462 13.5955 12.0838 13.5461 12.109C13.3579 12.2049 13.205 12.3579 13.1091 12.546C13.0839 12.5955 13.0462 12.6962 13.024 12.9679C13.0035 13.2185 13.0006 13.5387 13.0002 14.0082C13.0477 14.0105 13.0939 14.0133 13.1383 14.017C13.3669 14.0356 13.6366 14.0797 13.9081 14.218C14.2844 14.4098 14.5904 14.7157 14.7821 15.092C14.9204 15.3635 14.9645 15.6332 14.9831 15.8618C15.0001 16.07 15.0001 16.3158 15.0001 16.5681V20.4319C15.0001 20.6843 15.0001 20.9301 14.9831 21.1383C14.9645 21.3668 14.9204 21.6366 14.7821 21.908C14.5904 22.2843 14.2844 22.5903 13.9081 22.782C13.6366 22.9203 13.3669 22.9644 13.1383 22.9831C12.9302 23.0001 12.6844 23.0001 12.432 23H11.5682C11.3158 23.0001 11.07 23.0001 10.8619 22.9831C10.6333 22.9644 10.3635 22.9203 10.0921 22.782C9.71578 22.5903 9.40982 22.2843 9.21807 21.908C9.07978 21.6366 9.03571 21.3668 9.01703 21.1383C9.00003 20.9301 9.00005 20.6843 9.00008 20.4319V16.5681C9.00005 16.3157 9.00003 16.07 9.01703 15.8618C9.03571 15.6332 9.07978 15.3635 9.21807 15.092C9.40982 14.7157 9.71578 14.4098 10.0921 14.218C10.3635 14.0797 10.6333 14.0356 10.8619 14.017C10.9063 14.0133 10.9525 14.0105 11.0001 14.0082C11.0004 13.5458 11.0031 13.1428 11.0307 12.805C11.063 12.4097 11.1343 12.0164 11.3271 11.6381C11.6147 11.0736 12.0736 10.6146 12.6381 10.327C13.0165 10.1342 13.4097 10.0629 13.8051 10.0306C14.1796 9.99999 14.6344 10 15.1615 10L18.8001 10C19.3766 10 19.7489 9.99925 20.0323 9.9761C20.3039 9.9539 20.4046 9.91623 20.4541 9.89103C20.6422 9.79516 20.7952 9.64218 20.8911 9.45402C20.9163 9.40457 20.954 9.30385 20.9762 9.03219C20.9993 8.74885 21.0001 8.37658 21.0001 7.80003V7.50003C21.0001 7.0204 20.9995 6.71077 20.9834 6.47379C20.9678 6.24579 20.9412 6.15896 20.924 6.11734C20.8225 5.87232 20.6278 5.67764 20.3828 5.57615C20.3412 5.55891 20.2543 5.53229 20.0263 5.51674C20.0035 5.51518 19.9799 5.51376 19.9556 5.51248C19.9516 5.53699 19.9472 5.56126 19.9424 5.5853C19.7057 6.77537 18.7754 7.70566 17.5854 7.94238C17.2925 8.00063 16.9647 8.00037 16.584 8.00007C16.5563 8.00005 16.5283 8.00003 16.5001 8.00003H5.50009C5.47184 8.00003 5.44388 8.00005 5.4162 8.00007C5.03551 8.00037 4.70767 8.00063 4.41482 7.94238C3.22474 7.70566 2.29445 6.77537 2.05773 5.5853C1.99948 5.29244 1.99974 4.96461 2.00004 4.58391C2.00007 4.55623 2.00009 4.52827 2.00009 4.50003C2.00009 4.47178 2.00007 4.44382 2.00004 4.41614C1.99974 4.03544 1.99948 3.70761 2.05773 3.41476C2.29445 2.22468 3.22474 1.29439 4.41482 1.05767C4.70767 0.999418 5.03551 0.999679 5.4162 0.999982ZM11.6001 16C11.3036 16 11.1413 16.0008 11.0247 16.0103C11.0201 16.0107 11.0157 16.0111 11.0115 16.0115C11.0112 16.0156 11.0108 16.02 11.0104 16.0247C11.0009 16.1412 11.0001 16.3035 11.0001 16.6V20.4C11.0001 20.6966 11.0009 20.8588 11.0104 20.9754C11.0108 20.98 11.0112 20.9844 11.0115 20.9886C11.0157 20.989 11.0201 20.9893 11.0247 20.9897C11.1413 20.9992 11.3036 21 11.6001 21H12.4001C12.6966 21 12.8589 20.9992 12.9755 20.9897C12.9801 20.9893 12.9845 20.989 12.9886 20.9886C12.989 20.9844 12.9894 20.98 12.9898 20.9754C12.9993 20.8588 13.0001 20.6966 13.0001 20.4V16.6C13.0001 16.3035 12.9993 16.1412 12.9898 16.0247C12.9894 16.02 12.989 16.0156 12.9886 16.0115C12.9845 16.0111 12.9801 16.0107 12.9755 16.0103C12.8589 16.0008 12.6966 16 12.4001 16H11.6001ZM5.50009 3.00003C4.9875 3.00003 4.87725 3.00487 4.805 3.01924C4.40831 3.09815 4.09821 3.40825 4.0193 3.80494C4.00493 3.87718 4.00009 3.98744 4.00009 4.50003C4.00009 5.01261 4.00493 5.12287 4.0193 5.19512C4.09821 5.59181 4.40831 5.90191 4.805 5.98081C4.87725 5.99518 4.9875 6.00003 5.50009 6.00003H16.5001C17.0127 6.00003 17.1229 5.99518 17.1952 5.98081C17.5919 5.90191 17.902 5.59181 17.9809 5.19512C17.9952 5.12287 18.0001 5.01261 18.0001 4.50003C18.0001 3.98744 17.9952 3.87718 17.9809 3.80494C17.902 3.40825 17.5919 3.09815 17.1952 3.01924C17.1229 3.00487 17.0127 3.00003 16.5001 3.00003H5.50009Z" fill="black"/>
</svg>
