<svg width="24" height="24" viewBox="0 0 24 24" fill="none" xmlns="http://www.w3.org/2000/svg">
<path d="M16.7071 7.29289C16.3166 6.90237 15.6834 6.90237 15.2929 7.29289L7.29289 15.2929C6.90237 15.6834 6.90237 16.3166 7.29289 16.7071C7.68342 17.0976 8.31658 17.0976 8.70711 16.7071L16.7071 8.70711C17.0976 8.31658 17.0976 7.68342 16.7071 7.29289Z" fill="black"/>
<path d="M9 7.5C8.17157 7.5 7.5 8.17157 7.5 9C7.5 9.82843 8.17157 10.5 9 10.5C9.82843 10.5 10.5 9.82843 10.5 9C10.5 8.17157 9.82843 7.5 9 7.5Z" fill="black"/>
<path d="M15 13.5C14.1716 13.5 13.5 14.1716 13.5 15C13.5 15.8284 14.1716 16.5 15 16.5C15.8284 16.5 16.5 15.8284 16.5 15C16.5 14.1716 15.8284 13.5 15 13.5Z" fill="black"/>
<path fill-rule="evenodd" clip-rule="evenodd" d="M14.0153 1.79598C12.8814 0.734672 11.1186 0.734674 9.9847 1.79598L8.6517 3.0436C8.48374 3.2008 8.2644 3.29166 8.03447 3.29927L6.2097 3.35964C4.65742 3.411 3.411 4.65743 3.35964 6.2097L3.29927 8.03447C3.29166 8.2644 3.2008 8.48374 3.0436 8.6517L1.79598 9.9847C0.734672 11.1186 0.734674 12.8814 1.79598 14.0153L3.0436 15.3483C3.2008 15.5163 3.29166 15.7356 3.29927 15.9655L3.35964 17.7903C3.411 19.3426 4.65743 20.589 6.2097 20.6404L8.03447 20.7007C8.2644 20.7083 8.48374 20.7992 8.6517 20.9564L9.9847 22.204C11.1186 23.2653 12.8814 23.2653 14.0153 22.204L15.3483 20.9564C15.5163 20.7992 15.7356 20.7083 15.9655 20.7007L17.7903 20.6404C19.3426 20.589 20.589 19.3426 20.6404 17.7903L20.7007 15.9655C20.7083 15.7356 20.7992 15.5163 20.9564 15.3483L22.204 14.0153C23.2653 12.8814 23.2653 11.1186 22.204 9.9847L20.9564 8.6517C20.7992 8.48374 20.7083 8.2644 20.7007 8.03447L20.6404 6.2097C20.589 4.65742 19.3426 3.411 17.7903 3.35964L15.9655 3.29927C15.7356 3.29166 15.5163 3.2008 15.3483 3.0436L14.0153 1.79598ZM11.3514 3.25619C11.7163 2.9146 12.2837 2.91461 12.6486 3.25618L13.9816 4.5038C14.5035 4.99225 15.185 5.27454 15.8994 5.29817L17.7242 5.35855C18.2238 5.37508 18.6249 5.77624 18.6415 6.27583L18.7018 8.10061C18.7255 8.81501 19.0078 9.49651 19.4962 10.0184L20.7438 11.3514C21.0854 11.7163 21.0854 12.2837 20.7438 12.6486L19.4962 13.9816C19.0078 14.5035 18.7255 15.185 18.7018 15.8994L18.6415 17.7242C18.6249 18.2238 18.2238 18.6249 17.7242 18.6415L15.8994 18.7018C15.185 18.7255 14.5035 19.0078 13.9816 19.4962L12.6486 20.7438C12.2837 21.0854 11.7163 21.0854 11.3514 20.7438L10.0184 19.4962C9.49651 19.0078 8.81501 18.7255 8.10061 18.7018L6.27583 18.6415C5.77624 18.6249 5.37508 18.2238 5.35855 17.7242L5.29817 15.8994C5.27454 15.185 4.99225 14.5035 4.5038 13.9816L3.25619 12.6486C2.9146 12.2837 2.91461 11.7163 3.25618 11.3514L4.5038 10.0184C4.99225 9.49651 5.27454 8.81501 5.29817 8.10061L5.35855 6.27583C5.37508 5.77624 5.77624 5.37508 6.27583 5.35855L8.10061 5.29817C8.81501 5.27454 9.49651 4.99225 10.0184 4.5038L11.3514 3.25619Z" fill="black"/>
</svg>
