<svg width="24" height="24" viewBox="0 0 24 24" fill="none" xmlns="http://www.w3.org/2000/svg">
<path d="M16.7072 7.29289C16.3166 6.90237 15.6835 6.90237 15.293 7.29289L7.29295 15.2929C6.90243 15.6834 6.90243 16.3166 7.29295 16.7071C7.68348 17.0976 8.31664 17.0976 8.70717 16.7071L16.7072 8.70711C17.0977 8.31658 17.0977 7.68342 16.7072 7.29289Z" fill="black"/>
<path d="M9.00006 7.5C8.17163 7.5 7.50006 8.17157 7.50006 9C7.50006 9.82843 8.17163 10.5 9.00006 10.5C9.82849 10.5 10.5001 9.82843 10.5001 9C10.5001 8.17157 9.82849 7.5 9.00006 7.5Z" fill="black"/>
<path d="M15.0001 13.5C14.1716 13.5 13.5001 14.1716 13.5001 15C13.5001 15.8284 14.1716 16.5 15.0001 16.5C15.8285 16.5 16.5001 15.8284 16.5001 15C16.5001 14.1716 15.8285 13.5 15.0001 13.5Z" fill="black"/>
<path fill-rule="evenodd" clip-rule="evenodd" d="M13.0634 1.48692C12.4133 1.07874 11.5868 1.07874 10.9366 1.48692L9.22806 2.55956L7.2108 2.58093C6.44315 2.58906 5.7479 3.03587 5.42162 3.73076L4.56418 5.55685L2.87871 6.66544C2.23732 7.0873 1.894 7.83906 1.9952 8.60005L2.26114 10.5998L1.44257 12.4437C1.13108 13.1453 1.24869 13.9633 1.74525 14.5488L3.05013 16.0873L3.35836 18.081C3.47566 18.8397 4.01686 19.4643 4.75112 19.6884L6.68065 20.2772L8.01782 21.7877C8.52666 22.3626 9.31963 22.5954 10.0585 22.3869L12 21.8391L13.9416 22.3869C14.6804 22.5954 15.4734 22.3626 15.9823 21.7877L17.3194 20.2772L19.249 19.6884C19.9832 19.4643 20.5244 18.8397 20.6417 18.081L20.9499 16.0873L22.2548 14.5488C22.7514 13.9633 22.869 13.1453 22.5575 12.4436L21.7389 10.5998L22.0049 8.60005C22.1061 7.83906 21.7628 7.0873 21.1214 6.66544L19.4359 5.55685L18.5785 3.73076C18.2522 3.03587 17.5569 2.58906 16.7893 2.58093L14.772 2.55956L13.0634 1.48692ZM12 3.18079L13.7086 4.25342C14.0211 4.44963 14.3818 4.55554 14.7508 4.55945L16.7681 4.58081L17.6255 6.4069C17.7824 6.74092 18.0286 7.02503 18.3368 7.22781L20.0223 8.3364L19.7564 10.3362C19.7077 10.7019 19.7612 11.0741 19.911 11.4113L20.7295 13.2552L19.4247 14.7937C19.186 15.0751 19.0298 15.4171 18.9734 15.7818L18.6652 17.7754L16.7357 18.3643C16.3827 18.472 16.0665 18.6752 15.8219 18.9515L14.4847 20.4621L12.5431 19.9143C12.188 19.814 11.8121 19.814 11.4569 19.9143L9.51536 20.4621L8.17819 18.9515C7.9336 18.6752 7.61734 18.472 7.2644 18.3643L5.33488 17.7754L5.02664 15.7818C4.97026 15.4171 4.81409 15.0751 4.57541 14.7937L3.27054 13.2552L4.0891 11.4113C4.23883 11.0741 4.29233 10.702 4.24369 10.3362L3.97775 8.3364L5.66322 7.22781C5.97152 7.02504 6.21771 6.74092 6.37455 6.4069L7.23198 4.58081L9.24924 4.55945C9.61823 4.55554 9.97894 4.44963 10.2915 4.25342L12 3.18079Z" fill="black"/>
</svg>
