<svg width="24" height="24" viewBox="0 0 24 24" fill="none" xmlns="http://www.w3.org/2000/svg">
<path d="M2 4C2 3.44772 2.44772 3 3 3H21C21.5523 3 22 3.44772 22 4C22 4.55228 21.5523 5 21 5H3C2.44772 5 2 4.55228 2 4Z" fill="black"/>
<path d="M2 11C2 10.4477 2.44772 10 3 10H7C7.55228 10 8 10.4477 8 11C8 11.5523 7.55228 12 7 12H3C2.44772 12 2 11.5523 2 11Z" fill="black"/>
<path d="M3 18C2.44772 18 2 18.4477 2 19C2 19.5523 2.44772 20 3 20H7C7.55228 20 8 19.5523 8 19C8 18.4477 7.55228 18 7 18H3Z" fill="black"/>
<path d="M20.5072 17.9606C21.4364 16.9039 22 15.5178 22 14C22 10.6863 19.3137 8 16 8C12.6863 8 10 10.6863 10 14C10 17.3137 12.6863 20 16 20C17.0745 20 18.0831 19.7175 18.9555 19.2228L20.979 21.6343C21.334 22.0574 21.9647 22.1125 22.3878 21.7575C22.8109 21.4025 22.8661 20.7718 22.5111 20.3487L20.5072 17.9606ZM20 14C20 16.2091 18.2091 18 16 18C13.7909 18 12 16.2091 12 14C12 11.7909 13.7909 10 16 10C18.2091 10 20 11.7909 20 14Z" fill="black"/>
</svg>
