<svg width="24" height="24" viewBox="0 0 24 24" fill="none" xmlns="http://www.w3.org/2000/svg">
<path fill-rule="evenodd" clip-rule="evenodd" d="M2.72094 3.72231L11.4397 1.08482C11.8136 0.971728 12.2121 0.971728 12.5859 1.08482L21.2939 3.71906C21.7063 3.8438 21.9922 4.21609 21.9964 4.65018C22.0221 7.29611 21.9634 16.4403 19.9905 19.0113C18.0206 21.5782 13.6266 22.689 12.3604 22.9631C12.1296 23.0131 11.8955 23.0123 11.665 22.9608C10.4204 22.6828 6.15076 21.5711 4.03517 19.0113C1.90719 16.4364 1.95882 7.26832 2.01959 4.63817C2.02949 4.20967 2.3138 3.84548 2.72094 3.72231ZM10.003 6.99692C9.94273 5.91244 10.8059 5 11.892 5C12.9782 5 13.8413 5.91244 13.7811 6.99692L13.4752 12.5023C13.4286 13.3426 12.7336 14 11.892 14C11.0505 14 10.3555 13.3426 10.3088 12.5023L10.003 6.99692ZM13.392 17.5C13.392 18.3284 12.7205 19 11.892 19C11.0636 19 10.392 18.3284 10.392 17.5C10.392 16.6716 11.0636 16 11.892 16C12.7205 16 13.392 16.6716 13.392 17.5Z" fill="black"/>
</svg>
