<svg width="24" height="24" viewBox="0 0 24 24" fill="none" xmlns="http://www.w3.org/2000/svg">
<path d="M18.99 19.0002H19M18.99 19.0002C18.368 19.6172 17.24 19.4642 16.448 19.4642C15.476 19.4642 15.008 19.6542 14.315 20.3472C13.725 20.9372 12.934 22.0002 12 22.0002C11.066 22.0002 10.275 20.9372 9.685 20.3472C8.991 19.6542 8.523 19.4642 7.552 19.4642C6.761 19.4642 5.632 19.6182 5.009 19.0002C4.382 18.3782 4.536 17.2442 4.536 16.4482C4.536 15.4412 4.316 14.9782 3.599 14.2622C2.533 13.1962 2 12.6622 2 12.0002C2 11.3382 2.533 10.8042 3.6 9.73824C4.24 9.09824 4.536 8.46424 4.536 7.55224C4.536 6.76124 4.382 5.63224 5 5.00924C5.622 4.38224 6.756 4.53624 7.552 4.53624C8.464 4.53624 9.098 4.23924 9.738 3.59924C10.804 2.53324 11.338 2.00024 12 2.00024C12.662 2.00024 13.196 2.53324 14.262 3.60024C14.902 4.24024 15.536 4.53624 16.448 4.53624C17.239 4.53624 18.368 4.38224 18.991 5.00024C19.618 5.62224 19.464 6.75624 19.464 7.55224C19.464 8.55924 19.684 9.02224 20.401 9.73824C21.467 10.8042 22 11.3382 22 12.0002C22 12.6622 21.467 13.1962 20.4 14.2622C19.684 14.9792 19.464 15.4422 19.464 16.4482C19.464 17.2442 19.617 18.3782 18.99 19.0002Z" stroke="black" stroke-width="2" stroke-linecap="round" stroke-linejoin="round"/>
<path fill-rule="evenodd" clip-rule="evenodd" d="M15.6432 8.73456C16.0661 9.08979 16.1209 9.72057 15.7657 10.1435L11.5657 15.1435C11.3918 15.3505 11.1414 15.4783 10.8716 15.4977C10.6019 15.5171 10.3358 15.4263 10.134 15.2462L8.33403 13.6392C7.92204 13.2714 7.88623 12.6393 8.25404 12.2273C8.62186 11.8153 9.25401 11.7795 9.66599 12.1473L10.6972 13.0679L14.2343 8.85708C14.5895 8.43419 15.2203 8.37934 15.6432 8.73456Z" fill="black"/>
</svg>
