<svg width="24" height="24" viewBox="0 0 24 24" fill="none" xmlns="http://www.w3.org/2000/svg">
<path fill-rule="evenodd" clip-rule="evenodd" d="M12.035 4.43681L4.85149 20.3319L11.0003 18.291V12C11.0003 11.4477 11.448 11 12.0003 11C12.5525 11 13.0003 11.4477 13.0003 12V18.2672L19.1552 20.3277L12.035 4.43681ZM11.3743 1.87269C11.7936 1.6662 12.2852 1.66699 12.7039 1.87483C13.0725 2.05783 13.2655 2.3783 13.3585 2.54426C13.4587 2.72295 13.5613 2.95196 13.6635 3.18028C13.6685 3.19133 13.6734 3.20238 13.6784 3.21342L21.1819 19.9597C21.2867 20.1935 21.3912 20.4266 21.4589 20.6231C21.521 20.8035 21.6347 21.1668 21.5221 21.5687C21.3948 22.0227 21.0615 22.3904 20.6222 22.5615C20.2334 22.713 19.8606 22.6356 19.675 22.5914C19.4728 22.5432 19.2305 22.4621 18.9875 22.3807L12.0375 20.054L5.01357 22.3854C4.7701 22.4662 4.52749 22.5468 4.32499 22.5944C4.13929 22.6381 3.76612 22.7147 3.37751 22.5621C2.93855 22.3897 2.60623 22.0209 2.48032 21.5664C2.36885 21.164 2.48375 20.8008 2.54649 20.6207C2.6149 20.4242 2.7202 20.1913 2.82588 19.9576L10.3955 3.20815C10.4004 3.19714 10.4054 3.18611 10.4104 3.17509C10.5134 2.94709 10.6167 2.7184 10.7175 2.54002C10.8111 2.37436 11.005 2.05451 11.3743 1.87269Z" fill="black"/>
</svg>
