<svg width="24" height="24" viewBox="0 0 24 24" fill="none" xmlns="http://www.w3.org/2000/svg">
<path fill-rule="evenodd" clip-rule="evenodd" d="M14.4655 2.30135C13.2724 0.58021 10.7276 0.580214 9.53449 2.30136L8.09354 4.37999C7.92326 4.62563 7.65203 4.78223 7.35416 4.80687L4.83353 5.01545C2.74642 5.18815 1.47402 7.39203 2.36801 9.28587L3.44769 11.5731C3.57528 11.8434 3.57528 12.1566 3.44769 12.4268L2.36801 14.7141C1.47401 16.6079 2.74642 18.8118 4.83354 18.9845L7.35416 19.1931C7.65203 19.2177 7.92326 19.3743 8.09354 19.6199L9.53449 21.6986C10.7276 23.4197 13.2724 23.4197 14.4655 21.6986L15.9065 19.6199C16.0768 19.3743 16.348 19.2177 16.6459 19.1931L19.1665 18.9845C21.2536 18.8118 22.526 16.6079 21.632 14.7141L20.5523 12.4268C20.4248 12.1566 20.4248 11.8434 20.5523 11.5731L21.632 9.28587C22.526 7.39202 21.2536 5.18815 19.1665 5.01545L16.6459 4.80687C16.348 4.78223 16.0768 4.62563 15.9065 4.37999L14.4655 2.30135ZM11.1782 3.44078C11.5759 2.86707 12.4242 2.86707 12.8219 3.44078L14.2628 5.51942C14.7736 6.25634 15.5873 6.72612 16.4809 6.80006L19.0016 7.00864C19.6973 7.06621 20.1214 7.80083 19.8234 8.43211L18.7437 10.7193C18.361 11.5302 18.361 12.4697 18.7437 13.2806L19.8234 15.5678C20.1214 16.1991 19.6973 16.9337 19.0016 16.9913L16.4809 17.1999C15.5873 17.2738 14.7736 17.7436 14.2628 18.4805L12.8219 20.5591C12.4242 21.1329 11.5759 21.1329 11.1782 20.5591L9.73723 18.4805C9.22639 17.7436 8.4127 17.2738 7.51909 17.1999L4.99847 16.9913C4.30276 16.9337 3.87863 16.1991 4.17662 15.5678L5.25631 13.2806C5.63907 12.4697 5.63907 11.5302 5.25631 10.7193L4.17662 8.43211C3.87863 7.80083 4.30276 7.06621 4.99847 7.00864L7.51909 6.80006C8.4127 6.72612 9.22639 6.25634 9.73723 5.51942L11.1782 3.44078ZM12 8C10.9391 8 9.92172 8.42143 9.17157 9.17157C8.42143 9.92172 8 10.9391 8 12C8 13.0609 8.42143 14.0783 9.17157 14.8284C9.92172 15.5786 10.9391 16 12 16C13.0609 16 14.0783 15.5786 14.8284 14.8284C15.5786 14.0783 16 13.0609 16 12C16 10.9391 15.5786 9.92172 14.8284 9.17157C14.0783 8.42143 13.0609 8 12 8ZM10.5858 10.5858C10.9609 10.2107 11.4696 10 12 10C12.5304 10 13.0391 10.2107 13.4142 10.5858C13.7893 10.9609 14 11.4696 14 12C14 12.5304 13.7893 13.0391 13.4142 13.4142C13.0391 13.7893 12.5304 14 12 14C11.4696 14 10.9609 13.7893 10.5858 13.4142C10.2107 13.0391 10 12.5304 10 12C10 11.4696 10.2107 10.9609 10.5858 10.5858Z" fill="black"/>
</svg>
