<svg width="24" height="24" viewBox="0 0 24 24" fill="none" xmlns="http://www.w3.org/2000/svg">
<path fill-rule="evenodd" clip-rule="evenodd" d="M9.17157 9.17157C9.92171 8.42142 10.9391 7.99999 12 7.99999C13.0609 7.99999 14.0783 8.42142 14.8284 9.17157C15.5786 9.92171 16 10.9391 16 12C16 13.0609 15.5786 14.0783 14.8284 14.8284C14.0783 15.5786 13.0609 16 12 16C10.9391 16 9.92171 15.5786 9.17157 14.8284C8.42142 14.0783 7.99999 13.0609 7.99999 12C7.99999 10.9391 8.42142 9.92171 9.17157 9.17157ZM12 9.99999C11.4696 9.99999 10.9609 10.2107 10.5858 10.5858C10.2107 10.9609 9.99999 11.4696 9.99999 12C9.99999 12.5304 10.2107 13.0391 10.5858 13.4142C10.9609 13.7893 11.4696 14 12 14C12.5304 14 13.0391 13.7893 13.4142 13.4142C13.7893 13.0391 14 12.5304 14 12C14 11.4696 13.7893 10.9609 13.4142 10.5858C13.0391 10.2107 12.5304 9.99999 12 9.99999Z" fill="black"/>
<path fill-rule="evenodd" clip-rule="evenodd" d="M9.40133 2.5037C10.5558 0.502349 13.4442 0.502349 14.5987 2.50369L14.9919 3.18538C15.2182 3.57769 15.6799 3.76893 16.1173 3.65154L16.8774 3.44757C19.1088 2.84872 21.1513 4.89115 20.5524 7.12262L20.3484 7.8827C20.2311 8.32012 20.4223 8.78182 20.8146 9.00811L21.4963 9.40133C23.4976 10.5558 23.4976 13.4442 21.4963 14.5987L20.8146 14.9919C20.4223 15.2182 20.2311 15.6799 20.3484 16.1173L20.5524 16.8774C21.1513 19.1088 19.1088 21.1513 16.8774 20.5524L16.1173 20.3484C15.6799 20.2311 15.2182 20.4223 14.9919 20.8146L14.5987 21.4963C13.4442 23.4976 10.5558 23.4976 9.40133 21.4963L9.00811 20.8146C8.78182 20.4223 8.32012 20.2311 7.8827 20.3484L7.12262 20.5524C4.89115 21.1513 2.84872 19.1088 3.44757 16.8774L3.65154 16.1173C3.76893 15.6799 3.57769 15.2182 3.18538 14.9919L2.5037 14.5987C0.502349 13.4442 0.502349 10.5558 2.50369 9.40133L3.18538 9.00811C3.57769 8.78182 3.76893 8.32012 3.65154 7.8827L3.44757 7.12262C2.84872 4.89115 4.89115 2.84872 7.12262 3.44757L7.8827 3.65154C8.32012 3.76893 8.78182 3.57769 9.00811 3.18538L9.40133 2.5037ZM12.8662 3.50302C12.4814 2.83591 11.5186 2.83591 11.1338 3.50302L10.7406 4.18471C10.0617 5.36163 8.67656 5.93536 7.36431 5.5832L6.60424 5.37922C5.86041 5.1796 5.1796 5.86041 5.37922 6.60424L5.5832 7.36431C5.93536 8.67656 5.36163 10.0617 4.18471 10.7406L3.50302 11.1338C2.83591 11.5186 2.83591 12.4814 3.50302 12.8662L4.18471 13.2594C5.36163 13.9383 5.93536 15.3234 5.5832 16.6357L5.37922 17.3957C5.1796 18.1396 5.86041 18.8204 6.60424 18.6208L7.36431 18.4168C8.67656 18.0646 10.0617 18.6384 10.7406 19.8153L11.1338 20.497C11.5186 21.1641 12.4814 21.1641 12.8662 20.497L13.2594 19.8153C13.9383 18.6384 15.3234 18.0646 16.6357 18.4168L17.3957 18.6208C18.1396 18.8204 18.8204 18.1396 18.6208 17.3957L18.4168 16.6357C18.0646 15.3234 18.6384 13.9383 19.8153 13.2594L20.497 12.8662C21.1641 12.4814 21.1641 11.5186 20.497 11.1338L19.8153 10.7406C18.6384 10.0617 18.0646 8.67656 18.4168 7.36431L18.6208 6.60424C18.8204 5.86041 18.1396 5.1796 17.3957 5.37922L16.6357 5.5832C15.3234 5.93536 13.9383 5.36163 13.2594 4.18471L12.8662 3.50302Z" fill="black"/>
</svg>
