<svg width="24" height="24" viewBox="0 0 24 24" fill="none" xmlns="http://www.w3.org/2000/svg">
<path fill-rule="evenodd" clip-rule="evenodd" d="M3 12.0002C3 10.8183 3.23279 9.64802 3.68508 8.55609C4.13738 7.46416 4.80031 6.47201 5.63604 5.63628C6.47177 4.80056 7.46392 4.13762 8.55585 3.68533C9.64778 3.23304 10.8181 3.00024 12 3.00024C13.1819 3.00024 14.3522 3.23304 15.4442 3.68533C16.5361 4.13762 17.5282 4.80056 18.364 5.63628C19.1997 6.47201 19.8626 7.46416 20.3149 8.55609C20.7672 9.64802 21 10.8183 21 12.0002C21 14.3872 20.0518 16.6764 18.364 18.3642C16.6761 20.052 14.3869 21.0002 12 21.0002C9.61305 21.0002 7.32387 20.052 5.63604 18.3642C3.94821 16.6764 3 14.3872 3 12.0002ZM12 1.00024C5.925 1.00024 1 5.92524 1 12.0002C1 18.0752 5.925 23.0002 12 23.0002C18.075 23.0002 23 18.0752 23 12.0002C23 5.92524 18.075 1.00024 12 1.00024ZM8.793 7.29324C8.98053 7.10577 9.23484 7.00046 9.5 7.00046C9.76516 7.00046 10.0195 7.10577 10.207 7.29324L12 9.08624L13.793 7.29324C13.8852 7.19773 13.9956 7.12155 14.1176 7.06914C14.2396 7.01673 14.3708 6.98915 14.5036 6.98799C14.6364 6.98684 14.7681 7.01214 14.891 7.06242C15.0139 7.1127 15.1255 7.18696 15.2194 7.28085C15.3133 7.37474 15.3875 7.48639 15.4378 7.60929C15.4881 7.73219 15.5134 7.86387 15.5123 7.99665C15.5111 8.12942 15.4835 8.26064 15.4311 8.38265C15.3787 8.50465 15.3025 8.615 15.207 8.70724L13.914 10.0002H15C15.2652 10.0002 15.5196 10.1056 15.7071 10.2931C15.8946 10.4807 16 10.735 16 11.0002C16 11.2655 15.8946 11.5198 15.7071 11.7074C15.5196 11.8949 15.2652 12.0002 15 12.0002H13V13.0002H15C15.2652 13.0002 15.5196 13.1056 15.7071 13.2931C15.8946 13.4807 16 13.735 16 14.0002C16 14.2655 15.8946 14.5198 15.7071 14.7074C15.5196 14.8949 15.2652 15.0002 15 15.0002H13V16.0002C13 16.2655 12.8946 16.5198 12.7071 16.7074C12.5196 16.8949 12.2652 17.0002 12 17.0002C11.7348 17.0002 11.4804 16.8949 11.2929 16.7074C11.1054 16.5198 11 16.2655 11 16.0002V15.0002H9C8.73478 15.0002 8.48043 14.8949 8.29289 14.7074C8.10536 14.5198 8 14.2655 8 14.0002C8 13.735 8.10536 13.4807 8.29289 13.2931C8.48043 13.1056 8.73478 13.0002 9 13.0002H11V12.0002H9C8.73478 12.0002 8.48043 11.8949 8.29289 11.7074C8.10536 11.5198 8 11.2655 8 11.0002C8 10.735 8.10536 10.4807 8.29289 10.2931C8.48043 10.1056 8.73478 10.0002 9 10.0002H10.086L8.793 8.70724C8.60553 8.51972 8.50021 8.26541 8.50021 8.00024C8.50021 7.73508 8.60553 7.48077 8.793 7.29324Z" fill="black"/>
</svg>
