<svg width="24" height="24" viewBox="0 0 24 24" fill="none" xmlns="http://www.w3.org/2000/svg">
<path fill-rule="evenodd" clip-rule="evenodd" d="M11.7137 1.08855C11.9034 1.06114 12.0961 1.06114 12.2858 1.08855C12.5044 1.12015 12.7079 1.197 12.8694 1.25803C12.8842 1.26361 12.8986 1.26906 12.9127 1.27434L18.2745 3.28501C18.3184 3.30148 18.362 3.31774 18.4051 3.33386C19.0229 3.56451 19.5655 3.76707 19.9833 4.13529C20.3488 4.45741 20.6304 4.8637 20.8036 5.31905C21.0017 5.83956 21.0009 6.41867 20.9999 7.07812C20.9998 7.12421 20.9998 7.1707 20.9998 7.21759V12C20.9998 14.8266 19.4625 17.1832 17.8007 18.9144C16.1278 20.6572 14.2138 21.8882 13.2017 22.4786C13.1883 22.4864 13.1747 22.4944 13.1607 22.5026C12.976 22.6111 12.7363 22.7519 12.4191 22.8199C12.1597 22.8755 11.8399 22.8755 11.5804 22.8199C11.2633 22.7519 11.0235 22.6111 10.8388 22.5026C10.8249 22.4944 10.8112 22.4864 10.7979 22.4786C9.78577 21.8882 7.87174 20.6572 6.19884 18.9144C4.53707 17.1832 2.99978 14.8266 2.99978 12V7.21759C2.99978 7.17071 2.99971 7.12422 2.99964 7.07812C2.99869 6.41868 2.99785 5.83956 3.19592 5.31905C3.36919 4.8637 3.65075 4.45741 4.01626 4.13529C4.43409 3.76707 4.97663 3.56451 5.59442 3.33386C5.6376 3.31773 5.68116 3.30148 5.72506 3.28501L11.0869 1.27434C11.1009 1.26906 11.1154 1.26361 11.1301 1.25803C11.2917 1.197 11.4951 1.12015 11.7137 1.08855ZM12.9998 3.44299L17.5722 5.15767C18.3975 5.46713 18.5563 5.54354 18.6609 5.63576C18.7828 5.74313 18.8766 5.87856 18.9344 6.03034C18.984 6.16071 18.9998 6.33624 18.9998 7.21759V12C18.9998 14.0818 17.8601 15.9644 16.3579 17.5294C15.2278 18.7067 13.9566 19.6363 12.9998 20.2552V3.44299ZM10.9998 20.2552C10.043 19.6363 8.77173 18.7067 7.64169 17.5294C6.13947 15.9644 4.99978 14.0818 4.99978 12V7.21759C4.99978 6.33624 5.01555 6.16071 5.06516 6.03034C5.12291 5.87856 5.21677 5.74313 5.33861 5.63576C5.44325 5.54354 5.60207 5.46713 6.4273 5.15767L10.9998 3.44299V20.2552Z" fill="black"/>
</svg>
