<svg width="24" height="24" viewBox="0 0 24 24" fill="none" xmlns="http://www.w3.org/2000/svg">
<path fill-rule="evenodd" clip-rule="evenodd" d="M11.7137 1.08855C11.9034 1.06114 12.0961 1.06114 12.2858 1.08855C12.5044 1.12015 12.7079 1.197 12.8694 1.25803C12.8842 1.26361 12.8986 1.26906 12.9127 1.27434L18.2745 3.28501C18.3184 3.30148 18.362 3.31774 18.4051 3.33386C19.0229 3.56451 19.5655 3.76707 19.9833 4.13529C20.3488 4.45741 20.6304 4.8637 20.8036 5.31905C21.0017 5.83956 21.0009 6.41867 20.9999 7.07812C20.9998 7.12421 20.9998 7.1707 20.9998 7.21759V12C20.9998 14.8266 19.4625 17.1832 17.8007 18.9144C16.1278 20.6572 14.2138 21.8882 13.2017 22.4786C13.1883 22.4864 13.1747 22.4944 13.1607 22.5026C12.976 22.6111 12.7363 22.7519 12.4191 22.8199C12.1597 22.8755 11.8399 22.8755 11.5804 22.8199C11.2633 22.7519 11.0235 22.6111 10.8388 22.5026C10.8249 22.4944 10.8112 22.4864 10.7979 22.4786C9.78577 21.8882 7.87174 20.6572 6.19884 18.9144C4.53707 17.1832 2.99978 14.8266 2.99978 12V7.21759C2.99978 7.17071 2.99971 7.12422 2.99964 7.07812C2.99869 6.41868 2.99785 5.83956 3.19592 5.31905C3.36919 4.8637 3.65075 4.45741 4.01626 4.13529C4.43409 3.76707 4.97663 3.56451 5.59442 3.33386C5.6376 3.31773 5.68116 3.30148 5.72506 3.28501L11.0869 1.27434C11.1009 1.26906 11.1154 1.26361 11.1301 1.25803C11.2917 1.197 11.4951 1.12015 11.7137 1.08855ZM11.9968 3.07127C11.9559 3.08466 11.9005 3.10522 11.7891 3.147L6.4273 5.15767C5.60207 5.46713 5.44325 5.54354 5.33861 5.63576C5.21677 5.74313 5.12291 5.87856 5.06516 6.03034C5.01555 6.16071 4.99978 6.33624 4.99978 7.21759V12C4.99978 14.0818 6.13947 15.9644 7.64169 17.5294C9.13278 19.0828 10.8698 20.2051 11.8057 20.7511C11.8629 20.7845 11.9042 20.8085 11.94 20.8287C11.9682 20.8446 11.9869 20.8546 11.9998 20.8611C12.0126 20.8546 12.0314 20.8446 12.0595 20.8287C12.0954 20.8085 12.1367 20.7845 12.1939 20.7511C13.1298 20.2051 14.8668 19.0828 16.3579 17.5294C17.8601 15.9644 18.9998 14.0818 18.9998 12V7.21759C18.9998 6.33624 18.984 6.16071 18.9344 6.03034C18.8766 5.87856 18.7828 5.74313 18.6609 5.63576C18.5563 5.54354 18.3975 5.46713 17.5722 5.15767L12.2105 3.147C12.099 3.10522 12.0436 3.08466 12.0028 3.07127C12.0017 3.07092 12.0007 3.0706 11.9998 3.07028C11.9988 3.0706 11.9978 3.07092 11.9968 3.07127ZM11.9998 4.99999C12.5521 4.99999 12.9998 5.44771 12.9998 5.99999V6.49999H13.1331C14.2373 6.49999 15.194 7.12458 15.6722 8.03505C15.9289 8.52401 15.7407 9.12855 15.2518 9.38533C14.7628 9.64211 14.1583 9.45389 13.9015 8.96493C13.7552 8.68639 13.4651 8.49999 13.1331 8.49999H10.9998C10.4475 8.49999 9.99978 8.94771 9.99978 9.49999C9.99978 10.0523 10.4475 10.5 10.9998 10.5H12.9998C14.6566 10.5 15.9998 11.8431 15.9998 13.5C15.9998 15.1568 14.6566 16.5 12.9998 16.5V17C12.9998 17.5523 12.5521 18 11.9998 18C11.4475 18 10.9998 17.5523 10.9998 17V16.5H10.8664C9.76224 16.5 8.80553 15.8754 8.32739 14.9649C8.07061 14.476 8.25883 13.8714 8.74779 13.6147C9.23675 13.3579 9.8413 13.5461 10.0981 14.0351C10.2444 14.3136 10.5344 14.5 10.8664 14.5H12.9998C13.5521 14.5 13.9998 14.0523 13.9998 13.5C13.9998 12.9477 13.5521 12.5 12.9998 12.5H10.9998C9.34292 12.5 7.99978 11.1568 7.99978 9.49999C7.99978 7.84314 9.34292 6.49999 10.9998 6.49999V5.99999C10.9998 5.44771 11.4475 4.99999 11.9998 4.99999Z" fill="black"/>
</svg>
