<svg width="24" height="24" viewBox="0 0 24 24" fill="none" xmlns="http://www.w3.org/2000/svg">
<path fill-rule="evenodd" clip-rule="evenodd" d="M12 1.39691C12.2017 1.39691 12.3754 1.43345 12.5207 1.47263C12.7915 1.54565 13.019 1.69086 13.1832 1.80436C13.3532 1.92184 13.5564 2.07907 13.7858 2.25656L13.8063 2.27237C14.719 2.97844 15.7065 3.46353 17.0213 3.73698L17.0504 3.74303C17.6912 3.87629 18.2118 3.98457 18.613 4.09059C19.0027 4.1936 19.4043 4.32384 19.7303 4.55401C19.9498 4.709 20.1545 4.88131 20.3361 5.10452C20.5176 5.32772 20.6446 5.56318 20.7517 5.80965C20.9022 6.15626 20.9537 6.52007 20.9772 6.87891C21 7.22796 21 7.65827 21 8.16752V12C21 14.8266 19.4627 17.1832 17.8009 18.9144C16.128 20.6572 14.214 21.8882 13.2019 22.4786C13.1886 22.4864 13.1749 22.4944 13.1609 22.5026C12.9762 22.6111 12.7365 22.7519 12.4194 22.8199C12.1599 22.8755 11.8401 22.8755 11.5806 22.8199C11.2635 22.7519 11.0238 22.6111 10.8391 22.5026C10.8251 22.4944 10.8115 22.4864 10.7981 22.4786C9.786 21.8882 7.87196 20.6572 6.19906 18.9144C4.53729 17.1832 3 14.8266 3 12L3 8.16747C2.99999 7.65825 2.99998 7.22795 3.02283 6.87891C3.04632 6.52007 3.09778 6.15626 3.24831 5.80965C3.35535 5.56318 3.48238 5.32772 3.66394 5.10451C3.8455 4.88131 4.05016 4.709 4.26967 4.55401C4.59567 4.32384 4.99732 4.1936 5.38704 4.09059C5.78816 3.98457 6.30882 3.87629 6.94958 3.74303L6.97868 3.73698C8.29347 3.46353 9.28102 2.97844 10.1937 2.27237L10.2141 2.25659C10.4436 2.07909 10.6468 1.92185 10.8168 1.80436C10.9811 1.69086 11.2085 1.54565 11.4793 1.47263C11.6246 1.43345 11.7983 1.39691 12 1.39691ZM12 3.41867C11.9871 3.42707 11.9718 3.4373 11.9539 3.44965C11.8337 3.53275 11.6736 3.65619 11.4175 3.85428C10.2704 4.74165 9.00493 5.35836 7.38592 5.69508C6.70911 5.83584 6.24126 5.93349 5.89811 6.02419C5.72979 6.06868 5.61289 6.10608 5.53049 6.13818C5.45045 6.16936 5.42315 6.18789 5.42314 6.18788C5.42314 6.18788 5.42308 6.18792 5.42314 6.18788C5.29763 6.27649 5.24604 6.32897 5.21547 6.36656C5.18489 6.40415 5.14397 6.46544 5.08277 6.60636C5.06776 6.64091 5.03645 6.73615 5.01856 7.00955C5.00051 7.28534 5 7.64956 5 8.2V12C5 14.0818 6.13969 15.9644 7.64191 17.5294C9.13301 19.0828 10.87 20.2051 11.8059 20.7511C11.8631 20.7845 11.9044 20.8085 11.9403 20.8287C11.9684 20.8446 11.9872 20.8546 12 20.8611C12.0128 20.8546 12.0316 20.8446 12.0597 20.8287C12.0956 20.8085 12.1369 20.7845 12.1941 20.7511C13.13 20.2051 14.867 19.0828 16.3581 17.5294C17.8603 15.9644 19 14.0818 19 12V8.20001C19 7.64956 18.9995 7.28534 18.9814 7.00955C18.9635 6.73615 18.9322 6.64091 18.9172 6.60636C18.856 6.46544 18.8151 6.40415 18.7845 6.36656C18.754 6.32897 18.7023 6.27643 18.5768 6.18782C18.5768 6.18783 18.5496 6.16936 18.4695 6.13818C18.3871 6.10608 18.2702 6.06868 18.1019 6.02419C17.7587 5.93349 17.2909 5.83584 16.6141 5.69508C14.9951 5.35836 13.7296 4.74165 12.5825 3.85428C12.3264 3.65619 12.1663 3.53275 12.0461 3.44965C12.0282 3.4373 12.0129 3.42707 12 3.41867Z" fill="black"/>
</svg>
