<svg width="24" height="24" viewBox="0 0 24 24" fill="none" xmlns="http://www.w3.org/2000/svg">
<path d="M12.2861 1.08843C12.0963 1.06102 11.9037 1.06102 11.714 1.08843C11.4954 1.12002 11.2919 1.19688 11.1304 1.2579L11.0871 1.27422L8.4062 2.27955C7.88908 2.47347 7.62707 3.04988 7.82099 3.56701C8.01491 4.08413 8.59133 4.34613 9.10845 4.15221L11.7893 3.14687C11.9008 3.1051 11.9562 3.08453 11.997 3.07114L12 3.07016L12.003 3.07114C12.0439 3.08454 12.0993 3.1051 12.2107 3.14687L17.5725 5.15755C18.3977 5.46701 18.5565 5.54341 18.6612 5.63564C18.783 5.74301 18.8769 5.87844 18.9346 6.03022C18.9842 6.16059 19 6.33612 19 7.21747V11.9999C19 12.6358 18.8945 13.2505 18.7051 13.8436C18.5371 14.3697 18.8274 14.9324 19.3535 15.1004C19.8796 15.2684 20.4423 14.9781 20.6103 14.452C20.8567 13.6805 21 12.8607 21 11.9999L21.0002 7.07799C21.0011 6.41855 21.0019 5.83944 20.8039 5.31893C20.6306 4.86358 20.349 4.45729 19.9835 4.13517C19.5657 3.76695 19.0232 3.56439 18.4054 3.33374L12.9129 1.27422L12.8697 1.2579C12.7081 1.19688 12.5047 1.12002 12.2861 1.08843Z" fill="black"/>
<path fill-rule="evenodd" clip-rule="evenodd" d="M17.6526 19.0668C16.0145 20.7306 14.1818 21.9068 13.2019 22.4785L13.1609 22.5025C12.9763 22.611 12.7365 22.7517 12.4194 22.8198C12.1599 22.8754 11.8401 22.8754 11.5807 22.8198C11.2635 22.7517 11.0238 22.611 10.8391 22.5025L10.7981 22.4785C9.78602 21.888 7.87198 20.6571 6.19908 18.9143C4.53731 17.1831 3.00002 14.8265 3.00002 11.9999L2.99989 7.078C2.99893 6.41856 2.99809 5.83944 3.19616 5.31893C3.25936 5.15286 3.33695 4.99331 3.42778 4.84199L2.29289 3.70711C1.90237 3.31658 1.90237 2.68342 2.29289 2.29289C2.68342 1.90237 3.31658 1.90237 3.70711 2.29289L21.7071 20.2929C22.0976 20.6834 22.0976 21.3166 21.7071 21.7071C21.3166 22.0976 20.6834 22.0976 20.2929 21.7071L17.6526 19.0668ZM5.01001 6.42422C5.00288 6.59457 5.00002 6.84196 5.00002 7.21747V11.9999C5.00002 14.0817 6.13971 15.9643 7.64193 17.5293C9.13303 19.0827 10.87 20.205 11.8059 20.751C11.8631 20.7844 11.9044 20.8084 11.9403 20.8286C11.9684 20.8445 11.9872 20.8545 12 20.861C12.0129 20.8545 12.0316 20.8445 12.0598 20.8286C12.0956 20.8084 12.1369 20.7844 12.1941 20.751C13.1075 20.2181 14.7767 19.1405 16.2384 17.6526L5.01001 6.42422Z" fill="black"/>
</svg>
