<svg width="24" height="24" viewBox="0 0 24 24" fill="none" xmlns="http://www.w3.org/2000/svg">
<path fill-rule="evenodd" clip-rule="evenodd" d="M11.3888 1.6337C11.7778 1.46013 12.2223 1.46013 12.6113 1.6337C12.938 1.77947 13.1321 2.02883 13.2371 2.17803C13.3395 2.3237 13.4452 2.5076 13.5444 2.68037C13.5498 2.68988 13.5553 2.69936 13.5607 2.70879L15.4581 6.01053L19.2661 6.00282C19.277 6.0028 19.288 6.00278 19.299 6.00275C19.4982 6.0023 19.7102 6.00182 19.8876 6.01773C20.0693 6.03403 20.3823 6.07749 20.6719 6.28753C21.0167 6.53762 21.239 6.92252 21.2831 7.34618C21.3202 7.70198 21.2014 7.99481 21.1246 8.1603C21.0497 8.32189 20.9433 8.5053 20.8433 8.6776C20.8378 8.6871 20.8323 8.69655 20.8268 8.70597L18.9161 12L20.8268 15.294C20.8323 15.3034 20.8377 15.3129 20.8432 15.3224C20.9433 15.4947 21.0497 15.6781 21.1246 15.8397C21.2014 16.0052 21.3202 16.298 21.2831 16.6538C21.239 17.0775 21.0167 17.4624 20.6719 17.7125C20.3823 17.9225 20.0693 17.966 19.8876 17.9823C19.7102 17.9982 19.4982 17.9977 19.299 17.9973L15.4581 17.9895L13.5444 21.3197C13.4451 21.4925 13.3395 21.6763 13.2371 21.822C13.1321 21.9712 12.9379 22.2205 12.6113 22.3663C12.2223 22.5399 11.7778 22.5399 11.3888 22.3663C11.0622 22.2205 10.868 21.9712 10.763 21.822C10.6606 21.6763 10.5549 21.4924 10.4557 21.3197L8.54202 17.9895L4.70113 17.9973C4.50191 17.9977 4.28986 17.9982 4.11248 17.9823C3.93079 17.966 3.61775 17.9225 3.32817 17.7125C2.98336 17.4624 2.76114 17.0775 2.71696 16.6538C2.67985 16.298 2.79873 16.0052 2.87546 15.8397C2.95038 15.6781 3.05683 15.4947 3.15684 15.3224C3.16234 15.3129 3.16783 15.3035 3.17329 15.294L5.084 12L3.17329 8.70597C3.16783 8.69655 3.16234 8.68709 3.15683 8.6776C3.05682 8.50529 2.95037 8.32189 2.87546 8.1603C2.79873 7.99481 2.67985 7.70198 2.71696 7.34618C2.76114 6.92252 2.98336 6.53762 3.32817 6.28753C3.61775 6.07749 3.93079 6.03403 4.11248 6.01773C4.28987 6.00182 4.50193 6.0023 4.70115 6.00275C4.71213 6.00278 4.72306 6.0028 4.73395 6.00282L8.54202 6.01053L10.4394 2.70879C10.4448 2.69935 10.4503 2.68987 10.4557 2.68035C10.5549 2.50759 10.6606 2.3237 10.763 2.17803C10.868 2.02883 11.0622 1.77947 11.3888 1.6337ZM12 4.00704L10.2183 7.10761C10.2136 7.11585 10.2081 7.12548 10.2021 7.13631C10.1433 7.2408 10.0215 7.45737 9.83563 7.62502C9.67893 7.76635 9.49416 7.87303 9.29341 7.93807C9.05527 8.01524 8.80683 8.01241 8.68696 8.01105C8.67454 8.0109 8.66349 8.01078 8.65399 8.01076L5.07794 8.00353L6.87223 11.0969C6.877 11.1051 6.88263 11.1146 6.88896 11.1253C6.95008 11.2284 7.07675 11.4421 7.12899 11.687C7.17303 11.8933 7.17303 12.1067 7.12899 12.3131C7.07675 12.5579 6.95008 12.7716 6.88897 12.8747C6.88263 12.8854 6.877 12.8949 6.87223 12.9032L5.07794 15.9965L8.65399 15.9893C8.66349 15.9892 8.67453 15.9891 8.68696 15.989C8.80682 15.9876 9.05527 15.9848 9.29341 16.0619C9.49416 16.127 9.67893 16.2337 9.83563 16.375C10.0215 16.5426 10.1433 16.7592 10.2021 16.8637C10.2081 16.8745 10.2136 16.8842 10.2183 16.8924L12.0001 19.993L13.7818 16.8924C13.7865 16.8842 13.792 16.8745 13.798 16.8637C13.8568 16.7592 13.9786 16.5426 14.1645 16.375C14.3212 16.2337 14.5059 16.127 14.7067 16.0619C14.9448 15.9848 15.1933 15.9876 15.3131 15.989C15.3256 15.9891 15.3366 15.9892 15.3461 15.9893L18.9222 15.9965L17.1279 12.9032C17.1231 12.8949 17.1175 12.8854 17.1111 12.8747C17.05 12.7716 16.9234 12.5579 16.8711 12.3131C16.8271 12.1067 16.8271 11.8933 16.8711 11.687C16.9234 11.4421 17.05 11.2284 17.1111 11.1253C17.1175 11.1146 17.1231 11.1051 17.1279 11.0969L18.9222 8.00353L15.3461 8.01076C15.3366 8.01078 15.3256 8.0109 15.3131 8.01105C15.1933 8.01241 14.9448 8.01524 14.7067 7.93807C14.5059 7.87303 14.3212 7.76635 14.1645 7.62502C13.9786 7.45737 13.8568 7.24079 13.798 7.13631C13.792 7.12548 13.7865 7.11585 13.7818 7.10761L12 4.00704Z" fill="black"/>
</svg>
