<svg width="24" height="24" viewBox="0 0 24 24" fill="none" xmlns="http://www.w3.org/2000/svg">
<path fill-rule="evenodd" clip-rule="evenodd" d="M12 4.01985C11.8143 4.00293 11.5391 4 11.0118 4H7.8C6.94342 4 6.36113 4.00078 5.91104 4.03755C5.47262 4.07337 5.24842 4.1383 5.09202 4.21799C4.7157 4.40974 4.40973 4.7157 4.21799 5.09202C4.1383 5.24842 4.07337 5.47262 4.03755 5.91104C4.00078 6.36113 4 6.94342 4 7.8V16.2C4 17.0566 4.00078 17.6389 4.03755 18.089C4.07337 18.5274 4.1383 18.7516 4.21799 18.908C4.40973 19.2843 4.7157 19.5903 5.09202 19.782C5.24842 19.8617 5.47262 19.9266 5.91104 19.9625C6.36113 19.9992 6.94342 20 7.8 20H16.2C17.0566 20 17.6389 19.9992 18.089 19.9625C18.5274 19.9266 18.7516 19.8617 18.908 19.782C19.2843 19.5903 19.5903 19.2843 19.782 18.908C19.8617 18.7516 19.9266 18.5274 19.9624 18.089C19.9992 17.6389 20 17.0566 20 16.2V12.9882C20 12.4609 19.9971 12.1857 19.9802 12H17.7587C16.9537 12 16.2894 12 15.7482 11.9558C15.1861 11.9099 14.6694 11.8113 14.184 11.564C13.4314 11.1805 12.8195 10.5686 12.436 9.81596C12.1887 9.33063 12.0901 8.81393 12.0442 8.25183C12 7.71063 12 7.04626 12 6.24128V4.01985ZM14 5.41422V6.2C14 7.05658 14.0008 7.63887 14.0376 8.08896C14.0734 8.52738 14.1383 8.75158 14.218 8.90798C14.4097 9.28431 14.7157 9.59027 15.092 9.78201C15.2484 9.8617 15.4726 9.92663 15.911 9.96245C16.3611 9.99922 16.9434 10 17.8 10H18.5858L14 5.41422ZM11.1137 1.99997C11.7487 1.99967 12.2284 1.99944 12.6911 2.11052C13.0993 2.20851 13.4895 2.37013 13.8474 2.58944C14.2531 2.83807 14.5922 3.1775 15.041 3.62672C15.0647 3.65043 15.0887 3.67445 15.113 3.69878L20.3012 8.88701C20.3256 8.91134 20.3496 8.93533 20.3733 8.95902C20.8225 9.40782 21.1619 9.74693 21.4106 10.1526C21.6299 10.5105 21.7915 10.9007 21.8895 11.3089C22.0006 11.7716 22.0003 12.2513 22 12.8863C22 12.9199 22 12.9538 22 12.9882V16.2413C22 17.0463 22 17.7106 21.9558 18.2518C21.9099 18.8139 21.8113 19.3306 21.564 19.816C21.1805 20.5686 20.5686 21.1805 19.816 21.564C19.3306 21.8113 18.8139 21.9099 18.2518 21.9558C17.7106 22 17.0463 22 16.2413 22H7.75868C6.95372 22 6.28936 22 5.74817 21.9558C5.18608 21.9099 4.66937 21.8113 4.18404 21.564C3.43139 21.1805 2.81947 20.5686 2.43597 19.816C2.18868 19.3306 2.09012 18.8139 2.04419 18.2518C1.99998 17.7106 1.99999 17.0463 2 16.2413V7.7587C1.99999 6.95373 1.99998 6.28937 2.04419 5.74818C2.09012 5.18608 2.18868 4.66938 2.43597 4.18404C2.81947 3.43139 3.43139 2.81947 4.18404 2.43598C4.66937 2.18869 5.18608 2.09012 5.74817 2.0442C6.28937 1.99998 6.95373 1.99999 7.7587 2L11.0118 2C11.0462 2 11.0801 1.99999 11.1137 1.99997Z" fill="black"/>
</svg>
