<svg width="24" height="24" viewBox="0 0 24 24" fill="none" xmlns="http://www.w3.org/2000/svg">
<path d="M20.4399 13.8755C21.0025 13.8755 21.3777 14.2507 21.3777 14.8133V19.5022C21.3777 20.5338 20.5337 21.3778 19.5021 21.3778L4.49763 21.3778C3.46607 21.3778 2.62207 20.5338 2.62207 19.5022V4.49775C2.62207 3.46619 3.46607 2.62219 4.49763 2.62219L11.1191 2.62219C11.6817 2.62219 12.0569 2.9973 12.0569 3.55997C12.0569 4.12264 11.6817 4.49775 11.1191 4.49775L5.43541 4.49775C4.87274 4.49775 4.49763 4.87286 4.49763 5.43553L4.49763 18.5644C4.49763 19.1271 4.87274 19.5022 5.43541 19.5022L18.5643 19.5022C19.127 19.5022 19.5021 19.1271 19.5021 18.5644V14.8133C19.5021 14.2507 19.8772 13.8755 20.4399 13.8755Z" fill="black"/>
<path d="M19.1098 5.26676C19.4849 4.89164 20.0476 4.89164 20.4227 5.26676C20.7978 5.64187 20.7978 6.20454 20.5165 6.67343L13.0835 14.1729C12.7084 14.548 12.1457 14.548 11.7706 14.1729C11.6768 14.1729 11.6768 14.0791 11.6768 14.0791L8.39462 10.7968C8.0195 10.4217 8.0195 9.85907 8.39462 9.48396C8.76973 9.10885 9.33239 9.10885 9.70751 9.48396L12.3333 12.1097L19.1098 5.26676Z" fill="black"/>
</svg>
