<svg width="24" height="24" viewBox="0 0 24 24" fill="none" xmlns="http://www.w3.org/2000/svg">
<path d="M3 3C1.89543 3 1 3.89543 1 5V19C1 20.1046 1.89543 21 3 21H21C22.1046 21 23 20.1046 23 19V5C23 3.89543 22.1046 3 21 3H3ZM10.8134 13.9239L11.1796 14.2872C11.4962 14.6011 11.613 15.0757 11.3302 15.4204C10.9313 15.9065 10.1394 16.5 8.64999 16.5C6.12765 16.5 4.54999 15 4.54999 12C4.54999 9.31553 6.38562 7.5 8.64999 7.5C9.79569 7.5 10.5653 7.92914 11.0317 8.32526C11.4296 8.66325 11.3668 9.23925 11.0108 9.62119L10.7204 9.93283C10.4877 10.1825 10.0881 10.1894 9.79305 10.018C9.51243 9.85489 9.13214 9.7 8.69999 9.7C7.81561 9.7 6.87999 10.5742 6.87999 12C6.87999 12.9375 7.24691 13.5218 7.47999 13.7574C7.81604 14.0971 8.22499 14.29 8.69999 14.29C9.1479 14.29 9.51134 14.1171 9.77734 13.9244C10.0843 13.702 10.5443 13.6569 10.8134 13.9239ZM18.7578 13.9239L19.1241 14.2872C19.4406 14.6011 19.5575 15.0757 19.2746 15.4204C18.8758 15.9065 18.0838 16.5 16.5944 16.5C14.0721 16.5 12.4944 15 12.4944 12C12.4944 9.31553 14.33 7.5 16.5944 7.5C17.7401 7.5 18.5098 7.92914 18.9761 8.32526C19.3741 8.66325 19.3112 9.23925 18.9552 9.62119L18.6648 9.93283C18.4322 10.1825 18.0325 10.1894 17.7375 10.018C17.4569 9.85489 17.0766 9.7 16.6444 9.7C15.76 9.7 14.8244 10.5742 14.8244 12C14.8244 12.9375 15.1913 13.5218 15.4244 13.7574C15.7605 14.0971 16.1694 14.29 16.6444 14.29C17.0923 14.29 17.4558 14.1171 17.7218 13.9244C18.0288 13.702 18.4887 13.6569 18.7578 13.9239Z" fill="#2B2F36"/>
</svg>
