<svg width="24" height="24" viewBox="0 0 24 24" fill="none" xmlns="http://www.w3.org/2000/svg"><path fill-rule="evenodd" clip-rule="evenodd" d="M4 3C4 1.89544 4.89541 1 6 1H18C19.1046 1 20 1.89544 20 3V22C20 22.3746 19.7907 22.7178 19.4576 22.8892C19.1245 23.0606 18.7236 23.0315 18.4188 22.8137L15.5 20.7289L12.5812 22.8137C12.2335 23.0621 11.7665 23.0621 11.4188 22.8137L8.5 20.7289L5.58124 22.8137C5.27642 23.0315 4.87549 23.0606 4.54242 22.8892C4.20935 22.7178 4 22.3746 4 22V3ZM9 6C8.44772 6 8 6.44772 8 7C8 7.55228 8.44772 8 9 8H15C15.5523 8 16 7.55228 16 7C16 6.44772 15.5523 6 15 6H9ZM8 11C8 10.4477 8.44772 10 9 10H15C15.5523 10 16 10.4477 16 11C16 11.5523 15.5523 12 15 12H9C8.44772 12 8 11.5523 8 11ZM9 14C8.44772 14 8 14.4477 8 15C8 15.5523 8.44772 16 9 16H15C15.5523 16 16 15.5523 16 15C16 14.4477 15.5523 14 15 14H9Z" fill="#333333"/></svg>