<svg width="24" height="24" viewBox="0 0 24 24" fill="none" xmlns="http://www.w3.org/2000/svg"><path fill-rule="evenodd" clip-rule="evenodd" d="M21.8637 10.6956C21.8637 15.4981 17.997 19.3913 13.2273 19.3913C12.7528 19.3913 12.2873 19.3528 11.8336 19.2787C12.1742 18.517 12.3636 17.6721 12.3636 16.7826C12.3636 13.4209 9.65701 10.6956 6.3182 10.6956C5.71929 10.6956 5.14072 10.7833 4.59447 10.9466C4.59212 10.8633 4.59094 10.7796 4.59094 10.6956C4.59094 5.89317 8.45757 1.99999 13.2273 1.99999C17.997 1.99999 21.8637 5.89317 21.8637 10.6956ZM14.405 10.2045V6.34782C14.405 5.69294 13.8777 5.16205 13.2273 5.16205C12.5769 5.16205 12.0496 5.69294 12.0496 6.34782V10.6956C12.0496 11.0101 12.1737 11.3117 12.3946 11.5341L15.5351 14.6962C15.995 15.1592 16.7406 15.1592 17.2006 14.6962C17.6605 14.2331 17.6605 13.4823 17.2006 13.0192L14.405 10.2045Z" fill="#222727"/><path d="M6.31817 22C9.18001 22 11.5 19.6641 11.5 16.7826C11.5 13.9011 9.18001 11.5652 6.31817 11.5652C3.45633 11.5652 1.13635 13.9011 1.13635 16.7826C1.13635 19.6641 3.45633 22 6.31817 22ZM3.72726 16.0711H8.90908C9.29933 16.0711 9.61569 16.3897 9.61569 16.7826C9.61569 17.1755 9.29933 17.4941 8.90908 17.4941H3.72726C3.33701 17.4941 3.02065 17.1755 3.02065 16.7826C3.02065 16.3897 3.33701 16.0711 3.72726 16.0711Z" fill="#222727"/></svg>