<svg width="24" height="24" viewBox="0 0 24 24" fill="none" xmlns="http://www.w3.org/2000/svg">
<path fill-rule="evenodd" clip-rule="evenodd" d="M3.22472 4.20226V7.91016H8.53932H15.4607H20.7753V4.20226H3.22472ZM14.3483 10.1349H9.65168V13.8427H14.3483V10.1349ZM16.573 13.8427V10.1349H20.7753V13.8427H16.573ZM14.3483 16.0674H9.65168V19.7753H14.3483V16.0674ZM16.573 19.7753V16.0674H20.7753V19.7753H16.573ZM15.4695 22H20.8989C22.0593 22 23 21.0593 23 19.8989V14.955V9.02252V4.07866C23 2.91824 22.0593 1.97754 20.8989 1.97754H3.10112C1.94071 1.97754 1 2.91824 1 4.07866V9.02252V14.955V19.8989C1 21.0593 1.94071 22 3.10112 22H8.53049L8.53932 22L8.54816 22H15.4518C15.4548 22 15.4577 22 15.4607 22C15.4636 22 15.4666 22 15.4695 22ZM3.22472 10.1349H7.42696V13.8427H3.22472V10.1349ZM3.22472 16.0674H7.42696V19.7753H3.22472V16.0674Z" fill="black"/>
</svg>
