<svg width="24" height="24" viewBox="0 0 24 24" fill="none" xmlns="http://www.w3.org/2000/svg">
<path d="M19.9691 1.5C21.2852 1.5 22.3669 2.50368 22.4884 3.78792L22.5 4.03088V10.1672C22.5 10.8382 22.2339 11.4818 21.7595 11.9562L11.9571 21.7586C11.722 21.9937 11.443 22.1801 11.136 22.3073C10.8289 22.4345 10.4998 22.5 10.1674 22.5C9.83499 22.5 9.50586 22.4345 9.19878 22.3073C8.89171 22.1801 8.61269 21.9937 8.37767 21.7586L2.24137 15.6238C2.00633 15.3888 1.81988 15.1097 1.69268 14.8027C1.56547 14.4956 1.5 14.1665 1.5 13.8341C1.5 13.5017 1.56547 13.1726 1.69268 12.8655C1.81988 12.5584 2.00633 12.2794 2.24137 12.0444L12.0438 2.24046C12.279 2.0055 12.5582 1.81917 12.8654 1.69212C13.1726 1.56507 13.5018 1.49979 13.8343 1.5H19.9691ZM19.9691 3.66933H13.8343C13.7867 3.66924 13.7397 3.67852 13.6958 3.69664C13.6518 3.71475 13.6119 3.74135 13.5783 3.7749L3.77581 13.5788C3.74214 13.6124 3.71542 13.6523 3.6972 13.6962C3.67897 13.7402 3.66959 13.7872 3.66959 13.8348C3.66959 13.8824 3.67897 13.9294 3.6972 13.9734C3.71542 14.0173 3.74214 14.0572 3.77581 14.0908L9.91211 20.2271C9.97988 20.2946 10.0717 20.3326 10.1674 20.3326C10.2631 20.3326 10.3549 20.2946 10.4226 20.2271L20.2251 10.4232C20.2925 10.3556 20.3305 10.2641 20.3307 10.1686V4.03088L20.3191 3.93543C20.2981 3.85878 20.2525 3.79117 20.1892 3.74307C20.1259 3.69497 20.0486 3.66905 19.9691 3.66933ZM14.0657 6.96092C14.2657 6.75364 14.505 6.58826 14.7696 6.47445C15.0342 6.36063 15.3188 6.30065 15.6069 6.29802C15.8949 6.29538 16.1806 6.35013 16.4472 6.45908C16.7139 6.56803 16.9562 6.729 17.1599 6.93258C17.3637 7.13617 17.5249 7.3783 17.6341 7.64485C17.7433 7.9114 17.7983 8.19703 17.796 8.48507C17.7936 8.77312 17.7339 9.0578 17.6203 9.32252C17.5068 9.58724 17.3416 9.82669 17.1345 10.0269C16.7256 10.4223 16.1777 10.6412 15.6089 10.6365C15.0401 10.6318 14.4959 10.4039 14.0935 10.0019C13.6911 9.5999 13.4627 9.05591 13.4575 8.48712C13.4523 7.91833 13.6707 7.37025 14.0657 6.96092Z" fill="black"/>
</svg>
