<svg width="28" height="12" viewBox="0 0 28 12" fill="none" xmlns="http://www.w3.org/2000/svg">
<path d="M6.72159 5.22798L5.37429 5.46662C5.31795 5.29427 5.22846 5.13021 5.10582 4.97443C4.98651 4.81865 4.8241 4.69105 4.61861 4.59162C4.41312 4.49219 4.15625 4.44247 3.84801 4.44247C3.42708 4.44247 3.07576 4.53693 2.79403 4.72585C2.51231 4.91146 2.37145 5.15175 2.37145 5.44673C2.37145 5.70194 2.46591 5.90743 2.65483 6.06321C2.84375 6.21899 3.14867 6.34659 3.5696 6.44602L4.78267 6.72443C5.48532 6.88684 6.009 7.13707 6.35369 7.47514C6.69839 7.81321 6.87074 8.25237 6.87074 8.79261C6.87074 9.25 6.73816 9.65767 6.47301 10.0156C6.21117 10.3703 5.84493 10.6487 5.37429 10.8509C4.90696 11.053 4.36506 11.1541 3.74858 11.1541C2.89347 11.1541 2.19579 10.9718 1.65554 10.6072C1.11529 10.2393 0.783854 9.71733 0.661222 9.04119L2.09801 8.82244C2.1875 9.19697 2.37145 9.48035 2.64986 9.67259C2.92827 9.86151 3.29119 9.95597 3.73864 9.95597C4.22585 9.95597 4.61529 9.85488 4.90696 9.6527C5.19863 9.44721 5.34446 9.19697 5.34446 8.90199C5.34446 8.66335 5.25497 8.46283 5.07599 8.30043C4.90033 8.13802 4.63021 8.01539 4.26562 7.93253L2.97301 7.64915C2.26042 7.48674 1.73343 7.22822 1.39205 6.87358C1.05398 6.51894 0.884943 6.06984 0.884943 5.52628C0.884943 5.07552 1.01089 4.68111 1.26278 4.34304C1.51468 4.00497 1.86269 3.74148 2.30682 3.55256C2.75095 3.36032 3.25971 3.2642 3.8331 3.2642C4.65838 3.2642 5.308 3.44318 5.78196 3.80114C6.25592 4.15578 6.56913 4.63139 6.72159 5.22798ZM10.7275 11.169C10.2435 11.169 9.80605 11.0795 9.41495 10.9006C9.02385 10.7183 8.71396 10.4548 8.48526 10.1101C8.25988 9.76539 8.14719 9.3428 8.14719 8.84233C8.14719 8.41146 8.23005 8.05682 8.39577 7.77841C8.56149 7.5 8.78522 7.27959 9.06694 7.11719C9.34866 6.95478 9.66353 6.83215 10.0115 6.74929C10.3596 6.66643 10.7142 6.60346 11.0755 6.56037C11.5328 6.50734 11.9041 6.46425 12.1891 6.43111C12.4741 6.39465 12.6813 6.33665 12.8105 6.2571C12.9398 6.17756 13.0044 6.0483 13.0044 5.86932V5.83452C13.0044 5.40033 12.8818 5.06392 12.6365 4.82528C12.3946 4.58665 12.0333 4.46733 11.5527 4.46733C11.0523 4.46733 10.6578 4.57836 10.3695 4.80043C10.0845 5.01918 9.88725 5.26278 9.77788 5.53125L8.38086 5.21307C8.54658 4.74905 8.78853 4.37453 9.10671 4.08949C9.42821 3.80114 9.79776 3.59233 10.2154 3.46307C10.633 3.33049 11.0721 3.2642 11.5328 3.2642C11.8378 3.2642 12.1609 3.30066 12.5023 3.37358C12.847 3.44318 13.1685 3.57244 13.4668 3.76136C13.7684 3.95028 14.0153 4.22041 14.2076 4.57173C14.3998 4.91974 14.4959 5.37216 14.4959 5.92898V11H13.0442V9.95597H12.9846C12.8884 10.1482 12.7443 10.3371 12.552 10.5227C12.3598 10.7083 12.1129 10.8625 11.8113 10.9851C11.5096 11.1077 11.1484 11.169 10.7275 11.169ZM11.0506 9.97585C11.4616 9.97585 11.8129 9.89465 12.1046 9.73224C12.3996 9.56984 12.6233 9.35772 12.7757 9.09588C12.9315 8.83073 13.0094 8.54735 13.0094 8.24574V7.26136C12.9564 7.31439 12.8536 7.36411 12.7012 7.41051C12.552 7.4536 12.3813 7.49171 12.1891 7.52486C11.9969 7.55469 11.8096 7.58286 11.6273 7.60938C11.445 7.63258 11.2926 7.65246 11.1699 7.66903C10.8816 7.70549 10.6181 7.76681 10.3794 7.85298C10.1441 7.93916 9.9552 8.06345 9.81268 8.22585C9.67347 8.38494 9.60387 8.59706 9.60387 8.86222C9.60387 9.23011 9.73976 9.50852 10.0115 9.69744C10.2833 9.88305 10.6297 9.97585 11.0506 9.97585ZM20.1101 3.36364V4.55682H15.7947V3.36364H20.1101ZM16.978 11V2.47869C16.978 2.00142 17.0824 1.60535 17.2912 1.29048C17.5 0.972301 17.7768 0.735322 18.1214 0.579545C18.4661 0.420454 18.8407 0.340908 19.245 0.340908C19.5433 0.340908 19.7985 0.365767 20.0107 0.415483C20.2228 0.461884 20.3802 0.504971 20.483 0.544744L20.1349 1.74787C20.0653 1.72798 19.9759 1.70478 19.8665 1.67827C19.7571 1.64844 19.6245 1.63352 19.4688 1.63352C19.1075 1.63352 18.849 1.72301 18.6932 1.90199C18.5407 2.08097 18.4645 2.33949 18.4645 2.67756V11H16.978ZM24.6342 11.1541C23.8819 11.1541 23.2339 10.9934 22.6903 10.6719C22.1501 10.3471 21.7325 9.89134 21.4375 9.30469C21.1458 8.71473 21 8.02367 21 7.23153C21 6.44934 21.1458 5.75994 21.4375 5.16335C21.7325 4.56676 22.1435 4.10109 22.6705 3.76633C23.2008 3.43158 23.8205 3.2642 24.5298 3.2642C24.9607 3.2642 25.3783 3.33546 25.7827 3.47798C26.187 3.6205 26.55 3.84422 26.8714 4.14915C27.1929 4.45407 27.4465 4.85014 27.6321 5.33736C27.8177 5.82126 27.9105 6.40956 27.9105 7.10227V7.62926H21.8402V6.51562H26.4538C26.4538 6.12453 26.3743 5.77817 26.2152 5.47656C26.0561 5.17164 25.8324 4.93134 25.544 4.75568C25.259 4.58002 24.9242 4.49219 24.5398 4.49219C24.1222 4.49219 23.7576 4.59493 23.446 4.80043C23.1378 5.0026 22.8991 5.26776 22.7301 5.59588C22.5644 5.92069 22.4815 6.27367 22.4815 6.65483V7.52486C22.4815 8.03527 22.571 8.46946 22.75 8.82741C22.9323 9.18537 23.1858 9.45881 23.5107 9.64773C23.8355 9.83333 24.215 9.92614 24.6491 9.92614C24.9309 9.92614 25.1877 9.88636 25.4197 9.80682C25.6518 9.72396 25.8523 9.60133 26.0213 9.43892C26.1903 9.27652 26.3196 9.07599 26.4091 8.83736L27.8161 9.09091C27.7034 9.50521 27.5012 9.86813 27.2095 10.1797C26.9212 10.4879 26.5582 10.7282 26.1207 10.9006C25.6866 11.0696 25.1911 11.1541 24.6342 11.1541Z" fill="black"/>
</svg>
