<svg width="24" height="24" viewBox="0 0 24 24" fill="none" xmlns="http://www.w3.org/2000/svg">
<g clip-path="url(#clip0_3733_26564)">
<path fill-rule="evenodd" clip-rule="evenodd" d="M20.88 11.8608C20.88 16.7651 16.9043 20.7408 12 20.7408C7.09571 20.7408 3.12 16.7651 3.12 11.8608C3.12 6.95655 7.09571 2.98084 12 2.98084C16.9043 2.98084 20.88 6.95655 20.88 11.8608ZM22.875 11.8608C22.875 17.8669 18.0061 22.7358 12 22.7358C5.9939 22.7358 1.125 17.8669 1.125 11.8608C1.125 5.85474 5.9939 0.98584 12 0.98584C18.0061 0.98584 22.875 5.85474 22.875 11.8608ZM12.9975 5.77295C12.9975 5.22204 12.5509 4.77545 12 4.77545C11.4491 4.77545 11.0025 5.22204 11.0025 5.77295V11.5729V11.9861L11.2947 12.2783L14.1947 15.1783C14.5842 15.5678 15.2158 15.5678 15.6053 15.1783C15.9949 14.7887 15.9949 14.1572 15.6053 13.7676L12.9975 11.1598V5.77295Z" fill="black"/>
</g>
<defs>
<clipPath id="clip0_3733_26564">
<rect width="24" height="24" fill="white" transform="translate(0 0.000244141)"/>
</clipPath>
</defs>
</svg>
