<svg width="24" height="24" viewBox="0 0 24 24" fill="none" xmlns="http://www.w3.org/2000/svg"><path fill-rule="evenodd" clip-rule="evenodd" d="M2 17C2 17.8285 2.67158 18.5 3.5 18.5H4.50027V19.0002C4.50027 20.1047 5.39565 21 6.50015 21C7.60465 21 8.5 20.1047 8.5 19.0002V18.5H15.5V19C15.5 20.1045 16.3962 21 17.5008 21C18.6053 21 19.5016 20.1045 19.5016 19V18.5H20.5C21.3284 18.5 22 17.8285 22 17V12.354C22 11.2177 21.358 10.179 20.3417 9.6708L20.0016 9.50075L18.899 4.56408C18.695 3.64999 17.8837 3 16.9471 3H7.103C6.17335 3 5.3663 3.64058 5.15525 4.54597L4.00027 9.50075L3.6593 9.6711C2.64243 10.179 2 11.2182 2 12.3548V17ZM6.64224 7.05028L5.78266 10.7751C5.63806 11.4018 6.11397 12 6.75705 12H17.2429C17.886 12 18.3619 11.4018 18.2173 10.7751L17.3578 7.05028C17.1483 6.14282 16.3403 5.5 15.409 5.5H8.59103C7.65971 5.5 6.85166 6.14282 6.64224 7.05028Z" fill="#2E3238"/><path d="M4.50027 18.5H5.00027C5.00027 18.2239 4.77641 18 4.50027 18V18.5ZM8.5 18.5V18C8.22386 18 8 18.2239 8 18.5H8.5ZM15.5 18.5H16C16 18.2239 15.7761 18 15.5 18V18.5ZM19.5016 18.5V18C19.2254 18 19.0016 18.2239 19.0016 18.5H19.5016ZM20.3417 9.6708L20.5653 9.2236L20.5653 9.22357L20.3417 9.6708ZM20.0016 9.50075L19.5136 9.60973C19.5464 9.7565 19.6435 9.88073 19.778 9.94798L20.0016 9.50075ZM18.899 4.56408L18.4111 4.67304L18.4111 4.67306L18.899 4.56408ZM5.15525 4.54597L4.6683 4.43246V4.43246L5.15525 4.54597ZM4.00027 9.50075L4.22373 9.94803C4.35685 9.88153 4.45343 9.75918 4.48721 9.61426L4.00027 9.50075ZM3.6593 9.6711L3.88274 10.1184L3.88277 10.1184L3.6593 9.6711ZM5.78266 10.7751L6.26986 10.8876L5.78266 10.7751ZM6.64224 7.05028L6.15505 6.93785L6.64224 7.05028ZM18.2173 10.7751L18.7045 10.6627L18.2173 10.7751ZM17.3578 7.05028L16.8706 7.16271L17.3578 7.05028ZM3.5 18C2.94771 18 2.5 17.5523 2.5 17H1.5C1.5 18.1046 2.39544 19 3.5 19V18ZM4.50027 18H3.5V19H4.50027V18ZM5.00027 19.0002V18.5H4.00027V19.0002H5.00027ZM6.50015 20.5C5.67178 20.5 5.00027 19.8285 5.00027 19.0002H4.00027C4.00027 20.3808 5.11952 21.5 6.50015 21.5V20.5ZM8 19.0002C8 19.8285 7.32851 20.5 6.50015 20.5V21.5C7.88079 21.5 9 20.3808 9 19.0002H8ZM8 18.5V19.0002H9V18.5H8ZM15.5 18H8.5V19H15.5V18ZM16 19V18.5H15V19H16ZM17.5008 20.5C16.6721 20.5 16 19.8282 16 19H15C15 20.3809 16.1203 21.5 17.5008 21.5V20.5ZM19.0016 19C19.0016 19.8282 18.3295 20.5 17.5008 20.5V21.5C18.8812 21.5 20.0016 20.3809 20.0016 19H19.0016ZM19.0016 18.5V19H20.0016V18.5H19.0016ZM20.5 18H19.5016V19H20.5V18ZM21.5 17C21.5 17.5523 21.0523 18 20.5 18V19C21.6046 19 22.5 18.1046 22.5 17H21.5ZM21.5 12.354V17H22.5V12.354H21.5ZM20.1181 10.118C20.965 10.5415 21.5 11.4071 21.5 12.354H22.5C22.5 11.0284 21.751 9.81649 20.5653 9.2236L20.1181 10.118ZM19.778 9.94798L20.1181 10.118L20.5653 9.22357L20.2251 9.05352L19.778 9.94798ZM18.4111 4.67306L19.5136 9.60973L20.4895 9.39177L19.387 4.4551L18.4111 4.67306ZM16.9471 3.5C17.6496 3.5 18.258 3.9875 18.4111 4.67304L19.387 4.45512C19.1319 3.31248 18.1179 2.5 16.9471 2.5V3.5ZM7.103 3.5H16.9471V2.5H7.103V3.5ZM5.6422 4.65948C5.80049 3.98043 6.40578 3.5 7.103 3.5V2.5C5.94093 2.5 4.93211 3.30074 4.6683 4.43246L5.6422 4.65948ZM4.48721 9.61426L5.6422 4.65948L4.6683 4.43246L3.51332 9.38724L4.48721 9.61426ZM3.88277 10.1184L4.22373 9.94803L3.7768 9.05347L3.43583 9.22382L3.88277 10.1184ZM2.5 12.3548C2.5 11.4076 3.03537 10.5417 3.88274 10.1184L3.43586 9.2238C2.24949 9.81642 1.5 11.0287 1.5 12.3548H2.5ZM2.5 17V12.3548H1.5V17H2.5ZM6.26986 10.8876L7.12944 7.16271L6.15505 6.93785L5.29546 10.6627L6.26986 10.8876ZM6.75705 11.5C6.43551 11.5 6.19755 11.2009 6.26986 10.8876L5.29546 10.6627C5.07856 11.6026 5.79242 12.5 6.75705 12.5V11.5ZM17.2429 11.5H6.75705V12.5H17.2429V11.5ZM17.7301 10.8876C17.8024 11.2009 17.5645 11.5 17.2429 11.5V12.5C18.2076 12.5 18.9214 11.6026 18.7045 10.6627L17.7301 10.8876ZM16.8706 7.16271L17.7301 10.8876L18.7045 10.6627L17.845 6.93785L16.8706 7.16271ZM15.409 6C16.1075 6 16.7135 6.48211 16.8706 7.16271L17.845 6.93785C17.5832 5.80352 16.5731 5 15.409 5V6ZM8.59103 6H15.409V5H8.59103V6ZM7.12944 7.16271C7.2865 6.48211 7.89254 6 8.59103 6V5C7.42689 5 6.41682 5.80352 6.15505 6.93785L7.12944 7.16271Z" fill="#2E3238"/></svg>