<svg width="24" height="24" viewBox="0 0 24 24" fill="none" xmlns="http://www.w3.org/2000/svg">
<path fill-rule="evenodd" clip-rule="evenodd" d="M6.21913 2.37528C6.56414 1.94402 7.19343 1.8741 7.6247 2.21911L12 5.71935L16.3753 2.21911C16.8066 1.8741 17.4359 1.94402 17.7809 2.37528C18.1259 2.80654 18.056 3.43584 17.6247 3.78084L14.8508 5.99998L17.2413 5.99998C18.0463 5.99996 18.7106 5.99995 19.2518 6.04417C19.8139 6.09009 20.3306 6.18866 20.816 6.43595C21.5686 6.81944 22.1805 7.43137 22.564 8.18401C22.8113 8.66935 22.9099 9.18605 22.9558 9.74815C23 10.2893 23 10.9537 23 11.7587V16.2413C23 17.0463 23 17.7106 22.9558 18.2518C22.9099 18.8139 22.8113 19.3306 22.564 19.8159C22.1805 20.5686 21.5686 21.1805 20.816 21.564C20.3306 21.8113 19.8139 21.9099 19.2518 21.9558C18.7106 22 18.0463 22 17.2413 22H6.75868C5.95372 22 5.28936 22 4.74817 21.9558C4.18608 21.9099 3.66937 21.8113 3.18404 21.564C2.43139 21.1805 1.81947 20.5686 1.43597 19.8159C1.18868 19.3306 1.09012 18.8139 1.04419 18.2518C0.999977 17.7106 0.999988 17.0462 1 16.2413V11.7587C0.999988 10.9537 0.999977 10.2893 1.04419 9.74815C1.09012 9.18605 1.18868 8.66935 1.43597 8.18401C1.81947 7.43137 2.43139 6.81944 3.18404 6.43595C3.66937 6.18866 4.18608 6.09009 4.74817 6.04417C5.28937 5.99995 5.95373 5.99996 6.7587 5.99998L9.14922 5.99998L6.37531 3.78084C5.94404 3.43584 5.87412 2.80654 6.21913 2.37528ZM11.9995 7.99998H6.8C5.94342 7.99998 5.36113 8.00075 4.91104 8.03753C4.47262 8.07335 4.24842 8.13827 4.09202 8.21796C3.7157 8.40971 3.40973 8.71567 3.21799 9.09199C3.1383 9.24839 3.07337 9.4726 3.03755 9.91101C3.00078 10.3611 3 10.9434 3 11.8V16.2C3 17.0566 3.00078 17.6388 3.03755 18.0889C3.07337 18.5274 3.1383 18.7516 3.21799 18.908C3.40973 19.2843 3.7157 19.5902 4.09202 19.782C4.24842 19.8617 4.47262 19.9266 4.91104 19.9624C5.36113 19.9992 5.94342 20 6.8 20H17.2C18.0566 20 18.6389 19.9992 19.089 19.9624C19.5274 19.9266 19.7516 19.8617 19.908 19.782C20.2843 19.5902 20.5903 19.2843 20.782 18.908C20.8617 18.7516 20.9266 18.5274 20.9624 18.0889C20.9992 17.6388 21 17.0566 21 16.2V11.8C21 10.9434 20.9992 10.3611 20.9624 9.91101C20.9266 9.4726 20.8617 9.24839 20.782 9.09199C20.5903 8.71567 20.2843 8.40971 19.908 8.21796C19.7516 8.13827 19.5274 8.07335 19.089 8.03753C18.6389 8.00075 18.0566 7.99998 17.2 7.99998H11.9995C11.9992 7.99998 11.9998 7.99998 11.9995 7.99998Z" fill="black"/>
</svg>
