<svg width="24" height="24" viewBox="0 0 24 24" fill="none" xmlns="http://www.w3.org/2000/svg">
<path fill-rule="evenodd" clip-rule="evenodd" d="M1.09082 12.0003C1.09082 5.97547 5.97511 1.09119 11.9999 1.09119C18.0247 1.09119 22.909 5.97547 22.909 12.0003C22.909 18.0251 18.0247 22.9094 11.9999 22.9094C5.97511 22.9094 1.09082 18.0251 1.09082 12.0003ZM11.9999 2.90937C6.97926 2.90937 2.909 6.97963 2.909 12.0003C2.909 17.0209 6.97926 21.0912 11.9999 21.0912C17.0206 21.0912 21.0908 17.0209 21.0908 12.0003C21.0908 6.97963 17.0206 2.90937 11.9999 2.90937ZM11.0908 9.64956L8.09728 12.6431C7.74226 12.9981 7.16665 12.9981 6.81163 12.6431C6.45661 12.2881 6.45661 11.7125 6.81163 11.3575L11.1 7.06913C11.597 6.5721 12.4028 6.5721 12.8999 7.06913L17.1882 11.3575C17.5432 11.7125 17.5432 12.2881 17.1882 12.6431C16.8332 12.9981 16.2576 12.9981 15.9025 12.6431L12.909 9.64956V17.4548C12.909 17.9569 12.502 18.3639 11.9999 18.3639C11.4978 18.3639 11.0908 17.9569 11.0908 17.4548V9.64956Z" fill="black"/>
</svg>
