<svg width="24" height="24" viewBox="0 0 24 24" fill="none" xmlns="http://www.w3.org/2000/svg">
<path fill-rule="evenodd" clip-rule="evenodd" d="M12.0001 4C10.0671 4 8.5001 5.567 8.5001 7.5C8.5001 9.433 10.0671 11 12.0001 11C13.9331 11 15.5001 9.433 15.5001 7.5C15.5001 5.567 13.9331 4 12.0001 4ZM6.5001 7.5C6.5001 4.46243 8.96253 2 12.0001 2C15.0377 2 17.5001 4.46243 17.5001 7.5C17.5001 10.5376 15.0377 13 12.0001 13C8.96253 13 6.5001 10.5376 6.5001 7.5ZM12.0001 16C9.16106 16 6.63058 17.3693 5.01394 19.5088C4.91504 19.6397 4.83935 19.74 4.7764 19.8281C4.7286 19.895 4.69598 19.9442 4.67327 19.9814C4.82189 19.9984 5.03366 20 5.42733 20H18.5729C18.9665 20 19.1783 19.9984 19.3269 19.9814C19.3042 19.9442 19.2716 19.895 19.2238 19.8281C19.1608 19.74 19.0852 19.6397 18.9863 19.5088C17.3696 17.3693 14.8391 16 12.0001 16ZM3.41824 18.3031C5.3912 15.692 8.49897 14 12.0001 14C15.5012 14 18.609 15.692 20.582 18.3031C20.5909 18.3149 20.5998 18.3268 20.6088 18.3387C20.7785 18.563 20.9604 18.8035 21.0903 19.0356C21.2477 19.3165 21.3643 19.6414 21.3571 20.0366C21.3512 20.3542 21.255 20.6516 21.1381 20.8864C21.0212 21.1212 20.842 21.3772 20.5921 21.5734C20.2588 21.835 19.8958 21.9276 19.5735 21.9662C19.2906 22.0001 18.9554 22.0001 18.6184 22C18.6032 22 18.5881 22 18.5729 22H5.42733C5.41214 22 5.39695 22 5.38176 22C5.04476 22.0001 4.70958 22.0001 4.42674 21.9662C4.10435 21.9276 3.74144 21.835 3.40812 21.5734C3.15817 21.3772 2.97895 21.1212 2.86207 20.8864C2.7452 20.6516 2.64895 20.3542 2.64314 20.0366C2.63591 19.6414 2.75252 19.3165 2.90986 19.0356C3.03984 18.8035 3.22173 18.563 3.39137 18.3387C3.40036 18.3268 3.40932 18.3149 3.41824 18.3031Z" fill="black"/>
</svg>
