<svg width="24" height="24" viewBox="0 0 24 24" fill="none" xmlns="http://www.w3.org/2000/svg">
<path fill-rule="evenodd" clip-rule="evenodd" d="M9.71267 1.23873C10.4504 1.08238 11.2169 1 12 1C12.7831 1 13.5496 1.08238 14.2873 1.23873C14.8276 1.35324 15.1728 1.88405 15.0583 2.42433C14.9438 2.96462 14.4129 3.30978 13.8727 3.19527C13.5871 3.13475 13.2959 3.08772 13 3.05499V6.08389C13.8919 6.23466 14.7387 6.58536 15.476 7.10942L17.6171 4.96714C17.3872 4.78323 17.1481 4.61029 16.9004 4.44905C16.4376 4.14773 16.3066 3.52825 16.6079 3.06541C16.9093 2.60257 17.5287 2.47163 17.9916 2.77295C19.2837 3.61412 20.3855 4.71632 21.2262 6.0087C21.5274 6.47164 21.3963 7.09107 20.9333 7.39224C20.4704 7.6934 19.8509 7.56225 19.5498 7.0993C19.3884 6.85123 19.2153 6.61171 19.0311 6.3815L16.8903 8.52357C17.4145 9.26101 17.7653 10.1079 17.9161 11H20.945C20.9123 10.7041 20.8653 10.4129 20.8047 10.1273C20.6902 9.58705 21.0354 9.05624 21.5757 8.94173C22.1159 8.82722 22.6468 9.17238 22.7613 9.71267C22.9176 10.4504 23 11.2169 23 12C23 12.7833 22.9176 13.5482 22.7626 14.2856C22.6491 14.8261 22.1188 15.1722 21.5784 15.0586C21.0379 14.9451 20.6918 14.4148 20.8054 13.8744C20.8656 13.5877 20.9125 13.296 20.9451 13H17.9161C17.7653 13.892 17.4146 14.7388 16.8904 15.4762L19.0312 17.617C19.2142 17.388 19.3864 17.1499 19.547 16.9033C19.8484 16.4405 20.4679 16.3096 20.9307 16.611C21.3935 16.9124 21.5244 17.5319 21.223 17.9947C20.816 18.6196 20.348 19.2 19.8269 19.7279C19.8117 19.7454 19.7958 19.7625 19.7791 19.7791C19.7625 19.7957 19.7455 19.8116 19.7281 19.8267C19.1987 20.3496 18.6165 20.8191 17.9894 21.2272C17.5265 21.5284 16.9071 21.3973 16.6058 20.9344C16.3046 20.4715 16.4357 19.8521 16.8986 19.5508C17.1469 19.3892 17.3867 19.2158 17.6172 19.0314L15.4762 16.8904C14.7388 17.4146 13.892 17.7653 13 17.9161V20.9449C13.2949 20.9123 13.5855 20.8655 13.8711 20.8054C14.4115 20.6917 14.9418 21.0376 15.0556 21.5781C15.1693 22.1185 14.8234 22.6488 14.2829 22.7626C13.5464 22.9176 12.7824 23 12 23C11.2148 23 10.4482 22.9176 9.70716 22.7602C9.16693 22.6454 8.82205 22.1144 8.93684 21.5742C9.05163 21.0339 9.58262 20.689 10.1228 20.8038C10.4104 20.8649 10.7029 20.9123 11 20.9451V17.9161C10.1073 17.7652 9.25991 17.414 8.52214 16.8893L6.38125 19.0308C6.61123 19.2146 6.8505 19.3876 7.0983 19.5488C7.56124 19.8499 7.6924 20.4693 7.39124 20.9323C7.09009 21.3952 6.47065 21.5264 6.0077 21.2252C4.71714 20.3857 3.61617 19.2859 2.77531 17.9962C2.47368 17.5335 2.60421 16.9139 3.06685 16.6123C3.52949 16.3107 4.14906 16.4412 4.45069 16.9039C4.61133 17.1502 4.78356 17.3882 4.96666 17.6169L7.10841 15.4746C6.58491 14.7376 6.23456 13.8914 6.08389 13H3.05499C3.08772 13.2959 3.13475 13.5871 3.19527 13.8727C3.30978 14.4129 2.96462 14.9438 2.42433 15.0583C1.88405 15.1728 1.35324 14.8276 1.23873 14.2873C1.08238 13.5496 1 12.7831 1 12C1 11.2158 1.08239 10.4495 1.2386 9.71026C1.35279 9.1699 1.88339 8.82442 2.42374 8.9386C2.9641 9.05279 3.30958 9.58339 3.19539 10.1237C3.13472 10.4109 3.08761 10.7032 3.05486 11H6.08389C6.23468 10.108 6.58543 9.26117 7.10957 8.52379L4.96869 6.3829C4.78501 6.61268 4.61229 6.85172 4.45126 7.09927C4.15012 7.56223 3.53069 7.6934 3.06773 7.39226C2.60477 7.09112 2.4736 6.47169 2.77474 6.00873C3.61498 4.71701 4.71601 3.61523 6.00716 2.77411C6.46991 2.47265 7.08943 2.60341 7.39089 3.06616C7.69235 3.52891 7.56159 4.14843 7.09884 4.44989C6.85123 4.61119 6.61217 4.7842 6.38238 4.96816L8.52379 7.10957C9.26117 6.58543 10.108 6.23468 11 6.08389V3.05499C10.7041 3.08772 10.4129 3.13475 10.1273 3.19527C9.58705 3.30978 9.05624 2.96462 8.94173 2.42433C8.82722 1.88405 9.17238 1.35324 9.71267 1.23873ZM9.1763 14.8331C9.17421 14.831 9.17212 14.8289 9.17001 14.8268C9.16806 14.8248 9.16611 14.8229 9.16415 14.821C8.41865 14.0716 8 13.0574 8 12C8 10.9391 8.42143 9.92172 9.17157 9.17157C9.92172 8.42143 10.9391 8 12 8C13.0609 8 14.0783 8.42143 14.8284 9.17157C15.5786 9.92172 16 10.9391 16 12C16 13.0609 15.5786 14.0783 14.8284 14.8284C14.0783 15.5786 13.0609 16 12 16C10.9414 16 9.92599 15.5803 9.1763 14.8331Z" fill="black"/>
</svg>
