<svg width="24" height="24" viewBox="0 0 24 24" fill="none" xmlns="http://www.w3.org/2000/svg">
<path fill-rule="evenodd" clip-rule="evenodd" d="M8.46437 3.5C8.2145 3.5 7.97115 3.6009 7.78886 3.78649C7.60598 3.9727 7.50009 4.22903 7.50009 4.5C7.50009 4.77097 7.60598 5.0273 7.78886 5.21351C7.97094 5.39889 8.21396 5.49977 8.46353 5.5C8.46381 5.5 8.46325 5.5 8.46353 5.5L10.6343 5.5C10.5619 5.32865 10.4787 5.15116 10.3836 4.97527C9.89777 4.07581 9.27406 3.5 8.46437 3.5ZM13.3658 5.5L15.5358 5.5C15.5359 5.5 15.5357 5.5 15.5358 5.5C15.7855 5.49989 16.0291 5.399 16.2113 5.21351C16.3942 5.0273 16.5001 4.77097 16.5001 4.5C16.5001 4.22903 16.3942 3.9727 16.2113 3.78649C16.029 3.6009 15.7857 3.5 15.5358 3.5C14.7261 3.5 14.1024 4.07581 13.6165 4.97527C13.5215 5.15116 13.4382 5.32865 13.3658 5.5ZM15.5358 7.5C15.5356 7.5 15.5361 7.5 15.5358 7.5H8.46437C8.46387 7.5 8.46338 7.5 8.46288 7.5H6.12126C5.74265 7.5 5.52515 7.50094 5.36969 7.51479C5.36205 7.51548 5.35488 7.51617 5.34818 7.51686C5.34935 7.5235 5.35065 7.53059 5.3521 7.53812C5.38148 7.6914 5.44033 7.90079 5.54434 8.26483L5.75439 9L18.2458 9L18.4558 8.26483C18.5598 7.90079 18.6187 7.6914 18.6481 7.53812C18.6495 7.53059 18.6508 7.5235 18.652 7.51686C18.6453 7.51617 18.6381 7.51548 18.6305 7.51479C18.475 7.50094 18.2575 7.5 17.8789 7.5H15.5358ZM18.4339 11L5.56628 11L3.99343 13.6214C3.54832 14.3633 3.42521 14.5836 3.36134 14.8042C3.29725 15.0256 3.27192 15.2564 3.28645 15.4864C3.30093 15.7157 3.37333 15.9574 3.6469 16.7782L3.85474 17.4017C4.27513 18.6628 4.41436 19.0274 4.62814 19.283C4.84293 19.5399 5.11876 19.7387 5.43035 19.8612C5.74047 19.9832 6.13034 20 7.45973 20L16.5404 20C17.8698 20 18.2597 19.9832 18.5698 19.8612C18.8814 19.7387 19.1572 19.5399 19.372 19.283C19.5858 19.0274 19.725 18.6628 20.1454 17.4017L20.3533 16.7782C20.6268 15.9574 20.6992 15.7157 20.7137 15.4864C20.7283 15.2564 20.7029 15.0256 20.6388 14.8042C20.575 14.5836 20.4519 14.3633 20.0067 13.6214L18.4339 11ZM3.91937 9.85754L3.62129 8.81428C3.61784 8.80219 3.61439 8.79013 3.61095 8.7781C3.52095 8.46318 3.43612 8.1664 3.38786 7.91464C3.33653 7.64687 3.30043 7.31128 3.40175 6.95416C3.53788 6.4743 3.8484 6.06263 4.27239 5.79991C4.58794 5.60439 4.92053 5.5469 5.19211 5.52269C5.33651 5.50982 5.49797 5.50424 5.67025 5.50182C5.55852 5.18262 5.50009 4.84404 5.50009 4.5C5.50009 3.71011 5.8081 2.94902 6.36197 2.38508C6.91643 1.82053 7.67232 1.5 8.46437 1.5C10.2591 1.5 11.3726 2.71845 12.0001 3.77223C12.6276 2.71845 13.7411 1.5 15.5358 1.5C16.3279 1.5 17.0837 1.82053 17.6382 2.38508C18.1921 2.94902 18.5001 3.71011 18.5001 4.5C18.5001 4.84404 18.4417 5.18262 18.3299 5.50183C18.5022 5.50424 18.6637 5.50982 18.8081 5.52269C19.0796 5.5469 19.4122 5.60439 19.7278 5.79991C20.1518 6.06263 20.4623 6.4743 20.5984 6.95416C20.6997 7.31128 20.6636 7.64687 20.6123 7.91464C20.5641 8.1664 20.4792 8.46316 20.3892 8.77806L20.0808 9.85755L21.7217 12.5924C21.7414 12.6252 21.7608 12.6576 21.78 12.6895C22.1415 13.2913 22.4146 13.7458 22.56 14.2481C22.6881 14.6909 22.7388 15.1525 22.7097 15.6125C22.6768 16.1344 22.5088 16.6373 22.2865 17.3033C22.2747 17.3386 22.2627 17.3744 22.2506 17.4106L22.0428 18.0341C22.0238 18.0912 22.0051 18.1475 21.9866 18.2031C21.6493 19.2176 21.3954 19.9811 20.9063 20.566C20.4767 21.0797 19.925 21.4774 19.3018 21.7225C18.5923 22.0015 17.7876 22.0009 16.7185 22.0001C16.66 22 16.6006 22 16.5404 22L7.45973 22C7.39956 22 7.3402 22 7.28164 22.0001C6.21255 22.0009 5.40791 22.0015 4.69834 21.7224C4.07516 21.4774 3.52349 21.0797 3.09391 20.566C2.60477 19.9811 2.3509 19.2176 2.0136 18.2031C1.99512 18.1475 1.9764 18.0912 1.95737 18.0341L1.74954 17.4106C1.73745 17.3744 1.7255 17.3386 1.7137 17.3032C1.49135 16.6373 1.3234 16.1344 1.29043 15.6125C1.26136 15.1525 1.31204 14.6909 1.44021 14.2481C1.5856 13.7458 1.85865 13.2913 2.22017 12.6895C2.23934 12.6576 2.25877 12.6252 2.27844 12.5924L3.91937 9.85754Z" fill="black"/>
</svg>
